<?xml version="1.0" encoding="UTF-8" standalone="no"?>
<!-- Created with Inkscape (http://www.inkscape.org/) -->

<svg
   xmlns:dc="http://purl.org/dc/elements/1.1/"
   xmlns:cc="http://creativecommons.org/ns#"
   xmlns:rdf="http://www.w3.org/1999/02/22-rdf-syntax-ns#"
   xmlns:svg="http://www.w3.org/2000/svg"
   xmlns="http://www.w3.org/2000/svg"
   xmlns:xlink="http://www.w3.org/1999/xlink"
   xmlns:sodipodi="http://sodipodi.sourceforge.net/DTD/sodipodi-0.dtd"
   xmlns:inkscape="http://www.inkscape.org/namespaces/inkscape"
   version="1.1"
   width="314.28934"
   height="68.171989"
   id="svg3860"
   style="display:inline"
   sodipodi:docname="osmocomSDR.svg"
   inkscape:export-filename="osmocomSDR.png"
   inkscape:export-xdpi="352.04999"
   inkscape:export-ydpi="352.04999"
   inkscape:version="0.92.0 r">
  <sodipodi:namedview
     pagecolor="#ffffff"
     bordercolor="#666666"
     borderopacity="1"
     objecttolerance="10"
     gridtolerance="10"
     guidetolerance="10"
     inkscape:pageopacity="0"
     inkscape:pageshadow="2"
     inkscape:window-width="1916"
     inkscape:window-height="1041"
     id="namedview207"
     showgrid="false"
     fit-margin-top="5"
     fit-margin-left="5"
     fit-margin-right="5"
     fit-margin-bottom="5"
     inkscape:zoom="1.1804409"
     inkscape:cx="117.32904"
     inkscape:cy="193.39836"
     inkscape:window-x="1920"
     inkscape:window-y="37"
     inkscape:window-maximized="0"
     inkscape:current-layer="layer5" />
  <title
     id="title3887">osmocom logos</title>
  <defs
     id="defs3862">
    <linearGradient
       id="linearGradient3374-5-7-7-0">
      <stop
         id="stop3376-8-6-4-2"
         style="stop-color:#729fcf;stop-opacity:1"
         offset="0" />
      <stop
         id="stop3378-6-7-4-9"
         style="stop-color:#729fcf;stop-opacity:0"
         offset="1" />
    </linearGradient>
    <linearGradient
       id="linearGradient3362-8-6-0-9">
      <stop
         id="stop3364-4-5-78-9"
         style="stop-color:#3465a4;stop-opacity:1"
         offset="0" />
      <stop
         id="stop3366-7-6-6-4"
         style="stop-color:#3465a4;stop-opacity:0"
         offset="1" />
    </linearGradient>
    <linearGradient
       x1="24.837126"
       y1="44.528019"
       x2="21.036427"
       y2="21.041553"
       id="linearGradient3991-3-88-5"
       xlink:href="#linearGradient7101-4-9-4-1"
       gradientUnits="userSpaceOnUse" />
    <linearGradient
       id="linearGradient7101-4-9-4-1">
      <stop
         id="stop7103-0-4-31-0"
         style="stop-color:#babdb6;stop-opacity:1"
         offset="0" />
      <stop
         id="stop7105-6-8-4-3"
         style="stop-color:#ffffff;stop-opacity:1"
         offset="1" />
    </linearGradient>
    <linearGradient
       x1="39.06765"
       y1="28.5"
       x2="39.421204"
       y2="10.934953"
       id="linearGradient3993-1-9-7"
       xlink:href="#linearGradient6979-9-2-2-8"
       gradientUnits="userSpaceOnUse" />
    <linearGradient
       id="linearGradient6979-9-2-2-8">
      <stop
         id="stop6981-9-9-0-8"
         style="stop-color:#888a85;stop-opacity:1"
         offset="0" />
      <stop
         id="stop6983-0-3-6-6"
         style="stop-color:#555753;stop-opacity:1"
         offset="1" />
    </linearGradient>
    <radialGradient
       cx="10.28125"
       cy="7.8249326"
       r="4.5250292"
       fx="10.28125"
       fy="7.8249326"
       id="radialGradient3995-7-4-0"
       xlink:href="#linearGradient3374-5-7-7-0"
       gradientUnits="userSpaceOnUse"
       gradientTransform="matrix(2.2651111,0,0,2.2923498,16.215361,52.593597)" />
    <radialGradient
       cx="10.28125"
       cy="9.8424416"
       r="4.5250292"
       fx="10.28125"
       fy="9.8424416"
       id="radialGradient3997-3-3-4"
       xlink:href="#linearGradient3362-8-6-0-9"
       gradientUnits="userSpaceOnUse"
       gradientTransform="matrix(15.1803,0,0,5.0647752,-116.56897,28.614297)" />
    <radialGradient
       cx="8.9057236"
       cy="1.7286602"
       r="1.9952321"
       fx="8.9057236"
       fy="1.7286602"
       id="radialGradient3999-1-4-6"
       xlink:href="#linearGradient7131-6-1-5-7"
       gradientUnits="userSpaceOnUse"
       gradientTransform="matrix(0.7375073,0,0,0.7201806,2.4345312,0.6617371)" />
    <linearGradient
       id="linearGradient7131-6-1-5-7">
      <stop
         id="stop7133-4-5-2-6"
         style="stop-color:#ffffff;stop-opacity:1"
         offset="0" />
      <stop
         id="stop7135-6-9-5-0"
         style="stop-color:#d3d7cf;stop-opacity:1"
         offset="1" />
    </linearGradient>
    <radialGradient
       cx="8.3046875"
       cy="1.1256332"
       r="2.0507698"
       fx="8.3046875"
       fy="1.1256332"
       id="radialGradient4001-9-6-9"
       xlink:href="#linearGradient7153-0-1-9-75"
       gradientUnits="userSpaceOnUse"
       gradientTransform="matrix(5.2943491,0,0,5.2881329,-7.02204,58.291497)" />
    <linearGradient
       id="linearGradient7153-0-1-9-75">
      <stop
         id="stop7155-8-7-3-9"
         style="stop-color:#ffffff;stop-opacity:1"
         offset="0" />
      <stop
         id="stop7157-5-7-7-7"
         style="stop-color:#ffffff;stop-opacity:0"
         offset="1" />
    </linearGradient>
    <radialGradient
       cx="10.28125"
       cy="8.0709476"
       r="4.5250292"
       fx="10.28125"
       fy="8.0709476"
       id="radialGradient3637"
       xlink:href="#linearGradient3374-5-7-7-0"
       gradientUnits="userSpaceOnUse"
       gradientTransform="matrix(4.9499444,0,0,4.9510321,-11.38809,35.312197)" />
    <radialGradient
       cx="10.28125"
       cy="9.8424416"
       r="4.5250292"
       fx="10.28125"
       fy="9.8424416"
       id="radialGradient3639"
       xlink:href="#linearGradient3362-8-6-0-9"
       gradientUnits="userSpaceOnUse"
       gradientTransform="matrix(23.169932,0,0,7.6402677,-198.71238,8.843597)" />
    <radialGradient
       r="4.5250292"
       fy="8.0709476"
       fx="10.28125"
       cy="8.0709476"
       cx="10.28125"
       gradientTransform="matrix(4.9499444,0,0,4.9510321,-11.38809,35.312197)"
       gradientUnits="userSpaceOnUse"
       id="radialGradient3637-3"
       xlink:href="#linearGradient3374-5-7-7-0"
       inkscape:collect="always" />
    <radialGradient
       r="4.5250292"
       fy="9.8424416"
       fx="10.28125"
       cy="9.8424416"
       cx="10.28125"
       gradientTransform="matrix(23.169932,0,0,7.6402677,-198.71238,8.843597)"
       gradientUnits="userSpaceOnUse"
       id="radialGradient3639-5"
       xlink:href="#linearGradient3362-8-6-0-9"
       inkscape:collect="always" />
    <radialGradient
       cx="10.28125"
       cy="7.8249326"
       r="4.5250292"
       fx="10.28125"
       fy="7.8249326"
       id="radialGradient3995-7-4-0-2"
       xlink:href="#linearGradient3374-5-7-7-0"
       gradientUnits="userSpaceOnUse"
       gradientTransform="matrix(2.2651111,0,0,2.2923498,16.215361,52.593597)" />
    <radialGradient
       cx="10.28125"
       cy="9.8424416"
       r="4.5250292"
       fx="10.28125"
       fy="9.8424416"
       id="radialGradient3997-3-3-4-7"
       xlink:href="#linearGradient3362-8-6-0-9"
       gradientUnits="userSpaceOnUse"
       gradientTransform="matrix(15.1803,0,0,5.0647752,-116.56897,28.614297)" />
    <radialGradient
       cx="8.9057236"
       cy="1.7286602"
       r="1.9952321"
       fx="8.9057236"
       fy="1.7286602"
       id="radialGradient3999-1-4-6-0"
       xlink:href="#linearGradient7131-6-1-5-7"
       gradientUnits="userSpaceOnUse"
       gradientTransform="matrix(0.7375073,0,0,0.7201806,2.4345312,0.6617371)" />
    <radialGradient
       cx="8.3046875"
       cy="1.1256332"
       r="2.0507698"
       fx="8.3046875"
       fy="1.1256332"
       id="radialGradient4001-9-6-9-6"
       xlink:href="#linearGradient7153-0-1-9-75"
       gradientUnits="userSpaceOnUse"
       gradientTransform="matrix(5.2943491,0,0,5.2881329,-7.02204,58.291497)" />
  </defs>
  <metadata
     id="metadata3865">
    <rdf:RDF>
      <cc:Work
         rdf:about="">
        <dc:format>image/svg+xml</dc:format>
        <dc:type
           rdf:resource="http://purl.org/dc/dcmitype/StillImage" />
        <dc:title>osmocom logos</dc:title>
        <dc:date>2011-01-23</dc:date>
        <dc:creator>
          <cc:Agent>
            <dc:title>Steve Markgraf &lt;steve@steve-m.de&gt;, Kevin Redon &lt;kevredon@mail.tsaitgaist.info&gt;</dc:title>
          </cc:Agent>
        </dc:creator>
        <dc:contributor>
          <cc:Agent>
            <dc:title>font : Yanone Kaffeesatz by Yanone (http://www.yanone.de/typedesign/kaffeesatz/)
icon : derivated work from gnome icon theme (http://svn.gnome.org/viewvc/gnome-icon-theme/trunk/) by Ulisse Perusin &lt;uli.peru@gmail.com&gt;, Riccardo Buzzotta &lt;raozuzu@yahoo.it&gt;, Josef Vybíral &lt;cornelius@vybiral.info&gt;, Hylke Bons &lt;h.bons@student.rug.nl&gt;, Ricardo González &lt;rick@jinlabs.com&gt;, Lapo Calamandrei &lt;calamandrei@gmail.com&gt;, Rodney Dawes &lt;dobey@novell.com&gt;, Luca Ferretti &lt;elle.uca@libero.it&gt;, Tuomas Kuosmanen &lt;tigert@gimp.org&gt;, Andreas Nilsson &lt;nisses.mail@home.se&gt;, Jakub Steiner &lt;jimmac@novell.com&gt; (http://svn.gnome.org/viewvc/gnome-icon-theme/trunk/AUTHORS?view=markup)</dc:title>
          </cc:Agent>
        </dc:contributor>
        <dc:description>logos for osmocom project initiated by Harald Welte (http://www.osmocom.org/trac/).
created on the mailing list : http://lists.osmocom.org/pipermail/openbsc/2010-August/001982.html</dc:description>
        <cc:license
           rdf:resource="GNU GPL v3" />
      </cc:Work>
    </rdf:RDF>
  </metadata>
  <g
     inkscape:groupmode="layer"
     id="layer1"
     inkscape:label="picture">
    <g
       style="display:inline"
       id="g3732"
       transform="translate(-12.580824,-40.81844)">
      <path
         inkscape:connector-curvature="0"
         d="m 60.69548,67.493897 c 0,11.5675 -9.48796,20.9448 -21.19195,20.9448 -11.703989,0 -21.191949,-9.3773 -21.191949,-20.9448 0,-11.5674 9.48796,-20.9447 21.191949,-20.9447 11.70399,0 21.19195,9.3773 21.19195,20.9447 z"
         id="path3544"
         style="font-style:normal;font-variant:normal;font-weight:normal;font-stretch:normal;font-size:40px;font-family:'Yanone Kaffeesatz';-inkscape-font-specification:'Yanone Kaffeesatz';display:inline;opacity:0.8;fill:url(#radialGradient3637-3);fill-opacity:1;stroke:url(#radialGradient3639-5);stroke-width:1.46151388;stroke-linecap:round;stroke-linejoin:round;stroke-miterlimit:4;stroke-dashoffset:0;stroke-opacity:1" />
      <g
         transform="matrix(1.4615138,0,0,2.5218672,4.4272,31.547917)"
         id="g3546"
         style="font-style:normal;font-variant:normal;font-weight:normal;font-stretch:normal;font-size:40px;font-family:'Yanone Kaffeesatz';-inkscape-font-specification:'Yanone Kaffeesatz';display:inline;fill:#000000;fill-opacity:1;stroke:none">
        <path
           inkscape:connector-curvature="0"
           d="m 24,13 -8.1875,15.225744 c 11.445471,0 5.976697,0 16.34375,0 z m 0,4.96875 4,7.421875 h -7.953125 z"
           id="path3548"
           style="fill:url(#linearGradient3991-3-88-5);fill-opacity:1;fill-rule:evenodd;stroke:url(#linearGradient3993-1-9-7);stroke-width:1px;stroke-linecap:butt;stroke-linejoin:miter;stroke-opacity:1" />
        <path
           inkscape:connector-curvature="0"
           d="M 26.355979,42.522608 20,21.277828 13.644021,42.522609"
           transform="matrix(1,0,0,0.57953638,4,2.7937247)"
           id="path3550"
           style="fill:none;stroke:#ffffff;stroke-width:1.31358945px;stroke-linecap:round;stroke-linejoin:miter;stroke-opacity:1" />
      </g>
      <path
         inkscape:connector-curvature="0"
         d="m 53.38791,67.493897 c 0,7.6681 -6.21625,13.8844 -13.88438,13.8844 -7.66813,0 -13.884379,-6.2163 -13.884379,-13.8844 0,-7.6681 6.216249,-13.8844 13.884379,-13.8844 7.66813,0 13.88438,6.2163 13.88438,13.8844 z"
         id="path3552"
         style="font-style:normal;font-variant:normal;font-weight:normal;font-stretch:normal;font-size:40px;font-family:'Yanone Kaffeesatz';-inkscape-font-specification:'Yanone Kaffeesatz';display:inline;fill:url(#radialGradient3995-7-4-0-2);fill-opacity:1;stroke:url(#radialGradient3997-3-3-4-7);stroke-width:1.46151388;stroke-linecap:round;stroke-linejoin:round;stroke-miterlimit:4;stroke-dashoffset:0;stroke-opacity:1" />
      <g
         transform="matrix(3.2735609,0,0,3.2593101,-24.33091,59.292917)"
         id="g3554"
         style="font-style:normal;font-variant:normal;font-weight:normal;font-stretch:normal;font-size:40px;font-family:'Yanone Kaffeesatz';-inkscape-font-specification:'Yanone Kaffeesatz';display:inline;fill:#000000;fill-opacity:1;stroke:none">
        <path
           inkscape:connector-curvature="0"
           d="M 11,2.25 C 11,3.2164983 10.195512,4 9.203125,4 8.2107383,4 7.40625,3.2164983 7.40625,2.25 7.40625,1.2835017 8.2107383,0.5 9.203125,0.5 10.195512,0.5 11,1.2835017 11,2.25 Z"
           transform="matrix(1.1130433,0,0,1.1428572,9.2565233,-0.07142864)"
           id="path3556"
           style="fill:url(#radialGradient3999-1-4-6-0);fill-opacity:1;stroke:#555753;stroke-width:0.39671427;stroke-linecap:round;stroke-linejoin:round;stroke-miterlimit:4;stroke-dashoffset:0;stroke-opacity:1" />
        <path
           inkscape:connector-curvature="0"
           d="M 20,1.5 C 20,1.7761424 19.776142,2 19.5,2 19.223858,2 19,1.7761424 19,1.5 19,1.2238576 19.223858,1 19.5,1 19.776142,1 20,1.2238576 20,1.5 Z"
           transform="matrix(1.8125,0,0,1.8125,-16.465404,-0.9288198)"
           id="path3558"
           style="fill:#ffffff;fill-opacity:1;stroke:none" />
      </g>
      <path
         inkscape:connector-curvature="0"
         d="m 44.61882,67.441097 c 0,2.8124 -2.2902,5.0924 -5.1153,5.0924 -2.8251,0 -5.1153,-2.28 -5.1153,-5.0924 0,-2.8125 2.2902,-5.0924 5.1153,-5.0924 2.8251,0 5.1153,2.2799 5.1153,5.0924 z"
         id="path3560"
         style="font-style:normal;font-variant:normal;font-weight:normal;font-stretch:normal;font-size:40px;font-family:'Yanone Kaffeesatz';-inkscape-font-specification:'Yanone Kaffeesatz';display:inline;fill:none;stroke:url(#radialGradient4001-9-6-9-6);stroke-width:1.46151364;stroke-linecap:round;stroke-linejoin:round;stroke-miterlimit:4;stroke-dashoffset:0;stroke-opacity:1" />
    </g>
  </g>
  <g
     inkscape:groupmode="layer"
     id="layer2"
     inkscape:label="m">
    <path
       inkscape:connector-curvature="0"
       style="display:inline;font-style:normal;font-variant:normal;font-weight:normal;font-stretch:normal;font-size:64px;font-family:'Yanone Kaffeesatz';-inkscape-font-specification:'Andale Mono';writing-mode:lr-tb;fill:#a00000;fill-opacity:1;stroke:#a00000;stroke-opacity:1"
       d="m 111.02539,28.56054 -4.33398,7.45899 -1.98243,-3.41211 0.5879,26.875 c 1.89839,-1.32591 2.59645,0.72087 2.625,-0.30274 l 0.69531,-24.91015 c 1.472,-0.768 2.94356,-1.08789 4.35156,-1.08789 2.56,0 3.57662,0.89521 3.64063,3.19921 l 0.2832,23.03321 c 1.7756,-0.50511 3.37935,0.38782 3.38672,-0.17188 l 0.3164,-23.96093 c 1.408,-0.896 3.51042,-2.03711 4.98242,-2.03711 2.56001,0 3.08176,1.28201 3.13477,4.35351 l 0.38477,22.27539 c 1.20393,-0.1894 2.91393,0.60724 2.92968,-0.19336 l 0.44141,-22.46484 c 0.11329,-5.7589 0.65975,-8.57813 -5.74023,-8.57813 -2.624,0 -5.6951,0.76838 -7.8711,1.98438 -1.216,-1.2799 -3.00776,-1.98438 -5.75976,-1.98438 -0.75024,0 -1.42833,-0.0352 -2.07227,-0.0762 z"
       id="path3959-9-26-3" />
    <path
       d="m 106.6909,36.01948 -4.50686,-7.7536 -4.506874,-7.7537 h 9.013734 9.01373 l -4.50686,7.7537 z"
       id="path3981-0-4-1"
       style="display:inline;font-style:normal;font-variant:normal;font-weight:normal;font-stretch:normal;font-size:40px;font-family:'Yanone Kaffeesatz';-inkscape-font-specification:'Yanone Kaffeesatz';fill:none;fill-opacity:1;stroke:#e19c9c;stroke-width:5;stroke-linecap:round;stroke-linejoin:round;stroke-miterlimit:4;stroke-dashoffset:0;stroke-opacity:1"
       inkscape:connector-curvature="0" />
    <path
       d="M 130.54121,58.87078 V 31.14728"
       id="path3983-4-9-2"
       style="display:inline;font-style:normal;font-variant:normal;font-weight:normal;font-stretch:normal;font-size:40px;font-family:'Yanone Kaffeesatz';-inkscape-font-specification:'Yanone Kaffeesatz';fill:none;stroke:#e19c9c;stroke-width:5.02204847;stroke-linecap:round;stroke-linejoin:round;stroke-miterlimit:4;stroke-dasharray:none;stroke-opacity:1"
       inkscape:connector-curvature="0" />
    <path
       d="M 118.56589,58.85908 V 39.03758"
       id="path3985-4-0-9"
       style="display:inline;font-style:normal;font-variant:normal;font-weight:normal;font-stretch:normal;font-size:40px;font-family:'Yanone Kaffeesatz';-inkscape-font-specification:'Yanone Kaffeesatz';fill:none;stroke:#e19c9c;stroke-width:5;stroke-linecap:round;stroke-linejoin:round;stroke-miterlimit:4;stroke-dasharray:none;stroke-opacity:1"
       inkscape:connector-curvature="0" />
    <path
       d="m 106.69026,59.03278 -0.008,-11.7527"
       id="path3951-0-4-91-2"
       style="display:inline;font-style:normal;font-variant:normal;font-weight:normal;font-stretch:normal;font-size:40px;font-family:'Yanone Kaffeesatz';-inkscape-font-specification:'Yanone Kaffeesatz';fill:none;stroke:#e19c9c;stroke-width:4.66915703;stroke-linecap:round;stroke-linejoin:round;stroke-miterlimit:4;stroke-dasharray:none;stroke-opacity:1"
       inkscape:connector-curvature="0" />
  </g>
  <g
     inkscape:groupmode="layer"
     id="layer3"
     inkscape:label="text">
    <g
       inkscape:groupmode="layer"
       id="layer4"
       inkscape:label="font"
       style="display:none">
      <text
         xml:space="preserve"
         style="font-style:normal;font-weight:normal;font-size:64px;line-height:125%;font-family:Sans;letter-spacing:0.14px;word-spacing:0px;display:inline;fill:#a00000;fill-opacity:1;stroke:none"
         x="52.852501"
         y="60.746151"
         id="text3743"><tspan
           sodipodi:role="line"
           id="tspan3745"
           x="52.852501"
           y="60.746151"
           style="font-style:normal;font-variant:normal;font-weight:normal;font-stretch:normal;font-size:64px;font-family:'Yanone Kaffeesatz';-inkscape-font-specification:'Yanone Kaffeesatz';letter-spacing:0.14px;fill:#a00000;fill-opacity:1"
           dx="0 0">os</tspan></text>
      <text
         xml:space="preserve"
         style="font-style:normal;font-weight:normal;font-size:40px;line-height:125%;font-family:Sans;letter-spacing:0px;word-spacing:0px;display:inline;fill:#a00000;fill-opacity:1;stroke:none"
         x="138.49915"
         y="60.746151"
         id="text3760"><tspan
           sodipodi:role="line"
           id="tspan3762"
           x="138.49915"
           y="60.746151"
           style="font-style:normal;font-variant:normal;font-weight:normal;font-stretch:normal;font-size:64px;font-family:'Yanone Kaffeesatz';-inkscape-font-specification:'Yanone Kaffeesatz';fill:#a00000;fill-opacity:1">ocom</tspan></text>
      <text
         id="text3852-2-5-4"
         y="61.38615"
         x="240.94434"
         style="font-style:normal;font-weight:bold;font-size:64px;line-height:125%;font-family:Sans;-inkscape-font-specification:'Yanone Kaffeesatz Bold';letter-spacing:0px;word-spacing:0px;display:inline;fill:#a00000;fill-opacity:1;stroke:none"
         xml:space="preserve"><tspan
           style="font-style:normal;font-variant:normal;font-weight:bold;font-stretch:normal;font-size:64px;font-family:'Yanone Kaffeesatz';-inkscape-font-specification:'Yanone Kaffeesatz Bold';fill:#a00000;fill-opacity:1"
           y="61.38615"
           x="240.94434"
           id="tspan3854-3-5-2"
           sodipodi:role="line">SDR</tspan></text>
    </g>
    <g
       inkscape:groupmode="layer"
       id="layer5"
       inkscape:label="path"
       style="display:inline">
      <g
         aria-label="os"
         style="font-style:normal;font-weight:normal;font-size:64px;line-height:125%;font-family:Sans;letter-spacing:0.14px;word-spacing:0px;display:inline;fill:#a00000;fill-opacity:1;stroke:none"
         id="text4848">
        <path
           d="m 54.388501,44.746151 c 0,14.4 3.456,16.64 10.048,16.64 6.848,0 10.496,-4.928 10.496,-16.832 0,-12.992 -3.2,-16.448 -9.92,-16.448 -6.72,0 -10.624,4.928 -10.624,16.64 z m 5.632,0.128 c 0,-9.984 1.984,-12.224 4.8,-12.224 3.008,0 4.48,1.792 4.48,11.968 0,9.984 -1.984,12.352 -4.736,12.352 -2.944,0 -4.544,-1.536 -4.544,-12.096 z"
           style="font-style:normal;font-variant:normal;font-weight:normal;font-stretch:normal;font-size:64px;font-family:'Yanone Kaffeesatz';-inkscape-font-specification:'Yanone Kaffeesatz';letter-spacing:0.14px;fill:#a00000;fill-opacity:1"
           id="path4864"
           inkscape:connector-curvature="0" />
        <path
           d="m 88.9085,28.106151 c -7.168,0 -10.432,3.072 -10.432,7.552 0,2.112 0.768,4.416 3.648,6.784 l 6.208,5.312 c 1.92,1.728 2.56,3.264 2.56,4.992 0,2.56 -1.92,3.968 -5.184,3.968 -2.496,0 -4.544,-0.512 -6.4,-1.6 -0.704,1.152 -0.896,2.24 -0.896,3.008 0,2.24 3.264,3.264 7.808,3.264 6.528,0 10.56,-3.2 10.56,-8.896 0,-3.2 -1.024,-5.312 -3.776,-8 l -5.952,-4.8 c -2.176,-1.792 -2.56,-2.816 -2.56,-3.968 0,-1.984 2.048,-3.072 5.056,-3.072 2.432,0 4.352,0.512 6.272,1.664 0.704,-0.768 1.152,-1.792 1.152,-2.624 0,-1.28 -1.472,-3.584 -8.064,-3.584 z"
           style="font-style:normal;font-variant:normal;font-weight:normal;font-stretch:normal;font-size:64px;font-family:'Yanone Kaffeesatz';-inkscape-font-specification:'Yanone Kaffeesatz';letter-spacing:0.14px;fill:#a00000;fill-opacity:1"
           id="path4866"
           inkscape:connector-curvature="0" />
      </g>
      <g
         aria-label="ocom"
         style="font-style:normal;font-weight:normal;font-size:40px;line-height:125%;font-family:Sans;letter-spacing:0px;word-spacing:0px;display:inline;fill:#a00000;fill-opacity:1;stroke:none"
         id="text4852">
        <path
           d="m 140.03515,44.746151 c 0,14.4 3.456,16.64 10.048,16.64 6.848,0 10.496,-4.928 10.496,-16.832 0,-12.992 -3.2,-16.448 -9.92,-16.448 -6.72,0 -10.624,4.928 -10.624,16.64 z m 5.632,0.128 c 0,-9.984 1.984,-12.224 4.8,-12.224 3.008,0 4.48,1.792 4.48,11.968 0,9.984 -1.984,12.352 -4.736,12.352 -2.944,0 -4.544,-1.536 -4.544,-12.096 z"
           style="font-style:normal;font-variant:normal;font-weight:normal;font-stretch:normal;font-size:64px;font-family:'Yanone Kaffeesatz';-inkscape-font-specification:'Yanone Kaffeesatz';fill:#a00000;fill-opacity:1"
           id="path4869"
           inkscape:connector-curvature="0" />
        <path
           d="m 180.81515,30.986151 c 0,-1.664 -2.368,-2.88 -5.312,-2.88 -5.312,0 -11.52,1.984 -11.52,17.344 0,13.504 3.456,15.936 9.536,15.936 4.224,0 7.168,-1.536 7.168,-3.264 0,-0.832 -0.192,-1.664 -0.512,-2.816 -1.088,0.704 -3.008,1.472 -5.056,1.472 -3.904,0 -5.696,-2.304 -5.696,-11.328 0,-11.392 3.328,-12.736 6.336,-12.736 1.728,0 3.456,0.576 4.48,1.152 0.448,-1.088 0.576,-2.176 0.576,-2.88 z"
           style="font-style:normal;font-variant:normal;font-weight:normal;font-stretch:normal;font-size:64px;font-family:'Yanone Kaffeesatz';-inkscape-font-specification:'Yanone Kaffeesatz';fill:#a00000;fill-opacity:1"
           id="path4871"
           inkscape:connector-curvature="0" />
        <path
           d="m 182.78515,44.746151 c 0,14.4 3.456,16.64 10.048,16.64 6.848,0 10.496,-4.928 10.496,-16.832 0,-12.992 -3.2,-16.448 -9.92,-16.448 -6.72,0 -10.624,4.928 -10.624,16.64 z m 5.632,0.128 c 0,-9.984 1.984,-12.224 4.8,-12.224 3.008,0 4.48,1.792 4.48,11.968 0,9.984 -1.984,12.352 -4.736,12.352 -2.944,0 -4.544,-1.536 -4.544,-12.096 z"
           style="font-style:normal;font-variant:normal;font-weight:normal;font-stretch:normal;font-size:64px;font-family:'Yanone Kaffeesatz';-inkscape-font-specification:'Yanone Kaffeesatz';fill:#a00000;fill-opacity:1"
           id="path4873"
           inkscape:connector-curvature="0" />
        <path
           d="m 220.36515,60.746151 c 5.248,0 5.184,0 5.184,-1.024 v -25.792 c 1.408,-0.896 2.816,-1.216 4.288,-1.216 2.56,0 3.136,1.28 3.136,4.352 v 23.68 c 4.992,0 5.184,0 5.184,-1.024 v -22.592 c 0,-5.76 -0.768,-9.024 -7.168,-9.024 -2.624,0 -5.696,0.768 -7.872,1.984 -1.216,-1.28 -3.008,-1.984 -5.76,-1.984 -3.52,0 -6.848,0.832 -9.664,2.112 v 30.528 c 4.992,0 5.184,0 5.184,-1.024 v -25.984 c 1.472,-0.768 2.944,-1.088 4.352,-1.088 2.56,0 3.072,0.896 3.136,3.2 z"
           style="font-style:normal;font-variant:normal;font-weight:normal;font-stretch:normal;font-size:64px;font-family:'Yanone Kaffeesatz';-inkscape-font-specification:'Yanone Kaffeesatz';fill:#a00000;fill-opacity:1"
           id="path4875"
           inkscape:connector-curvature="0" />
      </g>
      <g
         aria-label="SDR"
         style="font-style:normal;font-weight:bold;font-size:64px;line-height:125%;font-family:Sans;-inkscape-font-specification:'Yanone Kaffeesatz Bold';letter-spacing:0px;word-spacing:0px;display:inline;fill:#a00000;fill-opacity:1;stroke:none"
         id="text4856">
        <path
           d="m 253.29634,15.94615 c -7.552,0 -11.392,4.032 -11.392,9.792 0,2.816 0.64,5.504 3.584,9.408 l 5.824,7.808 c 2.24,2.944 2.88,4.608 2.88,6.784 0,3.008 -1.152,4.928 -4.672,4.928 -2.304,0 -4.608,-0.896 -5.952,-2.112 -1.088,1.664 -1.6,3.776 -1.6,5.184 0,2.24 2.624,4.288 8.384,4.288 9.28,0 11.648,-6.08 11.648,-12.48 0,-3.648 -0.768,-6.464 -3.84,-10.432 l -6.144,-7.872 c -1.664,-2.304 -2.304,-3.712 -2.304,-5.696 0,-2.24 1.92,-3.264 5.056,-3.264 2.432,0 4.864,0.768 5.568,1.28 1.216,-1.344 1.664,-2.816 1.664,-4.032 0,-2.24 -2.24,-3.584 -8.704,-3.584 z"
           style="font-style:normal;font-variant:normal;font-weight:bold;font-stretch:normal;font-size:64px;font-family:'Yanone Kaffeesatz';-inkscape-font-specification:'Yanone Kaffeesatz Bold';fill:#a00000;fill-opacity:1"
           id="path4878"
           inkscape:connector-curvature="0" />
        <path
           d="m 266.65634,16.58615 c -1.408,0 -1.792,0.448 -1.792,1.28 v 43.52 h 8.256 c 8.64,0 12.224,-7.552 12.224,-24.64 0,-16.448 -4.032,-20.16 -12.544,-20.16 z m 10.432,19.392 c 0,16.256 -1.792,18.624 -3.776,18.624 h -1.28 v -31.488 h 1.216 c 2.304,0 3.84,1.408 3.84,12.864 z"
           style="font-style:normal;font-variant:normal;font-weight:bold;font-stretch:normal;font-size:64px;font-family:'Yanone Kaffeesatz';-inkscape-font-specification:'Yanone Kaffeesatz Bold';fill:#a00000;fill-opacity:1"
           id="path4880"
           inkscape:connector-curvature="0" />
        <path
           d="m 295.78534,16.58615 h -6.016 c -1.28,0 -1.28,1.28 -1.28,1.28 v 43.52 c 7.04,0 7.168,0 7.168,-1.28 v -16 h 1.536 c 1.6,2.24 3.904,7.296 4.16,17.28 1.6,0.128 3.072,0.192 4.224,0.192 3.456,0 3.712,-0.384 3.712,-1.6 -0.384,-9.984 -3.392,-15.424 -5.504,-18.176 2.624,-2.048 4.48,-5.696 4.48,-12.032 0,-10.496 -4.416,-13.184 -12.48,-13.184 z m 4.416,12.8 c 0,6.656 -1.28,8.128 -3.264,8.128 h -1.28 v -14.72 h 1.728 c 1.984,0 2.816,1.984 2.816,6.592 z"
           style="font-style:normal;font-variant:normal;font-weight:bold;font-stretch:normal;font-size:64px;font-family:'Yanone Kaffeesatz';-inkscape-font-specification:'Yanone Kaffeesatz Bold';fill:#a00000;fill-opacity:1"
           id="path4882"
           inkscape:connector-curvature="0" />
      </g>
    </g>
  </g>
</svg>
