<?xml version="1.0" encoding="UTF-8" standalone="no"?>
<!-- Created with Inkscape (http://www.inkscape.org/) -->

<svg
   xmlns:dc="http://purl.org/dc/elements/1.1/"
   xmlns:cc="http://creativecommons.org/ns#"
   xmlns:rdf="http://www.w3.org/1999/02/22-rdf-syntax-ns#"
   xmlns:svg="http://www.w3.org/2000/svg"
   xmlns="http://www.w3.org/2000/svg"
   xmlns:xlink="http://www.w3.org/1999/xlink"
   version="1.1"
   width="314.28934"
   height="67.870972"
   id="svg3860"
   style="display:inline">
  <title
     id="title3887">osmocom logos</title>
  <defs
     id="defs3862">
    <linearGradient
       id="linearGradient3374-5-7-7-0">
      <stop
         id="stop3376-8-6-4-2"
         style="stop-color:#729fcf;stop-opacity:1"
         offset="0" />
      <stop
         id="stop3378-6-7-4-9"
         style="stop-color:#729fcf;stop-opacity:0"
         offset="1" />
    </linearGradient>
    <linearGradient
       id="linearGradient3362-8-6-0-9">
      <stop
         id="stop3364-4-5-78-9"
         style="stop-color:#3465a4;stop-opacity:1"
         offset="0" />
      <stop
         id="stop3366-7-6-6-4"
         style="stop-color:#3465a4;stop-opacity:0"
         offset="1" />
    </linearGradient>
    <linearGradient
       x1="24.837126"
       y1="44.528019"
       x2="21.036427"
       y2="21.041553"
       id="linearGradient3991-3-88-5"
       xlink:href="#linearGradient7101-4-9-4-1"
       gradientUnits="userSpaceOnUse" />
    <linearGradient
       id="linearGradient7101-4-9-4-1">
      <stop
         id="stop7103-0-4-31-0"
         style="stop-color:#babdb6;stop-opacity:1"
         offset="0" />
      <stop
         id="stop7105-6-8-4-3"
         style="stop-color:#ffffff;stop-opacity:1"
         offset="1" />
    </linearGradient>
    <linearGradient
       x1="39.06765"
       y1="28.5"
       x2="39.421204"
       y2="10.934953"
       id="linearGradient3993-1-9-7"
       xlink:href="#linearGradient6979-9-2-2-8"
       gradientUnits="userSpaceOnUse" />
    <linearGradient
       id="linearGradient6979-9-2-2-8">
      <stop
         id="stop6981-9-9-0-8"
         style="stop-color:#888a85;stop-opacity:1"
         offset="0" />
      <stop
         id="stop6983-0-3-6-6"
         style="stop-color:#555753;stop-opacity:1"
         offset="1" />
    </linearGradient>
    <radialGradient
       cx="10.28125"
       cy="7.8249326"
       r="4.5250292"
       fx="10.28125"
       fy="7.8249326"
       id="radialGradient3995-7-4-0"
       xlink:href="#linearGradient3374-5-7-7-0"
       gradientUnits="userSpaceOnUse"
       gradientTransform="matrix(2.2651111,0,0,2.2923498,16.215361,52.593597)" />
    <radialGradient
       cx="10.28125"
       cy="9.8424416"
       r="4.5250292"
       fx="10.28125"
       fy="9.8424416"
       id="radialGradient3997-3-3-4"
       xlink:href="#linearGradient3362-8-6-0-9"
       gradientUnits="userSpaceOnUse"
       gradientTransform="matrix(15.1803,0,0,5.0647752,-116.56897,28.614297)" />
    <radialGradient
       cx="8.9057236"
       cy="1.7286602"
       r="1.9952321"
       fx="8.9057236"
       fy="1.7286602"
       id="radialGradient3999-1-4-6"
       xlink:href="#linearGradient7131-6-1-5-7"
       gradientUnits="userSpaceOnUse"
       gradientTransform="matrix(0.7375073,0,0,0.7201806,2.4345312,0.6617371)" />
    <linearGradient
       id="linearGradient7131-6-1-5-7">
      <stop
         id="stop7133-4-5-2-6"
         style="stop-color:#ffffff;stop-opacity:1"
         offset="0" />
      <stop
         id="stop7135-6-9-5-0"
         style="stop-color:#d3d7cf;stop-opacity:1"
         offset="1" />
    </linearGradient>
    <radialGradient
       cx="8.3046875"
       cy="1.1256332"
       r="2.0507698"
       fx="8.3046875"
       fy="1.1256332"
       id="radialGradient4001-9-6-9"
       xlink:href="#linearGradient7153-0-1-9-75"
       gradientUnits="userSpaceOnUse"
       gradientTransform="matrix(5.2943491,0,0,5.2881329,-7.02204,58.291497)" />
    <linearGradient
       id="linearGradient7153-0-1-9-75">
      <stop
         id="stop7155-8-7-3-9"
         style="stop-color:#ffffff;stop-opacity:1"
         offset="0" />
      <stop
         id="stop7157-5-7-7-7"
         style="stop-color:#ffffff;stop-opacity:0"
         offset="1" />
    </linearGradient>
    <radialGradient
       cx="10.28125"
       cy="8.0709476"
       r="4.5250292"
       fx="10.28125"
       fy="8.0709476"
       id="radialGradient3637"
       xlink:href="#linearGradient3374-5-7-7-0"
       gradientUnits="userSpaceOnUse"
       gradientTransform="matrix(4.9499444,0,0,4.9510321,-11.38809,35.312197)" />
    <radialGradient
       cx="10.28125"
       cy="9.8424416"
       r="4.5250292"
       fx="10.28125"
       fy="9.8424416"
       id="radialGradient3639"
       xlink:href="#linearGradient3362-8-6-0-9"
       gradientUnits="userSpaceOnUse"
       gradientTransform="matrix(23.169932,0,0,7.6402677,-198.71238,8.843597)" />
  </defs>
  <metadata
     id="metadata3865">
    <rdf:RDF>
      <cc:Work
         rdf:about="">
        <dc:format>image/svg+xml</dc:format>
        <dc:type
           rdf:resource="http://purl.org/dc/dcmitype/StillImage" />
        <dc:title>osmocom logos</dc:title>
        <dc:date>2011-01-23</dc:date>
        <dc:creator>
          <cc:Agent>
            <dc:title>Steve Markgraf &lt;steve@steve-m.de&gt;, Kevin Redon &lt;kevredon@mail.tsaitgaist.info&gt;</dc:title>
          </cc:Agent>
        </dc:creator>
        <dc:contributor>
          <cc:Agent>
            <dc:title>font : Yanone Kaffeesatz by Yanone (http://www.yanone.de/typedesign/kaffeesatz/)
icon : derivated work from gnome icon theme (http://svn.gnome.org/viewvc/gnome-icon-theme/trunk/) by Ulisse Perusin &lt;uli.peru@gmail.com&gt;, Riccardo Buzzotta &lt;raozuzu@yahoo.it&gt;, Josef Vybíral &lt;cornelius@vybiral.info&gt;, Hylke Bons &lt;h.bons@student.rug.nl&gt;, Ricardo González &lt;rick@jinlabs.com&gt;, Lapo Calamandrei &lt;calamandrei@gmail.com&gt;, Rodney Dawes &lt;dobey@novell.com&gt;, Luca Ferretti &lt;elle.uca@libero.it&gt;, Tuomas Kuosmanen &lt;tigert@gimp.org&gt;, Andreas Nilsson &lt;nisses.mail@home.se&gt;, Jakub Steiner &lt;jimmac@novell.com&gt; (http://svn.gnome.org/viewvc/gnome-icon-theme/trunk/AUTHORS?view=markup)</dc:title>
          </cc:Agent>
        </dc:contributor>
        <dc:description>logos for osmocom project initiated by Harald Welte (http://www.osmocom.org/trac/).
created on the mailing list : http://lists.osmocom.org/pipermail/openbsc/2010-August/001982.html</dc:description>
        <cc:license
           rdf:resource="GNU GPL v3" />
      </cc:Work>
    </rdf:RDF>
  </metadata>
  <g
     transform="translate(-8.5808241,-40.81844)"
     id="layer3"
     style="display:inline">
    <g
       transform="translate(-4,0)"
       id="g3732">
      <path
         d="m 60.69548,67.493897 c 0,11.5675 -9.48796,20.9448 -21.19195,20.9448 -11.703989,0 -21.191949,-9.3773 -21.191949,-20.9448 0,-11.5674 9.48796,-20.9447 21.191949,-20.9447 11.70399,0 21.19195,9.3773 21.19195,20.9447 z"
         id="path3544"
         style="font-size:40px;font-style:normal;font-variant:normal;font-weight:normal;font-stretch:normal;opacity:0.8;fill:url(#radialGradient3637);fill-opacity:1;stroke:url(#radialGradient3639);stroke-width:1.46151388;stroke-linecap:round;stroke-linejoin:round;stroke-miterlimit:4;stroke-opacity:1;stroke-dashoffset:0;display:inline;font-family:Yanone Kaffeesatz;-inkscape-font-specification:Yanone Kaffeesatz" />
      <g
         transform="matrix(1.4615138,0,0,2.5218672,4.4272,31.547917)"
         id="g3546"
         style="font-size:40px;font-style:normal;font-variant:normal;font-weight:normal;font-stretch:normal;fill:#000000;fill-opacity:1;stroke:none;display:inline;font-family:Yanone Kaffeesatz;-inkscape-font-specification:Yanone Kaffeesatz">
        <path
           d="m 24,13 -8.1875,15.225744 c 11.445471,0 5.976697,0 16.34375,0 z m 0,4.96875 4,7.421875 -7.953125,0 z"
           id="path3548"
           style="fill:url(#linearGradient3991-3-88-5);fill-opacity:1;fill-rule:evenodd;stroke:url(#linearGradient3993-1-9-7);stroke-width:1px;stroke-linecap:butt;stroke-linejoin:miter;stroke-opacity:1" />
        <path
           d="M 26.355979,42.522608 20,21.277828 13.644021,42.522609"
           transform="matrix(1,0,0,0.57953638,4,2.7937247)"
           id="path3550"
           style="fill:none;stroke:#ffffff;stroke-width:1.31358945px;stroke-linecap:round;stroke-linejoin:miter;stroke-opacity:1" />
      </g>
      <path
         d="m 53.38791,67.493897 c 0,7.6681 -6.21625,13.8844 -13.88438,13.8844 -7.66813,0 -13.884379,-6.2163 -13.884379,-13.8844 0,-7.6681 6.216249,-13.8844 13.884379,-13.8844 7.66813,0 13.88438,6.2163 13.88438,13.8844 z"
         id="path3552"
         style="font-size:40px;font-style:normal;font-variant:normal;font-weight:normal;font-stretch:normal;fill:url(#radialGradient3995-7-4-0);fill-opacity:1;stroke:url(#radialGradient3997-3-3-4);stroke-width:1.46151388;stroke-linecap:round;stroke-linejoin:round;stroke-miterlimit:4;stroke-opacity:1;stroke-dashoffset:0;display:inline;font-family:Yanone Kaffeesatz;-inkscape-font-specification:Yanone Kaffeesatz" />
      <g
         transform="matrix(3.2735609,0,0,3.2593101,-24.33091,59.292917)"
         id="g3554"
         style="font-size:40px;font-style:normal;font-variant:normal;font-weight:normal;font-stretch:normal;fill:#000000;fill-opacity:1;stroke:none;display:inline;font-family:Yanone Kaffeesatz;-inkscape-font-specification:Yanone Kaffeesatz">
        <path
           d="M 11,2.25 C 11,3.2164983 10.195512,4 9.203125,4 8.2107383,4 7.40625,3.2164983 7.40625,2.25 7.40625,1.2835017 8.2107383,0.5 9.203125,0.5 10.195512,0.5 11,1.2835017 11,2.25 z"
           transform="matrix(1.1130433,0,0,1.1428572,9.2565233,-0.07142864)"
           id="path3556"
           style="fill:url(#radialGradient3999-1-4-6);fill-opacity:1;stroke:#555753;stroke-width:0.39671427;stroke-linecap:round;stroke-linejoin:round;stroke-miterlimit:4;stroke-opacity:1;stroke-dashoffset:0" />
        <path
           d="M 20,1.5 C 20,1.7761424 19.776142,2 19.5,2 19.223858,2 19,1.7761424 19,1.5 19,1.2238576 19.223858,1 19.5,1 19.776142,1 20,1.2238576 20,1.5 z"
           transform="matrix(1.8125,0,0,1.8125,-16.465404,-0.9288198)"
           id="path3558"
           style="fill:#ffffff;fill-opacity:1;stroke:none" />
      </g>
      <path
         d="m 44.61882,67.441097 c 0,2.8124 -2.2902,5.0924 -5.1153,5.0924 -2.8251,0 -5.1153,-2.28 -5.1153,-5.0924 0,-2.8125 2.2902,-5.0924 5.1153,-5.0924 2.8251,0 5.1153,2.2799 5.1153,5.0924 z"
         id="path3560"
         style="font-size:40px;font-style:normal;font-variant:normal;font-weight:normal;font-stretch:normal;fill:none;stroke:url(#radialGradient4001-9-6-9);stroke-width:1.46151364;stroke-linecap:round;stroke-linejoin:round;stroke-miterlimit:4;stroke-opacity:1;stroke-dashoffset:0;display:inline;font-family:Yanone Kaffeesatz;-inkscape-font-specification:Yanone Kaffeesatz" />
    </g>
  </g>
  <g
     transform="translate(-8.5808241,-40.81844)"
     id="layer4">
    <g
       id="layer5"
       style="display:none">
      <g
         id="layer8"
         style="display:inline">
        <text
           x="61.433342"
           y="101.56459"
           id="text3743"
           xml:space="preserve"
           style="font-size:64px;font-style:normal;font-weight:normal;line-height:125%;letter-spacing:0.14px;word-spacing:0px;fill:#a00000;fill-opacity:1;stroke:none;display:inline;font-family:Sans"><tspan
             x="61.433342"
             y="101.56459"
             dx="0 0"
             id="tspan3745"
             style="font-size:64px;font-style:normal;font-variant:normal;font-weight:normal;font-stretch:normal;letter-spacing:0.14px;fill:#a00000;fill-opacity:1;font-family:Yanone Kaffeesatz;-inkscape-font-specification:Yanone Kaffeesatz">os</tspan></text>
        <text
           x="147.07997"
           y="101.56459"
           id="text3760"
           xml:space="preserve"
           style="font-size:40px;font-style:normal;font-weight:normal;line-height:125%;letter-spacing:0px;word-spacing:0px;fill:#a00000;fill-opacity:1;stroke:none;font-family:Sans"><tspan
             x="147.07997"
             y="101.56459"
             id="tspan3762"
             style="font-size:64px;font-style:normal;font-variant:normal;font-weight:normal;font-stretch:normal;fill:#a00000;fill-opacity:1;font-family:Yanone Kaffeesatz;-inkscape-font-specification:Yanone Kaffeesatz">ocom</tspan></text>
      </g>
      <g
         id="layer9"
         style="display:none">
        <text
           x="249.52516"
           y="102.20459"
           id="text3829"
           xml:space="preserve"
           style="font-size:64px;font-style:normal;font-weight:bold;line-height:125%;letter-spacing:0px;word-spacing:0px;fill:#a00000;fill-opacity:1;stroke:none;font-family:Sans;-inkscape-font-specification:Yanone Kaffeesatz Bold"><tspan
             x="249.52516"
             y="102.20459"
             id="tspan3831"
             style="font-size:64px;font-style:normal;font-variant:normal;font-weight:bold;font-stretch:normal;fill:#a00000;fill-opacity:1;font-family:Yanone Kaffeesatz;-inkscape-font-specification:Yanone Kaffeesatz Bold">BB</tspan></text>
      </g>
      <g
         id="layer10"
         style="display:none">
        <text
           x="249.52516"
           y="102.20459"
           id="text3837"
           xml:space="preserve"
           style="font-size:64px;font-style:normal;font-weight:bold;line-height:125%;letter-spacing:0px;word-spacing:0px;fill:#a00000;fill-opacity:1;stroke:none;font-family:Sans;-inkscape-font-specification:Yanone Kaffeesatz Bold"><tspan
             x="249.52516"
             y="102.20459"
             id="tspan3839"
             style="font-size:64px;font-style:normal;font-variant:normal;font-weight:bold;font-stretch:normal;fill:#a00000;fill-opacity:1;font-family:Yanone Kaffeesatz;-inkscape-font-specification:Yanone Kaffeesatz Bold">Security</tspan></text>
      </g>
      <g
         id="layer11"
         style="display:none">
        <text
           x="249.52516"
           y="102.20459"
           id="text3844"
           xml:space="preserve"
           style="font-size:64px;font-style:normal;font-weight:bold;line-height:125%;letter-spacing:0px;word-spacing:0px;fill:#a00000;fill-opacity:1;stroke:none;font-family:Sans;-inkscape-font-specification:Yanone Kaffeesatz Bold"><tspan
             x="249.52516"
             y="102.20459"
             id="tspan3846"
             style="font-size:64px;font-style:normal;font-variant:normal;font-weight:bold;font-stretch:normal;fill:#a00000;fill-opacity:1;font-family:Yanone Kaffeesatz;-inkscape-font-specification:Yanone Kaffeesatz Bold">TETRA</tspan></text>
      </g>
      <g
         id="layer12"
         style="display:none">
        <text
           x="249.52516"
           y="102.20459"
           id="text3852"
           xml:space="preserve"
           style="font-size:64px;font-style:normal;font-weight:bold;line-height:125%;letter-spacing:0px;word-spacing:0px;fill:#a00000;fill-opacity:1;stroke:none;font-family:Sans;-inkscape-font-specification:Yanone Kaffeesatz Bold"><tspan
             x="249.52516"
             y="102.20459"
             id="tspan3854"
             style="font-size:64px;font-style:normal;font-variant:normal;font-weight:bold;font-stretch:normal;fill:#a00000;fill-opacity:1;font-family:Yanone Kaffeesatz;-inkscape-font-specification:Yanone Kaffeesatz Bold">DECT</tspan></text>
      </g>
      <g
         id="layer13"
         style="display:none">
        <text
           x="249.52516"
           y="102.20459"
           id="text3862"
           xml:space="preserve"
           style="font-size:64px;font-style:normal;font-weight:bold;line-height:125%;letter-spacing:0px;word-spacing:0px;fill:#a00000;fill-opacity:1;stroke:none;display:inline;font-family:Sans;-inkscape-font-specification:Yanone Kaffeesatz Bold"><tspan
             x="249.52516"
             y="102.20459"
             id="tspan3864"
             style="font-size:64px;font-style:normal;font-variant:normal;font-weight:bold;font-stretch:normal;fill:#a00000;fill-opacity:1;font-family:Yanone Kaffeesatz;-inkscape-font-specification:Yanone Kaffeesatz Bold">OpenBSC</tspan></text>
      </g>
      <g
         id="layer22"
         style="display:none">
        <text
           x="249.52516"
           y="102.20459"
           id="text3852-8"
           xml:space="preserve"
           style="font-size:64px;font-style:normal;font-weight:bold;line-height:125%;letter-spacing:0px;word-spacing:0px;fill:#a00000;fill-opacity:1;stroke:none;display:inline;font-family:Sans;-inkscape-font-specification:Yanone Kaffeesatz Bold"><tspan
             x="249.52516"
             y="102.20459"
             id="tspan3854-2"
             style="font-size:64px;font-style:normal;font-variant:normal;font-weight:bold;font-stretch:normal;fill:#a00000;fill-opacity:1;font-family:Yanone Kaffeesatz;-inkscape-font-specification:Yanone Kaffeesatz Bold">NET</tspan></text>
      </g>
      <g
         id="layer23"
         style="display:none">
        <text
           x="249.52516"
           y="102.20459"
           id="text3852-2"
           xml:space="preserve"
           style="font-size:64px;font-style:normal;font-weight:bold;line-height:125%;letter-spacing:0px;word-spacing:0px;fill:#a00000;fill-opacity:1;stroke:none;display:inline;font-family:Sans;-inkscape-font-specification:Yanone Kaffeesatz Bold"><tspan
             x="249.52516"
             y="102.20459"
             id="tspan3854-3"
             style="font-size:64px;font-style:normal;font-variant:normal;font-weight:bold;font-stretch:normal;fill:#a00000;fill-opacity:1;font-family:Yanone Kaffeesatz;-inkscape-font-specification:Yanone Kaffeesatz Bold">SIMTRACE</tspan></text>
      </g>
      <g
         id="layer30"
         style="display:none">
        <text
           x="249.52516"
           y="102.20459"
           id="text3852-2-5"
           xml:space="preserve"
           style="font-size:64px;font-style:normal;font-weight:bold;line-height:125%;letter-spacing:0px;word-spacing:0px;fill:#a00000;fill-opacity:1;stroke:none;display:inline;font-family:Sans;-inkscape-font-specification:Yanone Kaffeesatz Bold"><tspan
             x="249.52516"
             y="102.20459"
             id="tspan3854-3-5"
             style="font-size:64px;font-style:normal;font-variant:normal;font-weight:bold;font-stretch:normal;fill:#a00000;fill-opacity:1;font-family:Yanone Kaffeesatz;-inkscape-font-specification:Yanone Kaffeesatz Bold">GMR</tspan></text>
      </g>
      <g
         id="layer32"
         style="display:none">
        <text
           x="249.52516"
           y="102.20459"
           id="text3852-2-5-4"
           xml:space="preserve"
           style="font-size:64px;font-style:normal;font-weight:bold;line-height:125%;letter-spacing:0px;word-spacing:0px;fill:#a00000;fill-opacity:1;stroke:none;display:inline;font-family:Sans;-inkscape-font-specification:Yanone Kaffeesatz Bold"><tspan
             x="249.52516"
             y="102.20459"
             id="tspan3854-3-5-2"
             style="font-size:64px;font-style:normal;font-variant:normal;font-weight:bold;font-stretch:normal;fill:#a00000;fill-opacity:1;font-family:Yanone Kaffeesatz;-inkscape-font-specification:Yanone Kaffeesatz Bold">SDR</tspan></text>
      </g>
      <g
         id="layer33"
         style="display:none">
        <text
           x="249.52516"
           y="102.20459"
           id="text3852-2-5-40"
           xml:space="preserve"
           style="font-size:64px;font-style:normal;font-weight:bold;line-height:125%;letter-spacing:0px;word-spacing:0px;fill:#a00000;fill-opacity:1;stroke:none;display:inline;font-family:Sans;-inkscape-font-specification:Yanone Kaffeesatz Bold"><tspan
             x="249.52516"
             y="102.20459"
             id="tspan3854-3-5-6"
             style="font-size:64px;font-style:normal;font-variant:normal;font-weight:bold;font-stretch:normal;fill:#a00000;fill-opacity:1;font-family:Yanone Kaffeesatz;-inkscape-font-specification:Yanone Kaffeesatz Bold">OP25</tspan></text>
      </g>
      <g
         id="layer34"
         style="display:none">
        <text
           x="249.52516"
           y="102.20459"
           id="text3852-2-5-43"
           xml:space="preserve"
           style="font-size:64px;font-style:normal;font-weight:bold;line-height:125%;letter-spacing:0px;word-spacing:0px;fill:#a00000;fill-opacity:1;stroke:none;display:inline;font-family:Sans;-inkscape-font-specification:Yanone Kaffeesatz Bold"><tspan
             x="249.52516"
             y="102.20459"
             id="tspan3854-3-5-8"
             style="font-size:64px;font-style:normal;font-variant:normal;font-weight:bold;font-stretch:normal;fill:#a00000;fill-opacity:1;font-family:Yanone Kaffeesatz;-inkscape-font-specification:Yanone Kaffeesatz Bold">COS</tspan></text>
      </g>
      <g
         id="layer1"
         style="display:none">
        <text
           x="57.433342"
           y="101.56459"
           id="text3743-6"
           xml:space="preserve"
           style="font-size:64px;font-style:normal;font-weight:normal;line-height:125%;letter-spacing:0.14px;word-spacing:0px;fill:#a00000;fill-opacity:1;stroke:none;display:inline;font-family:Sans"><tspan
             x="57.433342"
             y="101.56459"
             dx="0 0"
             id="tspan3745-0"
             style="font-size:64px;font-style:normal;font-variant:normal;font-weight:normal;font-stretch:normal;letter-spacing:0.14px;fill:#a00000;fill-opacity:1;font-family:Yanone Kaffeesatz;-inkscape-font-specification:Yanone Kaffeesatz">Os</tspan></text>
        <text
           x="147.07997"
           y="101.56459"
           id="text3760-7"
           xml:space="preserve"
           style="font-size:40px;font-style:normal;font-weight:normal;line-height:125%;letter-spacing:0px;word-spacing:0px;fill:#a00000;fill-opacity:1;stroke:none;display:inline;font-family:Sans"><tspan
             x="147.07997"
             y="101.56459"
             id="tspan3762-0"
             style="font-size:64px;font-style:normal;font-variant:normal;font-weight:normal;font-stretch:normal;fill:#a00000;fill-opacity:1;font-family:Yanone Kaffeesatz;-inkscape-font-specification:Yanone Kaffeesatz">o</tspan></text>
      </g>
      <g
         id="layer18"
         style="display:none">
        <text
           x="171.70415"
           y="102.20459"
           id="text3829-4-3"
           xml:space="preserve"
           style="font-size:64px;font-style:normal;font-weight:bold;line-height:125%;letter-spacing:0px;word-spacing:0px;fill:#a00000;fill-opacity:1;stroke:none;display:inline;font-family:Sans;-inkscape-font-specification:Yanone Kaffeesatz Bold"><tspan
             x="171.70415"
             y="102.20459"
             id="tspan3831-9-6"
             style="font-size:64px;font-style:normal;font-variant:normal;font-weight:bold;font-stretch:normal;fill:#a00000;fill-opacity:1;font-family:Yanone Kaffeesatz;-inkscape-font-specification:Yanone Kaffeesatz Bold">BTS</tspan></text>
      </g>
      <g
         id="layer2"
         style="display:none">
        <text
           x="171.70415"
           y="102.20459"
           id="text3829-4"
           xml:space="preserve"
           style="font-size:64px;font-style:normal;font-weight:bold;line-height:125%;letter-spacing:0px;word-spacing:0px;fill:#a00000;fill-opacity:1;stroke:none;display:inline;font-family:Sans;-inkscape-font-specification:Yanone Kaffeesatz Bold"><tspan
             x="171.70415"
             y="102.20459"
             id="tspan3831-9"
             style="font-size:64px;font-style:normal;font-variant:normal;font-weight:bold;font-stretch:normal;fill:#a00000;fill-opacity:1;font-family:Yanone Kaffeesatz;-inkscape-font-specification:Yanone Kaffeesatz Bold">BSC</tspan></text>
      </g>
      <g
         id="layer19"
         style="display:none">
        <text
           x="171.70415"
           y="102.20459"
           id="text3829-4-8"
           xml:space="preserve"
           style="font-size:64px;font-style:normal;font-weight:bold;line-height:125%;letter-spacing:0px;word-spacing:0px;fill:#a00000;fill-opacity:1;stroke:none;display:inline;font-family:Sans;-inkscape-font-specification:Yanone Kaffeesatz Bold"><tspan
             x="171.70415"
             y="102.20459"
             id="tspan3831-9-4"
             style="font-size:64px;font-style:normal;font-variant:normal;font-weight:bold;font-stretch:normal;fill:#a00000;fill-opacity:1;font-family:Yanone Kaffeesatz;-inkscape-font-specification:Yanone Kaffeesatz Bold">NITB</tspan></text>
      </g>
    </g>
    <g
       id="layer6"
       style="display:inline">
      <g
         id="layer14"
         style="display:inline">
        <g
           id="text3743-7"
           style="font-size:64px;font-style:normal;font-weight:normal;line-height:125%;letter-spacing:0.14px;word-spacing:0px;fill:#a00000;fill-opacity:1;stroke:none;display:inline;font-family:Sans">
          <path
             d="m 62.969342,85.56459 c 0,14.399986 3.456007,16.64 10.048,16.64 6.847993,0 10.496,-4.928011 10.496,-16.832 0,-12.991987 -3.200007,-16.448 -9.92,-16.448 -6.719993,0 -10.624,4.928012 -10.624,16.64 m 5.632,0.128 c 0,-9.98399 1.984003,-12.224 4.8,-12.224 3.007997,0 4.48,1.792011 4.48,11.968 0,9.98399 -1.984003,12.352 -4.736,12.352 -2.943997,0 -4.544,-1.53601 -4.544,-12.096"
             id="path3925"
             style="font-variant:normal;font-stretch:normal;fill:#a00000;font-family:Yanone Kaffeesatz;-inkscape-font-specification:Yanone Kaffeesatz" />
          <path
             d="m 97.489341,68.92459 c -7.167992,0 -10.432,3.072005 -10.432,7.552 0,2.111998 0.768003,4.416003 3.648,6.784 l 6.208,5.312 c 1.919998,1.727999 2.56,3.264002 2.56,4.992 0,2.559998 -1.920003,3.968 -5.184,3.968 -2.495997,0 -4.544001,-0.512001 -6.4,-1.6 -0.703999,1.151999 -0.896,2.240001 -0.896,3.008 0,2.24 3.264005,3.264 7.808,3.264 6.527989,0 10.559999,-3.200005 10.559999,-8.896 0,-3.199996 -1.024,-5.312002 -3.776,-8 l -5.951999,-4.8 c -2.175997,-1.791998 -2.56,-2.816001 -2.56,-3.968 0,-1.983998 2.048003,-3.072 5.056,-3.072 2.431999,0 4.351999,0.512002 6.271999,1.664 0.704,-0.767999 1.152,-1.792 1.152,-2.624 0,-1.279998 -1.47201,-3.584 -8.063999,-3.584"
             id="path3927"
             style="font-variant:normal;font-stretch:normal;fill:#a00000;font-family:Yanone Kaffeesatz;-inkscape-font-specification:Yanone Kaffeesatz" />
        </g>
        <g
           id="text3760-2"
           style="font-size:40px;font-style:normal;font-weight:normal;line-height:125%;letter-spacing:0px;word-spacing:0px;fill:#a00000;fill-opacity:1;stroke:none;display:inline;font-family:Sans">
          <path
             d="m 148.61597,85.56459 c 0,14.399986 3.45601,16.64 10.048,16.64 6.84799,0 10.496,-4.928011 10.496,-16.832 0,-12.991987 -3.20001,-16.448 -9.92,-16.448 -6.71999,0 -10.624,4.928012 -10.624,16.64 m 5.632,0.128 c 0,-9.98399 1.984,-12.224 4.8,-12.224 3.008,0 4.48,1.792011 4.48,11.968 0,9.98399 -1.984,12.352 -4.736,12.352 -2.944,0 -4.544,-1.53601 -4.544,-12.096"
             id="path3930"
             style="font-size:64px;font-variant:normal;font-stretch:normal;fill:#a00000;font-family:Yanone Kaffeesatz;-inkscape-font-specification:Yanone Kaffeesatz" />
          <path
             d="m 189.39597,71.80459 c 0,-1.663998 -2.368,-2.88 -5.312,-2.88 -5.31199,0 -11.52,1.984016 -11.52,17.344 0,13.503987 3.45601,15.936 9.536,15.936 4.224,0 7.168,-1.536 7.168,-3.264 0,-0.831999 -0.192,-1.664001 -0.512,-2.816 -1.088,0.704 -3.008,1.472 -5.056,1.472 -3.90399,0 -5.696,-2.304009 -5.696,-11.328 0,-11.391988 3.328,-12.736 6.336,-12.736 1.728,0 3.456,0.576001 4.48,1.152 0.448,-1.087998 0.576,-2.176 0.576,-2.88"
             id="path3932"
             style="font-size:64px;font-variant:normal;font-stretch:normal;fill:#a00000;font-family:Yanone Kaffeesatz;-inkscape-font-specification:Yanone Kaffeesatz" />
          <path
             d="m 191.36597,85.56459 c 0,14.399986 3.45601,16.64 10.048,16.64 6.84799,0 10.496,-4.928011 10.496,-16.832 0,-12.991987 -3.20001,-16.448 -9.92,-16.448 -6.71999,0 -10.624,4.928012 -10.624,16.64 m 5.632,0.128 c 0,-9.98399 1.984,-12.224 4.8,-12.224 3.008,0 4.48,1.792011 4.48,11.968 0,9.98399 -1.984,12.352 -4.736,12.352 -2.944,0 -4.544,-1.53601 -4.544,-12.096"
             id="path3934"
             style="font-size:64px;font-variant:normal;font-stretch:normal;fill:#a00000;font-family:Yanone Kaffeesatz;-inkscape-font-specification:Yanone Kaffeesatz" />
          <path
             d="m 228.94597,101.56459 c 5.248,0 5.184,0 5.184,-1.024 l 0,-25.792 c 1.408,-0.895999 2.816,-1.216 4.288,-1.216 2.56,0 3.136,1.280004 3.136,4.352 l 0,23.68 c 4.992,0 5.184,0 5.184,-1.024 l 0,-22.592 c 0,-5.759994 -0.76801,-9.024 -7.168,-9.024 -2.624,0 -5.696,0.768002 -7.872,1.984 -1.216,-1.279998 -3.008,-1.984 -5.76,-1.984 -3.52,0 -6.848,0.832002 -9.664,2.112 l 0,30.528 c 4.992,0 5.184,0 5.184,-1.024 l 0,-25.984 c 1.472,-0.767999 2.944,-1.088 4.352,-1.088 2.56,0 3.072,0.896003 3.136,3.2 l 0,24.896"
             id="path3936"
             style="font-size:64px;font-variant:normal;font-stretch:normal;fill:#a00000;font-family:Yanone Kaffeesatz;-inkscape-font-specification:Yanone Kaffeesatz" />
        </g>
      </g>
      <g
         id="layer15"
         style="display:none">
        <g
           id="text3829-9"
           style="font-size:64px;font-style:normal;font-weight:bold;line-height:125%;letter-spacing:0px;word-spacing:0px;fill:#a00000;fill-opacity:1;stroke:none;display:inline;font-family:Sans;-inkscape-font-specification:Yanone Kaffeesatz Bold">
          <path
             d="m 251.44516,102.20459 8.384,0 c 8.63999,0 11.968,-6.784009 11.968,-15.232 0,-7.487993 -4.224,-8.96 -7.36,-9.28 2.816,-0.384 5.888,-3.712007 5.888,-10.24 0,-8.319992 -5.44,-10.048 -10.816,-10.048 l -6.272,0 c -1.408,0 -1.792,0.448001 -1.792,1.28 l 0,43.52 m 7.296,-38.528 1.472,0 c 1.152,0 2.176,0.832004 2.176,5.312 0,3.647996 -0.896,6.08 -2.432,6.08 l -1.216,0 0,-11.392 m 0,17.408 1.408,0 c 1.984,0 3.072,0.768006 3.072,6.528 0,5.247995 -1.216,8.384 -3.2,8.384 l -1.28,0 0,-14.912"
             id="path3960"
             style="font-variant:normal;font-stretch:normal;fill:#a00000;font-family:Yanone Kaffeesatz;-inkscape-font-specification:Yanone Kaffeesatz Bold" />
          <path
             d="m 274.32016,102.20459 8.384,0 c 8.63999,0 11.968,-6.784009 11.968,-15.232 0,-7.487993 -4.224,-8.96 -7.36,-9.28 2.816,-0.384 5.888,-3.712007 5.888,-10.24 0,-8.319992 -5.44,-10.048 -10.816,-10.048 l -6.272,0 c -1.408,0 -1.792,0.448001 -1.792,1.28 l 0,43.52 m 7.296,-38.528 1.472,0 c 1.152,0 2.176,0.832004 2.176,5.312 0,3.647996 -0.896,6.08 -2.432,6.08 l -1.216,0 0,-11.392 m 0,17.408 1.408,0 c 1.984,0 3.072,0.768006 3.072,6.528 0,5.247995 -1.216,8.384 -3.2,8.384 l -1.28,0 0,-14.912"
             id="path3962"
             style="font-variant:normal;font-stretch:normal;fill:#a00000;font-family:Yanone Kaffeesatz;-inkscape-font-specification:Yanone Kaffeesatz Bold" />
        </g>
      </g>
      <g
         id="layer16"
         style="display:none">
        <g
           id="text3837-0"
           style="font-size:64px;font-style:normal;font-weight:bold;line-height:125%;letter-spacing:0px;word-spacing:0px;fill:#a00000;fill-opacity:1;stroke:none;display:inline;font-family:Sans;-inkscape-font-specification:Yanone Kaffeesatz Bold">
          <path
             d="m 261.87716,56.76459 c -7.55199,0 -11.392,4.032006 -11.392,9.792 0,2.815997 0.64,5.504004 3.584,9.408 l 5.824,7.808 c 2.24,2.943997 2.88,4.608002 2.88,6.784 0,3.007997 -1.152,4.928 -4.672,4.928 -2.304,0 -4.608,-0.896001 -5.952,-2.112 -1.088,1.663998 -1.6,3.776001 -1.6,5.184 0,2.24 2.62401,4.288 8.384,4.288 9.27999,0 11.648,-6.080007 11.648,-12.48 0,-3.647997 -0.768,-6.464004 -3.84,-10.432 l -6.144,-7.872 c -1.664,-2.303998 -2.304,-3.712002 -2.304,-5.696 0,-2.239998 1.92,-3.264 5.056,-3.264 2.432,0 4.864,0.768 5.568,1.28 1.216,-1.343999 1.664,-2.816001 1.664,-4.032 0,-2.239998 -2.24,-3.584 -8.704,-3.584"
             id="path3986"
             style="font-variant:normal;font-stretch:normal;fill:#a00000;font-family:Yanone Kaffeesatz;-inkscape-font-specification:Yanone Kaffeesatz Bold" />
          <path
             d="m 284.19716,69.56459 c -6.01599,0 -11.264,2.688015 -11.264,18.176 0,12.159988 4.09601,15.104 9.92,15.104 4.992,0 9.088,-1.408 9.088,-3.968 0,-1.471999 -0.192,-3.520001 -0.576,-4.8 -2.24,1.087999 -4.48,1.792 -6.784,1.792 -3.072,0 -3.968,-1.792004 -4.16,-5.824 3.136,-0.064 7.936,-0.320001 11.072,-0.96 0.64,-2.495998 0.896,-6.016003 0.896,-9.088 0,-7.423993 -3.072,-10.432 -8.192,-10.432 m -0.96,6.208 c 1.6,0 2.176,0.640004 2.176,4.736 0,1.023999 -0.064,2.560001 -0.32,3.328 -0.96,0.447999 -2.944,0.576 -4.736,0.576 0.192,-5.823994 0.896,-8.64 2.88,-8.64"
             id="path3988"
             style="font-variant:normal;font-stretch:normal;fill:#a00000;font-family:Yanone Kaffeesatz;-inkscape-font-specification:Yanone Kaffeesatz Bold" />
          <path
             d="m 311.69816,72.82859 c 0,-2.047998 -2.176,-3.264 -5.312,-3.264 -5.31199,0 -11.392,1.984015 -11.392,17.344 0,13.24799 2.88001,15.936 9.472,15.936 4.096,0 6.976,-1.344 6.976,-3.456 0,-1.087999 -0.192,-2.176002 -0.576,-3.776 -1.024,0.511999 -2.752,0.896 -4.096,0.896 -3.39199,0 -4.288,-2.368008 -4.288,-9.728 0,-9.72799 2.24,-10.944 4.544,-10.944 1.344,0 3.008,0.384 4.032,0.832 0.512,-1.535999 0.64,-2.880001 0.64,-3.84"
             id="path3990"
             style="font-variant:normal;font-stretch:normal;fill:#a00000;font-family:Yanone Kaffeesatz;-inkscape-font-specification:Yanone Kaffeesatz Bold" />
          <path
             d="m 333.39216,70.20459 c -7.29599,0 -7.168,10e-7 -7.168,1.28 l 0,24.384 c -0.704,0.639999 -1.6,0.832 -2.432,0.832 -1.792,0 -2.112,-1.024002 -2.112,-3.008 l 0,-23.488 c -7.48799,0 -7.424,10e-7 -7.424,1.28 l 0,21.76 c 0,6.015994 1.98401,9.6 9.664,9.6 3.84,0 7.424,-1.216 9.472,-2.432 l 0,-30.208"
             id="path3992"
             style="font-variant:normal;font-stretch:normal;fill:#a00000;font-family:Yanone Kaffeesatz;-inkscape-font-specification:Yanone Kaffeesatz Bold" />
          <path
             d="m 337.63716,102.20459 c 7.29599,0 7.296,0 7.296,-1.28 l 0.064,-23.488 c 0.832,-0.703999 1.984,-1.024 2.752,-1.024 0.64,0 1.472,0.064 2.368,0.512 0.576,-1.599999 0.704,-3.328001 0.704,-4.16 0,-2.175998 -0.832,-3.2 -4.288,-3.2 -3.58399,0 -6.656,1.344001 -8.896,2.88 l 0,29.76"
             id="path3994"
             style="font-variant:normal;font-stretch:normal;fill:#a00000;font-family:Yanone Kaffeesatz;-inkscape-font-specification:Yanone Kaffeesatz Bold" />
          <path
             d="m 360.80816,70.20459 c -5.88799,0 -7.296,3e-6 -7.296,3.136 l 0,28.864 c 7.23199,0 7.296,0 7.296,-1.28 l 0,-30.72 m -6.976,-9.344 c 0,4.031996 1.344,5.184 3.456,5.184 2.496,0 3.84,-2.048004 3.84,-5.504 0,-3.455997 -0.768,-4.672 -3.392,-4.672 -2.688,0 -3.904,2.048003 -3.904,4.992"
             id="path3996"
             style="font-variant:normal;font-stretch:normal;fill:#a00000;font-family:Yanone Kaffeesatz;-inkscape-font-specification:Yanone Kaffeesatz Bold" />
          <path
             d="m 367.31616,93.82059 c 0,5.695994 1.02401,9.024 6.656,9.024 2.432,0 5.824,-0.384 5.824,-3.456 0,-1.407999 -0.256,-2.560001 -0.448,-3.456 -1.216,0.575999 -2.176,0.832 -3.328,0.832 -1.536,0 -1.536,-1.600002 -1.536,-3.072 l 0,-17.408 3.84,0 c 1.344,0 1.408,-0.576006 1.408,-6.08 l -5.248,0 0,-11.52 c -5.75999,0 -7.168,2e-6 -7.168,2.24 l 0,9.28 -2.368,0 c -1.408,0 -1.472,0.640005 -1.472,6.08 l 3.84,0 0,17.536"
             id="path3998"
             style="font-variant:normal;font-stretch:normal;fill:#a00000;font-family:Yanone Kaffeesatz;-inkscape-font-specification:Yanone Kaffeesatz Bold" />
          <path
             d="m 388.76916,103.22859 c -0.448,4.16 -1.664,5.312 -3.2,5.312 -1.856,0 -3.584,-0.512 -4.352,-1.088 -0.576,0.96 -0.896,2.624 -0.896,3.904 0,1.792 1.15201,3.2 5.888,3.2 5.184,0 7.296,-2.49601 9.088,-10.88 l 7.168,-33.472 c -7.23199,0 -7.36,2e-6 -7.616,1.984 l -1.216,9.088 c -0.768,5.375994 -1.28,12.16 -1.344,12.8 -0.128,-0.959999 -0.704,-7.616005 -1.6,-12.8 l -1.856,-11.072 c -7.48799,0 -7.488,2e-6 -7.04,1.856 l 6.976,31.168"
             id="path4000"
             style="font-variant:normal;font-stretch:normal;fill:#a00000;font-family:Yanone Kaffeesatz;-inkscape-font-specification:Yanone Kaffeesatz Bold" />
        </g>
      </g>
      <g
         id="layer17"
         style="display:none">
        <g
           id="text3844-6"
           style="font-size:64px;font-style:normal;font-weight:bold;line-height:125%;letter-spacing:0px;word-spacing:0px;fill:#a00000;fill-opacity:1;stroke:none;display:inline;font-family:Sans;-inkscape-font-specification:Yanone Kaffeesatz Bold">
          <path
             d="m 271.92516,64.06059 c 0.896,0 1.28,-0.256001 1.28,-1.28 l 0,-5.376 -21.76,0 c -0.896,0 -1.28,0.384001 -1.28,1.28 l 0,5.376 7.808,0 0,38.144 c 7.03999,0 7.168,0 7.168,-1.28 l 0,-36.864 6.784,0"
             id="path4024"
             style="font-variant:normal;font-stretch:normal;fill:#a00000;font-family:Yanone Kaffeesatz;-inkscape-font-specification:Yanone Kaffeesatz Bold" />
          <path
             d="m 282.98816,95.80459 0,-14.592 6.528,0 c 1.216,0 1.216,-1.152006 1.216,-6.528 l -7.744,0 0,-10.88 8.192,0 c 1.28,0 1.28,-0.640006 1.28,-6.4 l -15.36,0 c -1.216,0 -1.28,1.28 -1.28,1.28 l 0,43.52 14.912,0 c 1.28,0 1.28,-0.38401 1.28,-6.4 l -9.024,0"
             id="path4026"
             style="font-variant:normal;font-stretch:normal;fill:#a00000;font-family:Yanone Kaffeesatz;-inkscape-font-specification:Yanone Kaffeesatz Bold" />
          <path
             d="m 315.55016,64.06059 c 0.896,0 1.28,-0.256001 1.28,-1.28 l 0,-5.376 -21.76,0 c -0.896,0 -1.28,0.384001 -1.28,1.28 l 0,5.376 7.808,0 0,38.144 c 7.03999,0 7.168,0 7.168,-1.28 l 0,-36.864 6.784,0"
             id="path4028"
             style="font-variant:normal;font-stretch:normal;fill:#a00000;font-family:Yanone Kaffeesatz;-inkscape-font-specification:Yanone Kaffeesatz Bold" />
          <path
             d="m 326.74116,57.40459 -6.016,0 c -1.28,0 -1.28,1.28 -1.28,1.28 l 0,43.52 c 7.03999,0 7.168,0 7.168,-1.28 l 0,-16 1.536,0 c 1.6,2.239998 3.904,7.29601 4.16,17.28 1.6,0.128 3.072,0.192 4.224,0.192 3.456,0 3.712,-0.384 3.712,-1.6 -0.384,-9.98399 -3.392,-15.424003 -5.504,-18.176 2.624,-2.047998 4.48,-5.696006 4.48,-12.032 0,-10.49599 -4.41601,-13.184 -12.48,-13.184 m 4.416,12.8 c 0,6.655993 -1.28,8.128 -3.264,8.128 l -1.28,0 0,-14.72 1.728,0 c 1.984,0 2.816,1.984004 2.816,6.592"
             id="path4030"
             style="font-variant:normal;font-stretch:normal;fill:#a00000;font-family:Yanone Kaffeesatz;-inkscape-font-specification:Yanone Kaffeesatz Bold" />
          <path
             d="m 361.44116,102.20459 c 1.856,0.128 3.2,0.128 4.16,0.128 2.88,0 3.392,-0.448 3.2,-1.28 l -10.688,-43.52 c -0.896,-0.192 -2.176,-0.256 -3.392,-0.256 -1.664,0 -2.688,0.384001 -2.88,1.344 l -10.688,43.456 c 1.664,0.192 3.584,0.256 4.544,0.256 2.88,0 3.072,-0.448 3.264,-1.344 l 1.856,-8.96 8.512,0 2.112,10.176 m -8.064,-22.592 c 0.704,-3.391997 1.28,-8.064004 1.728,-12.096 0.384,4.031996 0.96,8.704003 1.664,12.096 l 1.216,5.952 -5.824,0 1.216,-5.952"
             id="path4032"
             style="font-variant:normal;font-stretch:normal;fill:#a00000;font-family:Yanone Kaffeesatz;-inkscape-font-specification:Yanone Kaffeesatz Bold" />
        </g>
      </g>
      <g
         id="layer20"
         style="display:none">
        <g
           id="text3852-9"
           style="font-size:64px;font-style:normal;font-weight:bold;line-height:125%;letter-spacing:0px;word-spacing:0px;fill:#a00000;fill-opacity:1;stroke:none;display:inline;font-family:Sans;-inkscape-font-specification:Yanone Kaffeesatz Bold">
          <path
             d="m 253.23716,57.40459 c -1.408,0 -1.792,0.448001 -1.792,1.28 l 0,43.52 8.256,0 c 8.63999,0 12.224,-7.552017 12.224,-24.64 0,-16.447984 -4.03201,-20.16 -12.544,-20.16 l -6.144,0 m 10.432,19.392 c 0,16.255984 -1.792,18.624 -3.776,18.624 l -1.28,0 0,-31.488 1.216,0 c 2.304,0 3.84,1.408011 3.84,12.864"
             id="path4056"
             style="font-variant:normal;font-stretch:normal;fill:#a00000;font-family:Yanone Kaffeesatz;-inkscape-font-specification:Yanone Kaffeesatz Bold" />
          <path
             d="m 282.23816,95.80459 0,-14.592 6.528,0 c 1.216,0 1.216,-1.152006 1.216,-6.528 l -7.744,0 0,-10.88 8.192,0 c 1.28,0 1.28,-0.640006 1.28,-6.4 l -15.36,0 c -1.216,0 -1.28,1.28 -1.28,1.28 l 0,43.52 14.912,0 c 1.28,0 1.28,-0.38401 1.28,-6.4 l -9.024,0"
             id="path4058"
             style="font-variant:normal;font-stretch:normal;fill:#a00000;font-family:Yanone Kaffeesatz;-inkscape-font-specification:Yanone Kaffeesatz Bold" />
          <path
             d="m 306.60816,56.44459 c -5.75999,0 -12.8,3.840021 -12.8,24.832 0,17.919982 3.45601,21.888 10.688,21.888 4.864,0 7.808,-1.728 7.808,-4.736 0,-1.535999 -0.448,-3.136001 -0.96,-4.224 -1.216,0.639999 -3.008,0.96 -4.992,0.96 -3.58399,0 -4.992,-3.328011 -4.992,-14.464 0,-13.951986 3.32801,-17.28 6.976,-17.28 1.408,0 2.56,0.512 3.328,1.088 0.512,-1.087999 1.024,-2.560002 1.024,-4.288 0,-1.919998 -0.64,-3.776 -6.08,-3.776"
             id="path4060"
             style="font-variant:normal;font-stretch:normal;fill:#a00000;font-family:Yanone Kaffeesatz;-inkscape-font-specification:Yanone Kaffeesatz Bold" />
          <path
             d="m 335.42516,64.06059 c 0.896,0 1.28,-0.256001 1.28,-1.28 l 0,-5.376 -21.76,0 c -0.896,0 -1.28,0.384001 -1.28,1.28 l 0,5.376 7.808,0 0,38.144 c 7.03999,0 7.168,0 7.168,-1.28 l 0,-36.864 6.784,0"
             id="path4062"
             style="font-variant:normal;font-stretch:normal;fill:#a00000;font-family:Yanone Kaffeesatz;-inkscape-font-specification:Yanone Kaffeesatz Bold" />
        </g>
      </g>
      <g
         id="layer21"
         style="display:none">
        <g
           id="text3862-2"
           style="font-size:64px;font-style:normal;font-weight:bold;line-height:125%;letter-spacing:0px;word-spacing:0px;fill:#a00000;fill-opacity:1;stroke:none;display:inline;font-family:Sans;-inkscape-font-specification:Yanone Kaffeesatz Bold">
          <path
             d="m 250.80516,79.54859 c 0,18.943981 3.13601,23.232 11.52,23.232 8.38399,0 12.096,-5.504018 12.096,-23.488 0,-17.663982 -3.07201,-22.464 -11.392,-22.464 -8.25599,0 -12.224,5.312017 -12.224,22.72 m 8.192,1.6 c 0,-12.543988 0.832,-16.96 3.776,-16.96 3.456,0 3.776,4.224011 3.776,15.36 0,11.327989 -0.704,15.808 -3.84,15.808 -3.26399,0 -3.712,-4.22401 -3.712,-14.208"
             id="path4086"
             style="font-variant:normal;font-stretch:normal;fill:#a00000;font-family:Yanone Kaffeesatz;-inkscape-font-specification:Yanone Kaffeesatz Bold" />
          <path
             d="m 277.76216,111.67659 c 0,2.496 0.96,3.136 3.456,3.136 1.152,0 2.624,-0.192 3.712,-0.576 l 0,-12.608 c 1.024,0.832 2.304,1.216 4.224,1.216 4.608,0 8.384,-3.136017 8.384,-20.288 0,-10.49599 -4.224,-12.992 -10.304,-12.992 -3.39199,0 -6.976,0.960001 -9.472,2.496 l 0,39.616 m 7.168,-35.2 c 0.512,-0.448 1.216,-0.768 1.92,-0.768 1.856,0 2.624,1.152006 2.624,7.296 0,12.159988 -1.408,13.504 -2.752,13.504 -0.704,0 -1.216,-0.320001 -1.792,-1.152 l 0,-18.88"
             id="path4088"
             style="font-variant:normal;font-stretch:normal;fill:#a00000;font-family:Yanone Kaffeesatz;-inkscape-font-specification:Yanone Kaffeesatz Bold" />
          <path
             d="m 311.57216,69.56459 c -6.01599,0 -11.264,2.688015 -11.264,18.176 0,12.159988 4.09601,15.104 9.92,15.104 4.992,0 9.088,-1.408 9.088,-3.968 0,-1.471999 -0.192,-3.520001 -0.576,-4.8 -2.24,1.087999 -4.48,1.792 -6.784,1.792 -3.072,0 -3.968,-1.792004 -4.16,-5.824 3.136,-0.064 7.936,-0.320001 11.072,-0.96 0.64,-2.495998 0.896,-6.016003 0.896,-9.088 0,-7.423993 -3.072,-10.432 -8.192,-10.432 m -0.96,6.208 c 1.6,0 2.176,0.640004 2.176,4.736 0,1.023999 -0.064,2.560001 -0.32,3.328 -0.96,0.447999 -2.944,0.576 -4.736,0.576 0.192,-5.823994 0.896,-8.64 2.88,-8.64"
             id="path4090"
             style="font-variant:normal;font-stretch:normal;fill:#a00000;font-family:Yanone Kaffeesatz;-inkscape-font-specification:Yanone Kaffeesatz Bold" />
          <path
             d="m 323.13716,102.20459 c 7.03999,0 7.168,0 7.168,-1.28 l 0,-24.448 c 0.704,-0.512 1.6,-0.768 2.432,-0.768 1.792,0 2.112,1.024003 2.112,4.352 l 0,22.144 c 7.23199,0 7.424,0 7.424,-1.28 l 0,-23.104 c 0,-6.399994 -2.752,-8.256 -9.216,-8.256 -3.2,0 -7.936,1.152001 -9.92,2.112 l 0,30.528"
             id="path4092"
             style="font-variant:normal;font-stretch:normal;fill:#a00000;font-family:Yanone Kaffeesatz;-inkscape-font-specification:Yanone Kaffeesatz Bold" />
          <path
             d="m 346.07016,102.20459 8.384,0 c 8.63999,0 11.968,-6.784009 11.968,-15.232 0,-7.487993 -4.224,-8.96 -7.36,-9.28 2.816,-0.384 5.888,-3.712007 5.888,-10.24 0,-8.319992 -5.44,-10.048 -10.816,-10.048 l -6.272,0 c -1.408,0 -1.792,0.448001 -1.792,1.28 l 0,43.52 m 7.296,-38.528 1.472,0 c 1.152,0 2.176,0.832004 2.176,5.312 0,3.647996 -0.896,6.08 -2.432,6.08 l -1.216,0 0,-11.392 m 0,17.408 1.408,0 c 1.984,0 3.072,0.768006 3.072,6.528 0,5.247995 -1.216,8.384 -3.2,8.384 l -1.28,0 0,-14.912"
             id="path4094"
             style="font-variant:normal;font-stretch:normal;fill:#a00000;font-family:Yanone Kaffeesatz;-inkscape-font-specification:Yanone Kaffeesatz Bold" />
          <path
             d="m 379.37716,56.76459 c -7.55199,0 -11.392,4.032006 -11.392,9.792 0,2.815997 0.64,5.504004 3.584,9.408 l 5.824,7.808 c 2.24,2.943997 2.88,4.608002 2.88,6.784 0,3.007997 -1.152,4.928 -4.672,4.928 -2.304,0 -4.608,-0.896001 -5.952,-2.112 -1.088,1.663998 -1.6,3.776001 -1.6,5.184 0,2.24 2.62401,4.288 8.384,4.288 9.27999,0 11.648,-6.080007 11.648,-12.48 0,-3.647997 -0.768,-6.464004 -3.84,-10.432 l -6.144,-7.872 c -1.664,-2.303998 -2.304,-3.712002 -2.304,-5.696 0,-2.239998 1.92,-3.264 5.056,-3.264 2.432,0 4.864,0.768 5.568,1.28 1.216,-1.343999 1.664,-2.816001 1.664,-4.032 0,-2.239998 -2.24,-3.584 -8.704,-3.584"
             id="path4096"
             style="font-variant:normal;font-stretch:normal;fill:#a00000;font-family:Yanone Kaffeesatz;-inkscape-font-specification:Yanone Kaffeesatz Bold" />
          <path
             d="m 403.23316,56.44459 c -5.75999,0 -12.8,3.840021 -12.8,24.832 0,17.919982 3.45601,21.888 10.688,21.888 4.864,0 7.808,-1.728 7.808,-4.736 0,-1.535999 -0.448,-3.136001 -0.96,-4.224 -1.216,0.639999 -3.008,0.96 -4.992,0.96 -3.58399,0 -4.992,-3.328011 -4.992,-14.464 0,-13.951986 3.32801,-17.28 6.976,-17.28 1.408,0 2.56,0.512 3.328,1.088 0.512,-1.087999 1.024,-2.560002 1.024,-4.288 0,-1.919998 -0.64,-3.776 -6.08,-3.776"
             id="path4098"
             style="font-variant:normal;font-stretch:normal;fill:#a00000;font-family:Yanone Kaffeesatz;-inkscape-font-specification:Yanone Kaffeesatz Bold" />
        </g>
      </g>
      <g
         id="layer24"
         style="display:none">
        <g
           id="text3852-8-2"
           style="font-size:64px;font-style:normal;font-weight:bold;line-height:125%;letter-spacing:0px;word-spacing:0px;fill:#a00000;fill-opacity:1;stroke:none;display:inline;font-family:Sans;-inkscape-font-specification:Yanone Kaffeesatz Bold">
          <path
             d="m 268.27716,102.20459 5.568,0 c 0.832,0 1.28,-0.512 1.28,-1.28 l 0,-43.52 c -7.03999,0 -7.168,1e-6 -7.168,1.28 l 0,14.912 c 0,4.287996 0.192,8.512005 0.768,13.76 -0.896,-4.095996 -2.24,-9.408004 -3.648,-13.12 l -6.656,-16.832 -5.696,0 c -0.896,0 -1.28,0.384001 -1.28,1.28 l 0,43.52 c 7.10399,0 7.168,0 7.168,-1.28 l 0,-15.36 c 0,-3.967996 -0.384,-9.408005 -0.896,-14.464 0.96,4.415995 2.368,10.432003 3.776,13.952 l 6.784,17.152"
             id="path3267"
             style="font-variant:normal;font-stretch:normal;fill:#a00000;font-family:Yanone Kaffeesatz;-inkscape-font-specification:Yanone Kaffeesatz Bold" />
          <path
             d="m 286.11316,95.80459 0,-14.592 6.528,0 c 1.216,0 1.216,-1.152006 1.216,-6.528 l -7.744,0 0,-10.88 8.192,0 c 1.28,0 1.28,-0.640006 1.28,-6.4 l -15.36,0 c -1.216,0 -1.28,1.28 -1.28,1.28 l 0,43.52 14.912,0 c 1.28,0 1.28,-0.38401 1.28,-6.4 l -9.024,0"
             id="path3269"
             style="font-variant:normal;font-stretch:normal;fill:#a00000;font-family:Yanone Kaffeesatz;-inkscape-font-specification:Yanone Kaffeesatz Bold" />
          <path
             d="m 318.67516,64.06059 c 0.896,0 1.28,-0.256001 1.28,-1.28 l 0,-5.376 -21.76,0 c -0.896,0 -1.28,0.384001 -1.28,1.28 l 0,5.376 7.808,0 0,38.144 c 7.03999,0 7.168,0 7.168,-1.28 l 0,-36.864 6.784,0"
             id="path3271"
             style="font-variant:normal;font-stretch:normal;fill:#a00000;font-family:Yanone Kaffeesatz;-inkscape-font-specification:Yanone Kaffeesatz Bold" />
        </g>
      </g>
      <g
         id="layer25"
         style="display:none">
        <g
           id="text3852-2-1"
           style="font-size:64px;font-style:normal;font-weight:bold;line-height:125%;letter-spacing:0px;word-spacing:0px;fill:#a00000;fill-opacity:1;stroke:none;display:inline;font-family:Sans;-inkscape-font-specification:Yanone Kaffeesatz Bold">
          <path
             d="m 261.87716,56.76459 c -7.55199,0 -11.392,4.032006 -11.392,9.792 0,2.815997 0.64,5.504004 3.584,9.408 l 5.824,7.808 c 2.24,2.943997 2.88,4.608002 2.88,6.784 0,3.007997 -1.152,4.928 -4.672,4.928 -2.304,0 -4.608,-0.896001 -5.952,-2.112 -1.088,1.663998 -1.6,3.776001 -1.6,5.184 0,2.24 2.62401,4.288 8.384,4.288 9.27999,0 11.648,-6.080007 11.648,-12.48 0,-3.647997 -0.768,-6.464004 -3.84,-10.432 l -6.144,-7.872 c -1.664,-2.303998 -2.304,-3.712002 -2.304,-5.696 0,-2.239998 1.92,-3.264 5.056,-3.264 2.432,0 4.864,0.768 5.568,1.28 1.216,-1.343999 1.664,-2.816001 1.664,-4.032 0,-2.239998 -2.24,-3.584 -8.704,-3.584"
             id="path3296"
             style="font-variant:normal;font-stretch:normal;fill:#a00000;font-family:Yanone Kaffeesatz;-inkscape-font-specification:Yanone Kaffeesatz Bold" />
          <path
             d="m 273.38116,102.20459 c 7.23199,0 7.296,0 7.296,-1.28 l 0,-43.52 c -7.16799,0 -7.296,3e-6 -7.296,3.136 l 0,41.664"
             id="path3298"
             style="font-variant:normal;font-stretch:normal;fill:#a00000;font-family:Yanone Kaffeesatz;-inkscape-font-specification:Yanone Kaffeesatz Bold" />
          <path
             d="m 284.57016,102.20459 c 6.656,0 7.104,0 7.104,-1.28 l -0.192,-10.944 c -0.128,-10.49599 -1.856,-19.072 -1.856,-19.072 l 0.192,-0.128 c 1.088,4.351995 2.496,9.984002 3.136,11.776 l 3.008,8.96 2.944,0 c 0.256,0 0.576,-0.064 0.704,-0.448 l 3.072,-8.512 c 0.64,-1.855998 2.112,-7.424005 3.2,-11.776 l 0.192,0.128 c 0,0 -1.6,8.76801 -1.856,19.136 l -0.32,12.16 c 7.35999,0 7.36,0 7.36,-1.28 l 0,-43.52 -6.016,0 c -0.768,0 -0.96,0.320001 -1.28,1.28 l -4.352,14.592 c -1.088,3.519996 -1.472,5.952 -1.536,6.272 -0.128,-0.448 -0.576,-2.816004 -1.728,-6.4 l -5.056,-15.744 -5.44,0 c -0.704,0 -1.28,1e-6 -1.28,1.28 l 0,43.52"
             id="path3300"
             style="font-variant:normal;font-stretch:normal;fill:#a00000;font-family:Yanone Kaffeesatz;-inkscape-font-specification:Yanone Kaffeesatz Bold" />
          <path
             d="m 335.55016,64.06059 c 0.896,0 1.28,-0.256001 1.28,-1.28 l 0,-5.376 -21.76,0 c -0.896,0 -1.28,0.384001 -1.28,1.28 l 0,5.376 7.808,0 0,38.144 c 7.03999,0 7.168,0 7.168,-1.28 l 0,-36.864 6.784,0"
             id="path3302"
             style="font-variant:normal;font-stretch:normal;fill:#a00000;font-family:Yanone Kaffeesatz;-inkscape-font-specification:Yanone Kaffeesatz Bold" />
          <path
             d="m 346.74116,57.40459 -6.016,0 c -1.28,0 -1.28,1.28 -1.28,1.28 l 0,43.52 c 7.03999,0 7.168,0 7.168,-1.28 l 0,-16 1.536,0 c 1.6,2.239998 3.904,7.29601 4.16,17.28 1.6,0.128 3.072,0.192 4.224,0.192 3.456,0 3.712,-0.384 3.712,-1.6 -0.384,-9.98399 -3.392,-15.424003 -5.504,-18.176 2.624,-2.047998 4.48,-5.696006 4.48,-12.032 0,-10.49599 -4.41601,-13.184 -12.48,-13.184 m 4.416,12.8 c 0,6.655993 -1.28,8.128 -3.264,8.128 l -1.28,0 0,-14.72 1.728,0 c 1.984,0 2.816,1.984004 2.816,6.592"
             id="path3304"
             style="font-variant:normal;font-stretch:normal;fill:#a00000;font-family:Yanone Kaffeesatz;-inkscape-font-specification:Yanone Kaffeesatz Bold" />
          <path
             d="m 381.44116,102.20459 c 1.856,0.128 3.2,0.128 4.16,0.128 2.88,0 3.392,-0.448 3.2,-1.28 l -10.688,-43.52 c -0.896,-0.192 -2.176,-0.256 -3.392,-0.256 -1.664,0 -2.688,0.384001 -2.88,1.344 l -10.688,43.456 c 1.664,0.192 3.584,0.256 4.544,0.256 2.88,0 3.072,-0.448 3.264,-1.344 l 1.856,-8.96 8.512,0 2.112,10.176 m -8.064,-22.592 c 0.704,-3.391997 1.28,-8.064004 1.728,-12.096 0.384,4.031996 0.96,8.704003 1.664,12.096 l 1.216,5.952 -5.824,0 1.216,-5.952"
             id="path3306"
             style="font-variant:normal;font-stretch:normal;fill:#a00000;font-family:Yanone Kaffeesatz;-inkscape-font-specification:Yanone Kaffeesatz Bold" />
          <path
             d="m 401.23316,56.44459 c -5.75999,0 -12.8,3.840021 -12.8,24.832 0,17.919982 3.45601,21.888 10.688,21.888 4.864,0 7.808,-1.728 7.808,-4.736 0,-1.535999 -0.448,-3.136001 -0.96,-4.224 -1.216,0.639999 -3.008,0.96 -4.992,0.96 -3.58399,0 -4.992,-3.328011 -4.992,-14.464 0,-13.951986 3.32801,-17.28 6.976,-17.28 1.408,0 2.56,0.512 3.328,1.088 0.512,-1.087999 1.024,-2.560002 1.024,-4.288 0,-1.919998 -0.64,-3.776 -6.08,-3.776"
             id="path3308"
             style="font-variant:normal;font-stretch:normal;fill:#a00000;font-family:Yanone Kaffeesatz;-inkscape-font-specification:Yanone Kaffeesatz Bold" />
          <path
             d="m 416.73816,95.80459 0,-14.592 6.528,0 c 1.216,0 1.216,-1.152006 1.216,-6.528 l -7.744,0 0,-10.88 8.192,0 c 1.28,0 1.28,-0.640006 1.28,-6.4 l -15.36,0 c -1.216,0 -1.28,1.28 -1.28,1.28 l 0,43.52 14.912,0 c 1.28,0 1.28,-0.38401 1.28,-6.4 l -9.024,0"
             id="path3310"
             style="font-variant:normal;font-stretch:normal;fill:#a00000;font-family:Yanone Kaffeesatz;-inkscape-font-specification:Yanone Kaffeesatz Bold" />
        </g>
      </g>
      <g
         id="layer31"
         style="display:none">
        <g
           id="text3852-2-5-3"
           style="font-size:64px;font-style:normal;font-weight:bold;line-height:125%;letter-spacing:0px;word-spacing:0px;fill:#a00000;fill-opacity:1;stroke:none;display:inline;font-family:Sans;-inkscape-font-specification:Yanone Kaffeesatz Bold">
          <path
             d="m 264.56516,56.82859 c -8.89599,0 -14.08,3.84002 -14.08,24.448 0,17.151983 2.49601,21.504 12.16,21.504 3.648,0 6.784,-0.576 8.832,-1.92 l 0.064,-25.856 -8.128,0 c -1.024,0 -1.536,0.448001 -1.536,1.28 l 0,4.608 2.944,0 0,14.336 c -0.256,0.256 -0.768,0.576 -2.048,0.576 -3.45599,0 -4.544,-2.048013 -4.544,-15.104 0,-12.287988 1.40801,-17.088 7.872,-17.088 1.664,0 3.584,0.512001 4.544,1.28 0.448,-1.279999 0.896,-2.752002 0.896,-4.416 0,-1.919998 -2.368,-3.648 -6.976,-3.648"
             id="path3195"
             style="font-variant:normal;font-stretch:normal;fill:#a00000;font-family:Yanone Kaffeesatz;-inkscape-font-specification:Yanone Kaffeesatz Bold" />
          <path
             d="m 275.07016,102.20459 c 6.656,0 7.104,0 7.104,-1.28 l -0.192,-10.944 c -0.128,-10.49599 -1.856,-19.072 -1.856,-19.072 l 0.192,-0.128 c 1.088,4.351995 2.496,9.984002 3.136,11.776 l 3.008,8.96 2.944,0 c 0.256,0 0.576,-0.064 0.704,-0.448 l 3.072,-8.512 c 0.64,-1.855998 2.112,-7.424005 3.2,-11.776 l 0.192,0.128 c 0,0 -1.6,8.76801 -1.856,19.136 l -0.32,12.16 c 7.35999,0 7.36,0 7.36,-1.28 l 0,-43.52 -6.016,0 c -0.768,0 -0.96,0.320001 -1.28,1.28 l -4.352,14.592 c -1.088,3.519996 -1.472,5.952 -1.536,6.272 -0.128,-0.448 -0.576,-2.816004 -1.728,-6.4 l -5.056,-15.744 -5.44,0 c -0.704,0 -1.28,1e-6 -1.28,1.28 l 0,43.52"
             id="path3197"
             style="font-variant:normal;font-stretch:normal;fill:#a00000;font-family:Yanone Kaffeesatz;-inkscape-font-specification:Yanone Kaffeesatz Bold" />
          <path
             d="m 312.86616,57.40459 -6.016,0 c -1.28,0 -1.28,1.28 -1.28,1.28 l 0,43.52 c 7.03999,0 7.168,0 7.168,-1.28 l 0,-16 1.536,0 c 1.6,2.239998 3.904,7.29601 4.16,17.28 1.6,0.128 3.072,0.192 4.224,0.192 3.456,0 3.712,-0.384 3.712,-1.6 -0.384,-9.98399 -3.392,-15.424003 -5.504,-18.176 2.624,-2.047998 4.48,-5.696006 4.48,-12.032 0,-10.49599 -4.41601,-13.184 -12.48,-13.184 m 4.416,12.8 c 0,6.655993 -1.28,8.128 -3.264,8.128 l -1.28,0 0,-14.72 1.728,0 c 1.984,0 2.816,1.984004 2.816,6.592"
             id="path3199"
             style="font-variant:normal;font-stretch:normal;fill:#a00000;font-family:Yanone Kaffeesatz;-inkscape-font-specification:Yanone Kaffeesatz Bold" />
        </g>
      </g>
      <g
         id="layer35"
         style="display:inline">
        <g
           id="text3852-2-5-4-8"
           style="font-size:64px;font-style:normal;font-weight:bold;line-height:125%;letter-spacing:0px;word-spacing:0px;fill:#a00000;fill-opacity:1;stroke:none;display:inline;font-family:Sans;-inkscape-font-specification:Yanone Kaffeesatz Bold">
          <path
             d="m 261.87716,56.76459 c -7.55199,0 -11.392,4.032006 -11.392,9.792 0,2.815997 0.64,5.504004 3.584,9.408 l 5.824,7.808 c 2.24,2.943997 2.88,4.608002 2.88,6.784 0,3.007997 -1.152,4.928 -4.672,4.928 -2.304,0 -4.608,-0.896001 -5.952,-2.112 -1.088,1.663998 -1.6,3.776001 -1.6,5.184 0,2.24 2.62401,4.288 8.384,4.288 9.27999,0 11.648,-6.080007 11.648,-12.48 0,-3.647997 -0.768,-6.464004 -3.84,-10.432 l -6.144,-7.872 c -1.664,-2.303998 -2.304,-3.712002 -2.304,-5.696 0,-2.239998 1.92,-3.264 5.056,-3.264 2.432,0 4.864,0.768 5.568,1.28 1.216,-1.343999 1.664,-2.816001 1.664,-4.032 0,-2.239998 -2.24,-3.584 -8.704,-3.584"
             id="path3272"
             style="font-variant:normal;font-stretch:normal;fill:#a00000;font-family:Yanone Kaffeesatz;-inkscape-font-specification:Yanone Kaffeesatz Bold" />
          <path
             d="m 275.23716,57.40459 c -1.408,0 -1.792,0.448001 -1.792,1.28 l 0,43.52 8.256,0 c 8.63999,0 12.224,-7.552017 12.224,-24.64 0,-16.447984 -4.03201,-20.16 -12.544,-20.16 l -6.144,0 m 10.432,19.392 c 0,16.255984 -1.792,18.624 -3.776,18.624 l -1.28,0 0,-31.488 1.216,0 c 2.304,0 3.84,1.408011 3.84,12.864"
             id="path3274"
             style="font-variant:normal;font-stretch:normal;fill:#a00000;font-family:Yanone Kaffeesatz;-inkscape-font-specification:Yanone Kaffeesatz Bold" />
          <path
             d="m 304.36616,57.40459 -6.016,0 c -1.28,0 -1.28,1.28 -1.28,1.28 l 0,43.52 c 7.03999,0 7.168,0 7.168,-1.28 l 0,-16 1.536,0 c 1.6,2.239998 3.904,7.29601 4.16,17.28 1.6,0.128 3.072,0.192 4.224,0.192 3.456,0 3.712,-0.384 3.712,-1.6 -0.384,-9.98399 -3.392,-15.424003 -5.504,-18.176 2.624,-2.047998 4.48,-5.696006 4.48,-12.032 0,-10.49599 -4.41601,-13.184 -12.48,-13.184 m 4.416,12.8 c 0,6.655993 -1.28,8.128 -3.264,8.128 l -1.28,0 0,-14.72 1.728,0 c 1.984,0 2.816,1.984004 2.816,6.592"
             id="path3276"
             style="font-variant:normal;font-stretch:normal;fill:#a00000;font-family:Yanone Kaffeesatz;-inkscape-font-specification:Yanone Kaffeesatz Bold" />
        </g>
      </g>
      <g
         id="layer36"
         style="display:none">
        <g
           id="text3852-2-5-40-8"
           style="font-size:64px;font-style:normal;font-weight:bold;line-height:125%;letter-spacing:0px;word-spacing:0px;fill:#a00000;fill-opacity:1;stroke:none;display:inline;font-family:Sans;-inkscape-font-specification:Yanone Kaffeesatz Bold">
          <path
             d="m 250.80516,79.54859 c 0,18.943981 3.13601,23.232 11.52,23.232 8.38399,0 12.096,-5.504018 12.096,-23.488 0,-17.663982 -3.07201,-22.464 -11.392,-22.464 -8.25599,0 -12.224,5.312017 -12.224,22.72 m 8.192,1.6 c 0,-12.543988 0.832,-16.96 3.776,-16.96 3.456,0 3.776,4.224011 3.776,15.36 0,11.327989 -0.704,15.808 -3.84,15.808 -3.26399,0 -3.712,-4.22401 -3.712,-14.208"
             id="path3301"
             style="font-variant:normal;font-stretch:normal;fill:#a00000;font-family:Yanone Kaffeesatz;-inkscape-font-specification:Yanone Kaffeesatz Bold" />
          <path
             d="m 277.57016,102.20459 c 7.10399,0 7.168,0 7.168,-1.28 l 0,-16 0.448,0 c 5.952,0 12.16,-2.752012 12.16,-14.336 0,-10.49599 -4.41601,-13.184 -12.48,-13.184 l -6.016,0 c -1.088,0 -1.28,0.384001 -1.28,1.28 l 0,43.52 m 11.712,-32.512 c 0,7.167993 -1.28,8.64 -3.264,8.64 l -1.28,0 0,-14.72 1.728,0 c 1.984,0 2.816,1.984004 2.816,6.08"
             id="path3303"
             style="font-variant:normal;font-stretch:normal;fill:#a00000;font-family:Yanone Kaffeesatz;-inkscape-font-specification:Yanone Kaffeesatz Bold" />
          <path
             d="m 301.41716,72.57259 c 2.176,-1.151999 6.336,-1.92 8.384,-1.92 2.304,0 3.776,1.216002 3.776,3.392 0,5.311995 -7.232,11.072009 -12.608,20.48 -1.408,2.495997 -1.664,3.392002 -1.664,5.696 0,0.192 0,1.216 0.256,1.984 l 21.12,0 c 1.6,0 1.664,-1.47201 1.664,-7.424 0,0 -3.456,0.704 -8.768,0.704 l -4.736,0 c 5.888,-9.535991 12.992,-14.976008 12.992,-22.656 0,-5.823994 -2.56001,-9.024 -9.792,-9.024 -5.75999,0 -11.52,1.600002 -11.52,3.584 0,1.087999 0.064,3.392002 0.896,5.248 l 0,-0.064"
             id="path3305"
             style="font-variant:normal;font-stretch:normal;fill:#a00000;font-family:Yanone Kaffeesatz;-inkscape-font-specification:Yanone Kaffeesatz Bold" />
          <path
             d="m 327.81016,63.80459 -1.984,20.224 c 1.792,-0.448 3.712,-0.704 5.632,-0.704 6.97599,0 8.256,1.920006 8.256,8.256 0,4.543995 -2.624,10.368 -8.064,10.368 -2.304,0 -4.096,-0.576 -5.44,-1.856 -0.576,1.728 -0.768,3.136 -0.768,5.824 0,0.896 1.85601,2.688 7.104,2.688 9.47199,0 14.848,-7.36001 14.848,-18.816 0,-11.135989 -6.72,-12.352 -11.52,-12.352 -1.152,0 -2.112,0.128 -2.752,0.256 l 0.768,-7.936 c 0,0 6.784,0.384 9.92,0.384 3.2,0 3.584,-1.152005 3.584,-6.336 l -19.584,0"
             id="path3307"
             style="font-variant:normal;font-stretch:normal;fill:#a00000;font-family:Yanone Kaffeesatz;-inkscape-font-specification:Yanone Kaffeesatz Bold" />
        </g>
      </g>
      <g
         id="layer38"
         style="display:none">
        <g
           id="text3852-2-5-43-8"
           style="font-size:64px;font-style:normal;font-weight:bold;line-height:125%;letter-spacing:0px;word-spacing:0px;fill:#a00000;fill-opacity:1;stroke:none;display:inline;font-family:Sans;-inkscape-font-specification:Yanone Kaffeesatz Bold">
          <path
             d="m 263.73316,56.44459 c -5.75999,0 -12.8,3.840021 -12.8,24.832 0,17.919982 3.45601,21.888 10.688,21.888 4.864,0 7.808,-1.728 7.808,-4.736 0,-1.535999 -0.448,-3.136001 -0.96,-4.224 -1.216,0.639999 -3.008,0.96 -4.992,0.96 -3.58399,0 -4.992,-3.328011 -4.992,-14.464 0,-13.951986 3.32801,-17.28 6.976,-17.28 1.408,0 2.56,0.512 3.328,1.088 0.512,-1.087999 1.024,-2.560002 1.024,-4.288 0,-1.919998 -0.64,-3.776 -6.08,-3.776"
             id="path3331"
             style="font-variant:normal;font-stretch:normal;fill:#a00000;font-family:Yanone Kaffeesatz;-inkscape-font-specification:Yanone Kaffeesatz Bold" />
          <path
             d="m 270.43016,79.54859 c 0,18.943981 3.13601,23.232 11.52,23.232 8.38399,0 12.096,-5.504018 12.096,-23.488 0,-17.663982 -3.07201,-22.464 -11.392,-22.464 -8.25599,0 -12.224,5.312017 -12.224,22.72 m 8.192,1.6 c 0,-12.543988 0.832,-16.96 3.776,-16.96 3.456,0 3.776,4.224011 3.776,15.36 0,11.327989 -0.704,15.808 -3.84,15.808 -3.26399,0 -3.712,-4.22401 -3.712,-14.208"
             id="path3333"
             style="font-variant:normal;font-stretch:normal;fill:#a00000;font-family:Yanone Kaffeesatz;-inkscape-font-specification:Yanone Kaffeesatz Bold" />
          <path
             d="m 307.62716,56.76459 c -7.55199,0 -11.392,4.032006 -11.392,9.792 0,2.815997 0.64,5.504004 3.584,9.408 l 5.824,7.808 c 2.24,2.943997 2.88,4.608002 2.88,6.784 0,3.007997 -1.152,4.928 -4.672,4.928 -2.304,0 -4.608,-0.896001 -5.952,-2.112 -1.088,1.663998 -1.6,3.776001 -1.6,5.184 0,2.24 2.62401,4.288 8.384,4.288 9.27999,0 11.648,-6.080007 11.648,-12.48 0,-3.647997 -0.768,-6.464004 -3.84,-10.432 l -6.144,-7.872 c -1.664,-2.303998 -2.304,-3.712002 -2.304,-5.696 0,-2.239998 1.92,-3.264 5.056,-3.264 2.432,0 4.864,0.768 5.568,1.28 1.216,-1.343999 1.664,-2.816001 1.664,-4.032 0,-2.239998 -2.24,-3.584 -8.704,-3.584"
             id="path3335"
             style="font-variant:normal;font-stretch:normal;fill:#a00000;font-family:Yanone Kaffeesatz;-inkscape-font-specification:Yanone Kaffeesatz Bold" />
        </g>
      </g>
      <g
         id="layer26"
         style="display:none">
        <g
           id="text3743-6-0"
           style="font-size:64px;font-style:normal;font-weight:normal;line-height:125%;letter-spacing:0.14px;word-spacing:0px;fill:#a00000;fill-opacity:1;stroke:none;display:inline;font-family:Sans">
          <path
             d="m 59.353342,78.90859 c 0,18.431982 3.264008,23.232 11.52,23.232 8.447992,0 12.096,-5.824017 12.096,-23.424 0,-17.279982 -3.072008,-22.528 -11.392,-22.528 -8.255992,0 -12.224,5.696017 -12.224,22.72 m 5.824,1.28 c 0,-13.823986 1.792004,-18.688 6.272,-18.688 4.607995,0 5.888,4.544013 5.888,17.344 0,13.055987 -1.600005,17.984 -6.208,17.984 -4.543995,0 -5.952,-4.736011 -5.952,-16.64"
             id="path3341"
             style="font-variant:normal;font-stretch:normal;fill:#a00000;font-family:Yanone Kaffeesatz;-inkscape-font-specification:Yanone Kaffeesatz" />
          <path
             d="m 97.364341,68.92459 c -7.167992,0 -10.432,3.072005 -10.432,7.552 0,2.111998 0.768003,4.416003 3.648,6.784 l 6.208,5.312 c 1.919998,1.727999 2.56,3.264002 2.56,4.992 0,2.559998 -1.920003,3.968 -5.184,3.968 -2.495997,0 -4.544001,-0.512001 -6.4,-1.6 -0.703999,1.151999 -0.896,2.240001 -0.896,3.008 0,2.24 3.264005,3.264 7.808,3.264 6.527989,0 10.559999,-3.200005 10.559999,-8.896 0,-3.199996 -1.024,-5.312002 -3.776,-8 l -5.951999,-4.8 c -2.175997,-1.791998 -2.56,-2.816001 -2.56,-3.968 0,-1.983998 2.048003,-3.072 5.056,-3.072 2.431999,0 4.351999,0.512002 6.271999,1.664 0.704,-0.767999 1.152,-1.792 1.152,-2.624 0,-1.279998 -1.47201,-3.584 -8.063999,-3.584"
             id="path3343"
             style="font-variant:normal;font-stretch:normal;fill:#a00000;font-family:Yanone Kaffeesatz;-inkscape-font-specification:Yanone Kaffeesatz" />
        </g>
        <g
           id="text3760-7-6"
           style="font-size:40px;font-style:normal;font-weight:normal;line-height:125%;letter-spacing:0px;word-spacing:0px;fill:#a00000;fill-opacity:1;stroke:none;display:inline;font-family:Sans">
          <path
             d="m 148.61597,85.56459 c 0,14.399986 3.45601,16.64 10.048,16.64 6.84799,0 10.496,-4.928011 10.496,-16.832 0,-12.991987 -3.20001,-16.448 -9.92,-16.448 -6.71999,0 -10.624,4.928012 -10.624,16.64 m 5.632,0.128 c 0,-9.98399 1.984,-12.224 4.8,-12.224 3.008,0 4.48,1.792011 4.48,11.968 0,9.98399 -1.984,12.352 -4.736,12.352 -2.944,0 -4.544,-1.53601 -4.544,-12.096"
             id="path3346"
             style="font-size:64px;font-variant:normal;font-stretch:normal;fill:#a00000;font-family:Yanone Kaffeesatz;-inkscape-font-specification:Yanone Kaffeesatz" />
        </g>
      </g>
      <g
         id="layer27"
         style="display:none">
        <g
           id="text3829-4-3-5"
           style="font-size:64px;font-style:normal;font-weight:bold;line-height:125%;letter-spacing:0px;word-spacing:0px;fill:#a00000;fill-opacity:1;stroke:none;display:inline;font-family:Sans;-inkscape-font-specification:Yanone Kaffeesatz Bold">
          <path
             d="m 173.62415,102.20459 8.384,0 c 8.63999,0 11.968,-6.784009 11.968,-15.232 0,-7.487993 -4.22401,-8.96 -7.36,-9.28 2.81599,-0.384 5.888,-3.712007 5.888,-10.24 0,-8.319992 -5.44001,-10.048 -10.816,-10.048 l -6.272,0 c -1.408,0 -1.792,0.448001 -1.792,1.28 l 0,43.52 m 7.296,-38.528 1.472,0 c 1.152,0 2.176,0.832004 2.176,5.312 0,3.647996 -0.896,6.08 -2.432,6.08 l -1.216,0 0,-11.392 m 0,17.408 1.408,0 c 1.984,0 3.072,0.768006 3.072,6.528 0,5.247995 -1.216,8.384 -3.2,8.384 l -1.28,0 0,-14.912"
             id="path3371"
             style="font-variant:normal;font-stretch:normal;fill:#a00000;font-family:Yanone Kaffeesatz;-inkscape-font-specification:Yanone Kaffeesatz Bold" />
          <path
             d="m 215.97915,64.06059 c 0.896,0 1.28,-0.256001 1.28,-1.28 l 0,-5.376 -21.76,0 c -0.896,0 -1.28,0.384001 -1.28,1.28 l 0,5.376 7.808,0 0,38.144 c 7.03999,0 7.168,0 7.168,-1.28 l 0,-36.864 6.784,0"
             id="path3373"
             style="font-variant:normal;font-stretch:normal;fill:#a00000;font-family:Yanone Kaffeesatz;-inkscape-font-specification:Yanone Kaffeesatz Bold" />
          <path
             d="m 230.30615,56.76459 c -7.552,0 -11.392,4.032006 -11.392,9.792 0,2.815997 0.64,5.504004 3.584,9.408 l 5.824,7.808 c 2.24,2.943997 2.88,4.608002 2.88,6.784 0,3.007997 -1.15201,4.928 -4.672,4.928 -2.304,0 -4.608,-0.896001 -5.952,-2.112 -1.088,1.663998 -1.6,3.776001 -1.6,5.184 0,2.24 2.624,4.288 8.384,4.288 9.27999,0 11.648,-6.080007 11.648,-12.48 0,-3.647997 -0.76801,-6.464004 -3.84,-10.432 l -6.144,-7.872 c -1.664,-2.303998 -2.304,-3.712002 -2.304,-5.696 0,-2.239998 1.92,-3.264 5.056,-3.264 2.43199,0 4.864,0.768 5.568,1.28 1.216,-1.343999 1.664,-2.816001 1.664,-4.032 0,-2.239998 -2.24001,-3.584 -8.704,-3.584"
             id="path3375"
             style="font-variant:normal;font-stretch:normal;fill:#a00000;font-family:Yanone Kaffeesatz;-inkscape-font-specification:Yanone Kaffeesatz Bold" />
        </g>
      </g>
      <g
         id="layer28"
         style="display:none">
        <g
           id="text3829-4-2"
           style="font-size:64px;font-style:normal;font-weight:bold;line-height:125%;letter-spacing:0px;word-spacing:0px;fill:#a00000;fill-opacity:1;stroke:none;display:inline;font-family:Sans;-inkscape-font-specification:Yanone Kaffeesatz Bold">
          <path
             d="m 173.62415,102.20459 8.384,0 c 8.63999,0 11.968,-6.784009 11.968,-15.232 0,-7.487993 -4.22401,-8.96 -7.36,-9.28 2.81599,-0.384 5.888,-3.712007 5.888,-10.24 0,-8.319992 -5.44001,-10.048 -10.816,-10.048 l -6.272,0 c -1.408,0 -1.792,0.448001 -1.792,1.28 l 0,43.52 m 7.296,-38.528 1.472,0 c 1.152,0 2.176,0.832004 2.176,5.312 0,3.647996 -0.896,6.08 -2.432,6.08 l -1.216,0 0,-11.392 m 0,17.408 1.408,0 c 1.984,0 3.072,0.768006 3.072,6.528 0,5.247995 -1.216,8.384 -3.2,8.384 l -1.28,0 0,-14.912"
             id="path3400"
             style="font-variant:normal;font-stretch:normal;fill:#a00000;font-family:Yanone Kaffeesatz;-inkscape-font-specification:Yanone Kaffeesatz Bold" />
          <path
             d="m 206.93115,56.76459 c -7.552,0 -11.392,4.032006 -11.392,9.792 0,2.815997 0.64,5.504004 3.584,9.408 l 5.824,7.808 c 2.24,2.943997 2.88,4.608002 2.88,6.784 0,3.007997 -1.15201,4.928 -4.672,4.928 -2.304,0 -4.608,-0.896001 -5.952,-2.112 -1.088,1.663998 -1.6,3.776001 -1.6,5.184 0,2.24 2.624,4.288 8.384,4.288 9.27999,0 11.648,-6.080007 11.648,-12.48 0,-3.647997 -0.76801,-6.464004 -3.84,-10.432 l -6.144,-7.872 c -1.664,-2.303998 -2.304,-3.712002 -2.304,-5.696 0,-2.239998 1.92,-3.264 5.056,-3.264 2.43199,0 4.864,0.768 5.568,1.28 1.216,-1.343999 1.664,-2.816001 1.664,-4.032 0,-2.239998 -2.24001,-3.584 -8.704,-3.584"
             id="path3402"
             style="font-variant:normal;font-stretch:normal;fill:#a00000;font-family:Yanone Kaffeesatz;-inkscape-font-specification:Yanone Kaffeesatz Bold" />
          <path
             d="m 230.78715,56.44459 c -5.76,0 -12.8,3.840021 -12.8,24.832 0,17.919982 3.456,21.888 10.688,21.888 4.86399,0 7.808,-1.728 7.808,-4.736 0,-1.535999 -0.448,-3.136001 -0.96,-4.224 -1.216,0.639999 -3.008,0.96 -4.992,0.96 -3.584,0 -4.992,-3.328011 -4.992,-14.464 0,-13.951986 3.328,-17.28 6.976,-17.28 1.408,0 2.56,0.512 3.328,1.088 0.512,-1.087999 1.024,-2.560002 1.024,-4.288 0,-1.919998 -0.64001,-3.776 -6.08,-3.776"
             id="path3404"
             style="font-variant:normal;font-stretch:normal;fill:#a00000;font-family:Yanone Kaffeesatz;-inkscape-font-specification:Yanone Kaffeesatz Bold" />
        </g>
      </g>
      <g
         id="layer29"
         style="display:none">
        <g
           id="text3829-4-8-1"
           style="font-size:64px;font-style:normal;font-weight:bold;line-height:125%;letter-spacing:0px;word-spacing:0px;fill:#a00000;fill-opacity:1;stroke:none;display:inline;font-family:Sans;-inkscape-font-specification:Yanone Kaffeesatz Bold">
          <path
             d="m 190.45615,102.20459 5.568,0 c 0.832,0 1.28,-0.512 1.28,-1.28 l 0,-43.52 c -7.04,0 -7.168,1e-6 -7.168,1.28 l 0,14.912 c 0,4.287996 0.192,8.512005 0.768,13.76 -0.896,-4.095996 -2.24,-9.408004 -3.648,-13.12 l -6.656,-16.832 -5.696,0 c -0.896,0 -1.28,0.384001 -1.28,1.28 l 0,43.52 c 7.10399,0 7.168,0 7.168,-1.28 l 0,-15.36 c 0,-3.967996 -0.384,-9.408005 -0.896,-14.464 0.96,4.415995 2.368,10.432003 3.776,13.952 l 6.784,17.152"
             id="path3429"
             style="font-variant:normal;font-stretch:normal;fill:#a00000;font-family:Yanone Kaffeesatz;-inkscape-font-specification:Yanone Kaffeesatz Bold" />
          <path
             d="m 201.06015,102.20459 c 7.23199,0 7.296,0 7.296,-1.28 l 0,-43.52 c -7.168,0 -7.296,3e-6 -7.296,3.136 l 0,41.664"
             id="path3431"
             style="font-variant:normal;font-stretch:normal;fill:#a00000;font-family:Yanone Kaffeesatz;-inkscape-font-specification:Yanone Kaffeesatz Bold" />
          <path
             d="m 232.72915,64.06059 c 0.896,0 1.28,-0.256001 1.28,-1.28 l 0,-5.376 -21.76,0 c -0.896,0 -1.28,0.384001 -1.28,1.28 l 0,5.376 7.808,0 0,38.144 c 7.03999,0 7.168,0 7.168,-1.28 l 0,-36.864 6.784,0"
             id="path3433"
             style="font-variant:normal;font-stretch:normal;fill:#a00000;font-family:Yanone Kaffeesatz;-inkscape-font-specification:Yanone Kaffeesatz Bold" />
          <path
             d="m 236.62415,102.20459 8.384,0 c 8.63999,0 11.968,-6.784009 11.968,-15.232 0,-7.487993 -4.22401,-8.96 -7.36,-9.28 2.81599,-0.384 5.888,-3.712007 5.888,-10.24 0,-8.319992 -5.44001,-10.048 -10.816,-10.048 l -6.272,0 c -1.408,0 -1.792,0.448001 -1.792,1.28 l 0,43.52 m 7.296,-38.528 1.472,0 c 1.152,0 2.176,0.832004 2.176,5.312 0,3.647996 -0.896,6.08 -2.432,6.08 l -1.216,0 0,-11.392 m 0,17.408 1.408,0 c 1.984,0 3.072,0.768006 3.072,6.528 0,5.247995 -1.216,8.384 -3.2,8.384 l -1.28,0 0,-14.912"
             id="path3435"
             style="font-variant:normal;font-stretch:normal;fill:#a00000;font-family:Yanone Kaffeesatz;-inkscape-font-specification:Yanone Kaffeesatz Bold" />
        </g>
      </g>
    </g>
  </g>
  <g
     transform="translate(-8.5808241,-40.81844)"
     id="layer7"
     style="display:inline">
    <path
       d="m 125.47435,100.23253 c 1.7756,-0.505105 3.37825,0.3883 3.38562,-0.1714 l 0.31567,-23.961105 c 1.408,-0.896 3.51048,-2.0368 4.98248,-2.0368 2.56,0 3.08297,1.2805 3.13598,4.352 l 0.38444,22.276605 c 1.20393,-0.1894 2.91326,0.6074 2.92901,-0.1932 l 0.44194,-22.465805 c 0.11329,-5.7589 0.66057,-8.5776 -5.73941,-8.5776 -2.624,0 -5.696,0.768 -7.872,1.984 -1.216,-1.2799 -3.008,-1.984 -5.76,-1.984 -3.51999,0 -5.64844,-0.7463 -8.46443,0.5337 l 0.665,30.311005 c 1.89839,-1.325905 2.59641,0.7217 2.62495,-0.301905 l 0.69448,-24.9108 c 1.472,-0.768 2.944,-1.088 4.352,-1.088 2.56,0 3.57708,0.896 3.64108,3.2 z"
       id="path3959-9-26-3"
       style="font-size:64px;font-style:normal;font-variant:normal;font-weight:normal;font-stretch:normal;writing-mode:lr-tb;fill:#a00000;fill-opacity:1;stroke:#a00000;stroke-opacity:1;display:inline;font-family:Yanone Kaffeesatz;-inkscape-font-specification:Andale Mono" />
    <path
       d="m 115.27172,76.83792 -4.50686,-7.7536 -4.50687,-7.7537 9.01373,0 9.01373,0 -4.50686,7.7537 -4.50687,7.7536 z"
       id="path3981-0-4-1"
       style="font-size:40px;font-style:normal;font-variant:normal;font-weight:normal;font-stretch:normal;fill:#ffffff;fill-opacity:1;stroke:#e19c9c;stroke-width:5;stroke-linecap:round;stroke-linejoin:round;stroke-miterlimit:4;stroke-opacity:1;stroke-dashoffset:0;display:inline;font-family:Yanone Kaffeesatz;-inkscape-font-specification:Yanone Kaffeesatz" />
    <path
       d="m 139.12203,99.68922 0,-27.7235"
       id="path3983-4-9-2"
       style="font-size:40px;font-style:normal;font-variant:normal;font-weight:normal;font-stretch:normal;fill:none;stroke:#e19c9c;stroke-width:5.02204847;stroke-linecap:round;stroke-linejoin:round;stroke-miterlimit:4;stroke-opacity:1;stroke-dasharray:none;display:inline;font-family:Yanone Kaffeesatz;-inkscape-font-specification:Yanone Kaffeesatz" />
    <path
       d="m 127.14671,99.67752 0,-19.8215"
       id="path3985-4-0-9"
       style="font-size:40px;font-style:normal;font-variant:normal;font-weight:normal;font-stretch:normal;fill:none;stroke:#e19c9c;stroke-width:5;stroke-linecap:round;stroke-linejoin:round;stroke-miterlimit:4;stroke-opacity:1;stroke-dasharray:none;display:inline;font-family:Yanone Kaffeesatz;-inkscape-font-specification:Yanone Kaffeesatz" />
    <path
       d="m 115.27108,99.85122 -0.008,-11.7527"
       id="path3951-0-4-91-2"
       style="font-size:40px;font-style:normal;font-variant:normal;font-weight:normal;font-stretch:normal;fill:none;stroke:#e19c9c;stroke-width:4.66915703;stroke-linecap:round;stroke-linejoin:round;stroke-miterlimit:4;stroke-opacity:1;stroke-dasharray:none;display:inline;font-family:Yanone Kaffeesatz;-inkscape-font-specification:Yanone Kaffeesatz" />
  </g>
</svg>
