<?xml version="1.0" encoding="UTF-8" standalone="no"?>
<!-- Created with Inkscape (http://www.inkscape.org/) -->

<svg
   xmlns:dc="http://purl.org/dc/elements/1.1/"
   xmlns:cc="http://creativecommons.org/ns#"
   xmlns:rdf="http://www.w3.org/1999/02/22-rdf-syntax-ns#"
   xmlns:svg="http://www.w3.org/2000/svg"
   xmlns="http://www.w3.org/2000/svg"
   xmlns:xlink="http://www.w3.org/1999/xlink"
   xmlns:sodipodi="http://sodipodi.sourceforge.net/DTD/sodipodi-0.dtd"
   xmlns:inkscape="http://www.inkscape.org/namespaces/inkscape"
   width="253.43782"
   height="77.320358"
   id="svg3510"
   version="1.1"
   inkscape:version="0.92.4 5da689c313, 2019-01-14"
   sodipodi:docname="osmocom.svg"
   inkscape:export-filename="osmocom.png"
   inkscape:export-xdpi="807.63"
   inkscape:export-ydpi="807.63">
  <defs
     id="defs3512">
    <linearGradient
       id="linearGradient3374-5-7-7-0">
      <stop
         id="stop3376-8-6-4-2"
         style="stop-color:#729fcf;stop-opacity:1"
         offset="0" />
      <stop
         id="stop3378-6-7-4-9"
         style="stop-color:#729fcf;stop-opacity:0"
         offset="1" />
    </linearGradient>
    <linearGradient
       id="linearGradient3362-8-6-0-9">
      <stop
         id="stop3364-4-5-78-9"
         style="stop-color:#3465a4;stop-opacity:1"
         offset="0" />
      <stop
         id="stop3366-7-6-6-4"
         style="stop-color:#3465a4;stop-opacity:0"
         offset="1" />
    </linearGradient>
    <linearGradient
       x1="24.837126"
       y1="44.528019"
       x2="21.036427"
       y2="21.041553"
       id="linearGradient3991-3-88-5"
       xlink:href="#linearGradient7101-4-9-4-1"
       gradientUnits="userSpaceOnUse"
       gradientTransform="scale(1.0666667)" />
    <linearGradient
       id="linearGradient7101-4-9-4-1">
      <stop
         id="stop7103-0-4-31-0"
         style="stop-color:#babdb6;stop-opacity:1"
         offset="0" />
      <stop
         id="stop7105-6-8-4-3"
         style="stop-color:#ffffff;stop-opacity:1"
         offset="1" />
    </linearGradient>
    <linearGradient
       x1="39.06765"
       y1="28.5"
       x2="39.421204"
       y2="10.934953"
       id="linearGradient3993-1-9-7"
       xlink:href="#linearGradient6979-9-2-2-8"
       gradientUnits="userSpaceOnUse"
       gradientTransform="scale(1.0666667)" />
    <linearGradient
       id="linearGradient6979-9-2-2-8">
      <stop
         id="stop6981-9-9-0-8"
         style="stop-color:#888a85;stop-opacity:1"
         offset="0" />
      <stop
         id="stop6983-0-3-6-6"
         style="stop-color:#555753;stop-opacity:1"
         offset="1" />
    </linearGradient>
    <radialGradient
       cx="10.28125"
       cy="7.8249326"
       r="4.5250292"
       fx="10.28125"
       fy="7.8249326"
       id="radialGradient3995-7-4-0"
       xlink:href="#linearGradient3374-5-7-7-0"
       gradientUnits="userSpaceOnUse"
       gradientTransform="matrix(2.4161185,0,0,2.4451731,17.296385,56.099837)" />
    <linearGradient
       id="linearGradient3464">
      <stop
         id="stop3466"
         style="stop-color:#729fcf;stop-opacity:1"
         offset="0" />
      <stop
         id="stop3468"
         style="stop-color:#729fcf;stop-opacity:0"
         offset="1" />
    </linearGradient>
    <radialGradient
       cx="10.28125"
       cy="9.8424416"
       r="4.5250292"
       fx="10.28125"
       fy="9.8424416"
       id="radialGradient3997-3-3-4"
       xlink:href="#linearGradient3362-8-6-0-9"
       gradientUnits="userSpaceOnUse"
       gradientTransform="matrix(16.19232,0,0,5.4024269,-124.34023,30.521917)" />
    <linearGradient
       id="linearGradient3471">
      <stop
         id="stop3473"
         style="stop-color:#3465a4;stop-opacity:1"
         offset="0" />
      <stop
         id="stop3475"
         style="stop-color:#3465a4;stop-opacity:0"
         offset="1" />
    </linearGradient>
    <radialGradient
       cx="8.9057236"
       cy="1.7286602"
       r="1.9952321"
       fx="8.9057236"
       fy="1.7286602"
       id="radialGradient3999-1-4-6"
       xlink:href="#linearGradient7131-6-1-5-7"
       gradientUnits="userSpaceOnUse"
       gradientTransform="matrix(0.87560273,0,0,0.87793449,12.764013,0.73049853)" />
    <linearGradient
       id="linearGradient7131-6-1-5-7">
      <stop
         id="stop7133-4-5-2-6"
         style="stop-color:#ffffff;stop-opacity:1"
         offset="0" />
      <stop
         id="stop7135-6-9-5-0"
         style="stop-color:#d3d7cf;stop-opacity:1"
         offset="1" />
    </linearGradient>
    <radialGradient
       cx="8.3046875"
       cy="1.1256332"
       r="2.0507698"
       fx="8.3046875"
       fy="1.1256332"
       id="radialGradient4001-9-6-9"
       xlink:href="#linearGradient7153-0-1-9-75"
       gradientUnits="userSpaceOnUse"
       gradientTransform="matrix(5.2943491,0,0,5.2881329,-7.02204,58.291497)" />
    <linearGradient
       id="linearGradient7153-0-1-9-75">
      <stop
         id="stop7155-8-7-3-9"
         style="stop-color:#ffffff;stop-opacity:1"
         offset="0" />
      <stop
         id="stop7157-5-7-7-7"
         style="stop-color:#ffffff;stop-opacity:0"
         offset="1" />
    </linearGradient>
    <radialGradient
       r="4.5250292"
       fy="8.0709476"
       fx="10.28125"
       cy="8.0709476"
       cx="10.28125"
       gradientTransform="matrix(4.9499444,0,0,4.9510321,-11.38809,35.312197)"
       gradientUnits="userSpaceOnUse"
       id="radialGradient3637"
       xlink:href="#linearGradient3374-5-7-7-0"
       inkscape:collect="always" />
    <radialGradient
       r="4.5250292"
       fy="9.8424416"
       fx="10.28125"
       cy="9.8424416"
       cx="10.28125"
       gradientTransform="matrix(23.169932,0,0,7.6402677,-198.71238,8.843597)"
       gradientUnits="userSpaceOnUse"
       id="radialGradient3639"
       xlink:href="#linearGradient3362-8-6-0-9"
       inkscape:collect="always" />
    <linearGradient
       x1="24.837126"
       y1="44.528019"
       x2="21.036427"
       y2="21.041553"
       id="linearGradient3991-3-88-5-3"
       xlink:href="#linearGradient7101-4-9-4-1"
       gradientUnits="userSpaceOnUse" />
    <linearGradient
       x1="39.06765"
       y1="28.5"
       x2="39.421204"
       y2="10.934953"
       id="linearGradient3993-1-9-7-2"
       xlink:href="#linearGradient6979-9-2-2-8"
       gradientUnits="userSpaceOnUse" />
    <radialGradient
       cx="10.28125"
       cy="7.8249326"
       r="4.5250292"
       fx="10.28125"
       fy="7.8249326"
       id="radialGradient3995-7-4-0-2"
       xlink:href="#linearGradient3374-5-7-7-0"
       gradientUnits="userSpaceOnUse"
       gradientTransform="matrix(2.2651111,0,0,2.2923498,16.215361,52.593597)" />
    <radialGradient
       cx="10.28125"
       cy="9.8424416"
       r="4.5250292"
       fx="10.28125"
       fy="9.8424416"
       id="radialGradient3997-3-3-4-7"
       xlink:href="#linearGradient3362-8-6-0-9"
       gradientUnits="userSpaceOnUse"
       gradientTransform="matrix(15.1803,0,0,5.0647752,-116.56897,28.614297)" />
    <radialGradient
       cx="8.9057236"
       cy="1.7286602"
       r="1.9952321"
       fx="8.9057236"
       fy="1.7286602"
       id="radialGradient3999-1-4-6-0"
       xlink:href="#linearGradient7131-6-1-5-7"
       gradientUnits="userSpaceOnUse"
       gradientTransform="matrix(0.7375073,0,0,0.7201806,2.4345312,0.6617371)" />
    <radialGradient
       cx="8.3046875"
       cy="1.1256332"
       r="2.0507698"
       fx="8.3046875"
       fy="1.1256332"
       id="radialGradient4001-9-6-9-6"
       xlink:href="#linearGradient7153-0-1-9-75"
       gradientUnits="userSpaceOnUse"
       gradientTransform="matrix(5.2943491,0,0,5.2881329,-7.02204,58.291497)" />
    <radialGradient
       cx="10.28125"
       cy="7.8249326"
       r="4.5250292"
       fx="10.28125"
       fy="7.8249326"
       id="radialGradient3995-7-4-0-2-7"
       xlink:href="#linearGradient3374-5-7-7-0"
       gradientUnits="userSpaceOnUse"
       gradientTransform="matrix(2.2651111,0,0,2.2923498,3.634541,11.775157)" />
    <radialGradient
       cx="10.28125"
       cy="9.8424416"
       r="4.5250292"
       fx="10.28125"
       fy="9.8424416"
       id="radialGradient3997-3-3-4-7-5"
       xlink:href="#linearGradient3362-8-6-0-9"
       gradientUnits="userSpaceOnUse"
       gradientTransform="matrix(15.1803,0,0,5.0647752,-129.14979,-12.204143)" />
    <radialGradient
       cx="8.9057236"
       cy="1.7286602"
       r="1.9952321"
       fx="8.9057236"
       fy="1.7286602"
       id="radialGradient3999-1-4-6-0-9"
       xlink:href="#linearGradient7131-6-1-5-7"
       gradientUnits="userSpaceOnUse"
       gradientTransform="matrix(2.6871927,0,0,2.6826194,2.2605571,20.706591)" />
    <radialGradient
       cx="8.3046875"
       cy="1.1256332"
       r="2.0507698"
       fx="8.3046875"
       fy="1.1256332"
       id="radialGradient4001-9-6-9-6-8"
       xlink:href="#linearGradient7153-0-1-9-75"
       gradientUnits="userSpaceOnUse"
       gradientTransform="matrix(5.2943491,0,0,5.2881329,-19.60286,17.473057)" />
  </defs>
  <sodipodi:namedview
     id="base"
     pagecolor="#ffffff"
     bordercolor="#666666"
     borderopacity="1.0"
     inkscape:pageopacity="0.0"
     inkscape:pageshadow="2"
     inkscape:zoom="2.8"
     inkscape:cx="114.01316"
     inkscape:cy="26.574758"
     inkscape:document-units="px"
     inkscape:current-layer="layer7"
     showgrid="false"
     fit-margin-top="5"
     fit-margin-left="5"
     fit-margin-right="5"
     fit-margin-bottom="5"
     inkscape:window-width="1920"
     inkscape:window-height="1200"
     inkscape:window-x="0"
     inkscape:window-y="0"
     inkscape:window-maximized="0" />
  <metadata
     id="metadata3515">
    <rdf:RDF>
      <cc:Work
         rdf:about="">
        <dc:format>image/svg+xml</dc:format>
        <dc:type
           rdf:resource="http://purl.org/dc/dcmitype/StillImage" />
        <dc:title />
      </cc:Work>
    </rdf:RDF>
  </metadata>
  <g
     inkscape:groupmode="layer"
     id="layer7"
     inkscape:label="contour"
     style="display:none"
     transform="translate(4.7427224,4.7416668)">
    <path
       style="display:inline;opacity:1;fill:none;fill-opacity:1;stroke:#ff00ff;stroke-width:1.32237923;stroke-linecap:round;stroke-linejoin:round;stroke-miterlimit:4;stroke-dasharray:none;stroke-opacity:1"
       d="M 28.568682,1.200713 C 28.035486,1.190524 27.501319,1.197123 26.966719,1.220084 15.987983,1.219978 5.6842735,9.2924972 2.8345902,19.864468 0.51731929,28.259552 2.639136,37.904518 8.84922,44.143814 c 1.737797,1.830038 3.721426,3.430464 5.902279,4.703226 -1.154998,4.202838 -2.861777,8.283326 -3.661079,12.561957 -0.29356,3.13941 2.883288,5.615806 5.890657,5.181685 7.648066,-0.05894 15.317524,0.119263 22.952446,-0.08717 3.387873,-0.177279 5.411453,-4.196723 3.971012,-7.157506 -1.08137,-3.477157 -2.332747,-7.075195 -3.198117,-10.508652 4.078885,-2.444156 7.545374,-6.003677 9.817116,-10.185161 -0.698658,4.690563 -0.414883,9.574116 0.104601,14.237529 0.552955,5.046131 3.146028,10.426633 8.23646,12.1881 4.272501,1.456996 9.257014,1.203751 13.270926,-0.900742 1.146818,-0.64556 2.145655,-1.453913 3.012159,-2.378732 2.093071,3.082039 6.369845,4.035284 9.943025,4.186027 5.573522,0.481956 11.735937,-1.637285 14.803157,-6.481466 0.03545,0.444183 0.06603,0.889296 0.112348,1.332711 1.13161,4.785457 7.88468,6.838122 11.40746,3.302719 0.90868,-1.071465 1.44196,-1.578748 2.23732,-0.162715 2.97132,3.134346 8.43814,2.403249 10.90189,-0.991785 2.60762,3.93236 9.1063,3.928706 11.76,0.0213 0.74784,-1.08201 1.10073,-2.282225 1.26491,-3.533232 1.12583,2.143054 2.74373,3.968911 5.03834,5.082895 6.27277,2.920924 14.98144,1.608327 18.88846,-4.507583 0.01,-0.01573 0.0173,-0.03268 0.0271,-0.04843 1.72036,2.831689 4.44788,5.019025 7.78899,5.648521 4.51527,0.882789 9.65217,0.213445 13.33873,-2.682854 0.5282,0.467264 1.10866,0.88827 1.74918,1.259101 5.63242,3.002621 13.45164,2.350599 17.97416,-2.328369 0.28299,0.907547 0.78746,1.719972 1.66975,2.353551 2.18378,1.709771 5.17693,0.995021 7.75801,0.972414 1.45758,-0.113761 2.8556,-0.819169 3.7773,-1.958387 1.91023,2.754378 5.58347,2.055062 8.48441,1.985505 1.55215,-0.07314 3.0707,-0.773763 4.04849,-1.99519 1.84543,2.71171 5.4458,2.085383 8.28295,1.99519 3.06284,0.02494 5.63773,-2.709566 5.46062,-5.760871 0.25772,-9.155337 0.25245,-18.334016 -0.23051,-27.481338 -0.55838,-5.155021 -5.71862,-8.806903 -10.73141,-8.631623 -0.23718,-0.0074 -0.47365,-0.0093 -0.71091,-0.0077 -2.52112,0.01074 -5.03777,0.526158 -7.41902,1.276535 -4.10256,-2.019178 -8.91396,-1.249228 -13.22443,-0.402913 -2.21874,0.574586 -4.97127,1.306264 -6.42723,3.132257 -0.55411,-0.617181 -1.17201,-1.190649 -1.88091,-1.694944 -2.59018,-2.023866 -5.97175,-2.279011 -9.13332,-2.186962 -3.23913,-0.167121 -6.23418,1.113962 -8.59676,3.18262 -2.08913,-2.496922 -5.61473,-3.458986 -8.81564,-3.184557 -0.29661,0.0016 -0.59445,0.0043 -0.89106,0.0059 -4.66265,-0.201192 -8.85902,2.464157 -11.41714,6.229645 -0.72596,-1.317181 -1.65893,-2.520275 -2.8785,-3.542916 -2.55548,-2.120189 -5.9581,-2.816011 -9.205,-2.78552 -5.29681,-0.180265 -10.44965,2.945649 -12.67624,7.759937 -0.0195,-0.336328 -0.0311,-0.67302 -0.0542,-1.009218 -0.19636,-3.288953 -2.98369,-5.864735 -6.18315,-6.229645 -2.9711,-0.767865 -6.45057,-0.603375 -9.19725,-0.135595 1.72959,-2.913237 0.73183,-6.715219 -1.83054,-8.782716 -2.49657,-2.557906 -6.30224,-1.394757 -9.47038,-1.654265 -4.86025,0.08751 -9.75157,-0.178103 -14.592016,0.131722 -0.328931,0.05909 -0.657045,0.119117 -0.985974,0.17821 -3.230305,1.520274 -5.670093,5.350739 -4.280944,8.926059 0.118089,0.293681 0.252092,0.579739 0.37773,0.869749 -0.856368,-0.0635 -1.714567,-0.08675 -2.560818,-0.08136 -4.508352,-0.0909 -9.436498,1.371204 -12.31401,4.939551 -1.850119,-2.451749 -4.542824,-4.235828 -7.663083,-4.629619 -1.160377,-0.197822 -2.339201,-0.280495 -3.515798,-0.277002 -4.878843,-0.15274 -9.730038,2.425658 -12.124177,6.694544 0.03128,-0.294656 0.07002,-0.588257 0.0891,-0.885245 C 54.664326,18.8966 48.561799,8.4076845 39.30591,3.8951896 35.979511,2.1579573 32.301051,1.2720337 28.568682,1.200713 Z"
       id="path1755"
       inkscape:connector-curvature="0"
       sodipodi:nodetypes="scccccccccccccccccccccccccccccccccccccccccccccccccccccccccccccccccccs" />
  </g>
  <g
     inkscape:label="picture"
     inkscape:groupmode="layer"
     id="layer1"
     transform="translate(-598.39891,-333.90641)"
     style="display:inline">
    <g
       style="display:inline"
       id="g3732"
       transform="translate(590.56081,297.82964)">
      <path
         inkscape:connector-curvature="0"
         d="m 60.69548,67.493897 c 0,11.5675 -9.48796,20.9448 -21.19195,20.9448 -11.703989,0 -21.191949,-9.3773 -21.191949,-20.9448 0,-11.5674 9.48796,-20.9447 21.191949,-20.9447 11.70399,0 21.19195,9.3773 21.19195,20.9447 z"
         id="path3544"
         style="font-style:normal;font-variant:normal;font-weight:normal;font-stretch:normal;font-size:40px;font-family:'Yanone Kaffeesatz';-inkscape-font-specification:'Yanone Kaffeesatz';display:inline;opacity:0.8;fill:url(#radialGradient3637);fill-opacity:1;stroke:url(#radialGradient3639);stroke-width:1.46151388;stroke-linecap:round;stroke-linejoin:round;stroke-miterlimit:4;stroke-dashoffset:0;stroke-opacity:1" />
      <g
         transform="matrix(1.4615138,0,0,2.5218672,4.4272,31.547917)"
         id="g3546"
         style="font-style:normal;font-variant:normal;font-weight:normal;font-stretch:normal;font-size:40px;font-family:'Yanone Kaffeesatz';-inkscape-font-specification:'Yanone Kaffeesatz';display:inline;fill:#000000;fill-opacity:1;stroke:none">
        <path
           inkscape:connector-curvature="0"
           d="m 24,13 -8.1875,15.225744 c 11.445471,0 5.976697,0 16.34375,0 z m 0,4.96875 4,7.421875 h -7.953125 z"
           id="path3548"
           style="fill:url(#linearGradient3991-3-88-5-3);fill-opacity:1;fill-rule:evenodd;stroke:url(#linearGradient3993-1-9-7-2);stroke-width:1px;stroke-linecap:butt;stroke-linejoin:miter;stroke-opacity:1" />
        <path
           inkscape:connector-curvature="0"
           d="M 26.355979,42.522608 20,21.277828 13.644021,42.522609"
           transform="matrix(1,0,0,0.57953638,4,2.7937247)"
           id="path3550"
           style="fill:none;stroke:#ffffff;stroke-width:1.31358945px;stroke-linecap:round;stroke-linejoin:miter;stroke-opacity:1" />
      </g>
      <path
         inkscape:connector-curvature="0"
         d="m 53.38791,67.493897 c 0,7.6681 -6.21625,13.8844 -13.88438,13.8844 -7.66813,0 -13.884379,-6.2163 -13.884379,-13.8844 0,-7.6681 6.216249,-13.8844 13.884379,-13.8844 7.66813,0 13.88438,6.2163 13.88438,13.8844 z"
         id="path3552"
         style="font-style:normal;font-variant:normal;font-weight:normal;font-stretch:normal;font-size:40px;font-family:'Yanone Kaffeesatz';-inkscape-font-specification:'Yanone Kaffeesatz';display:inline;fill:url(#radialGradient3995-7-4-0-2);fill-opacity:1;stroke:url(#radialGradient3997-3-3-4-7);stroke-width:1.46151388;stroke-linecap:round;stroke-linejoin:round;stroke-miterlimit:4;stroke-dashoffset:0;stroke-opacity:1" />
      <g
         transform="matrix(3.2735609,0,0,3.2593101,-24.33091,59.292917)"
         id="g3554"
         style="font-style:normal;font-variant:normal;font-weight:normal;font-stretch:normal;font-size:40px;font-family:'Yanone Kaffeesatz';-inkscape-font-specification:'Yanone Kaffeesatz';display:inline;fill:#000000;fill-opacity:1;stroke:none">
        <path
           inkscape:connector-curvature="0"
           d="M 11,2.25 C 11,3.2164983 10.195512,4 9.203125,4 8.2107383,4 7.40625,3.2164983 7.40625,2.25 7.40625,1.2835017 8.2107383,0.5 9.203125,0.5 10.195512,0.5 11,1.2835017 11,2.25 Z"
           transform="matrix(1.1130433,0,0,1.1428572,9.2565233,-0.07142864)"
           id="path3556"
           style="fill:url(#radialGradient3999-1-4-6-0);fill-opacity:1;stroke:#555753;stroke-width:0.39671427;stroke-linecap:round;stroke-linejoin:round;stroke-miterlimit:4;stroke-dashoffset:0;stroke-opacity:1" />
        <path
           inkscape:connector-curvature="0"
           d="M 20,1.5 C 20,1.7761424 19.776142,2 19.5,2 19.223858,2 19,1.7761424 19,1.5 19,1.2238576 19.223858,1 19.5,1 19.776142,1 20,1.2238576 20,1.5 Z"
           transform="matrix(1.8125,0,0,1.8125,-16.465404,-0.9288198)"
           id="path3558"
           style="fill:#ffffff;fill-opacity:1;stroke:none" />
      </g>
      <path
         inkscape:connector-curvature="0"
         d="m 44.61882,67.441097 c 0,2.8124 -2.2902,5.0924 -5.1153,5.0924 -2.8251,0 -5.1153,-2.28 -5.1153,-5.0924 0,-2.8125 2.2902,-5.0924 5.1153,-5.0924 2.8251,0 5.1153,2.2799 5.1153,5.0924 z"
         id="path3560"
         style="font-style:normal;font-variant:normal;font-weight:normal;font-stretch:normal;font-size:40px;font-family:'Yanone Kaffeesatz';-inkscape-font-specification:'Yanone Kaffeesatz';display:inline;fill:none;stroke:url(#radialGradient4001-9-6-9-6);stroke-width:1.46151364;stroke-linecap:round;stroke-linejoin:round;stroke-miterlimit:4;stroke-dashoffset:0;stroke-opacity:1" />
    </g>
  </g>
  <g
     inkscape:groupmode="layer"
     id="layer2"
     inkscape:label="m"
     transform="translate(-225.2118,-33.876653)"
     style="display:inline">
    <path
       transform="translate(-373.18711,-300.02976)"
       inkscape:connector-curvature="0"
       style="font-style:normal;font-variant:normal;font-weight:normal;font-stretch:normal;font-size:64px;font-family:'Yanone Kaffeesatz';-inkscape-font-specification:'Andale Mono';writing-mode:lr-tb;display:inline;fill:#a00000;fill-opacity:1;stroke:#a00000;stroke-opacity:1"
       d="m 714.16702,367.20863 -4.33398,7.45898 -1.98243,-3.41211 0.5879,26.875 c 1.89839,-1.3259 2.59645,0.72087 2.625,-0.30273 l 0.69531,-24.91016 c 1.472,-0.768 2.94356,-1.08789 4.35156,-1.08789 2.56,0 3.57662,0.89522 3.64063,3.19922 l 0.2832,23.0332 c 1.7756,-0.5051 3.37935,0.38783 3.38672,-0.17187 l 0.3164,-23.96094 c 1.408,-0.896 3.51042,-2.03711 4.98242,-2.03711 2.56001,0 3.08176,1.28202 3.13477,4.35352 l 0.38477,22.27539 c 1.20393,-0.1894 2.91393,0.60724 2.92968,-0.19336 l 0.44141,-22.46485 c 0.11329,-5.7589 0.65975,-8.57812 -5.74023,-8.57812 -2.624,0 -5.6951,0.76837 -7.8711,1.98437 -1.216,-1.2799 -3.00776,-1.98437 -5.75976,-1.98437 -0.75024,0 -1.42833,-0.0352 -2.07227,-0.0762 z"
       id="path3959-9-26-3" />
    <path
       transform="translate(-373.18711,-300.02976)"
       d="m 709.83253,374.66756 -4.50686,-7.7536 -4.50687,-7.7537 h 9.01373 9.01373 l -4.50686,7.7537 z"
       id="path3981-0-4-1"
       style="font-style:normal;font-variant:normal;font-weight:normal;font-stretch:normal;font-size:40px;font-family:'Yanone Kaffeesatz';-inkscape-font-specification:'Yanone Kaffeesatz';display:inline;fill:none;fill-opacity:1;stroke:#e19c9c;stroke-width:5;stroke-linecap:round;stroke-linejoin:round;stroke-miterlimit:4;stroke-dashoffset:0;stroke-opacity:1"
       inkscape:connector-curvature="0" />
    <path
       transform="translate(-373.18711,-300.02976)"
       d="m 733.68284,397.51886 v -27.7235"
       id="path3983-4-9-2"
       style="font-style:normal;font-variant:normal;font-weight:normal;font-stretch:normal;font-size:40px;font-family:'Yanone Kaffeesatz';-inkscape-font-specification:'Yanone Kaffeesatz';display:inline;fill:none;stroke:#e19c9c;stroke-width:5.02204847;stroke-linecap:round;stroke-linejoin:round;stroke-miterlimit:4;stroke-dasharray:none;stroke-opacity:1"
       inkscape:connector-curvature="0" />
    <path
       transform="translate(-373.18711,-300.02976)"
       d="m 721.70752,397.50716 v -19.8215"
       id="path3985-4-0-9"
       style="font-style:normal;font-variant:normal;font-weight:normal;font-stretch:normal;font-size:40px;font-family:'Yanone Kaffeesatz';-inkscape-font-specification:'Yanone Kaffeesatz';display:inline;fill:none;stroke:#e19c9c;stroke-width:5;stroke-linecap:round;stroke-linejoin:round;stroke-miterlimit:4;stroke-dasharray:none;stroke-opacity:1"
       inkscape:connector-curvature="0" />
    <path
       transform="translate(-373.18711,-300.02976)"
       d="m 709.83189,397.68086 -0.008,-11.7527"
       id="path3951-0-4-91-2"
       style="font-style:normal;font-variant:normal;font-weight:normal;font-stretch:normal;font-size:40px;font-family:'Yanone Kaffeesatz';-inkscape-font-specification:'Yanone Kaffeesatz';display:inline;fill:none;stroke:#e19c9c;stroke-width:4.66915703;stroke-linecap:round;stroke-linejoin:round;stroke-miterlimit:4;stroke-dasharray:none;stroke-opacity:1"
       inkscape:connector-curvature="0" />
  </g>
  <g
     inkscape:groupmode="layer"
     id="layer3"
     inkscape:label="text"
     transform="translate(-225.2118,-33.876653)"
     style="display:inline">
    <g
       inkscape:groupmode="layer"
       id="layer4"
       inkscape:label="font"
       style="display:none">
      <text
         transform="translate(-373.18711,-300.02976)"
         xml:space="preserve"
         style="font-style:normal;font-weight:normal;font-size:64px;line-height:125%;font-family:Sans;letter-spacing:0.14px;word-spacing:0px;display:inline;fill:#a00000;fill-opacity:1;stroke:none"
         x="655.99414"
         y="399.39423"
         id="text3743"><tspan
           sodipodi:role="line"
           id="tspan3745"
           x="655.99414"
           y="399.39423"
           style="font-style:normal;font-variant:normal;font-weight:normal;font-stretch:normal;font-size:64px;font-family:'Yanone Kaffeesatz';-inkscape-font-specification:'Yanone Kaffeesatz';letter-spacing:0.14px;fill:#a00000;fill-opacity:1"
           dx="0 0">os</tspan></text>
      <text
         transform="translate(-373.18711,-300.02976)"
         xml:space="preserve"
         style="font-style:normal;font-weight:normal;font-size:40px;line-height:125%;font-family:Sans;letter-spacing:0px;word-spacing:0px;display:inline;fill:#a00000;fill-opacity:1;stroke:none"
         x="741.64075"
         y="399.39423"
         id="text3760"><tspan
           sodipodi:role="line"
           id="tspan3762"
           x="741.64075"
           y="399.39423"
           style="font-style:normal;font-variant:normal;font-weight:normal;font-stretch:normal;font-size:64px;font-family:'Yanone Kaffeesatz';-inkscape-font-specification:'Yanone Kaffeesatz';fill:#a00000;fill-opacity:1">ocom</tspan></text>
    </g>
    <g
       inkscape:groupmode="layer"
       id="layer5"
       inkscape:label="path"
       style="display:inline">
      <g
         aria-label="os"
         transform="translate(-373.18711,-300.02976)"
         style="font-style:normal;font-weight:normal;font-size:64px;line-height:125%;font-family:Sans;letter-spacing:0.14px;word-spacing:0px;display:inline;fill:#a00000;fill-opacity:1;stroke:none"
         id="text4639">
        <path
           d="m 657.53014,383.39423 c 0,14.4 3.456,16.64 10.048,16.64 6.848,0 10.496,-4.928 10.496,-16.832 0,-12.992 -3.2,-16.448 -9.92,-16.448 -6.72,0 -10.624,4.928 -10.624,16.64 z m 5.632,0.128 c 0,-9.984 1.984,-12.224 4.8,-12.224 3.008,0 4.48,1.792 4.48,11.968 0,9.984 -1.984,12.352 -4.736,12.352 -2.944,0 -4.544,-1.536 -4.544,-12.096 z"
           style="font-style:normal;font-variant:normal;font-weight:normal;font-stretch:normal;font-size:64px;font-family:'Yanone Kaffeesatz';-inkscape-font-specification:'Yanone Kaffeesatz';letter-spacing:0.14px;fill:#a00000;fill-opacity:1"
           id="path4649"
           inkscape:connector-curvature="0" />
        <path
           d="m 692.05014,366.75423 c -7.168,0 -10.432,3.072 -10.432,7.552 0,2.112 0.768,4.416 3.648,6.784 l 6.208,5.312 c 1.92,1.728 2.56,3.264 2.56,4.992 0,2.56 -1.92,3.968 -5.184,3.968 -2.496,0 -4.544,-0.512 -6.4,-1.6 -0.704,1.152 -0.896,2.24 -0.896,3.008 0,2.24 3.264,3.264 7.808,3.264 6.528,0 10.56,-3.2 10.56,-8.896 0,-3.2 -1.024,-5.312 -3.776,-8 l -5.952,-4.8 c -2.176,-1.792 -2.56,-2.816 -2.56,-3.968 0,-1.984 2.048,-3.072 5.056,-3.072 2.432,0 4.352,0.512 6.272,1.664 0.704,-0.768 1.152,-1.792 1.152,-2.624 0,-1.28 -1.472,-3.584 -8.064,-3.584 z"
           style="font-style:normal;font-variant:normal;font-weight:normal;font-stretch:normal;font-size:64px;font-family:'Yanone Kaffeesatz';-inkscape-font-specification:'Yanone Kaffeesatz';letter-spacing:0.14px;fill:#a00000;fill-opacity:1"
           id="path4651"
           inkscape:connector-curvature="0" />
      </g>
      <g
         aria-label="ocom"
         transform="translate(-373.18711,-300.02976)"
         style="font-style:normal;font-weight:normal;font-size:40px;line-height:125%;font-family:Sans;letter-spacing:0px;word-spacing:0px;display:inline;fill:#a00000;fill-opacity:1;stroke:none"
         id="text4643">
        <path
           d="m 743.17675,383.39423 c 0,14.4 3.456,16.64 10.048,16.64 6.848,0 10.496,-4.928 10.496,-16.832 0,-12.992 -3.2,-16.448 -9.92,-16.448 -6.72,0 -10.624,4.928 -10.624,16.64 z m 5.632,0.128 c 0,-9.984 1.984,-12.224 4.8,-12.224 3.008,0 4.48,1.792 4.48,11.968 0,9.984 -1.984,12.352 -4.736,12.352 -2.944,0 -4.544,-1.536 -4.544,-12.096 z"
           style="font-style:normal;font-variant:normal;font-weight:normal;font-stretch:normal;font-size:64px;font-family:'Yanone Kaffeesatz';-inkscape-font-specification:'Yanone Kaffeesatz';fill:#a00000;fill-opacity:1"
           id="path4654"
           inkscape:connector-curvature="0" />
        <path
           d="m 783.95675,369.63423 c 0,-1.664 -2.368,-2.88 -5.312,-2.88 -5.312,0 -11.52,1.984 -11.52,17.344 0,13.504 3.456,15.936 9.536,15.936 4.224,0 7.168,-1.536 7.168,-3.264 0,-0.832 -0.192,-1.664 -0.512,-2.816 -1.088,0.704 -3.008,1.472 -5.056,1.472 -3.904,0 -5.696,-2.304 -5.696,-11.328 0,-11.392 3.328,-12.736 6.336,-12.736 1.728,0 3.456,0.576 4.48,1.152 0.448,-1.088 0.576,-2.176 0.576,-2.88 z"
           style="font-style:normal;font-variant:normal;font-weight:normal;font-stretch:normal;font-size:64px;font-family:'Yanone Kaffeesatz';-inkscape-font-specification:'Yanone Kaffeesatz';fill:#a00000;fill-opacity:1"
           id="path4656"
           inkscape:connector-curvature="0" />
        <path
           d="m 785.92675,383.39423 c 0,14.4 3.456,16.64 10.048,16.64 6.848,0 10.496,-4.928 10.496,-16.832 0,-12.992 -3.2,-16.448 -9.92,-16.448 -6.72,0 -10.624,4.928 -10.624,16.64 z m 5.632,0.128 c 0,-9.984 1.984,-12.224 4.8,-12.224 3.008,0 4.48,1.792 4.48,11.968 0,9.984 -1.984,12.352 -4.736,12.352 -2.944,0 -4.544,-1.536 -4.544,-12.096 z"
           style="font-style:normal;font-variant:normal;font-weight:normal;font-stretch:normal;font-size:64px;font-family:'Yanone Kaffeesatz';-inkscape-font-specification:'Yanone Kaffeesatz';fill:#a00000;fill-opacity:1"
           id="path4658"
           inkscape:connector-curvature="0" />
        <path
           d="m 823.50675,399.39423 c 5.248,0 5.184,0 5.184,-1.024 v -25.792 c 1.408,-0.896 2.816,-1.216 4.288,-1.216 2.56,0 3.136,1.28 3.136,4.352 v 23.68 c 4.992,0 5.184,0 5.184,-1.024 v -22.592 c 0,-5.76 -0.768,-9.024 -7.168,-9.024 -2.624,0 -5.696,0.768 -7.872,1.984 -1.216,-1.28 -3.008,-1.984 -5.76,-1.984 -3.52,0 -6.848,0.832 -9.664,2.112 v 30.528 c 4.992,0 5.184,0 5.184,-1.024 v -25.984 c 1.472,-0.768 2.944,-1.088 4.352,-1.088 2.56,0 3.072,0.896 3.136,3.2 z"
           style="font-style:normal;font-variant:normal;font-weight:normal;font-stretch:normal;font-size:64px;font-family:'Yanone Kaffeesatz';-inkscape-font-specification:'Yanone Kaffeesatz';fill:#a00000;fill-opacity:1"
           id="path4660"
           inkscape:connector-curvature="0" />
      </g>
    </g>
  </g>
</svg>
