<?xml version="1.0" encoding="UTF-8" standalone="no"?>
<!-- Created with Inkscape (http://www.inkscape.org/) -->

<svg
   xmlns:dc="http://purl.org/dc/elements/1.1/"
   xmlns:cc="http://creativecommons.org/ns#"
   xmlns:rdf="http://www.w3.org/1999/02/22-rdf-syntax-ns#"
   xmlns:svg="http://www.w3.org/2000/svg"
   xmlns="http://www.w3.org/2000/svg"
   xmlns:xlink="http://www.w3.org/1999/xlink"
   xmlns:sodipodi="http://sodipodi.sourceforge.net/DTD/sodipodi-0.dtd"
   xmlns:inkscape="http://www.inkscape.org/namespaces/inkscape"
   width="83.932556mm"
   height="19.391338mm"
   viewBox="0 0 83.932556 19.391338"
   version="1.1"
   id="svg4854"
   inkscape:version="0.92.0 r"
   sodipodi:docname="osmocomTAC.svg"
   inkscape:export-filename="osmocomTAC.png"
   inkscape:export-xdpi="327.46579"
   inkscape:export-ydpi="327.46579">
  <defs
     id="defs4848">
    <radialGradient
       r="4.5250292"
       fy="8.0709476"
       fx="10.28125"
       cy="8.0709476"
       cx="10.28125"
       gradientTransform="matrix(4.9499444,0,0,4.9510321,-11.38809,35.312197)"
       gradientUnits="userSpaceOnUse"
       id="radialGradient3637"
       xlink:href="#linearGradient3374-5-7-7-0"
       inkscape:collect="always" />
    <linearGradient
       id="linearGradient3374-5-7-7-0">
      <stop
         id="stop3376-8-6-4-2"
         style="stop-color:#729fcf;stop-opacity:1"
         offset="0" />
      <stop
         id="stop3378-6-7-4-9"
         style="stop-color:#729fcf;stop-opacity:0"
         offset="1" />
    </linearGradient>
    <radialGradient
       r="4.5250292"
       fy="9.8424416"
       fx="10.28125"
       cy="9.8424416"
       cx="10.28125"
       gradientTransform="matrix(23.169932,0,0,7.6402677,-198.71238,8.843597)"
       gradientUnits="userSpaceOnUse"
       id="radialGradient3639"
       xlink:href="#linearGradient3362-8-6-0-9"
       inkscape:collect="always" />
    <linearGradient
       id="linearGradient3362-8-6-0-9">
      <stop
         id="stop3364-4-5-78-9"
         style="stop-color:#3465a4;stop-opacity:1"
         offset="0" />
      <stop
         id="stop3366-7-6-6-4"
         style="stop-color:#3465a4;stop-opacity:0"
         offset="1" />
    </linearGradient>
    <linearGradient
       x1="24.837126"
       y1="44.528019"
       x2="21.036427"
       y2="21.041553"
       id="linearGradient3991-3-88-5"
       xlink:href="#linearGradient7101-4-9-4-1"
       gradientUnits="userSpaceOnUse" />
    <linearGradient
       id="linearGradient7101-4-9-4-1">
      <stop
         id="stop7103-0-4-31-0"
         style="stop-color:#babdb6;stop-opacity:1"
         offset="0" />
      <stop
         id="stop7105-6-8-4-3"
         style="stop-color:#ffffff;stop-opacity:1"
         offset="1" />
    </linearGradient>
    <linearGradient
       x1="39.06765"
       y1="28.5"
       x2="39.421204"
       y2="10.934953"
       id="linearGradient3993-1-9-7"
       xlink:href="#linearGradient6979-9-2-2-8"
       gradientUnits="userSpaceOnUse" />
    <linearGradient
       id="linearGradient6979-9-2-2-8">
      <stop
         id="stop6981-9-9-0-8"
         style="stop-color:#888a85;stop-opacity:1"
         offset="0" />
      <stop
         id="stop6983-0-3-6-6"
         style="stop-color:#555753;stop-opacity:1"
         offset="1" />
    </linearGradient>
    <radialGradient
       cx="10.28125"
       cy="7.8249326"
       r="4.5250292"
       fx="10.28125"
       fy="7.8249326"
       id="radialGradient3995-7-4-0"
       xlink:href="#linearGradient3374-5-7-7-0"
       gradientUnits="userSpaceOnUse"
       gradientTransform="matrix(2.2651111,0,0,2.2923498,16.215361,52.593597)" />
    <radialGradient
       cx="10.28125"
       cy="9.8424416"
       r="4.5250292"
       fx="10.28125"
       fy="9.8424416"
       id="radialGradient3997-3-3-4"
       xlink:href="#linearGradient3362-8-6-0-9"
       gradientUnits="userSpaceOnUse"
       gradientTransform="matrix(15.1803,0,0,5.0647752,-116.56897,28.614297)" />
    <radialGradient
       cx="8.9057236"
       cy="1.7286602"
       r="1.9952321"
       fx="8.9057236"
       fy="1.7286602"
       id="radialGradient3999-1-4-6"
       xlink:href="#linearGradient7131-6-1-5-7"
       gradientUnits="userSpaceOnUse"
       gradientTransform="matrix(0.7375073,0,0,0.7201806,2.4345312,0.6617371)" />
    <linearGradient
       id="linearGradient7131-6-1-5-7">
      <stop
         id="stop7133-4-5-2-6"
         style="stop-color:#ffffff;stop-opacity:1"
         offset="0" />
      <stop
         id="stop7135-6-9-5-0"
         style="stop-color:#d3d7cf;stop-opacity:1"
         offset="1" />
    </linearGradient>
    <radialGradient
       cx="8.3046875"
       cy="1.1256332"
       r="2.0507698"
       fx="8.3046875"
       fy="1.1256332"
       id="radialGradient4001-9-6-9"
       xlink:href="#linearGradient7153-0-1-9-75"
       gradientUnits="userSpaceOnUse"
       gradientTransform="matrix(5.2943491,0,0,5.2881329,-7.02204,58.291497)" />
    <linearGradient
       id="linearGradient7153-0-1-9-75">
      <stop
         id="stop7155-8-7-3-9"
         style="stop-color:#ffffff;stop-opacity:1"
         offset="0" />
      <stop
         id="stop7157-5-7-7-7"
         style="stop-color:#ffffff;stop-opacity:0"
         offset="1" />
    </linearGradient>
  </defs>
  <sodipodi:namedview
     id="base"
     pagecolor="#ffffff"
     bordercolor="#666666"
     borderopacity="1.0"
     inkscape:pageopacity="0.0"
     inkscape:pageshadow="2"
     inkscape:zoom="1.979899"
     inkscape:cx="188.48081"
     inkscape:cy="2.7825182"
     inkscape:document-units="mm"
     inkscape:current-layer="layer45"
     showgrid="false"
     fit-margin-top="2"
     fit-margin-left="2"
     fit-margin-right="2"
     fit-margin-bottom="2"
     inkscape:window-width="1916"
     inkscape:window-height="1041"
     inkscape:window-x="1920"
     inkscape:window-y="37"
     inkscape:window-maximized="0" />
  <metadata
     id="metadata4851">
    <rdf:RDF>
      <cc:Work
         rdf:about="">
        <dc:format>image/svg+xml</dc:format>
        <dc:type
           rdf:resource="http://purl.org/dc/dcmitype/StillImage" />
        <dc:title></dc:title>
      </cc:Work>
    </rdf:RDF>
  </metadata>
  <g
     inkscape:label="picture"
     inkscape:groupmode="layer"
     id="layer1"
     transform="translate(-346.59324,-186.00672)">
    <g
       style="display:inline"
       id="g3732"
       transform="matrix(0.26458333,0,0,0.26458333,343.94165,175.88392)">
      <path
         inkscape:connector-curvature="0"
         d="m 60.69548,67.493897 c 0,11.5675 -9.48796,20.9448 -21.19195,20.9448 -11.703989,0 -21.191949,-9.3773 -21.191949,-20.9448 0,-11.5674 9.48796,-20.9447 21.191949,-20.9447 11.70399,0 21.19195,9.3773 21.19195,20.9447 z"
         id="path3544"
         style="font-style:normal;font-variant:normal;font-weight:normal;font-stretch:normal;font-size:40px;font-family:'Yanone Kaffeesatz';-inkscape-font-specification:'Yanone Kaffeesatz';display:inline;opacity:0.8;fill:url(#radialGradient3637);fill-opacity:1;stroke:url(#radialGradient3639);stroke-width:1.46151388;stroke-linecap:round;stroke-linejoin:round;stroke-miterlimit:4;stroke-dashoffset:0;stroke-opacity:1" />
      <g
         transform="matrix(1.4615138,0,0,2.5218672,4.4272,31.547917)"
         id="g3546"
         style="font-style:normal;font-variant:normal;font-weight:normal;font-stretch:normal;font-size:40px;font-family:'Yanone Kaffeesatz';-inkscape-font-specification:'Yanone Kaffeesatz';display:inline;fill:#000000;fill-opacity:1;stroke:none">
        <path
           inkscape:connector-curvature="0"
           d="m 24,13 -8.1875,15.225744 c 11.445471,0 5.976697,0 16.34375,0 z m 0,4.96875 4,7.421875 h -7.953125 z"
           id="path3548"
           style="fill:url(#linearGradient3991-3-88-5);fill-opacity:1;fill-rule:evenodd;stroke:url(#linearGradient3993-1-9-7);stroke-width:1px;stroke-linecap:butt;stroke-linejoin:miter;stroke-opacity:1" />
        <path
           inkscape:connector-curvature="0"
           d="M 26.355979,42.522608 20,21.277828 13.644021,42.522609"
           transform="matrix(1,0,0,0.57953638,4,2.7937247)"
           id="path3550"
           style="fill:none;stroke:#ffffff;stroke-width:1.31358945px;stroke-linecap:round;stroke-linejoin:miter;stroke-opacity:1" />
      </g>
      <path
         inkscape:connector-curvature="0"
         d="m 53.38791,67.493897 c 0,7.6681 -6.21625,13.8844 -13.88438,13.8844 -7.66813,0 -13.884379,-6.2163 -13.884379,-13.8844 0,-7.6681 6.216249,-13.8844 13.884379,-13.8844 7.66813,0 13.88438,6.2163 13.88438,13.8844 z"
         id="path3552"
         style="font-style:normal;font-variant:normal;font-weight:normal;font-stretch:normal;font-size:40px;font-family:'Yanone Kaffeesatz';-inkscape-font-specification:'Yanone Kaffeesatz';display:inline;fill:url(#radialGradient3995-7-4-0);fill-opacity:1;stroke:url(#radialGradient3997-3-3-4);stroke-width:1.46151388;stroke-linecap:round;stroke-linejoin:round;stroke-miterlimit:4;stroke-dashoffset:0;stroke-opacity:1" />
      <g
         transform="matrix(3.2735609,0,0,3.2593101,-24.33091,59.292917)"
         id="g3554"
         style="font-style:normal;font-variant:normal;font-weight:normal;font-stretch:normal;font-size:40px;font-family:'Yanone Kaffeesatz';-inkscape-font-specification:'Yanone Kaffeesatz';display:inline;fill:#000000;fill-opacity:1;stroke:none">
        <path
           inkscape:connector-curvature="0"
           d="M 11,2.25 C 11,3.2164983 10.195512,4 9.203125,4 8.2107383,4 7.40625,3.2164983 7.40625,2.25 7.40625,1.2835017 8.2107383,0.5 9.203125,0.5 10.195512,0.5 11,1.2835017 11,2.25 Z"
           transform="matrix(1.1130433,0,0,1.1428572,9.2565233,-0.07142864)"
           id="path3556"
           style="fill:url(#radialGradient3999-1-4-6);fill-opacity:1;stroke:#555753;stroke-width:0.39671427;stroke-linecap:round;stroke-linejoin:round;stroke-miterlimit:4;stroke-dashoffset:0;stroke-opacity:1" />
        <path
           inkscape:connector-curvature="0"
           d="M 20,1.5 C 20,1.7761424 19.776142,2 19.5,2 19.223858,2 19,1.7761424 19,1.5 19,1.2238576 19.223858,1 19.5,1 19.776142,1 20,1.2238576 20,1.5 Z"
           transform="matrix(1.8125,0,0,1.8125,-16.465404,-0.9288198)"
           id="path3558"
           style="fill:#ffffff;fill-opacity:1;stroke:none" />
      </g>
      <path
         inkscape:connector-curvature="0"
         d="m 44.61882,67.441097 c 0,2.8124 -2.2902,5.0924 -5.1153,5.0924 -2.8251,0 -5.1153,-2.28 -5.1153,-5.0924 0,-2.8125 2.2902,-5.0924 5.1153,-5.0924 2.8251,0 5.1153,2.2799 5.1153,5.0924 z"
         id="path3560"
         style="font-style:normal;font-variant:normal;font-weight:normal;font-stretch:normal;font-size:40px;font-family:'Yanone Kaffeesatz';-inkscape-font-specification:'Yanone Kaffeesatz';display:inline;fill:none;stroke:url(#radialGradient4001-9-6-9);stroke-width:1.46151364;stroke-linecap:round;stroke-linejoin:round;stroke-miterlimit:4;stroke-dashoffset:0;stroke-opacity:1" />
    </g>
  </g>
  <g
     inkscape:groupmode="layer"
     id="layer42"
     inkscape:label="m">
    <path
       transform="translate(-346.59324,-186.00672)"
       style="font-style:normal;font-variant:normal;font-weight:normal;font-stretch:normal;font-size:64px;font-family:'Yanone Kaffeesatz';-inkscape-font-specification:'Andale Mono';writing-mode:lr-tb;display:inline;fill:#a00000;fill-opacity:1;stroke:#a00000;stroke-width:0.26458332;stroke-opacity:1"
       d="m 376.64579,194.24044 -1.1467,1.97352 -0.52451,-0.90278 0.15554,7.11067 c 0.50229,-0.35081 0.68698,0.19073 0.69454,-0.0801 l 0.18396,-6.59081 c 0.38947,-0.2032 0.77882,-0.28784 1.15135,-0.28784 0.67734,0 0.94632,0.23686 0.96325,0.84646 l 0.0749,6.09421 c 0.4698,-0.13365 0.89412,0.10261 0.89607,-0.0455 l 0.0837,-6.33967 c 0.37254,-0.23707 0.9288,-0.53898 1.31827,-0.53898 0.67733,0 0.81538,0.3392 0.82941,1.15186 l 0.1018,5.8937 c 0.31854,-0.0501 0.77098,0.16067 0.77514,-0.0512 l 0.11679,-5.94382 c 0.03,-1.52371 0.17456,-2.26963 -1.51877,-2.26963 -0.69426,0 -1.50682,0.2033 -2.08256,0.52503 -0.32173,-0.33864 -0.7958,-0.52503 -1.52393,-0.52503 -0.19851,0 -0.37792,-0.009 -0.54829,-0.0202 z"
       id="path3959-9-26-3"
       inkscape:connector-curvature="0" />
    <path
       transform="translate(-346.59324,-186.00672)"
       d="m 375.49896,196.21395 -1.19244,-2.05147 -1.19244,-2.0515 h 2.38488 2.38488 l -1.19244,2.0515 z"
       id="path3981-0-4-1"
       style="font-style:normal;font-variant:normal;font-weight:normal;font-stretch:normal;font-size:40px;font-family:'Yanone Kaffeesatz';-inkscape-font-specification:'Yanone Kaffeesatz';display:inline;fill:none;fill-opacity:1;stroke:#e19c9c;stroke-width:1.32291663;stroke-linecap:round;stroke-linejoin:round;stroke-miterlimit:4;stroke-dashoffset:0;stroke-opacity:1"
       inkscape:connector-curvature="0" />
    <path
       transform="translate(-346.59324,-186.00672)"
       d="m 381.80935,202.26002 v -7.33517"
       id="path3983-4-9-2"
       style="font-style:normal;font-variant:normal;font-weight:normal;font-stretch:normal;font-size:40px;font-family:'Yanone Kaffeesatz';-inkscape-font-specification:'Yanone Kaffeesatz';display:inline;fill:none;stroke:#e19c9c;stroke-width:1.32875037;stroke-linecap:round;stroke-linejoin:round;stroke-miterlimit:4;stroke-dasharray:none;stroke-opacity:1"
       inkscape:connector-curvature="0" />
    <path
       transform="translate(-346.59324,-186.00672)"
       d="m 378.64088,202.25693 v -5.24444"
       id="path3985-4-0-9"
       style="font-style:normal;font-variant:normal;font-weight:normal;font-stretch:normal;font-size:40px;font-family:'Yanone Kaffeesatz';-inkscape-font-specification:'Yanone Kaffeesatz';display:inline;fill:none;stroke:#e19c9c;stroke-width:1.32291663;stroke-linecap:round;stroke-linejoin:round;stroke-miterlimit:4;stroke-dasharray:none;stroke-opacity:1"
       inkscape:connector-curvature="0" />
    <path
       transform="translate(-346.59324,-186.00672)"
       d="m 375.49879,202.30289 -0.002,-3.10957"
       id="path3951-0-4-91-2"
       style="font-style:normal;font-variant:normal;font-weight:normal;font-stretch:normal;font-size:40px;font-family:'Yanone Kaffeesatz';-inkscape-font-specification:'Yanone Kaffeesatz';display:inline;fill:none;stroke:#e19c9c;stroke-width:1.23538113;stroke-linecap:round;stroke-linejoin:round;stroke-miterlimit:4;stroke-dasharray:none;stroke-opacity:1"
       inkscape:connector-curvature="0" />
  </g>
  <g
     inkscape:groupmode="layer"
     id="layer43"
     inkscape:label="text">
    <g
       inkscape:groupmode="layer"
       id="layer44"
       inkscape:label="font"
       style="display:none">
      <text
         transform="translate(-346.59324,-186.00672)"
         xml:space="preserve"
         style="font-style:normal;font-weight:normal;font-size:16.93333244px;line-height:125%;font-family:Sans;letter-spacing:0.03704167px;word-spacing:0px;display:inline;fill:#a00000;fill-opacity:1;stroke:none;stroke-width:0.26458332"
         x="361.25421"
         y="202.75621"
         id="text3743"><tspan
           sodipodi:role="line"
           id="tspan3745"
           x="361.25421"
           y="202.75621"
           style="font-style:normal;font-variant:normal;font-weight:normal;font-stretch:normal;font-size:16.93333244px;font-family:'Yanone Kaffeesatz';-inkscape-font-specification:'Yanone Kaffeesatz';letter-spacing:0.03704167px;fill:#a00000;fill-opacity:1;stroke-width:0.26458332"
           dx="0 0">os</tspan></text>
      <text
         transform="translate(-346.59324,-186.00672)"
         xml:space="preserve"
         style="font-style:normal;font-weight:normal;font-size:10.58333302px;line-height:125%;font-family:Sans;letter-spacing:0px;word-spacing:0px;display:inline;fill:#a00000;fill-opacity:1;stroke:none;stroke-width:0.26458332"
         x="383.91489"
         y="202.75621"
         id="text3760"><tspan
           sodipodi:role="line"
           id="tspan3762"
           x="383.91489"
           y="202.75621"
           style="font-style:normal;font-variant:normal;font-weight:normal;font-stretch:normal;font-size:16.93333244px;font-family:'Yanone Kaffeesatz';-inkscape-font-specification:'Yanone Kaffeesatz';fill:#a00000;fill-opacity:1;stroke-width:0.26458332">ocom</tspan></text>
      <text
         transform="translate(-346.59324,-186.00672)"
         id="text4698"
         y="202.92555"
         x="411.02017"
         style="font-style:normal;font-weight:bold;font-size:16.93333244px;line-height:125%;font-family:Sans;-inkscape-font-specification:'Yanone Kaffeesatz Bold';letter-spacing:0px;word-spacing:0px;display:inline;fill:#a00000;fill-opacity:1;stroke:none;stroke-width:0.26458332"
         xml:space="preserve"><tspan
           style="font-style:normal;font-variant:normal;font-weight:bold;font-stretch:normal;font-size:16.93333244px;font-family:'Yanone Kaffeesatz';-inkscape-font-specification:'Yanone Kaffeesatz Bold';fill:#a00000;fill-opacity:1;stroke-width:0.26458332"
           y="202.92555"
           x="411.02017"
           id="tspan4696"
           sodipodi:role="line">TAC</tspan></text>
    </g>
    <g
       inkscape:groupmode="layer"
       id="layer45"
       inkscape:label="path">
      <g
         aria-label="os"
         transform="translate(-346.59324,-186.00672)"
         style="font-style:normal;font-weight:normal;font-size:16.93333244px;line-height:125%;font-family:Sans;letter-spacing:0.03704167px;word-spacing:0px;display:inline;fill:#a00000;fill-opacity:1;stroke:none;stroke-width:0.26458332"
         id="text5526">
        <path
           d="m 361.66061,198.52288 c 0,3.81 0.9144,4.40266 2.65853,4.40266 1.81187,0 2.77707,-1.30386 2.77707,-4.45346 0,-3.43747 -0.84667,-4.35187 -2.62467,-4.35187 -1.778,0 -2.81093,1.30387 -2.81093,4.40267 z m 1.49013,0.0339 c 0,-2.6416 0.52494,-3.23426 1.27,-3.23426 0.79587,0 1.18534,0.47413 1.18534,3.16653 0,2.6416 -0.52494,3.26813 -1.25307,3.26813 -0.77893,0 -1.20227,-0.4064 -1.20227,-3.2004 z"
           style="font-style:normal;font-variant:normal;font-weight:normal;font-stretch:normal;font-size:16.93333244px;font-family:'Yanone Kaffeesatz';-inkscape-font-specification:'Yanone Kaffeesatz';letter-spacing:0.03704167px;fill:#a00000;fill-opacity:1;stroke-width:0.26458332"
           id="path5542" />
        <path
           d="m 370.79403,194.12021 c -1.89654,0 -2.76014,0.8128 -2.76014,1.99813 0,0.5588 0.2032,1.1684 0.9652,1.79494 l 1.64254,1.40546 c 0.508,0.4572 0.67733,0.8636 0.67733,1.3208 0,0.67734 -0.508,1.04987 -1.3716,1.04987 -0.6604,0 -1.20227,-0.13547 -1.69333,-0.42333 -0.18627,0.3048 -0.23707,0.59266 -0.23707,0.79586 0,0.59267 0.8636,0.8636 2.06587,0.8636 1.7272,0 2.794,-0.84666 2.794,-2.35373 0,-0.84667 -0.27094,-1.40547 -0.99907,-2.11667 l -1.5748,-1.27 c -0.57573,-0.47413 -0.67733,-0.74506 -0.67733,-1.04986 0,-0.52494 0.54186,-0.8128 1.33773,-0.8128 0.64347,0 1.15147,0.13546 1.65947,0.44026 0.18626,-0.2032 0.3048,-0.47413 0.3048,-0.69426 0,-0.33867 -0.38947,-0.94827 -2.1336,-0.94827 z"
           style="font-style:normal;font-variant:normal;font-weight:normal;font-stretch:normal;font-size:16.93333244px;font-family:'Yanone Kaffeesatz';-inkscape-font-specification:'Yanone Kaffeesatz';letter-spacing:0.03704167px;fill:#a00000;fill-opacity:1;stroke-width:0.26458332"
           id="path5544" />
      </g>
      <g
         aria-label="ocom"
         transform="translate(-346.59324,-186.00672)"
         style="font-style:normal;font-weight:normal;font-size:10.58333302px;line-height:125%;font-family:Sans;letter-spacing:0px;word-spacing:0px;display:inline;fill:#a00000;fill-opacity:1;stroke:none;stroke-width:0.26458332"
         id="text5530">
        <path
           d="m 384.32129,198.52288 c 0,3.81 0.9144,4.40266 2.65853,4.40266 1.81187,0 2.77707,-1.30386 2.77707,-4.45346 0,-3.43747 -0.84667,-4.35187 -2.62467,-4.35187 -1.778,0 -2.81093,1.30387 -2.81093,4.40267 z m 1.49013,0.0339 c 0,-2.6416 0.52493,-3.23426 1.27,-3.23426 0.79587,0 1.18533,0.47413 1.18533,3.16653 0,2.6416 -0.52493,3.26813 -1.25306,3.26813 -0.77894,0 -1.20227,-0.4064 -1.20227,-3.2004 z"
           style="font-style:normal;font-variant:normal;font-weight:normal;font-stretch:normal;font-size:16.93333244px;font-family:'Yanone Kaffeesatz';-inkscape-font-specification:'Yanone Kaffeesatz';fill:#a00000;fill-opacity:1;stroke-width:0.26458332"
           id="path5547" />
        <path
           d="m 395.11099,194.88221 c 0,-0.44027 -0.62653,-0.762 -1.40546,-0.762 -1.40547,0 -3.048,0.52493 -3.048,4.58893 0,3.57294 0.9144,4.2164 2.52306,4.2164 1.1176,0 1.89654,-0.4064 1.89654,-0.8636 0,-0.22013 -0.0508,-0.44026 -0.13547,-0.74506 -0.28787,0.18626 -0.79587,0.38946 -1.33773,0.38946 -1.03294,0 -1.50707,-0.6096 -1.50707,-2.9972 0,-3.01413 0.88053,-3.36973 1.6764,-3.36973 0.4572,0 0.9144,0.1524 1.18533,0.3048 0.11854,-0.28787 0.1524,-0.57573 0.1524,-0.762 z"
           style="font-style:normal;font-variant:normal;font-weight:normal;font-stretch:normal;font-size:16.93333244px;font-family:'Yanone Kaffeesatz';-inkscape-font-specification:'Yanone Kaffeesatz';fill:#a00000;fill-opacity:1;stroke-width:0.26458332"
           id="path5549" />
        <path
           d="m 395.63222,198.52288 c 0,3.81 0.9144,4.40266 2.65854,4.40266 1.81186,0 2.77706,-1.30386 2.77706,-4.45346 0,-3.43747 -0.84666,-4.35187 -2.62466,-4.35187 -1.778,0 -2.81094,1.30387 -2.81094,4.40267 z m 1.49014,0.0339 c 0,-2.6416 0.52493,-3.23426 1.27,-3.23426 0.79586,0 1.18533,0.47413 1.18533,3.16653 0,2.6416 -0.52493,3.26813 -1.25307,3.26813 -0.77893,0 -1.20226,-0.4064 -1.20226,-3.2004 z"
           style="font-style:normal;font-variant:normal;font-weight:normal;font-stretch:normal;font-size:16.93333244px;font-family:'Yanone Kaffeesatz';-inkscape-font-specification:'Yanone Kaffeesatz';fill:#a00000;fill-opacity:1;stroke-width:0.26458332"
           id="path5551" />
        <path
           d="m 405.57526,202.75621 c 1.38854,0 1.3716,0 1.3716,-0.27093 v -6.82414 c 0.37254,-0.23706 0.74507,-0.32173 1.13454,-0.32173 0.67733,0 0.82973,0.33867 0.82973,1.15147 v 6.26533 c 1.3208,0 1.3716,0 1.3716,-0.27093 v -5.97747 c 0,-1.524 -0.2032,-2.3876 -1.89653,-2.3876 -0.69427,0 -1.50707,0.2032 -2.0828,0.52493 -0.32174,-0.33866 -0.79587,-0.52493 -1.524,-0.52493 -0.93134,0 -1.81187,0.22013 -2.55694,0.5588 v 8.0772 c 1.3208,0 1.3716,0 1.3716,-0.27093 v -6.87494 c 0.38947,-0.2032 0.77894,-0.28786 1.15147,-0.28786 0.67733,0 0.8128,0.23706 0.82973,0.84666 z"
           style="font-style:normal;font-variant:normal;font-weight:normal;font-stretch:normal;font-size:16.93333244px;font-family:'Yanone Kaffeesatz';-inkscape-font-specification:'Yanone Kaffeesatz';fill:#a00000;fill-opacity:1;stroke-width:0.26458332"
           id="path5553" />
      </g>
      <g
         aria-label="TAC"
         transform="translate(-346.59324,-186.00672)"
         style="font-style:normal;font-weight:bold;font-size:16.93333244px;line-height:125%;font-family:Sans;-inkscape-font-specification:'Yanone Kaffeesatz Bold';letter-spacing:0px;word-spacing:0px;display:inline;fill:#a00000;fill-opacity:1;stroke:none;stroke-width:0.26458332"
         id="text5534">
        <path
           d="m 416.94684,192.83329 c 0.23707,0 0.33867,-0.0677 0.33867,-0.33867 v -1.4224 h -5.75734 c -0.23706,0 -0.33866,0.1016 -0.33866,0.33867 v 1.4224 h 2.06586 v 10.09226 c 1.86267,0 1.89654,0 1.89654,-0.33866 v -9.7536 z"
           style="font-style:normal;font-variant:normal;font-weight:bold;font-stretch:normal;font-size:16.93333244px;font-family:'Yanone Kaffeesatz';-inkscape-font-specification:'Yanone Kaffeesatz Bold';fill:#a00000;fill-opacity:1;stroke-width:0.26458332"
           id="path5556" />
        <path
           d="m 421.6805,202.92555 c 0.49107,0.0339 0.84667,0.0339 1.10067,0.0339 0.762,0 0.89746,-0.11853 0.84666,-0.33867 l -2.82786,-11.51466 c -0.23707,-0.0508 -0.57574,-0.0677 -0.89747,-0.0677 -0.44027,0 -0.7112,0.1016 -0.762,0.3556 l -2.82787,11.49774 c 0.44027,0.0508 0.94827,0.0677 1.20227,0.0677 0.762,0 0.8128,-0.11853 0.8636,-0.3556 l 0.49107,-2.37067 h 2.25213 z m -2.1336,-5.97746 c 0.18627,-0.89747 0.33867,-2.1336 0.4572,-3.2004 0.1016,1.0668 0.254,2.30293 0.44027,3.2004 l 0.32173,1.5748 h -1.54093 z"
           style="font-style:normal;font-variant:normal;font-weight:bold;font-stretch:normal;font-size:16.93333244px;font-family:'Yanone Kaffeesatz';-inkscape-font-specification:'Yanone Kaffeesatz Bold';fill:#a00000;fill-opacity:1;stroke-width:0.26458332"
           id="path5558" />
        <path
           d="m 426.91713,190.81822 c -1.524,0 -3.38666,1.016 -3.38666,6.57013 0,4.74134 0.9144,5.7912 2.82786,5.7912 1.28694,0 2.06587,-0.4572 2.06587,-1.25306 0,-0.4064 -0.11853,-0.82974 -0.254,-1.1176 -0.32173,0.16933 -0.79587,0.254 -1.3208,0.254 -0.94827,0 -1.3208,-0.88054 -1.3208,-3.82694 0,-3.69146 0.88053,-4.572 1.84573,-4.572 0.37254,0 0.67734,0.13547 0.88054,0.28787 0.13546,-0.28787 0.27093,-0.67733 0.27093,-1.13453 0,-0.508 -0.16933,-0.99907 -1.60867,-0.99907 z"
           style="font-style:normal;font-variant:normal;font-weight:bold;font-stretch:normal;font-size:16.93333244px;font-family:'Yanone Kaffeesatz';-inkscape-font-specification:'Yanone Kaffeesatz Bold';fill:#a00000;fill-opacity:1;stroke-width:0.26458332"
           id="path5560" />
      </g>
    </g>
  </g>
</svg>
