<?xml version="1.0" encoding="UTF-8" standalone="no"?>
<!-- Created with Inkscape (http://www.inkscape.org/) -->

<svg
   xmlns:dc="http://purl.org/dc/elements/1.1/"
   xmlns:cc="http://creativecommons.org/ns#"
   xmlns:rdf="http://www.w3.org/1999/02/22-rdf-syntax-ns#"
   xmlns:svg="http://www.w3.org/2000/svg"
   xmlns="http://www.w3.org/2000/svg"
   xmlns:xlink="http://www.w3.org/1999/xlink"
   xmlns:sodipodi="http://sodipodi.sourceforge.net/DTD/sodipodi-0.dtd"
   xmlns:inkscape="http://www.inkscape.org/namespaces/inkscape"
   width="93.468147mm"
   height="19.391338mm"
   viewBox="0 0 93.46815 19.391338"
   version="1.1"
   id="svg4805"
   inkscape:version="0.92.2 (5c3e80d, 2017-08-06)"
   sodipodi:docname="OsmoCon.svg"
   inkscape:export-filename="OsmoCon2018.png"
   inkscape:export-xdpi="250.08528"
   inkscape:export-ydpi="250.08528">
  <defs
     id="defs4799">
    <radialGradient
       r="4.5250292"
       fy="8.0709476"
       fx="10.28125"
       cy="8.0709476"
       cx="10.28125"
       gradientTransform="matrix(4.9499444,0,0,4.9510321,-11.38809,35.312163)"
       gradientUnits="userSpaceOnUse"
       id="radialGradient3637"
       xlink:href="#linearGradient3374-5-7-7-0"
       inkscape:collect="always" />
    <linearGradient
       id="linearGradient3374-5-7-7-0">
      <stop
         id="stop3376-8-6-4-2"
         style="stop-color:#729fcf;stop-opacity:1"
         offset="0" />
      <stop
         id="stop3378-6-7-4-9"
         style="stop-color:#729fcf;stop-opacity:0"
         offset="1" />
    </linearGradient>
    <radialGradient
       r="4.5250292"
       fy="9.8424416"
       fx="10.28125"
       cy="9.8424416"
       cx="10.28125"
       gradientTransform="matrix(23.169932,0,0,7.6402677,-198.71238,8.8435626)"
       gradientUnits="userSpaceOnUse"
       id="radialGradient3639"
       xlink:href="#linearGradient3362-8-6-0-9"
       inkscape:collect="always" />
    <linearGradient
       id="linearGradient3362-8-6-0-9">
      <stop
         id="stop3364-4-5-78-9"
         style="stop-color:#3465a4;stop-opacity:1"
         offset="0" />
      <stop
         id="stop3366-7-6-6-4"
         style="stop-color:#3465a4;stop-opacity:0"
         offset="1" />
    </linearGradient>
    <linearGradient
       x1="24.837126"
       y1="44.528019"
       x2="21.036427"
       y2="21.041553"
       id="linearGradient3991-3-88-5"
       xlink:href="#linearGradient7101-4-9-4-1"
       gradientUnits="userSpaceOnUse"
       gradientTransform="translate(-3.9478815e-7,-1.3220088e-5)" />
    <linearGradient
       id="linearGradient7101-4-9-4-1">
      <stop
         id="stop7103-0-4-31-0"
         style="stop-color:#babdb6;stop-opacity:1"
         offset="0" />
      <stop
         id="stop7105-6-8-4-3"
         style="stop-color:#ffffff;stop-opacity:1"
         offset="1" />
    </linearGradient>
    <linearGradient
       x1="39.06765"
       y1="28.5"
       x2="39.421204"
       y2="10.934953"
       id="linearGradient3993-1-9-7"
       xlink:href="#linearGradient6979-9-2-2-8"
       gradientUnits="userSpaceOnUse"
       gradientTransform="translate(-3.9478815e-7,-1.3220088e-5)" />
    <linearGradient
       id="linearGradient6979-9-2-2-8">
      <stop
         id="stop6981-9-9-0-8"
         style="stop-color:#888a85;stop-opacity:1"
         offset="0" />
      <stop
         id="stop6983-0-3-6-6"
         style="stop-color:#555753;stop-opacity:1"
         offset="1" />
    </linearGradient>
    <radialGradient
       cx="10.28125"
       cy="7.8249326"
       r="4.5250292"
       fx="10.28125"
       fy="7.8249326"
       id="radialGradient3995-7-4-0"
       xlink:href="#linearGradient3374-5-7-7-0"
       gradientUnits="userSpaceOnUse"
       gradientTransform="matrix(2.2651111,0,0,2.2923498,16.215361,52.593563)" />
    <radialGradient
       cx="10.28125"
       cy="9.8424416"
       r="4.5250292"
       fx="10.28125"
       fy="9.8424416"
       id="radialGradient3997-3-3-4"
       xlink:href="#linearGradient3362-8-6-0-9"
       gradientUnits="userSpaceOnUse"
       gradientTransform="matrix(15.1803,0,0,5.0647752,-116.56897,28.614263)" />
    <radialGradient
       cx="8.9057236"
       cy="1.7286602"
       r="1.9952321"
       fx="8.9057236"
       fy="1.7286602"
       id="radialGradient3999-1-4-6"
       xlink:href="#linearGradient7131-6-1-5-7"
       gradientUnits="userSpaceOnUse"
       gradientTransform="matrix(0.7375073,0,0,0.7201806,2.4345312,0.66172787)" />
    <linearGradient
       id="linearGradient7131-6-1-5-7">
      <stop
         id="stop7133-4-5-2-6"
         style="stop-color:#ffffff;stop-opacity:1"
         offset="0" />
      <stop
         id="stop7135-6-9-5-0"
         style="stop-color:#d3d7cf;stop-opacity:1"
         offset="1" />
    </linearGradient>
    <radialGradient
       cx="8.3046875"
       cy="1.1256332"
       r="2.0507698"
       fx="8.3046875"
       fy="1.1256332"
       id="radialGradient4001-9-6-9"
       xlink:href="#linearGradient7153-0-1-9-75"
       gradientUnits="userSpaceOnUse"
       gradientTransform="matrix(5.2943491,0,0,5.2881329,-7.0220402,58.291463)" />
    <linearGradient
       id="linearGradient7153-0-1-9-75">
      <stop
         id="stop7155-8-7-3-9"
         style="stop-color:#ffffff;stop-opacity:1"
         offset="0" />
      <stop
         id="stop7157-5-7-7-7"
         style="stop-color:#ffffff;stop-opacity:0"
         offset="1" />
    </linearGradient>
  </defs>
  <sodipodi:namedview
     id="base"
     pagecolor="#ffffff"
     bordercolor="#666666"
     borderopacity="1.0"
     inkscape:pageopacity="1"
     inkscape:pageshadow="2"
     inkscape:zoom="1.979899"
     inkscape:cx="151.57256"
     inkscape:cy="14.723503"
     inkscape:document-units="mm"
     inkscape:current-layer="g80"
     showgrid="false"
     fit-margin-top="2"
     fit-margin-left="2"
     fit-margin-right="2"
     fit-margin-bottom="2"
     inkscape:window-width="1727"
     inkscape:window-height="1020"
     inkscape:window-x="193"
     inkscape:window-y="37"
     inkscape:window-maximized="0"
     inkscape:pagecheckerboard="false" />
  <metadata
     id="metadata4802">
    <rdf:RDF>
      <cc:Work
         rdf:about="">
        <dc:format>image/svg+xml</dc:format>
        <dc:type
           rdf:resource="http://purl.org/dc/dcmitype/StillImage" />
        <dc:title></dc:title>
      </cc:Work>
    </rdf:RDF>
  </metadata>
  <g
     inkscape:label="picutre"
     inkscape:groupmode="layer"
     id="layer1"
     transform="translate(-46.719256,-150.47695)">
    <g
       style="display:inline"
       id="g3732"
       transform="matrix(0.26458333,0,0,0.26458333,44.067663,140.35415)">
      <path
         inkscape:connector-curvature="0"
         d="m 60.69548,67.493897 c 0,11.5675 -9.48796,20.9448 -21.19195,20.9448 -11.703989,0 -21.191949,-9.3773 -21.191949,-20.9448 0,-11.5674 9.48796,-20.9447 21.191949,-20.9447 11.70399,0 21.19195,9.3773 21.19195,20.9447 z"
         id="path3544"
         style="font-style:normal;font-variant:normal;font-weight:normal;font-stretch:normal;font-size:40px;font-family:'Yanone Kaffeesatz';-inkscape-font-specification:'Yanone Kaffeesatz';display:inline;opacity:0.8;fill:url(#radialGradient3637);fill-opacity:1;stroke:url(#radialGradient3639);stroke-width:1.46151388;stroke-linecap:round;stroke-linejoin:round;stroke-miterlimit:4;stroke-dashoffset:0;stroke-opacity:1" />
      <g
         transform="matrix(1.4615138,0,0,2.5218672,4.4272,31.547917)"
         id="g3546"
         style="font-style:normal;font-variant:normal;font-weight:normal;font-stretch:normal;font-size:40px;font-family:'Yanone Kaffeesatz';-inkscape-font-specification:'Yanone Kaffeesatz';display:inline;fill:#000000;fill-opacity:1;stroke:none">
        <path
           inkscape:connector-curvature="0"
           d="m 24,13 -8.1875,15.225744 c 11.445471,0 5.976697,0 16.34375,0 z m 0,4.96875 4,7.421875 h -7.953125 z"
           id="path3548"
           style="fill:url(#linearGradient3991-3-88-5);fill-opacity:1;fill-rule:evenodd;stroke:url(#linearGradient3993-1-9-7);stroke-width:1px;stroke-linecap:butt;stroke-linejoin:miter;stroke-opacity:1" />
        <path
           inkscape:connector-curvature="0"
           d="M 26.355979,42.522608 20,21.277828 13.644021,42.522609"
           transform="matrix(1,0,0,0.57953638,4,2.7937247)"
           id="path3550"
           style="fill:none;stroke:#ffffff;stroke-width:1.31358945px;stroke-linecap:round;stroke-linejoin:miter;stroke-opacity:1" />
      </g>
      <path
         inkscape:connector-curvature="0"
         d="m 53.38791,67.493897 c 0,7.6681 -6.21625,13.8844 -13.88438,13.8844 -7.66813,0 -13.884379,-6.2163 -13.884379,-13.8844 0,-7.6681 6.216249,-13.8844 13.884379,-13.8844 7.66813,0 13.88438,6.2163 13.88438,13.8844 z"
         id="path3552"
         style="font-style:normal;font-variant:normal;font-weight:normal;font-stretch:normal;font-size:40px;font-family:'Yanone Kaffeesatz';-inkscape-font-specification:'Yanone Kaffeesatz';display:inline;fill:url(#radialGradient3995-7-4-0);fill-opacity:1;stroke:url(#radialGradient3997-3-3-4);stroke-width:1.46151388;stroke-linecap:round;stroke-linejoin:round;stroke-miterlimit:4;stroke-dashoffset:0;stroke-opacity:1" />
      <g
         transform="matrix(3.2735609,0,0,3.2593101,-24.33091,59.292917)"
         id="g3554"
         style="font-style:normal;font-variant:normal;font-weight:normal;font-stretch:normal;font-size:40px;font-family:'Yanone Kaffeesatz';-inkscape-font-specification:'Yanone Kaffeesatz';display:inline;fill:#000000;fill-opacity:1;stroke:none">
        <path
           inkscape:connector-curvature="0"
           d="M 11,2.25 C 11,3.2164983 10.195512,4 9.203125,4 8.2107383,4 7.40625,3.2164983 7.40625,2.25 7.40625,1.2835017 8.2107383,0.5 9.203125,0.5 10.195512,0.5 11,1.2835017 11,2.25 Z"
           transform="matrix(1.1130433,0,0,1.1428572,9.2565233,-0.07142864)"
           id="path3556"
           style="fill:url(#radialGradient3999-1-4-6);fill-opacity:1;stroke:#555753;stroke-width:0.39671427;stroke-linecap:round;stroke-linejoin:round;stroke-miterlimit:4;stroke-dashoffset:0;stroke-opacity:1" />
        <path
           inkscape:connector-curvature="0"
           d="M 20,1.5 C 20,1.7761424 19.776142,2 19.5,2 19.223858,2 19,1.7761424 19,1.5 19,1.2238576 19.223858,1 19.5,1 19.776142,1 20,1.2238576 20,1.5 Z"
           transform="matrix(1.8125,0,0,1.8125,-16.465404,-0.9288198)"
           id="path3558"
           style="fill:#ffffff;fill-opacity:1;stroke:none" />
      </g>
      <path
         inkscape:connector-curvature="0"
         d="m 44.61882,67.441097 c 0,2.8124 -2.2902,5.0924 -5.1153,5.0924 -2.8251,0 -5.1153,-2.28 -5.1153,-5.0924 0,-2.8125 2.2902,-5.0924 5.1153,-5.0924 2.8251,0 5.1153,2.2799 5.1153,5.0924 z"
         id="path3560"
         style="font-style:normal;font-variant:normal;font-weight:normal;font-stretch:normal;font-size:40px;font-family:'Yanone Kaffeesatz';-inkscape-font-specification:'Yanone Kaffeesatz';display:inline;fill:none;stroke:url(#radialGradient4001-9-6-9);stroke-width:1.46151364;stroke-linecap:round;stroke-linejoin:round;stroke-miterlimit:4;stroke-dashoffset:0;stroke-opacity:1" />
    </g>
    <text
       xml:space="preserve"
       style="font-style:normal;font-weight:normal;font-size:10.58333302px;line-height:125%;font-family:Sans;letter-spacing:0px;word-spacing:0px;display:inline;fill:#a00000;fill-opacity:1;stroke:none;stroke-width:0.26458332"
       x="84.040901"
       y="167.22646"
       id="text3760-7"><tspan
         sodipodi:role="line"
         id="tspan3762-0"
         x="84.040901"
         y="167.22646"
         style="font-style:normal;font-variant:normal;font-weight:normal;font-stretch:normal;font-size:16.93333244px;font-family:'Yanone Kaffeesatz';-inkscape-font-specification:'Yanone Kaffeesatz';fill:#a00000;fill-opacity:1;stroke-width:0.26458332">o</tspan></text>
  </g>
  <g
     inkscape:groupmode="layer"
     id="layer40"
     inkscape:label="m"
     transform="translate(-3,-2.9999862)">
    <path
       transform="translate(-43.719255,-147.47695)"
       style="font-style:normal;font-variant:normal;font-weight:normal;font-stretch:normal;font-size:64px;font-family:'Yanone Kaffeesatz';-inkscape-font-specification:'Andale Mono';writing-mode:lr-tb;display:inline;fill:#a00000;fill-opacity:1;stroke:#a00000;stroke-width:0.26458332;stroke-opacity:1"
       d="m 76.771807,158.71068 -1.146699,1.97352 -0.524518,-0.90279 0.155549,7.11068 c 0.502282,-0.35081 0.686977,0.19073 0.694531,-0.0801 l 0.183968,-6.59081 c 0.389466,-0.2032 0.778816,-0.28784 1.15135,-0.28784 0.677333,0 0.946314,0.23686 0.96325,0.84646 l 0.07493,6.0942 c 0.469794,-0.13364 0.894119,0.10262 0.896069,-0.0455 l 0.08372,-6.33966 c 0.372533,-0.23707 0.928798,-0.53899 1.318265,-0.53899 0.677336,0 0.815382,0.3392 0.829408,1.15187 l 0.101804,5.8937 c 0.318539,-0.0501 0.770977,0.16066 0.775144,-0.0512 l 0.11679,-5.94382 c 0.02997,-1.52371 0.174559,-2.26963 -1.518769,-2.26963 -0.694267,0 -1.506829,0.2033 -2.082562,0.52503 -0.321734,-0.33864 -0.795803,-0.52503 -1.523937,-0.52503 -0.198501,0 -0.377912,-0.009 -0.548288,-0.0202 z"
       id="path3959-9-26-3"
       inkscape:connector-curvature="0" />
    <path
       transform="translate(-43.719255,-147.47695)"
       d="m 75.624973,160.68419 -1.192441,-2.05148 -1.192442,-2.0515 h 2.384883 2.384883 l -1.19244,2.0515 z"
       id="path3981-0-4-1"
       style="font-style:normal;font-variant:normal;font-weight:normal;font-stretch:normal;font-size:40px;font-family:'Yanone Kaffeesatz';-inkscape-font-specification:'Yanone Kaffeesatz';display:inline;fill:none;fill-opacity:1;stroke:#e19c9c;stroke-width:1.32291663;stroke-linecap:round;stroke-linejoin:round;stroke-miterlimit:4;stroke-dashoffset:0;stroke-opacity:1"
       inkscape:connector-curvature="0" />
    <path
       transform="translate(-43.719255,-147.47695)"
       d="m 81.935368,166.73026 v -7.33518"
       id="path3983-4-9-2"
       style="font-style:normal;font-variant:normal;font-weight:normal;font-stretch:normal;font-size:40px;font-family:'Yanone Kaffeesatz';-inkscape-font-specification:'Yanone Kaffeesatz';display:inline;fill:none;stroke:#e19c9c;stroke-width:1.32875037;stroke-linecap:round;stroke-linejoin:round;stroke-miterlimit:4;stroke-dasharray:none;stroke-opacity:1"
       inkscape:connector-curvature="0" />
    <path
       transform="translate(-43.719255,-147.47695)"
       d="m 78.766898,166.72717 v -5.24444"
       id="path3985-4-0-9"
       style="font-style:normal;font-variant:normal;font-weight:normal;font-stretch:normal;font-size:40px;font-family:'Yanone Kaffeesatz';-inkscape-font-specification:'Yanone Kaffeesatz';display:inline;fill:none;stroke:#e19c9c;stroke-width:1.32291663;stroke-linecap:round;stroke-linejoin:round;stroke-miterlimit:4;stroke-dasharray:none;stroke-opacity:1"
       inkscape:connector-curvature="0" />
    <path
       transform="translate(-43.719255,-147.47695)"
       d="m 75.624804,166.77312 -0.0021,-3.10957"
       id="path3951-0-4-91-2"
       style="font-style:normal;font-variant:normal;font-weight:normal;font-stretch:normal;font-size:40px;font-family:'Yanone Kaffeesatz';-inkscape-font-specification:'Yanone Kaffeesatz';display:inline;fill:none;stroke:#e19c9c;stroke-width:1.23538113;stroke-linecap:round;stroke-linejoin:round;stroke-miterlimit:4;stroke-dasharray:none;stroke-opacity:1"
       inkscape:connector-curvature="0" />
  </g>
  <g
     inkscape:groupmode="layer"
     id="layer41"
     inkscape:label="text"
     transform="translate(-3,-2.9999862)">
    <g
       inkscape:groupmode="layer"
       id="layer42"
       inkscape:label="font"
       style="display:inline">
      <text
         transform="translate(-43.719255,-147.47695)"
         xml:space="preserve"
         style="font-style:normal;font-weight:normal;font-size:16.93333244px;line-height:125%;font-family:Sans;letter-spacing:0.03704167px;word-spacing:0px;display:inline;fill:#a00000;fill-opacity:1;stroke:none;stroke-width:0.26458332"
         x="60.321899"
         y="167.22646"
         id="text3743-6"><tspan
           sodipodi:role="line"
           id="tspan3745-0"
           x="60.321899"
           y="167.22646"
           style="font-style:normal;font-variant:normal;font-weight:normal;font-stretch:normal;font-size:16.93333244px;font-family:'Yanone Kaffeesatz';-inkscape-font-specification:'Yanone Kaffeesatz';letter-spacing:0.03704167px;fill:#a00000;fill-opacity:1;stroke-width:0.26458332"
           dx="0 0">Os</tspan></text>
      <text
         transform="translate(-43.719255,-147.47695)"
         id="text4686"
         y="167.39578"
         x="90.556053"
         style="font-style:normal;font-weight:bold;font-size:16.93333244px;line-height:125%;font-family:Sans;-inkscape-font-specification:'Yanone Kaffeesatz Bold';letter-spacing:0px;word-spacing:0px;display:inline;fill:#a00000;fill-opacity:1;stroke:none;stroke-width:0.26458332"
         xml:space="preserve"><tspan
           style="font-style:normal;font-variant:normal;font-weight:bold;font-stretch:normal;font-size:16.93333244px;font-family:'Yanone Kaffeesatz';-inkscape-font-specification:'Yanone Kaffeesatz Bold';fill:#a00000;fill-opacity:1;stroke-width:0.26458332"
           y="167.39578"
           x="90.556053"
           id="tspan4684"
           sodipodi:role="line">Con <tspan
   style="font-style:normal;font-variant:normal;font-weight:normal;font-stretch:normal;font-family:'Yanone Kaffeesatz';-inkscape-font-specification:'Yanone Kaffeesatz'"
   id="tspan68">2018</tspan></tspan></text>
    </g>
    <g
       style="display:none"
       inkscape:label="path"
       id="g80"
       inkscape:groupmode="layer">
      <g
         aria-label="Os"
         transform="translate(-43.719255,-147.47695)"
         style="font-style:normal;font-weight:normal;font-size:16.93333244px;line-height:125%;font-family:Sans;letter-spacing:0.03704167px;word-spacing:0px;display:inline;fill:#a00000;fill-opacity:1;stroke:none;stroke-width:0.26458332"
         id="text72">
        <path
           d="m 60.829899,161.23206 q 0,-1.69334 0.186267,-2.8448 0.2032,-1.15147 0.6096,-1.84574 0.4064,-0.7112 1.016,-1.016 0.6096,-0.3048 1.4224,-0.3048 0.829733,0 1.405466,0.28787 0.575734,0.28787 0.931334,0.98213 0.3556,0.67734 0.508,1.8288 0.169333,1.15147 0.169333,2.86174 0,1.74413 -0.186267,2.92946 -0.186266,1.18534 -0.575733,1.91347 -0.389467,0.72813 -0.999067,1.04987 -0.609599,0.3048 -1.439333,0.3048 -0.8128,0 -1.405466,-0.27094 -0.575734,-0.27093 -0.948267,-0.9652 -0.3556,-0.7112 -0.524933,-1.89653 -0.169334,-1.18533 -0.169334,-3.01413 z m 1.540934,0.33866 q 0,1.18534 0.06773,2.01507 0.08467,0.82973 0.270933,1.3716 0.186267,0.52493 0.474134,0.77893 0.3048,0.23707 0.762,0.23707 0.4572,0 0.762,-0.254 0.321733,-0.254 0.507999,-0.82973 0.2032,-0.57574 0.287867,-1.4732 0.08467,-0.89747 0.08467,-2.20134 0,-1.27 -0.08467,-2.1336 -0.06773,-0.88053 -0.254,-1.4224 -0.169333,-0.5588 -0.474133,-0.79586 -0.287867,-0.23707 -0.745067,-0.23707 -0.440266,0 -0.762,0.27093 -0.3048,0.254 -0.508,0.84667 -0.2032,0.57573 -0.3048,1.524 -0.08467,0.93133 -0.08467,2.30293 z"
           style="font-style:normal;font-variant:normal;font-weight:normal;font-stretch:normal;font-size:16.93333244px;font-family:'Yanone Kaffeesatz';-inkscape-font-specification:'Yanone Kaffeesatz';letter-spacing:0.03704167px;fill:#a00000;fill-opacity:1;stroke-width:0.26458332"
           id="path82"
           inkscape:connector-curvature="0" />
        <path
           d="m 70.886976,158.59046 q 0.6604,0 1.0668,0.1016 0.423333,0.1016 0.6604,0.254 0.237067,0.13546 0.321733,0.3048 0.08467,0.16933 0.08467,0.28786 0,0.3556 -0.3048,0.69427 -0.728133,-0.44027 -1.659467,-0.44027 -0.592666,0 -0.965199,0.22014 -0.372534,0.2032 -0.372534,0.59266 0,0.23707 0.118534,0.47414 0.118533,0.22013 0.558799,0.57573 l 1.5748,1.27 q 0.541867,0.54187 0.762,1.016 0.237067,0.4572 0.237067,1.10067 0,1.13453 -0.745067,1.74413 -0.745066,0.6096 -2.048933,0.6096 -0.9144,0 -1.490133,-0.2032 -0.575733,-0.22013 -0.575733,-0.6604 0,-0.1524 0.0508,-0.3556 0.0508,-0.2032 0.186266,-0.44027 0.728134,0.42334 1.693334,0.42334 0.643466,0 0.999066,-0.27094 0.372533,-0.27093 0.372533,-0.77893 0,-0.33867 -0.1524,-0.6604 -0.135466,-0.32173 -0.524933,-0.6604 l -1.642533,-1.40547 q -0.575733,-0.47413 -0.778933,-0.9144 -0.186267,-0.4572 -0.186267,-0.88053 0,-0.88053 0.6604,-1.43933 0.677333,-0.5588 2.099733,-0.5588 z"
           style="font-style:normal;font-variant:normal;font-weight:normal;font-stretch:normal;font-size:16.93333244px;font-family:'Yanone Kaffeesatz';-inkscape-font-specification:'Yanone Kaffeesatz';letter-spacing:0.03704167px;fill:#a00000;fill-opacity:1;stroke-width:0.26458332"
           id="path84"
           inkscape:connector-curvature="0" />
      </g>
      <g
         aria-label="Con 2018"
         transform="translate(-43.719255,-147.47695)"
         style="font-style:normal;font-weight:bold;font-size:16.93333244px;line-height:125%;font-family:Sans;-inkscape-font-specification:'Yanone Kaffeesatz Bold';letter-spacing:0px;word-spacing:0px;display:inline;fill:#a00000;fill-opacity:1;stroke:none;stroke-width:0.26458332"
         id="text78">
        <path
           d="m 94.315253,155.37312 q 0.541867,0 0.8636,0.0847 0.321733,0.0847 0.474133,0.23707 0.169334,0.13547 0.220134,0.32173 0.0508,0.16934 0.0508,0.3556 0,0.33867 -0.08467,0.62654 -0.08467,0.28786 -0.186267,0.508 -0.1524,-0.11854 -0.372533,-0.2032 -0.220133,-0.0847 -0.508,-0.0847 -0.3556,0 -0.694267,0.2032 -0.338666,0.18627 -0.592666,0.69427 -0.254,0.508 -0.4064,1.35466 -0.1524,0.84667 -0.1524,2.2352 0,1.10067 0.06773,1.79494 0.08467,0.67733 0.237067,1.1176 0.1524,0.44026 0.4064,0.62653 0.254,0.18627 0.6096,0.18627 0.829733,0 1.3208,-0.254 0.1016,0.22013 0.169333,0.52493 0.08467,0.28787 0.08467,0.59267 0,0.59266 -0.5588,0.93133 -0.541867,0.32173 -1.507067,0.32173 -0.7112,0 -1.253067,-0.23706 -0.524933,-0.23707 -0.880533,-0.88054 -0.3556,-0.64346 -0.524933,-1.76106 -0.169334,-1.13454 -0.169334,-2.81094 0,-2.0828 0.3048,-3.31893 0.321734,-1.25307 0.8128,-1.96427 0.491067,-0.7112 1.083734,-0.94826 0.6096,-0.254 1.185333,-0.254 z"
           style="font-style:normal;font-variant:normal;font-weight:bold;font-stretch:normal;font-size:16.93333244px;font-family:'Yanone Kaffeesatz';-inkscape-font-specification:'Yanone Kaffeesatz Bold';fill:#a00000;fill-opacity:1;stroke-width:0.26458332"
           id="path87"
           inkscape:connector-curvature="0" />
        <path
           d="m 96.134793,163.14552 q 0,-2.30294 0.728133,-3.33587 0.728133,-1.04987 2.0828,-1.04987 0.677333,0 1.168404,0.2032 0.508,0.18627 0.82973,0.67734 0.32173,0.49106 0.47413,1.3208 0.16934,0.82973 0.16934,2.11666 0,1.2192 -0.18627,2.0828 -0.16933,0.84667 -0.52493,1.38854 -0.33867,0.52493 -0.8636,0.77893 -0.524938,0.23707 -1.202271,0.23707 -0.694266,0 -1.202266,-0.16934 -0.491067,-0.1524 -0.829734,-0.6096 -0.321733,-0.47413 -0.491066,-1.33773 -0.1524,-0.88053 -0.1524,-2.30293 z m 2.082799,-0.0169 q 0,0.99907 0.03387,1.5748 0.0508,0.5588 0.118533,0.84667 0.08467,0.28787 0.2032,0.37253 0.135467,0.0677 0.287867,0.0677 0.118533,0 0.237067,-0.0677 0.118533,-0.0847 0.2032,-0.37253 0.08467,-0.3048 0.135466,-0.8636 0.06773,-0.57573 0.06773,-1.55787 0,-0.9144 -0.03387,-1.45626 -0.01693,-0.54187 -0.1016,-0.82974 -0.06773,-0.28786 -0.186267,-0.37253 -0.118533,-0.0847 -0.3048,-0.0847 -0.135466,0 -0.270933,0.1016 -0.118533,0.0847 -0.2032,0.37254 -0.08467,0.28786 -0.135467,0.82973 -0.0508,0.54187 -0.0508,1.43933 z"
           style="font-style:normal;font-variant:normal;font-weight:bold;font-stretch:normal;font-size:16.93333244px;font-family:'Yanone Kaffeesatz';-inkscape-font-specification:'Yanone Kaffeesatz Bold';fill:#a00000;fill-opacity:1;stroke-width:0.26458332"
           id="path89"
           inkscape:connector-curvature="0" />
        <path
           d="m 102.39272,159.31858 q 0.2032,-0.1016 0.508,-0.18626 0.32173,-0.1016 0.67733,-0.18627 0.37253,-0.0847 0.74507,-0.13547 0.37253,-0.0508 0.69426,-0.0508 0.64347,0 1.10067,0.1016 0.4572,0.1016 0.74507,0.3556 0.3048,0.254 0.44026,0.67734 0.1524,0.42333 0.1524,1.04986 v 6.11294 q 0,0.13546 -0.0339,0.2032 -0.0339,0.0677 -0.23707,0.1016 -0.18627,0.0169 -0.59267,0.0339 -0.38946,0 -1.10066,0 v -5.85893 q 0,-0.6604 -0.1016,-0.89747 -0.1016,-0.254 -0.4572,-0.254 -0.37254,0 -0.64347,0.2032 v 6.46854 q 0,0.13546 -0.0339,0.2032 -0.0339,0.0677 -0.22013,0.1016 -0.16933,0.0169 -0.5588,0.0339 -0.38947,0 -1.08373,0 z"
           style="font-style:normal;font-variant:normal;font-weight:bold;font-stretch:normal;font-size:16.93333244px;font-family:'Yanone Kaffeesatz';-inkscape-font-specification:'Yanone Kaffeesatz Bold';fill:#a00000;fill-opacity:1;stroke-width:0.26458332"
           id="path91"
           inkscape:connector-curvature="0" />
        <path
           d="m 111.33272,159.14925 q -0.11853,-0.27093 -0.1524,-0.54187 -0.0169,-0.28786 -0.0169,-0.47413 0,-0.1524 0.23707,-0.3048 0.23706,-0.16933 0.64346,-0.28787 0.4064,-0.13546 0.94827,-0.22013 0.5588,-0.0847 1.1684,-0.0847 0.72813,0 1.20227,0.1524 0.49106,0.1524 0.77893,0.4572 0.28787,0.28787 0.4064,0.7112 0.11853,0.42334 0.11853,0.98214 0,0.88053 -0.4064,1.65946 -0.38946,0.77894 -0.99906,1.54094 -0.59267,0.762 -1.30387,1.5748 -0.7112,0.8128 -1.3208,1.778 h 2.26907 q 0.33866,0 0.69426,0 0.3556,-0.0169 0.64347,-0.0508 0.33867,-0.0339 0.6604,-0.0677 0,0.77894 -0.0339,1.10067 -0.0339,0.32173 -0.254,0.32173 h -5.7404 q -0.0339,-0.1016 -0.0508,-0.22013 0,-0.13547 0,-0.2032 0,-0.16933 0.0169,-0.3048 0.0169,-0.13547 0.0677,-0.254 0.0508,-0.13547 0.11853,-0.28787 0.0847,-0.1524 0.2032,-0.3556 0.5588,-0.93133 1.23614,-1.7272 0.67733,-0.79586 1.25306,-1.524 0.59267,-0.72813 0.98214,-1.40546 0.4064,-0.67734 0.4064,-1.38854 0,-0.54186 -0.3048,-0.84666 -0.28787,-0.32174 -0.99907,-0.32174 -0.6604,0 -1.35467,0.16934 -0.69426,0.16933 -1.1176,0.42333 z"
           style="font-style:normal;font-variant:normal;font-weight:normal;font-stretch:normal;font-family:'Yanone Kaffeesatz';-inkscape-font-specification:'Yanone Kaffeesatz'"
           id="path93"
           inkscape:connector-curvature="0" />
        <path
           d="m 117.90233,162.38352 q 0,-2.52307 0.7112,-3.82694 0.72813,-1.3208 2.37066,-1.3208 1.64254,0 2.31987,1.18534 0.69427,1.1684 0.69427,3.556 0,1.3716 -0.1524,2.42146 -0.1524,1.04987 -0.52494,1.74414 -0.3556,0.69426 -0.94826,1.04986 -0.59267,0.3556 -1.4732,0.3556 -0.88054,0 -1.45627,-0.33866 -0.57573,-0.33867 -0.93133,-0.98214 -0.33867,-0.6604 -0.47414,-1.6256 -0.13546,-0.9652 -0.13546,-2.21826 z m 1.4732,0.1016 q 0,1.04986 0.0677,1.778 0.0847,0.72813 0.27093,1.18533 0.18627,0.44027 0.47414,0.64347 0.3048,0.2032 0.74506,0.2032 0.8636,0 1.23614,-1.016 0.38946,-1.03294 0.38946,-3.31894 0,-1.74413 -0.32173,-2.62466 -0.3048,-0.88054 -1.18533,-0.88054 -0.9652,0 -1.3208,1.0668 -0.3556,1.0668 -0.3556,2.96334 z"
           style="font-style:normal;font-variant:normal;font-weight:normal;font-stretch:normal;font-family:'Yanone Kaffeesatz';-inkscape-font-specification:'Yanone Kaffeesatz'"
           id="path95"
           inkscape:connector-curvature="0" />
        <path
           d="m 125.65726,158.96298 q -0.0847,-0.18626 -0.1524,-0.4064 -0.0508,-0.23706 -0.0508,-0.49106 0,-0.1016 0.42334,-0.23707 0.42333,-0.13547 0.9652,-0.27093 0.5588,-0.13547 1.08373,-0.22014 0.52493,-0.1016 0.74507,-0.1016 0.1016,0 0.22013,0.0339 0.11853,0.0169 0.16933,0.0508 l -0.22013,8.77147 h 1.25307 q 0.18626,0 0.37253,0 0.18627,0 0.32173,-0.0169 0.16934,-0.0169 0.28787,-0.0339 0,0.7112 -0.0339,1.03293 -0.0339,0.32173 -0.254,0.32173 h -5.7912 q -0.0169,-0.2032 -0.0339,-0.47413 0,-0.27093 0,-0.47413 0,-0.1016 0.23706,-0.16934 0.23707,-0.0847 0.59267,-0.11853 0.3556,-0.0339 0.77893,-0.0508 0.44027,-0.0169 0.82974,-0.0169 l 0.18626,-7.43374 q -0.22013,0.0169 -0.54186,0.0677 -0.32174,0.0339 -0.62654,0.0847 -0.3556,0.0677 -0.762,0.1524 z"
           style="font-style:normal;font-variant:normal;font-weight:normal;font-stretch:normal;font-family:'Yanone Kaffeesatz';-inkscape-font-specification:'Yanone Kaffeesatz'"
           id="path97"
           inkscape:connector-curvature="0" />
        <path
           d="m 135.10553,155.44085 q 0.57574,0 1.1176,0.11853 0.5588,0.11854 0.9652,0.44027 0.42334,0.3048 0.67734,0.84667 0.254,0.52493 0.254,1.33773 0,0.5588 -0.16934,0.99907 -0.1524,0.44026 -0.4064,0.79586 -0.254,0.3556 -0.59266,0.64347 -0.32174,0.28787 -0.6604,0.52493 0.23706,0.18627 0.47413,0.38947 0.23707,0.18627 0.42333,0.38947 0.49107,0.49106 0.74507,1.0668 0.254,0.5588 0.254,1.3208 0,0.6604 -0.18627,1.25306 -0.16933,0.59267 -0.54186,1.03294 -0.37254,0.42333 -0.93134,0.67733 -0.54186,0.254 -1.28693,0.254 -0.84667,0 -1.43933,-0.254 -0.59267,-0.254 -0.98214,-0.69427 -0.37253,-0.44026 -0.5588,-1.03293 -0.16933,-0.59267 -0.16933,-1.27 0,-1.10067 0.5588,-1.9304 0.5588,-0.82973 1.3716,-1.3208 -0.32173,-0.22013 -0.6096,-0.44027 -0.28787,-0.22013 -0.49107,-0.4572 -0.33866,-0.33866 -0.52493,-0.79586 -0.18627,-0.47414 -0.18627,-0.98214 0,-0.72813 0.23707,-1.27 0.23707,-0.5588 0.62653,-0.9144 0.38947,-0.37253 0.9144,-0.54186 0.52494,-0.18627 1.1176,-0.18627 z m 0.98214,7.12893 q -0.2032,-0.2032 -0.4572,-0.38946 -0.23707,-0.2032 -0.508,-0.38947 -0.72814,0.37253 -1.23614,0.98213 -0.508,0.59267 -0.508,1.43934 0,0.9144 0.47414,1.45626 0.47413,0.54187 1.30386,0.54187 0.77894,0 1.23614,-0.508 0.4572,-0.508 0.4572,-1.4224 0,-0.69427 -0.23707,-1.0668 -0.22013,-0.37253 -0.52493,-0.64347 z m -0.79587,-5.82506 q -0.69427,0 -1.20227,0.37253 -0.49106,0.3556 -0.49106,1.15147 0,0.84666 0.6604,1.3716 0.16933,0.18626 0.42333,0.38946 0.27093,0.18627 0.59267,0.4064 0.64346,-0.42333 1.10066,-0.94826 0.47414,-0.54187 0.47414,-1.25307 0,-0.38947 -0.13547,-0.67733 -0.13547,-0.28787 -0.3556,-0.4572 -0.2032,-0.18627 -0.49107,-0.27094 -0.27093,-0.0847 -0.57573,-0.0847 z"
           style="font-style:normal;font-variant:normal;font-weight:normal;font-stretch:normal;font-family:'Yanone Kaffeesatz';-inkscape-font-specification:'Yanone Kaffeesatz'"
           id="path99"
           inkscape:connector-curvature="0" />
      </g>
    </g>
  </g>
</svg>
