<?xml version="1.0" encoding="UTF-8" standalone="no"?>
<!-- Created with Inkscape (http://www.inkscape.org/) -->

<svg
   xmlns:dc="http://purl.org/dc/elements/1.1/"
   xmlns:cc="http://creativecommons.org/ns#"
   xmlns:rdf="http://www.w3.org/1999/02/22-rdf-syntax-ns#"
   xmlns:svg="http://www.w3.org/2000/svg"
   xmlns="http://www.w3.org/2000/svg"
   xmlns:xlink="http://www.w3.org/1999/xlink"
   xmlns:sodipodi="http://sodipodi.sourceforge.net/DTD/sodipodi-0.dtd"
   xmlns:inkscape="http://www.inkscape.org/namespaces/inkscape"
   width="169"
   height="169"
   id="svg3510"
   version="1.1"
   inkscape:version="0.92.2 2405546, 2018-03-11"
   sodipodi:docname="osmocom_avatar.svg"
   inkscape:export-filename="osmocom_avatar.png"
   inkscape:export-xdpi="284.29114"
   inkscape:export-ydpi="284.29114">
  <defs
     id="defs3512">
    <linearGradient
       id="linearGradient3374-5-7-7-0">
      <stop
         id="stop3376-8-6-4-2"
         style="stop-color:#729fcf;stop-opacity:1"
         offset="0" />
      <stop
         id="stop3378-6-7-4-9"
         style="stop-color:#729fcf;stop-opacity:0"
         offset="1" />
    </linearGradient>
    <linearGradient
       id="linearGradient3362-8-6-0-9">
      <stop
         id="stop3364-4-5-78-9"
         style="stop-color:#3465a4;stop-opacity:1"
         offset="0" />
      <stop
         id="stop3366-7-6-6-4"
         style="stop-color:#3465a4;stop-opacity:0"
         offset="1" />
    </linearGradient>
    <linearGradient
       x1="24.837126"
       y1="44.528019"
       x2="21.036427"
       y2="21.041553"
       id="linearGradient3991-3-88-5"
       xlink:href="#linearGradient7101-4-9-4-1"
       gradientUnits="userSpaceOnUse"
       gradientTransform="scale(1.0666667)" />
    <linearGradient
       id="linearGradient7101-4-9-4-1">
      <stop
         id="stop7103-0-4-31-0"
         style="stop-color:#babdb6;stop-opacity:1"
         offset="0" />
      <stop
         id="stop7105-6-8-4-3"
         style="stop-color:#ffffff;stop-opacity:1"
         offset="1" />
    </linearGradient>
    <linearGradient
       x1="39.06765"
       y1="28.5"
       x2="39.421204"
       y2="10.934953"
       id="linearGradient3993-1-9-7"
       xlink:href="#linearGradient6979-9-2-2-8"
       gradientUnits="userSpaceOnUse"
       gradientTransform="scale(1.0666667)" />
    <linearGradient
       id="linearGradient6979-9-2-2-8">
      <stop
         id="stop6981-9-9-0-8"
         style="stop-color:#888a85;stop-opacity:1"
         offset="0" />
      <stop
         id="stop6983-0-3-6-6"
         style="stop-color:#555753;stop-opacity:1"
         offset="1" />
    </linearGradient>
    <radialGradient
       cx="10.28125"
       cy="7.8249326"
       r="4.5250292"
       fx="10.28125"
       fy="7.8249326"
       id="radialGradient3995-7-4-0"
       xlink:href="#linearGradient3374-5-7-7-0"
       gradientUnits="userSpaceOnUse"
       gradientTransform="matrix(2.4161185,0,0,2.4451731,17.296385,56.099837)" />
    <linearGradient
       id="linearGradient3464">
      <stop
         id="stop3466"
         style="stop-color:#729fcf;stop-opacity:1"
         offset="0" />
      <stop
         id="stop3468"
         style="stop-color:#729fcf;stop-opacity:0"
         offset="1" />
    </linearGradient>
    <radialGradient
       cx="10.28125"
       cy="9.8424416"
       r="4.5250292"
       fx="10.28125"
       fy="9.8424416"
       id="radialGradient3997-3-3-4"
       xlink:href="#linearGradient3362-8-6-0-9"
       gradientUnits="userSpaceOnUse"
       gradientTransform="matrix(16.19232,0,0,5.4024269,-124.34023,30.521917)" />
    <linearGradient
       id="linearGradient3471">
      <stop
         id="stop3473"
         style="stop-color:#3465a4;stop-opacity:1"
         offset="0" />
      <stop
         id="stop3475"
         style="stop-color:#3465a4;stop-opacity:0"
         offset="1" />
    </linearGradient>
    <radialGradient
       cx="8.9057236"
       cy="1.7286602"
       r="1.9952321"
       fx="8.9057236"
       fy="1.7286602"
       id="radialGradient3999-1-4-6"
       xlink:href="#linearGradient7131-6-1-5-7"
       gradientUnits="userSpaceOnUse"
       gradientTransform="matrix(0.87560273,0,0,0.87793449,12.764013,0.73049853)" />
    <linearGradient
       id="linearGradient7131-6-1-5-7">
      <stop
         id="stop7133-4-5-2-6"
         style="stop-color:#ffffff;stop-opacity:1"
         offset="0" />
      <stop
         id="stop7135-6-9-5-0"
         style="stop-color:#d3d7cf;stop-opacity:1"
         offset="1" />
    </linearGradient>
    <radialGradient
       cx="8.3046875"
       cy="1.1256332"
       r="2.0507698"
       fx="8.3046875"
       fy="1.1256332"
       id="radialGradient4001-9-6-9"
       xlink:href="#linearGradient7153-0-1-9-75"
       gradientUnits="userSpaceOnUse"
       gradientTransform="matrix(5.2943491,0,0,5.2881329,-7.02204,58.291497)" />
    <linearGradient
       id="linearGradient7153-0-1-9-75">
      <stop
         id="stop7155-8-7-3-9"
         style="stop-color:#ffffff;stop-opacity:1"
         offset="0" />
      <stop
         id="stop7157-5-7-7-7"
         style="stop-color:#ffffff;stop-opacity:0"
         offset="1" />
    </linearGradient>
    <radialGradient
       r="4.5250292"
       fy="8.0709476"
       fx="10.28125"
       cy="8.0709476"
       cx="10.28125"
       gradientTransform="matrix(16.54183,0,0,-16.545465,-185.62048,203.82896)"
       gradientUnits="userSpaceOnUse"
       id="radialGradient3637"
       xlink:href="#linearGradient3374-5-7-7-0"
       inkscape:collect="always" />
    <radialGradient
       r="4.5250292"
       fy="9.8424416"
       fx="10.28125"
       cy="9.8424416"
       cx="10.28125"
       gradientTransform="matrix(77.429775,0,0,-25.53241,-811.62481,292.2823)"
       gradientUnits="userSpaceOnUse"
       id="radialGradient3639"
       xlink:href="#linearGradient3362-8-6-0-9"
       inkscape:collect="always" />
    <linearGradient
       x1="24.837126"
       y1="44.528019"
       x2="21.036427"
       y2="21.041553"
       id="linearGradient3991-3-88-5-3"
       xlink:href="#linearGradient7101-4-9-4-1"
       gradientUnits="userSpaceOnUse" />
    <linearGradient
       x1="39.06765"
       y1="28.5"
       x2="39.421204"
       y2="10.934953"
       id="linearGradient3993-1-9-7-2"
       xlink:href="#linearGradient6979-9-2-2-8"
       gradientUnits="userSpaceOnUse" />
    <radialGradient
       cx="10.28125"
       cy="7.8249326"
       r="4.5250292"
       fx="10.28125"
       fy="7.8249326"
       id="radialGradient3995-7-4-0-2"
       xlink:href="#linearGradient3374-5-7-7-0"
       gradientUnits="userSpaceOnUse"
       gradientTransform="matrix(9.6377823,0,0,-9.7536799,-114.63821,159.68249)" />
    <radialGradient
       cx="10.28125"
       cy="9.8424416"
       r="4.5250292"
       fx="10.28125"
       fy="9.8424416"
       id="radialGradient3997-3-3-4-7"
       xlink:href="#linearGradient3362-8-6-0-9"
       gradientUnits="userSpaceOnUse"
       gradientTransform="matrix(64.590398,0,0,-21.550025,-679.62,261.71162)" />
    <radialGradient
       cx="8.9057236"
       cy="1.7286602"
       r="1.9952321"
       fx="8.9057236"
       fy="1.7286602"
       id="radialGradient3999-1-4-6-0"
       xlink:href="#linearGradient7131-6-1-5-7"
       gradientUnits="userSpaceOnUse"
       gradientTransform="matrix(0.7375073,0,0,0.7201806,2.4345312,0.6617371)" />
    <radialGradient
       cx="8.3046875"
       cy="1.1256332"
       r="2.0507698"
       fx="8.3046875"
       fy="1.1256332"
       id="radialGradient4001-9-6-9-6"
       xlink:href="#linearGradient7153-0-1-9-75"
       gradientUnits="userSpaceOnUse"
       gradientTransform="matrix(5.2943491,0,0,5.2881329,-7.02204,58.291497)" />
  </defs>
  <sodipodi:namedview
     id="base"
     pagecolor="#ffffff"
     bordercolor="#666666"
     borderopacity="1.0"
     inkscape:pageopacity="0.0"
     inkscape:pageshadow="2"
     inkscape:zoom="1.979899"
     inkscape:cx="-10.993365"
     inkscape:cy="30.718542"
     inkscape:document-units="px"
     inkscape:current-layer="layer4"
     showgrid="false"
     fit-margin-top="5"
     fit-margin-left="5"
     fit-margin-right="5"
     fit-margin-bottom="5"
     inkscape:window-width="1916"
     inkscape:window-height="1041"
     inkscape:window-x="0"
     inkscape:window-y="37"
     inkscape:window-maximized="0" />
  <metadata
     id="metadata3515">
    <rdf:RDF>
      <cc:Work
         rdf:about="">
        <dc:format>image/svg+xml</dc:format>
        <dc:type
           rdf:resource="http://purl.org/dc/dcmitype/StillImage" />
        <dc:title></dc:title>
      </cc:Work>
    </rdf:RDF>
  </metadata>
  <g
     inkscape:label="waves"
     inkscape:groupmode="layer"
     id="layer1"
     transform="translate(-626.14242,-314.01047)"
     style="display:inline">
    <g
       style="display:inline"
       id="g3732"
       transform="matrix(1.0976186,0,0,1.0976186,727.71015,292.82813)">
      <path
         inkscape:connector-curvature="0"
         d="m 43.526626,96.283461 c 0,-32.626866 -26.449419,-59.076494 -59.076413,-59.076494 -32.626992,0 -59.076404,26.449628 -59.076404,59.076494 0,32.626869 26.449412,59.076499 59.076404,59.076499 32.626994,0 59.076413,-26.44963 59.076413,-59.076499 z"
         id="path3552"
         style="font-style:normal;font-variant:normal;font-weight:normal;font-stretch:normal;font-size:40px;font-family:'Yanone Kaffeesatz';-inkscape-font-specification:'Yanone Kaffeesatz';display:inline;fill:url(#radialGradient3995-7-4-0-2);fill-opacity:1;stroke:url(#radialGradient3997-3-3-4-7);stroke-width:3.03384066;stroke-linecap:round;stroke-linejoin:round;stroke-miterlimit:4;stroke-dasharray:none;stroke-dashoffset:0;stroke-opacity:1" />
      <path
         inkscape:connector-curvature="0"
         d="m 55.269924,96.283462 c 0,-38.656518 -31.70706,-69.99378 -70.81971,-69.99378 -39.112639,0 -70.819706,31.337262 -70.819706,69.99378 0,38.656188 31.707067,69.993448 70.819706,69.993448 39.11265,0 70.81971,-31.33726 70.81971,-69.993448 z"
         id="path3544"
         style="font-style:normal;font-variant:normal;font-weight:normal;font-stretch:normal;font-size:40px;font-family:'Yanone Kaffeesatz';-inkscape-font-specification:'Yanone Kaffeesatz';display:inline;opacity:0.8;fill:url(#radialGradient3637);fill-opacity:1;stroke:url(#radialGradient3639);stroke-width:3.18872142;stroke-linecap:round;stroke-linejoin:round;stroke-miterlimit:4;stroke-dasharray:none;stroke-dashoffset:0;stroke-opacity:1" />
    </g>
  </g>
  <g
     inkscape:groupmode="layer"
     id="layer2"
     inkscape:label="m"
     transform="translate(-252.95531,-13.980712)"
     style="display:inline">
    <path
       inkscape:connector-curvature="0"
       style="font-style:normal;font-variant:normal;font-weight:normal;font-stretch:normal;font-size:64px;font-family:'Yanone Kaffeesatz';-inkscape-font-specification:'Andale Mono';writing-mode:lr-tb;display:inline;fill:#a00000;fill-opacity:1;stroke:#a00000;stroke-opacity:1"
       d="m 340.99688,66.255165 -4.33398,7.45898 -1.98243,-3.41211 0.5879,26.875 c 1.89839,-1.3259 2.59645,0.72087 2.625,-0.30273 l 0.69531,-24.91016 c 1.472,-0.768 2.94356,-1.08789 4.35156,-1.08789 2.56,0 3.57662,0.89522 3.64063,3.19922 l 0.2832,23.0332 c 1.7756,-0.5051 3.37935,0.38783 3.38672,-0.17187 l 0.3164,-23.96094 c 1.408,-0.896 3.51042,-2.03711 4.98242,-2.03711 2.56001,0 3.08176,1.28202 3.13477,4.35352 l 0.38477,22.27539 c 1.20393,-0.1894 2.91393,0.60724 2.92968,-0.19336 l 0.44141,-22.46485 c 0.11329,-5.7589 0.65975,-8.57812 -5.74023,-8.57812 -2.624,0 -5.6951,0.76837 -7.8711,1.98437 -1.216,-1.2799 -3.00776,-1.98437 -5.75976,-1.98437 -0.75024,0 -1.42833,-0.0352 -2.07227,-0.0762 z"
       id="path3959-9-26-3" />
    <path
       d="m 336.66239,73.714095 -4.50686,-7.7536 -4.50687,-7.7537 h 9.01373 9.01373 l -4.50686,7.7537 z"
       id="path3981-0-4-1"
       style="font-style:normal;font-variant:normal;font-weight:normal;font-stretch:normal;font-size:40px;font-family:'Yanone Kaffeesatz';-inkscape-font-specification:'Yanone Kaffeesatz';display:inline;fill:none;fill-opacity:1;stroke:#e19c9c;stroke-width:5;stroke-linecap:round;stroke-linejoin:round;stroke-miterlimit:4;stroke-dashoffset:0;stroke-opacity:1"
       inkscape:connector-curvature="0" />
    <path
       d="m 360.5127,96.565395 v -27.7235"
       id="path3983-4-9-2"
       style="font-style:normal;font-variant:normal;font-weight:normal;font-stretch:normal;font-size:40px;font-family:'Yanone Kaffeesatz';-inkscape-font-specification:'Yanone Kaffeesatz';display:inline;fill:none;stroke:#e19c9c;stroke-width:5.02204847;stroke-linecap:round;stroke-linejoin:round;stroke-miterlimit:4;stroke-dasharray:none;stroke-opacity:1"
       inkscape:connector-curvature="0" />
    <path
       d="m 348.53738,96.553695 v -19.8215"
       id="path3985-4-0-9"
       style="font-style:normal;font-variant:normal;font-weight:normal;font-stretch:normal;font-size:40px;font-family:'Yanone Kaffeesatz';-inkscape-font-specification:'Yanone Kaffeesatz';display:inline;fill:none;stroke:#e19c9c;stroke-width:5;stroke-linecap:round;stroke-linejoin:round;stroke-miterlimit:4;stroke-dasharray:none;stroke-opacity:1"
       inkscape:connector-curvature="0" />
    <path
       d="m 336.66175,96.727395 -0.008,-11.7527"
       id="path3951-0-4-91-2"
       style="font-style:normal;font-variant:normal;font-weight:normal;font-stretch:normal;font-size:40px;font-family:'Yanone Kaffeesatz';-inkscape-font-specification:'Yanone Kaffeesatz';display:inline;fill:none;stroke:#e19c9c;stroke-width:4.66915703;stroke-linecap:round;stroke-linejoin:round;stroke-miterlimit:4;stroke-dasharray:none;stroke-opacity:1"
       inkscape:connector-curvature="0" />
  </g>
  <g
     inkscape:groupmode="layer"
     id="layer3"
     inkscape:label="text"
     transform="translate(-252.95531,-13.980712)"
     style="display:inline">
    <g
       inkscape:groupmode="layer"
       id="layer4"
       inkscape:label="font"
       style="display:inline">
      <text
         xml:space="preserve"
         style="font-style:normal;font-weight:normal;font-size:64px;line-height:125%;font-family:Sans;letter-spacing:0.14px;word-spacing:0px;display:inline;fill:#a00000;fill-opacity:1;stroke:none"
         x="282.82401"
         y="98.440758"
         id="text3743"><tspan
           sodipodi:role="line"
           id="tspan3745"
           x="282.82401"
           y="98.440758"
           style="font-style:normal;font-variant:normal;font-weight:normal;font-stretch:normal;font-size:64px;font-family:'Yanone Kaffeesatz';-inkscape-font-specification:'Yanone Kaffeesatz';letter-spacing:0.14px;fill:#a00000;fill-opacity:1"
           dx="0 0">os</tspan></text>
      <text
         xml:space="preserve"
         style="font-style:normal;font-weight:normal;font-size:40px;line-height:125%;font-family:Sans;letter-spacing:0px;word-spacing:0px;display:inline;fill:#a00000;fill-opacity:1;stroke:none"
         x="368.47061"
         y="98.440758"
         id="text3760"><tspan
           sodipodi:role="line"
           id="tspan3762"
           x="368.47061"
           y="98.440758"
           style="font-style:normal;font-variant:normal;font-weight:normal;font-stretch:normal;font-size:64px;font-family:'Yanone Kaffeesatz';-inkscape-font-specification:'Yanone Kaffeesatz';fill:#a00000;fill-opacity:1">o</tspan></text>
      <text
         id="text883"
         y="140.61462"
         x="298.38431"
         style="font-style:normal;font-weight:normal;font-size:40px;line-height:125%;font-family:Sans;letter-spacing:0px;word-spacing:0px;display:inline;fill:#a00000;fill-opacity:1;stroke:none"
         xml:space="preserve"><tspan
           style="font-style:normal;font-variant:normal;font-weight:normal;font-stretch:normal;font-size:64px;font-family:'Yanone Kaffeesatz';-inkscape-font-specification:'Yanone Kaffeesatz';fill:#a00000;fill-opacity:1"
           y="140.61462"
           x="298.38431"
           id="tspan881"
           sodipodi:role="line">com</tspan></text>
    </g>
    <g
       inkscape:groupmode="layer"
       id="layer5"
       inkscape:label="path"
       style="display:inline">
      <g
         aria-label="os"
         style="font-style:normal;font-weight:normal;font-size:64px;line-height:125%;font-family:Sans;letter-spacing:0.14px;word-spacing:0px;display:inline;fill:#a00000;fill-opacity:1;stroke:none"
         id="text3743-3"
         transform="translate(0.01697214,-0.92370656)">
        <path
           d="m 284.34304,83.364464 c 0,14.4 3.456,16.639996 10.048,16.639996 6.848,0 10.496,-4.927996 10.496,-16.831996 0,-12.992 -3.2,-16.448 -9.92,-16.448 -6.72,0 -10.624,4.928 -10.624,16.64 z m 5.632,0.128 c 0,-9.984 1.984,-12.224 4.8,-12.224 3.008,0 4.48,1.792 4.48,11.968 0,9.984 -1.984,12.352 -4.736,12.352 -2.944,0 -4.544,-1.536 -4.544,-12.096 z"
           style="font-style:normal;font-variant:normal;font-weight:normal;font-stretch:normal;font-size:64px;font-family:'Yanone Kaffeesatz';-inkscape-font-specification:'Yanone Kaffeesatz';letter-spacing:0.14px;fill:#a00000;fill-opacity:1"
           id="path966"
           inkscape:connector-curvature="0" />
        <path
           d="m 318.86304,66.724464 c -7.168,0 -10.432,3.072 -10.432,7.552 0,2.112 0.768,4.416 3.648,6.784 l 6.208,5.312 c 1.92,1.728 2.56,3.264 2.56,4.992 0,2.56 -1.92,3.968 -5.184,3.968 -2.496,0 -4.544,-0.512 -6.4,-1.6 -0.704,1.152 -0.896,2.24 -0.896,3.008 0,2.24 3.264,3.263996 7.808,3.263996 6.528,0 10.56,-3.199996 10.56,-8.895996 0,-3.2 -1.024,-5.312 -3.776,-8 l -5.952,-4.8 c -2.176,-1.792 -2.56,-2.816 -2.56,-3.968 0,-1.984 2.048,-3.072 5.056,-3.072 2.432,0 4.352,0.512 6.272,1.664 0.704,-0.768 1.152,-1.792 1.152,-2.624 0,-1.28 -1.472,-3.584 -8.064,-3.584 z"
           style="font-style:normal;font-variant:normal;font-weight:normal;font-stretch:normal;font-size:64px;font-family:'Yanone Kaffeesatz';-inkscape-font-specification:'Yanone Kaffeesatz';letter-spacing:0.14px;fill:#a00000;fill-opacity:1"
           id="path968"
           inkscape:connector-curvature="0" />
      </g>
      <g
         aria-label="o"
         style="font-style:normal;font-weight:normal;font-size:40px;line-height:125%;font-family:Sans;letter-spacing:0px;word-spacing:0px;display:inline;fill:#a00000;fill-opacity:1;stroke:none"
         id="text3760-7"
         transform="translate(0.01697214,-0.92370656)">
        <path
           d="m 369.98964,83.364464 c 0,14.4 3.456,16.639996 10.048,16.639996 6.848,0 10.496,-4.927996 10.496,-16.831996 0,-12.992 -3.2,-16.448 -9.92,-16.448 -6.72,0 -10.624,4.928 -10.624,16.64 z m 5.632,0.128 c 0,-9.984 1.984,-12.224 4.8,-12.224 3.008,0 4.48,1.792 4.48,11.968 0,9.984 -1.984,12.352 -4.736,12.352 -2.944,0 -4.544,-1.536 -4.544,-12.096 z"
           style="font-style:normal;font-variant:normal;font-weight:normal;font-stretch:normal;font-size:64px;font-family:'Yanone Kaffeesatz';-inkscape-font-specification:'Yanone Kaffeesatz';fill:#a00000;fill-opacity:1"
           id="path971"
           inkscape:connector-curvature="0" />
      </g>
      <g
         aria-label="com"
         style="font-style:normal;font-weight:normal;font-size:40px;line-height:125%;font-family:Sans;letter-spacing:0px;word-spacing:0px;display:inline;fill:#a00000;fill-opacity:1;stroke:none"
         id="text883-3"
         transform="translate(0.01697214,-0.92370656)">
        <path
           d="m 317.18334,111.77833 c 0,-1.664 -2.368,-2.88 -5.312,-2.88 -5.312,0 -11.52,1.984 -11.52,17.344 0,13.504 3.456,15.936 9.536,15.936 4.224,0 7.168,-1.536 7.168,-3.264 0,-0.832 -0.192,-1.664 -0.512,-2.816 -1.088,0.704 -3.008,1.472 -5.056,1.472 -3.904,0 -5.696,-2.304 -5.696,-11.328 0,-11.392 3.328,-12.736 6.336,-12.736 1.728,0 3.456,0.576 4.48,1.152 0.448,-1.088 0.576,-2.176 0.576,-2.88 z"
           style="font-style:normal;font-variant:normal;font-weight:normal;font-stretch:normal;font-size:64px;font-family:'Yanone Kaffeesatz';-inkscape-font-specification:'Yanone Kaffeesatz';fill:#a00000;fill-opacity:1"
           id="path974"
           inkscape:connector-curvature="0" />
        <path
           d="m 319.15334,125.53833 c 0,14.4 3.456,16.64 10.048,16.64 6.848,0 10.496,-4.928 10.496,-16.832 0,-12.992 -3.2,-16.448 -9.92,-16.448 -6.72,0 -10.624,4.928 -10.624,16.64 z m 5.632,0.128 c 0,-9.984 1.984,-12.224 4.8,-12.224 3.008,0 4.48,1.792 4.48,11.968 0,9.984 -1.984,12.352 -4.736,12.352 -2.944,0 -4.544,-1.536 -4.544,-12.096 z"
           style="font-style:normal;font-variant:normal;font-weight:normal;font-stretch:normal;font-size:64px;font-family:'Yanone Kaffeesatz';-inkscape-font-specification:'Yanone Kaffeesatz';fill:#a00000;fill-opacity:1"
           id="path976"
           inkscape:connector-curvature="0" />
        <path
           d="m 356.73334,141.53833 c 5.248,0 5.184,0 5.184,-1.024 v -25.792 c 1.408,-0.896 2.816,-1.216 4.288,-1.216 2.56,0 3.136,1.28 3.136,4.352 v 23.68 c 4.992,0 5.184,0 5.184,-1.024 v -22.592 c 0,-5.76 -0.768,-9.024 -7.168,-9.024 -2.624,0 -5.696,0.768 -7.872,1.984 -1.216,-1.28 -3.008,-1.984 -5.76,-1.984 -3.52,0 -6.848,0.832 -9.664,2.112 v 30.528 c 4.992,0 5.184,0 5.184,-1.024 v -25.984 c 1.472,-0.768 2.944,-1.088 4.352,-1.088 2.56,0 3.072,0.896 3.136,3.2 z"
           style="font-style:normal;font-variant:normal;font-weight:normal;font-stretch:normal;font-size:64px;font-family:'Yanone Kaffeesatz';-inkscape-font-specification:'Yanone Kaffeesatz';fill:#a00000;fill-opacity:1"
           id="path978"
           inkscape:connector-curvature="0" />
      </g>
    </g>
  </g>
</svg>
