<?xml version="1.0" encoding="UTF-8" standalone="no"?>
<!-- Created with Inkscape (http://www.inkscape.org/) -->

<svg
   width="1280"
   height="720"
   viewBox="0 0 338.66663 190.5"
   version="1.1"
   id="svg4805"
   inkscape:version="1.1.2 (0a00cf5339, 2022-02-04)"
   sodipodi:docname="background.svg"
   inkscape:export-filename="/home/user/code/artwork/misc/osmodevcon_2024/osmodevcon_2024_tshirt-front.png"
   inkscape:export-xdpi="250"
   inkscape:export-ydpi="250"
   xmlns:inkscape="http://www.inkscape.org/namespaces/inkscape"
   xmlns:sodipodi="http://sodipodi.sourceforge.net/DTD/sodipodi-0.dtd"
   xmlns:xlink="http://www.w3.org/1999/xlink"
   xmlns="http://www.w3.org/2000/svg"
   xmlns:svg="http://www.w3.org/2000/svg"
   xmlns:rdf="http://www.w3.org/1999/02/22-rdf-syntax-ns#"
   xmlns:cc="http://creativecommons.org/ns#"
   xmlns:dc="http://purl.org/dc/elements/1.1/">
  <defs
     id="defs4799">
    <linearGradient
       id="linearGradient3362-8-6-0-9">
      <stop
         id="stop94723"
         style="stop-color:#d3e0f1;stop-opacity:0.98431373"
         offset="0" />
      <stop
         id="stop94725"
         style="stop-color:#fbfbfb;stop-opacity:0.98823529"
         offset="1" />
    </linearGradient>
    <rect
       x="-129.76614"
       y="1086.5682"
       width="1375.7476"
       height="448.74356"
       id="rect84454" />
    <rect
       x="-52.374092"
       y="1126.9045"
       width="1304.3258"
       height="423.88428"
       id="rect80624" />
    <linearGradient
       id="linearGradient3362-8-6-0-9-1">
      <stop
         id="stop33295"
         style="stop-color:#3465a4;stop-opacity:0"
         offset="0" />
      <stop
         id="stop33293"
         style="stop-color:#3465a4;stop-opacity:1"
         offset="1" />
    </linearGradient>
    <linearGradient
       id="linearGradient31649"
       inkscape:swatch="solid">
      <stop
         style="stop-color:#3465a4;stop-opacity:1;"
         offset="0"
         id="stop31647" />
    </linearGradient>
    <marker
       style="overflow:visible"
       id="Arrow1Lend"
       refX="0"
       refY="0"
       orient="auto"
       inkscape:stockid="Arrow1Lend"
       inkscape:isstock="true">
      <path
         transform="matrix(-0.8,0,0,-0.8,-10,0)"
         style="fill:context-stroke;fill-rule:evenodd;stroke:context-stroke;stroke-width:1pt"
         d="M 0,0 5,-5 -12.5,0 5,5 Z"
         id="path29221" />
    </marker>
    <rect
       x="455.75809"
       y="507.79871"
       width="516.50464"
       height="446.24979"
       id="rect3938" />
    <linearGradient
       id="linearGradient3374-5-7-7-0">
      <stop
         id="stop3376-8-6-4-2"
         style="stop-color:#729fcf;stop-opacity:1"
         offset="0" />
      <stop
         id="stop3378-6-7-4-9"
         style="stop-color:#729fcf;stop-opacity:0"
         offset="1" />
    </linearGradient>
    <linearGradient
       id="linearGradient3362-8-6-0-9-2">
      <stop
         id="stop3364-4-5-78-9"
         style="stop-color:#3465a4;stop-opacity:1"
         offset="0" />
      <stop
         id="stop3366-7-6-6-4"
         style="stop-color:#3465a4;stop-opacity:0"
         offset="1" />
    </linearGradient>
    <linearGradient
       x1="24.837126"
       y1="44.528019"
       x2="21.036427"
       y2="21.041553"
       id="linearGradient3991-3-88-5"
       xlink:href="#linearGradient7101-4-9-4-1"
       gradientUnits="userSpaceOnUse" />
    <linearGradient
       id="linearGradient7101-4-9-4-1">
      <stop
         id="stop7103-0-4-31-0"
         style="stop-color:#babdb6;stop-opacity:1"
         offset="0" />
      <stop
         id="stop7105-6-8-4-3"
         style="stop-color:#ffffff;stop-opacity:1"
         offset="1" />
    </linearGradient>
    <linearGradient
       x1="39.06765"
       y1="28.5"
       x2="39.421204"
       y2="10.934953"
       id="linearGradient3993-1-9-7"
       xlink:href="#linearGradient6979-9-2-2-8"
       gradientUnits="userSpaceOnUse" />
    <linearGradient
       id="linearGradient6979-9-2-2-8">
      <stop
         id="stop6981-9-9-0-8"
         style="stop-color:#888a85;stop-opacity:1"
         offset="0" />
      <stop
         id="stop6983-0-3-6-6"
         style="stop-color:#555753;stop-opacity:1"
         offset="1" />
    </linearGradient>
    <radialGradient
       cx="10.28125"
       cy="7.8249326"
       r="4.5250292"
       fx="10.28125"
       fy="7.8249326"
       id="radialGradient3995-7-4-0"
       xlink:href="#linearGradient3374-5-7-7-0"
       gradientUnits="userSpaceOnUse"
       gradientTransform="matrix(2.2651111,0,0,2.2923498,16.215361,52.593597)" />
    <radialGradient
       cx="10.28125"
       cy="9.8424416"
       r="4.5250292"
       fx="10.28125"
       fy="9.8424416"
       id="radialGradient3997-3-3-4"
       xlink:href="#linearGradient3362-8-6-0-9-2"
       gradientUnits="userSpaceOnUse"
       gradientTransform="matrix(15.1803,0,0,5.0647752,-116.56897,28.614297)" />
    <radialGradient
       cx="8.9057236"
       cy="1.7286602"
       r="1.9952321"
       fx="8.9057236"
       fy="1.7286602"
       id="radialGradient3999-1-4-6"
       xlink:href="#linearGradient7131-6-1-5-7"
       gradientUnits="userSpaceOnUse"
       gradientTransform="matrix(0.7375073,0,0,0.7201806,2.4345312,0.6617371)" />
    <linearGradient
       id="linearGradient7131-6-1-5-7">
      <stop
         id="stop7133-4-5-2-6"
         style="stop-color:#ffffff;stop-opacity:1"
         offset="0" />
      <stop
         id="stop7135-6-9-5-0"
         style="stop-color:#d3d7cf;stop-opacity:1"
         offset="1" />
    </linearGradient>
    <radialGradient
       cx="8.3046875"
       cy="1.1256332"
       r="2.0507698"
       fx="8.3046875"
       fy="1.1256332"
       id="radialGradient4001-9-6-9"
       xlink:href="#linearGradient7153-0-1-9-75"
       gradientUnits="userSpaceOnUse"
       gradientTransform="matrix(5.2943491,0,0,5.2881329,-7.02204,58.291497)" />
    <linearGradient
       id="linearGradient7153-0-1-9-75">
      <stop
         id="stop7155-8-7-3-9"
         style="stop-color:#ffffff;stop-opacity:1"
         offset="0" />
      <stop
         id="stop7157-5-7-7-7"
         style="stop-color:#ffffff;stop-opacity:0"
         offset="1" />
    </linearGradient>
    <linearGradient
       x1="24.837126"
       y1="44.528019"
       x2="21.036427"
       y2="21.041553"
       id="linearGradient3991-3-88-5-2"
       xlink:href="#linearGradient7101-4-9-4-1"
       gradientUnits="userSpaceOnUse" />
    <linearGradient
       x1="39.06765"
       y1="28.5"
       x2="39.421204"
       y2="10.934953"
       id="linearGradient3993-1-9-7-8"
       xlink:href="#linearGradient6979-9-2-2-8"
       gradientUnits="userSpaceOnUse" />
    <radialGradient
       cx="10.28125"
       cy="7.8249326"
       r="4.5250292"
       fx="10.28125"
       fy="7.8249326"
       id="radialGradient3995-7-4-0-2"
       xlink:href="#linearGradient3374-5-7-7-0"
       gradientUnits="userSpaceOnUse"
       gradientTransform="matrix(2.2651111,0,0,2.2923498,16.215361,52.593597)" />
    <radialGradient
       cx="10.28125"
       cy="9.8424416"
       r="4.5250292"
       fx="10.28125"
       fy="9.8424416"
       id="radialGradient3997-3-3-4-0"
       xlink:href="#linearGradient3362-8-6-0-9-2"
       gradientUnits="userSpaceOnUse"
       gradientTransform="matrix(15.1803,0,0,5.0647752,-116.56897,28.614297)" />
    <radialGradient
       cx="8.9057236"
       cy="1.7286602"
       r="1.9952321"
       fx="8.9057236"
       fy="1.7286602"
       id="radialGradient3999-1-4-6-2"
       xlink:href="#linearGradient7131-6-1-5-7"
       gradientUnits="userSpaceOnUse"
       gradientTransform="matrix(0.7375073,0,0,0.7201806,2.4345312,0.6617371)" />
    <radialGradient
       cx="8.3046875"
       cy="1.1256332"
       r="2.0507698"
       fx="8.3046875"
       fy="1.1256332"
       id="radialGradient4001-9-6-9-5"
       xlink:href="#linearGradient7153-0-1-9-75"
       gradientUnits="userSpaceOnUse"
       gradientTransform="matrix(5.2943491,0,0,5.2881329,-7.02204,58.291497)" />
    <linearGradient
       x1="39.06765"
       y1="28.5"
       x2="39.421204"
       y2="10.934953"
       id="linearGradient3993-1-9-7-8-3"
       xlink:href="#linearGradient6979-9-2-2-8"
       gradientUnits="userSpaceOnUse" />
    <radialGradient
       cx="10.28125"
       cy="9.8424416"
       r="4.5250292"
       fx="10.28125"
       fy="9.8424416"
       id="radialGradient3997-3-3-4-0-5"
       xlink:href="#linearGradient3362-8-6-0-9-2"
       gradientUnits="userSpaceOnUse"
       gradientTransform="matrix(22.466729,0,0,7.4958288,-158.82687,57.795924)" />
    <radialGradient
       cx="8.3046875"
       cy="1.1256332"
       r="2.0507698"
       fx="8.3046875"
       fy="1.1256332"
       id="radialGradient4001-9-6-9-5-2"
       xlink:href="#linearGradient7153-0-1-9-75"
       gradientUnits="userSpaceOnUse"
       gradientTransform="matrix(7.8355964,0,0,7.8263965,3.3017502,101.71795)" />
    <linearGradient
       x1="24.837126"
       y1="44.528019"
       x2="21.036427"
       y2="21.041553"
       id="linearGradient3991-3-88-5-8"
       xlink:href="#linearGradient7101-4-9-4-1"
       gradientUnits="userSpaceOnUse" />
    <linearGradient
       x1="39.06765"
       y1="28.5"
       x2="39.421204"
       y2="10.934953"
       id="linearGradient3993-1-9-7-84"
       xlink:href="#linearGradient6979-9-2-2-8"
       gradientUnits="userSpaceOnUse" />
    <radialGradient
       cx="10.28125"
       cy="7.8249326"
       r="4.5250292"
       fx="10.28125"
       fy="7.8249326"
       id="radialGradient3995-7-4-0-4"
       xlink:href="#linearGradient3374-5-7-7-0"
       gradientUnits="userSpaceOnUse"
       gradientTransform="matrix(8.4411818,0,0,8.5426898,31.920725,73.876869)" />
    <radialGradient
       cx="10.28125"
       cy="9.8424416"
       r="4.5250292"
       fx="10.28125"
       fy="9.8424416"
       id="radialGradient3997-3-3-4-9"
       xlink:href="#linearGradient3362-8-6-0-9-2"
       gradientUnits="userSpaceOnUse"
       gradientTransform="matrix(56.571033,0,0,18.874433,-462.91447,-15.484592)" />
    <radialGradient
       cx="8.9057236"
       cy="1.7286602"
       r="1.9952321"
       fx="8.9057236"
       fy="1.7286602"
       id="radialGradient3999-1-4-6-20"
       xlink:href="#linearGradient7131-6-1-5-7"
       gradientUnits="userSpaceOnUse"
       gradientTransform="matrix(0.7375073,0,0,0.7201806,2.4345312,0.6617371)" />
    <radialGradient
       cx="8.3046875"
       cy="1.1256332"
       r="2.0507698"
       fx="8.3046875"
       fy="1.1256332"
       id="radialGradient4001-9-6-9-9"
       xlink:href="#linearGradient7153-0-1-9-75"
       gradientUnits="userSpaceOnUse"
       gradientTransform="matrix(19.729965,0,0,19.7068,-54.675974,95.110713)" />
    <linearGradient
       x1="24.837126"
       y1="44.528019"
       x2="21.036427"
       y2="21.041553"
       id="linearGradient3991-3-88-5-1"
       xlink:href="#linearGradient7101-4-9-4-1"
       gradientUnits="userSpaceOnUse" />
    <linearGradient
       x1="39.06765"
       y1="28.5"
       x2="39.421204"
       y2="10.934953"
       id="linearGradient3993-1-9-7-4"
       xlink:href="#linearGradient6979-9-2-2-8"
       gradientUnits="userSpaceOnUse" />
    <radialGradient
       cx="10.28125"
       cy="7.8249326"
       r="4.5250292"
       fx="10.28125"
       fy="7.8249326"
       id="radialGradient3995-7-4-0-9"
       xlink:href="#linearGradient3374-5-7-7-0"
       gradientUnits="userSpaceOnUse"
       gradientTransform="matrix(2.2651111,0,0,2.2923498,16.215361,52.593597)" />
    <radialGradient
       cx="10.28125"
       cy="9.8424416"
       r="4.5250292"
       fx="10.28125"
       fy="9.8424416"
       id="radialGradient3997-3-3-4-1"
       xlink:href="#linearGradient3362-8-6-0-9-2"
       gradientUnits="userSpaceOnUse"
       gradientTransform="matrix(15.1803,0,0,5.0647752,-116.56897,28.614297)" />
    <radialGradient
       cx="8.9057236"
       cy="1.7286602"
       r="1.9952321"
       fx="8.9057236"
       fy="1.7286602"
       id="radialGradient3999-1-4-6-7"
       xlink:href="#linearGradient7131-6-1-5-7"
       gradientUnits="userSpaceOnUse"
       gradientTransform="matrix(0.7375073,0,0,0.7201806,2.4345312,0.6617371)" />
    <radialGradient
       cx="8.3046875"
       cy="1.1256332"
       r="2.0507698"
       fx="8.3046875"
       fy="1.1256332"
       id="radialGradient4001-9-6-9-1"
       xlink:href="#linearGradient7153-0-1-9-75"
       gradientUnits="userSpaceOnUse"
       gradientTransform="matrix(5.2943491,0,0,5.2881329,-7.02204,58.291497)" />
    <linearGradient
       x1="24.837126"
       y1="44.528019"
       x2="21.036427"
       y2="21.041553"
       id="linearGradient3991-3-88-5-6"
       xlink:href="#linearGradient7101-4-9-4-1"
       gradientUnits="userSpaceOnUse"
       gradientTransform="matrix(3.7572754,0,0,8.6971897,-7.4691828,-10.064286)" />
    <linearGradient
       x1="39.06765"
       y1="28.5"
       x2="39.421204"
       y2="10.934953"
       id="linearGradient3993-1-9-7-5"
       xlink:href="#linearGradient6979-9-2-2-8"
       gradientUnits="userSpaceOnUse"
       gradientTransform="matrix(3.7572754,0,0,8.6971897,-7.4691828,-10.064286)" />
    <radialGradient
       cx="10.28125"
       cy="7.8249326"
       r="4.5250292"
       fx="10.28125"
       fy="7.8249326"
       id="radialGradient3995-7-4-0-1"
       xlink:href="#linearGradient3374-5-7-7-0"
       gradientUnits="userSpaceOnUse"
       gradientTransform="matrix(4.065307,0,0,4.1141937,40.872771,87.613354)" />
    <radialGradient
       cx="10.28125"
       cy="9.8424416"
       r="4.5250292"
       fx="10.28125"
       fy="9.8424416"
       id="radialGradient3997-3-3-4-5"
       xlink:href="#linearGradient3362-8-6-0-9-2"
       gradientUnits="userSpaceOnUse"
       gradientTransform="matrix(27.244836,0,0,9.0900028,-197.44184,44.576517)" />
    <radialGradient
       cx="8.9057236"
       cy="1.7286602"
       r="1.9952321"
       fx="8.9057236"
       fy="1.7286602"
       id="radialGradient3999-1-4-6-9"
       xlink:href="#linearGradient7131-6-1-5-7"
       gradientUnits="userSpaceOnUse"
       gradientTransform="matrix(0.7375073,0,0,0.7201806,2.4345312,0.6617371)" />
    <radialGradient
       cx="8.3046875"
       cy="1.1256332"
       r="2.0507698"
       fx="8.3046875"
       fy="1.1256332"
       id="radialGradient4001-9-6-9-8"
       xlink:href="#linearGradient7153-0-1-9-75"
       gradientUnits="userSpaceOnUse"
       gradientTransform="matrix(9.5020304,0,0,9.4908739,-0.83254278,97.839657)" />
    <radialGradient
       cx="10.28125"
       cy="9.8424416"
       r="4.5250292"
       fx="10.28125"
       fy="9.8424416"
       id="radialGradient3997-3-3-4-5-5"
       xlink:href="#linearGradient3362-8-6-0-9-2"
       gradientUnits="userSpaceOnUse"
       gradientTransform="matrix(27.244836,0,0,9.0900028,-197.44184,44.576517)" />
    <radialGradient
       inkscape:collect="always"
       xlink:href="#linearGradient3362-8-6-0-9-1"
       id="radialGradient33181"
       cx="79.450142"
       cy="110.04807"
       fx="79.450142"
       fy="110.04807"
       r="44.002075"
       gradientTransform="matrix(2.1884678,0.66932819,-0.68146358,2.2281462,54.293803,-212.15452)"
       gradientUnits="userSpaceOnUse"
       spreadMethod="pad" />
    <radialGradient
       cx="8.9057236"
       cy="1.7286602"
       r="1.9952321"
       fx="8.9057236"
       fy="1.7286602"
       id="radialGradient3999-1-4-6-9-1"
       xlink:href="#linearGradient7131-6-1-5-7"
       gradientUnits="userSpaceOnUse"
       gradientTransform="matrix(0.7375073,0,0,0.7201806,2.4345312,0.6617371)" />
    <radialGradient
       cx="8.3046875"
       cy="1.1256332"
       r="2.0507698"
       fx="8.3046875"
       fy="1.1256332"
       id="radialGradient4001-9-6-9-8-5"
       xlink:href="#linearGradient7153-0-1-9-75"
       gradientUnits="userSpaceOnUse"
       gradientTransform="matrix(9.5020304,0,0,9.4908739,-15.088049,62.197636)" />
    <radialGradient
       cx="8.3046875"
       cy="1.1256332"
       r="2.0507698"
       fx="8.3046875"
       fy="1.1256332"
       id="radialGradient4001-9-6-9-8-5-1"
       xlink:href="#linearGradient7153-0-1-9-75"
       gradientUnits="userSpaceOnUse"
       gradientTransform="matrix(9.5020304,0,0,9.4908739,-1.0765383,96.318728)" />
    <radialGradient
       cx="8.9057236"
       cy="1.7286602"
       r="1.9952321"
       fx="8.9057236"
       fy="1.7286602"
       id="radialGradient3999-1-4-6-9-1-9"
       xlink:href="#linearGradient7131-6-1-5-7"
       gradientUnits="userSpaceOnUse"
       gradientTransform="matrix(10.554626,3.2280614,-3.2225675,10.536662,65.079396,35.470449)" />
    <radialGradient
       inkscape:collect="always"
       xlink:href="#linearGradient3362-8-6-0-9-1"
       id="radialGradient33181-3"
       cx="79.450142"
       cy="110.04807"
       fx="79.450142"
       fy="110.04807"
       r="44.002075"
       gradientTransform="matrix(2.8760616,0.87962415,-0.89557236,2.9282067,24.188424,-308.11234)"
       gradientUnits="userSpaceOnUse"
       spreadMethod="pad" />
    <radialGradient
       inkscape:collect="always"
       xlink:href="#linearGradient3362-8-6-0-9-1"
       id="radialGradient33181-3-6"
       cx="79.450142"
       cy="110.04807"
       fx="79.450142"
       fy="110.04807"
       r="44.002075"
       gradientTransform="matrix(4.5697105,1.3976152,-1.422955,4.6525627,-55.72217,-534.81997)"
       gradientUnits="userSpaceOnUse"
       spreadMethod="pad" />
    <radialGradient
       inkscape:collect="always"
       xlink:href="#linearGradient3362-8-6-0-9-1"
       id="radialGradient33181-3-6-6"
       cx="79.450142"
       cy="110.04807"
       fx="79.450142"
       fy="110.04807"
       r="44.002075"
       gradientTransform="matrix(4.6438422,1.420288,-1.5283189,4.9970653,-50.731923,-572.93461)"
       gradientUnits="userSpaceOnUse"
       spreadMethod="pad" />
  </defs>
  <sodipodi:namedview
     id="base"
     pagecolor="#ffffff"
     bordercolor="#666666"
     borderopacity="1.0"
     inkscape:pageopacity="0.0"
     inkscape:pageshadow="2"
     inkscape:zoom="0.38113963"
     inkscape:cx="223.01538"
     inkscape:cy="178.41231"
     inkscape:document-units="mm"
     inkscape:current-layer="layer20"
     showgrid="false"
     fit-margin-top="2"
     fit-margin-left="2"
     fit-margin-right="2"
     fit-margin-bottom="2"
     inkscape:window-width="1916"
     inkscape:window-height="1033"
     inkscape:window-x="0"
     inkscape:window-y="22"
     inkscape:window-maximized="0"
     inkscape:pagecheckerboard="0"
     width="80.43053mm"
     units="px"
     inkscape:snap-global="false" />
  <metadata
     id="metadata4802">
    <rdf:RDF>
      <cc:Work
         rdf:about="">
        <dc:format>image/svg+xml</dc:format>
        <dc:type
           rdf:resource="http://purl.org/dc/dcmitype/StillImage" />
      </cc:Work>
    </rdf:RDF>
  </metadata>
  <g
     inkscape:groupmode="layer"
     id="layer21"
     inkscape:label="full tower"
     style="display:inline">
    <g
       inkscape:groupmode="layer"
       id="layer20"
       inkscape:label="legs"
       style="display:inline" />
    <g
       inkscape:groupmode="layer"
       id="layer23"
       inkscape:label="waves 3"
       style="display:inline"
       sodipodi:insensitive="true">
      <path
         style="display:inline;opacity:0.272197;mix-blend-mode:normal;fill:none;stroke:url(#radialGradient33181-3-6-6);stroke-width:3.63738;stroke-linecap:butt;stroke-linejoin:miter;stroke-miterlimit:4;stroke-dasharray:14.5497, 7.2748, 3.63738, 7.2748;stroke-dashoffset:0;stroke-opacity:1"
         d="M 274.02397,204.75488 C 431.39062,57.566341 197.3519,-216.03097 33.545624,-89.490995 -159.6875,51.538173 21.515841,380.59948 233.76891,290.01345 446.53848,210.80047 372.92156,-136.29712 157.25953,-123.93863 -41.906521,-151.37616 -145.11082,157.1347 22.736052,261.00374 177.68527,378.41792 398.08034,163.58312 303.32285,-9.8045759 202.49418,-207.80793 -96.029452,-24.282413 -34.70599,174.5359 24.172679,398.41171 362.69666,304.79749 358.62343,84.250415 372.96895,-143.47923 33.641078,-184.91548 -36.902173,22.305904 -158.83395,218.21032 184.54458,376.11723 252.84135,159.83575 364.72861,-21.13071 35.461112,-173.32712 -18.349285,38.911685 -103.88206,248.54293 274.44793,358.05537 289.19447,119.0688 307.38842,-99.519196 -58.643129,-88.058891 -29.418222,132.42433 2.9376384,353.24875 358.05238,250.89682 260.85604,41.403235 157.58381,-134.07825 -85.82291,65.461387 55.030859,212.20156 213.33064,387.90006 446.90414,77.442849 248.73514,-42.228857 52.283144,-157.68902 -63.38983,227.6581 170.09882,210.87984 380.67619,118.97383 86.731047,-124.62762 46.414141,84.945822 81.744494,277.41284 242.06602,106.69323 195.93416,41.89099 285.49937,76.519148 108.8237,216.09927 140.64529,93.167247"
         id="path18048-3-8-9" />
    </g>
    <g
       inkscape:groupmode="layer"
       id="layer16"
       inkscape:label="dot"
       style="display:inline" />
    <g
       inkscape:groupmode="layer"
       id="layer17"
       inkscape:label="waves 2"
       style="display:inline;opacity:1"
       sodipodi:insensitive="true">
      <path
         style="display:inline;mix-blend-mode:normal;fill:none;stroke:url(#radialGradient33181-3);stroke-width:5.14296;stroke-linecap:butt;stroke-linejoin:miter;stroke-miterlimit:4;stroke-dasharray:20.5718, 10.2859, 5.14296, 10.2859;stroke-dashoffset:0;stroke-opacity:1"
         d="M 231.64487,152.84882 C 287.3378,86.669925 252.22682,-42.12023 159.83227,-50.127101 69.923781,-49.046092 19.900412,61.822443 50.82442,138.90234 c 20.253763,62.82902 97.62485,101.70133 157.68774,68.1817 90.44128,-46.45408 90.53585,-194.680662 0.18005,-241.169741 C 142.63726,-74.703419 52.395035,-27.921248 35.701695,44.870987 11.994692,112.08397 53.365126,201.49712 129.60253,206.14673 207.95491,213.52641 280.80619,133.82926 258.36096,56.311988 238.63929,-19.678612 129.40967,-56.826461 73.979786,4.4158086 17.385726,59.114432 30.665487,171.16882 109.1862,198.32607 187.50398,231.47389 297.72149,166.3637 282.01239,75.883851 266.33423,-28.289051 111.15749,-71.751324 47.175125,14.592199 -9.6381766,82.542446 54.408055,202.89981 143.15181,189.4863 233.44606,176.50297 266.05082,33.357975 182.49627,-10.528311 115.12835,-39.952753 44.337629,30.742193 48.00376,97.733975 43.90843,163.49756 117.94813,213.6062 177.17437,182.86289 236.99765,161.80592 259.22319,77.910404 213.33484,32.790058 170.09089,-15.687957 73.968273,-13.87077 50.071307,53.428491 20.143656,128.67934 109.09109,210.93025 182.63014,179.89201 251.83941,154.8737 252.14752,50.735492 188.19071,19.343726 136.11489,-16.707727 53.140643,28.098395 62.182449,92.775472 73.422466,186.03283 219.66232,207.7885 264.47326,129.00761 295.32907,61.785615 223.04364,-5.4128897 156.52709,3.7984946 89.191741,-1.9296064 53.358518,83.930612 94.205797,133.23334 128.76856,194.10437 238.77878,161.00552 217.92974,87.640634 211.60693,14.235843 94.331657,-2.2036224 80.127868,74.982155 69.072278,144.62473 188.73238,179.56131 209.40982,108.50644 236.10348,31.53277 86.474391,46.010365 113.59652,116.42909 125.52956,150.281 68.327714,73.499962 102.78986,56.609678 c 34.40193,-46.01806 131.15636,2.291699 84.55219,55.304882 -40.02878,51.75378 -105.237656,-47.25719 -39.42896,-49.618034 46.58771,5.695428 5.12466,70.616084 -10.78357,31.849414 13.00042,-40.373278 24.11558,15.16227 11.24999,-8.247918"
         id="path18048-3" />
      <path
         style="display:inline;mix-blend-mode:normal;fill:none;stroke:url(#radialGradient33181-3-6);stroke-width:8.17154;stroke-linecap:butt;stroke-linejoin:miter;stroke-miterlimit:4;stroke-dasharray:32.686, 16.3429, 8.17154, 16.3429;stroke-dashoffset:0;stroke-opacity:1"
         d="M 273.90075,197.59087 C 362.39006,92.44074 306.60296,-112.19104 159.79939,-124.91316 16.94579,-123.19557 -94.609702,41.397517 -45.475228,163.86801 -13.294524,263.69563 144.55473,330.66084 239.98734,277.40223 383.68747,203.59239 380.99616,-25.559881 237.43185,-99.425336 132.47852,-163.96177 -10.905276,-89.630652 -37.428963,26.027316 -75.096492,132.82053 -9.3639526,274.88711 111.76796,282.27474 236.26031,294.00017 352.01211,167.37113 316.34938,44.20569 285.0141,-76.534281 111.46162,-135.55765 23.390257,-38.251047 -66.530788,48.658393 -45.430879,226.69913 79.328927,269.84868 203.76629,322.51651 378.88845,219.06439 353.92861,75.302912 329.01795,-90.215085 82.461104,-159.27133 -19.19908,-22.081977 -109.46847,85.882675 -7.7068656,277.11581 133.29612,255.8034 276.76263,235.17444 328.56762,7.7345221 195.80971,-61.995527 88.770336,-108.74736 -23.707522,3.5784218 -17.882496,110.02014 -24.389465,214.51044 93.250536,294.12695 187.35382,245.27959 282.4057,211.82263 317.71939,78.522908 244.80838,6.8321831 176.0991,-70.193569 23.371954,-67.306156 -14.597402,39.624166 -62.148772,159.18854 79.177792,289.87519 196.02239,240.55923 305.98746,200.80817 306.47701,35.345312 204.85741,-14.532386 122.11529,-71.813847 -9.7206036,-0.62227756 4.6457144,102.1417 22.504685,250.31624 254.86198,284.88332 326.06112,159.71012 375.08719,52.902591 260.23451,-53.867791 154.54782,-39.231855 47.560206,-48.333141 -9.3744056,88.088296 55.526843,166.4243 110.44291,263.14093 285.23568,210.55091 252.10914,93.983055 242.06295,-22.648193 55.726879,-48.768473 33.158808,73.870257 15.592817,184.52383 205.71809,240.03381 238.57202,127.13632 280.98497,4.8344983 43.242644,27.837652 86.336376,139.7244 105.29653,193.51095 14.409791,71.51526 69.165896,44.678641 123.82636,-28.43846 277.55734,48.319882 203.50901,132.55136 139.90818,214.78182 36.299256,57.465476 140.86121,53.714342 214.88342,62.763711 149.0037,165.91471 123.72746,104.31921 144.38353,40.171 162.04415,128.41017 141.6023,91.214229"
         id="path18048-3-8"
         sodipodi:nodetypes="ccccccccccccccccccccccccccccccccc" />
    </g>
    <g
       inkscape:groupmode="layer"
       id="layer9"
       inkscape:label="waves"
       style="display:inline"
       sodipodi:insensitive="true">
      <path
         style="mix-blend-mode:normal;fill:none;stroke:url(#radialGradient33181);stroke-width:3.9134;stroke-linecap:butt;stroke-linejoin:miter;stroke-miterlimit:4;stroke-dasharray:15.6536, 7.82677, 3.9134, 7.82677;stroke-dashoffset:0;stroke-opacity:1"
         d="M 148.79395,87.657903 C 109.13296,85.38192 196.46301,158.99274 188.74318,82.918624 185.40626,34.09852 78.754834,75.758223 164.43877,65.836515 257.37559,167.95271 16.544246,131.98923 129.05698,49.446329 236.18916,7.263845 210.00783,207.63109 111.99692,127.16064 23.816403,3.6018109 281.30589,-19.255098 229.1456,119.04257 165.00312,259.81265 -0.96743038,35.084038 157.06638,35.024907 317.65028,69.802637 99.115839,258.98178 70.242526,97.465523 61.206277,-34.203628 292.89523,37.644071 193.79055,144.78249 83.867493,244.05854 7.398266,-4.3234821 162.23783,15.995996 280.77982,54.905122 163.3594,239.33656 75.88483,133.26537 -25.227379,4.615101 242.28784,-67.227352 250.75792,87.530091 252.30947,244.64955 -5.5059516,173.26992 79.023259,41.004971 173.80811,-86.928022 319.93364,130.39805 171.17439,173.48284 15.670331,221.32869 33.193858,-49.973691 177.15736,-12.672266 333.92233,16.103704 197.57924,276.90159 88.496899,157.57378 -30.329726,57.040334 226.46901,-103.74421 226.75419,69.260818 c 29.36826,80.606412 24.1171,-93.319769 -35.174,-86.895606 C 69.002512,-89.65098 -81.691253,92.042902 31.599619,189.72764 104.32581,269.54035 267.79917,268.58481 296.75637,148.97437 331.76027,45.585282 251.57917,-84.107944 135.5407,-71.629133 -17.149625,-64.039223 -41.64324,122.57762 66.541682,206.11246 143.6701,344.04321 308.42007,248.04676 310.48507,116.61924 346.03037,-11.399186 201.66899,-174.21509 77.786226,-75.049364 -4.2920106,-20.443102 -52.259572,97.129419 9.5155206,184.53527 37.614342,233.07836 79.932825,273.75984 130.32183,298.61693"
         id="path18048" />
    </g>
  </g>
  <g
     inkscape:groupmode="layer"
     id="layer24"
     inkscape:label="text on circle">
    <text
       xml:space="preserve"
       transform="scale(0.26458333)"
       id="text80622"
       style="font-style:normal;font-variant:normal;font-weight:normal;font-stretch:normal;font-size:40px;line-height:1.25;font-family:'Yanone Kaffeesatz';-inkscape-font-specification:'Yanone Kaffeesatz';white-space:pre;shape-inside:url(#rect80624);fill:#000000;fill-opacity:1;stroke:none" />
  </g>
  <g
     inkscape:groupmode="layer"
     id="layer25"
     inkscape:label="circle for text"
     style="display:none">
    <circle
       style="opacity:1;fill:none;fill-opacity:1;stroke:#000000;stroke-width:1.68637;stroke-miterlimit:4;stroke-dasharray:none;stroke-dashoffset:0;stroke-opacity:1"
       id="path78758"
       cx="126.4576"
       cy="169.93681"
       r="94.547256" />
  </g>
  <g
     inkscape:groupmode="layer"
     id="layer22"
     inkscape:label="text bg"
     style="display:inline" />
  <g
     inkscape:groupmode="layer"
     id="layer43"
     inkscape:label="text"
     style="display:inline"
     transform="translate(-3,-2.9999954)" />
  <g
     inkscape:groupmode="layer"
     id="layer1"
     inkscape:label="opacity"
     sodipodi:insensitive="true">
    <rect
       style="opacity:0.623934;fill:#ffffff;fill-opacity:1;stroke:none;stroke-width:1;stroke-opacity:0.984314"
       id="rect1326"
       width="433.3757"
       height="243.19165"
       x="-43.03809"
       y="-32.065968" />
  </g>
</svg>
