<?xml version="1.0" encoding="UTF-8" standalone="no"?>
<!-- Created with Inkscape (http://www.inkscape.org/) -->

<svg
   xmlns:dc="http://purl.org/dc/elements/1.1/"
   xmlns:cc="http://creativecommons.org/ns#"
   xmlns:rdf="http://www.w3.org/1999/02/22-rdf-syntax-ns#"
   xmlns:svg="http://www.w3.org/2000/svg"
   xmlns="http://www.w3.org/2000/svg"
   xmlns:sodipodi="http://sodipodi.sourceforge.net/DTD/sodipodi-0.dtd"
   xmlns:inkscape="http://www.inkscape.org/namespaces/inkscape"
   width="309.9993mm"
   height="196.72136mm"
   viewBox="0 0 309.9993 196.72137"
   version="1.1"
   id="svg27558"
   inkscape:version="0.92.3 (2405546, 2018-03-11)"
   sodipodi:docname="2018_osmocon_tshirt_v3_Berlin.svg">
  <defs
     id="defs27552" />
  <sodipodi:namedview
     id="base"
     pagecolor="#b5b5b5"
     bordercolor="#666666"
     borderopacity="1.0"
     inkscape:pageopacity="0"
     inkscape:pageshadow="2"
     inkscape:zoom="0.35355339"
     inkscape:cx="366.58817"
     inkscape:cy="418.14152"
     inkscape:document-units="mm"
     inkscape:current-layer="g1931"
     showgrid="false"
     inkscape:window-width="1853"
     inkscape:window-height="1025"
     inkscape:window-x="67"
     inkscape:window-y="1227"
     inkscape:window-maximized="1"
     inkscape:snap-text-baseline="true"
     fit-margin-top="5"
     fit-margin-left="5"
     fit-margin-right="5"
     fit-margin-bottom="5" />
  <metadata
     id="metadata27555">
    <rdf:RDF>
      <cc:Work
         rdf:about="">
        <dc:format>image/svg+xml</dc:format>
        <dc:type
           rdf:resource="http://purl.org/dc/dcmitype/StillImage" />
        <dc:title />
      </cc:Work>
    </rdf:RDF>
  </metadata>
  <g
     inkscape:label="T-shirt"
     inkscape:groupmode="layer"
     id="layer1"
     style="display:none"
     transform="translate(-1096.4025,365.47942)">
    <g
       transform="matrix(5.0419237,0,0,5.0419237,-189.80909,-779.72695)"
       inkscape:label="Layer 1"
       id="layer1-5">
      <g
         transform="translate(-28.569,-500.63)"
         style="stroke:#000000"
         id="g3219">
        <path
           d="m 67.614,570.42 c 24.468,-13.1 45.356,-11.78 66.046,-23.06 11.09,2.43 19.35,1.45 26.99,-0.27 23.43,10.79 44.03,12.52 66.04,23.59 -1.83,11.56 -5.86,21.55 -12.58,29.61 -8.15,-4.37 -15.87,-6.1 -23.32,-6.29 l -0.53,78.62 c -32.12,5.99 -59.35,3.4 -85.96,-0.26 l -0.26,-78.09 c -9.369,-0.28 -16.499,3.19 -23.847,6.29 -7.067,-9.64 -10.369,-19.81 -12.579,-30.14 z"
           style="fill:#ffffff;fill-rule:evenodd;stroke:#000000;stroke-width:2"
           sodipodi:nodetypes="ccccccccccc"
           id="path2427"
           inkscape:connector-curvature="0" />
        <path
           d="m 71.283,569.11 c 2.214,10.75 6.083,20.78 13.627,29.35"
           style="fill:none;stroke:#000000;stroke-width:1px"
           sodipodi:nodetypes="cc"
           id="path3199"
           inkscape:connector-curvature="0" />
        <path
           d="m 105.35,668.17 c 28.13,4.6 56.26,5.59 84.39,-0.26"
           style="fill:none;stroke:#000000;stroke-width:1px"
           sodipodi:nodetypes="cc"
           id="path3203"
           inkscape:connector-curvature="0" />
        <path
           d="m 133.39,547.62 c -0.23,2.32 1.7,12.73 13.89,13.36 11.94,0.62 14.28,-11.53 13.89,-13.1"
           style="fill:none;stroke:#000000;stroke-width:1px"
           sodipodi:nodetypes="czc"
           id="path3205"
           inkscape:connector-curvature="0" />
        <path
           d="m 128.21,550.42 c -0.23,2.32 4.58,15.11 18.35,15.46 14.03,0.36 19.78,-14.68 19.39,-16.25"
           style="fill:none;stroke:#000000;stroke-width:1px"
           sodipodi:nodetypes="czc"
           id="path3207"
           inkscape:connector-curvature="0" />
        <path
           d="m 134.52,552.33 c 8.54,2.24 16.08,1.76 25.32,-0.2"
           style="fill:none;stroke:#000000;stroke-width:1px"
           sodipodi:nodetypes="cc"
           id="path3209"
           inkscape:connector-curvature="0" />
        <path
           d="m 104.16,558.28 c 2.58,9.89 6.84,21.49 -0.26,35.38"
           style="fill:none;stroke:#000000;stroke-width:1px"
           sodipodi:nodetypes="cc"
           id="path3213"
           inkscape:connector-curvature="0" />
        <path
           d="m 190.38,558.48 c -2.58,9.89 -6.84,21.49 0.26,35.38"
           style="fill:none;stroke:#000000;stroke-width:1px"
           sodipodi:nodetypes="cc"
           id="path3215"
           inkscape:connector-curvature="0" />
        <path
           d="m 223.28,568.84 c -2.21,10.75 -6.08,20.79 -13.62,29.36"
           style="fill:none;stroke:#000000;stroke-width:1px"
           sodipodi:nodetypes="cc"
           id="path3217"
           inkscape:connector-curvature="0" />
      </g>
      <g
         transform="translate(137.77,-500.63)"
         style="stroke:#000000"
         id="g3272">
        <path
           d="m 67.614,570.42 c 24.468,-13.1 45.356,-11.78 66.046,-23.06 11.09,2.43 19.35,1.45 26.99,-0.27 23.43,10.79 44.03,12.52 66.04,23.59 -1.83,11.56 -5.86,21.55 -12.58,29.61 -8.15,-4.37 -15.87,-6.1 -23.32,-6.29 l -0.53,78.62 c -32.12,5.99 -59.35,3.4 -85.96,-0.26 l -0.26,-78.09 c -9.369,-0.28 -16.499,3.19 -23.847,6.29 -7.067,-9.64 -10.369,-19.81 -12.579,-30.14 z"
           style="fill:#ffffff;fill-rule:evenodd;stroke:#000000;stroke-width:2"
           sodipodi:nodetypes="ccccccccccc"
           id="path3274"
           inkscape:connector-curvature="0" />
        <path
           d="m 71.283,569.11 c 2.214,10.75 6.083,20.78 13.627,29.35"
           style="fill:none;stroke:#000000;stroke-width:1px"
           sodipodi:nodetypes="cc"
           id="path3276"
           inkscape:connector-curvature="0" />
        <path
           d="m 105.35,668.17 c 28.13,4.6 56.26,5.59 84.39,-0.26"
           style="fill:none;stroke:#000000;stroke-width:1px"
           sodipodi:nodetypes="cc"
           id="path3278"
           inkscape:connector-curvature="0" />
        <path
           d="m 128.67,549.91 c 8.01,6.19 27.91,6.58 36.62,-0.2"
           style="fill:none;stroke:#000000;stroke-width:1px"
           sodipodi:nodetypes="cc"
           id="path3284"
           inkscape:connector-curvature="0" />
        <path
           d="m 104.16,558.28 c 2.58,9.89 6.84,21.49 -0.26,35.38"
           style="fill:none;stroke:#000000;stroke-width:1px"
           sodipodi:nodetypes="cc"
           id="path3286"
           inkscape:connector-curvature="0" />
        <path
           d="m 190.38,558.48 c -2.58,9.89 -6.84,21.49 0.26,35.38"
           style="fill:none;stroke:#000000;stroke-width:1px"
           sodipodi:nodetypes="cc"
           id="path3288"
           inkscape:connector-curvature="0" />
        <path
           d="m 223.28,568.84 c -2.21,10.75 -6.08,20.79 -13.62,29.36"
           style="fill:none;stroke:#000000;stroke-width:1px"
           sodipodi:nodetypes="cc"
           id="path3290"
           inkscape:connector-curvature="0" />
      </g>
      <path
         d="m 161.72,32.147 h 2.05 l 2.61,6.945 2.62,-6.945 h 2.05 v 10.206 h -1.34 v -8.962 l -2.64,7 h -1.38 l -2.63,-7 v 8.962 h -1.34 V 32.147 m 15.48,6.357 c -1.02,0 -1.72,0.117 -2.11,0.349 -0.4,0.232 -0.59,0.629 -0.59,1.189 0,0.447 0.14,0.803 0.44,1.067 0.29,0.26 0.69,0.389 1.2,0.389 0.7,0 1.25,-0.246 1.67,-0.738 0.43,-0.497 0.64,-1.155 0.64,-1.975 v -0.281 h -1.25 m 2.51,-0.519 v 4.368 h -1.26 v -1.162 c -0.29,0.465 -0.65,0.809 -1.07,1.032 -0.43,0.219 -0.96,0.328 -1.58,0.328 -0.78,0 -1.4,-0.219 -1.87,-0.656 -0.46,-0.442 -0.69,-1.032 -0.69,-1.771 0,-0.861 0.29,-1.51 0.86,-1.948 0.58,-0.437 1.44,-0.656 2.59,-0.656 h 1.76 v -0.123 c 0,-0.579 -0.19,-1.025 -0.57,-1.34 -0.38,-0.319 -0.92,-0.478 -1.6,-0.478 -0.44,0 -0.87,0.052 -1.28,0.157 -0.42,0.105 -0.82,0.262 -1.2,0.471 v -1.162 c 0.46,-0.177 0.91,-0.31 1.34,-0.396 0.43,-0.091 0.86,-0.137 1.27,-0.137 1.1,0 1.93,0.287 2.48,0.861 0.54,0.575 0.82,1.445 0.82,2.612 m 2.62,-6.269 h 1.26 v 10.637 h -1.26 V 31.716 m 10.43,6.494 v 0.616 h -5.78 c 0.06,0.866 0.32,1.526 0.78,1.982 0.47,0.451 1.12,0.677 1.96,0.677 0.48,0 0.95,-0.059 1.4,-0.178 0.45,-0.118 0.9,-0.296 1.35,-0.533 v 1.189 c -0.45,0.192 -0.91,0.338 -1.39,0.438 -0.47,0.1 -0.95,0.15 -1.44,0.15 -1.22,0 -2.19,-0.355 -2.91,-1.066 -0.71,-0.711 -1.06,-1.673 -1.06,-2.885 0,-1.253 0.34,-2.247 1.01,-2.98 0.68,-0.739 1.59,-1.108 2.74,-1.108 1.03,0 1.84,0.333 2.44,0.998 0.6,0.661 0.9,1.561 0.9,2.7 m -1.25,-0.369 c -0.01,-0.688 -0.21,-1.237 -0.58,-1.647 -0.38,-0.41 -0.88,-0.615 -1.5,-0.615 -0.7,0 -1.26,0.198 -1.68,0.594 -0.42,0.397 -0.66,0.955 -0.73,1.675 l 4.49,-0.007 m 6.39,-5.694 h 8.63 v 1.162 h -3.62 v 9.044 h -1.39 v -9.044 h -3.62 v -1.162 m 8.02,5.81 h 3.69 v 1.122 h -3.69 v -1.122 m 11.87,-5.475 v 1.347 c -0.52,-0.251 -1.02,-0.438 -1.48,-0.561 -0.47,-0.123 -0.92,-0.185 -1.35,-0.185 -0.75,0 -1.33,0.146 -1.74,0.438 -0.41,0.292 -0.61,0.706 -0.61,1.244 0,0.451 0.13,0.793 0.4,1.025 0.28,0.228 0.79,0.413 1.55,0.554 l 0.83,0.171 c 1.03,0.196 1.79,0.542 2.28,1.039 0.49,0.492 0.74,1.153 0.74,1.983 0,0.989 -0.34,1.738 -1,2.249 -0.66,0.51 -1.63,0.765 -2.91,0.765 -0.49,0 -1,-0.054 -1.55,-0.164 -0.54,-0.109 -1.1,-0.271 -1.69,-0.485 V 40.48 c 0.56,0.314 1.11,0.551 1.65,0.711 0.54,0.159 1.07,0.239 1.59,0.239 0.78,0 1.39,-0.155 1.82,-0.465 0.43,-0.31 0.64,-0.752 0.64,-1.326 0,-0.501 -0.15,-0.893 -0.46,-1.176 -0.31,-0.282 -0.81,-0.494 -1.51,-0.635 l -0.84,-0.164 c -1.03,-0.206 -1.78,-0.527 -2.24,-0.964 -0.46,-0.438 -0.69,-1.046 -0.69,-1.826 0,-0.902 0.32,-1.613 0.95,-2.132 0.64,-0.52 1.52,-0.78 2.63,-0.78 0.48,0 0.97,0.044 1.47,0.13 0.49,0.087 1,0.217 1.52,0.39 m 9.11,5.25 v 4.621 h -1.26 v -4.58 c 0,-0.725 -0.14,-1.267 -0.43,-1.627 -0.28,-0.36 -0.7,-0.54 -1.27,-0.54 -0.68,0 -1.21,0.216 -1.6,0.649 -0.4,0.433 -0.59,1.023 -0.59,1.771 v 4.327 h -1.27 V 31.716 h 1.27 v 4.17 c 0.3,-0.46 0.65,-0.804 1.06,-1.032 0.41,-0.228 0.88,-0.342 1.41,-0.342 0.88,0 1.55,0.274 2,0.82 0.45,0.543 0.68,1.343 0.68,2.4 m 2.52,-3.035 h 1.26 v 7.656 h -1.26 v -7.656 m 0,-2.981 h 1.26 v 1.593 h -1.26 v -1.593 m 8.32,4.157 c -0.14,-0.083 -0.3,-0.142 -0.47,-0.178 -0.16,-0.041 -0.34,-0.062 -0.54,-0.062 -0.71,0 -1.26,0.233 -1.64,0.698 -0.38,0.46 -0.57,1.123 -0.57,1.989 v 4.033 h -1.27 v -7.656 h 1.27 v 1.189 c 0.26,-0.465 0.61,-0.809 1.03,-1.032 0.42,-0.228 0.94,-0.342 1.55,-0.342 0.08,0 0.18,0.007 0.28,0.021 0.11,0.009 0.22,0.025 0.35,0.048 l 0.01,1.292 m 2.57,-3.35 v 2.174 h 2.6 v 0.977 h -2.6 v 4.157 c 0,0.624 0.09,1.025 0.26,1.203 0.17,0.177 0.52,0.266 1.04,0.266 h 1.3 v 1.053 h -1.3 c -0.97,0 -1.64,-0.18 -2.01,-0.54 -0.37,-0.365 -0.55,-1.025 -0.55,-1.982 v -4.157 h -0.92 v -0.977 h 0.92 v -2.174 h 1.26"
         style="fill:#000000"
         id="text3455"
         inkscape:connector-curvature="0" />
      <path
         d="m 106.22,183.01 v 3.07 h 4.6 v 0.93 h -4.6 v 3.34 h -1.12 v -8.25 h 5.87 v 0.91 h -4.75 m 6.06,7.34 v -4.86 -0.4 c 0,-0.15 0,-0.28 -0.01,-0.41 0,-0.13 -0.01,-0.25 -0.01,-0.36 0,-0.12 -0.01,-0.22 -0.01,-0.31 h 0.99 c 0.01,0.09 0.01,0.2 0.02,0.31 0,0.12 0.01,0.23 0.01,0.36 0.01,0.12 0.02,0.23 0.02,0.35 v 0.28 h 0.03 c 0.07,-0.24 0.15,-0.45 0.23,-0.63 0.09,-0.18 0.19,-0.33 0.3,-0.44 0.11,-0.12 0.25,-0.2 0.4,-0.26 0.16,-0.05 0.35,-0.08 0.57,-0.08 0.09,0 0.17,0 0.25,0.02 0.08,0.01 0.14,0.02 0.18,0.03 v 0.97 c -0.07,-0.02 -0.15,-0.03 -0.25,-0.04 -0.09,-0.01 -0.2,-0.02 -0.31,-0.02 -0.25,0 -0.45,0.06 -0.62,0.17 -0.17,0.11 -0.31,0.26 -0.42,0.45 -0.11,0.2 -0.18,0.43 -0.24,0.7 -0.05,0.26 -0.07,0.55 -0.07,0.87 v 3.3 h -1.06 m 9.35,-3.17 c 0,1.11 -0.24,1.93 -0.73,2.48 -0.49,0.54 -1.2,0.81 -2.13,0.81 -0.44,0 -0.84,-0.07 -1.18,-0.2 -0.35,-0.13 -0.65,-0.33 -0.89,-0.61 -0.24,-0.27 -0.42,-0.61 -0.55,-1.02 -0.12,-0.42 -0.19,-0.9 -0.19,-1.46 0,-2.19 0.95,-3.28 2.85,-3.28 0.49,0 0.91,0.06 1.27,0.2 0.36,0.14 0.65,0.34 0.88,0.62 0.23,0.27 0.4,0.61 0.51,1.02 0.1,0.41 0.16,0.89 0.16,1.44 m -1.11,0 c 0,-0.49 -0.04,-0.9 -0.12,-1.22 -0.07,-0.32 -0.18,-0.58 -0.33,-0.77 -0.14,-0.19 -0.32,-0.32 -0.53,-0.4 -0.21,-0.08 -0.45,-0.11 -0.72,-0.11 -0.27,0 -0.51,0.04 -0.73,0.12 -0.21,0.08 -0.4,0.21 -0.55,0.41 -0.15,0.19 -0.27,0.45 -0.35,0.77 -0.08,0.32 -0.12,0.72 -0.12,1.2 0,0.49 0.04,0.9 0.13,1.22 0.09,0.32 0.2,0.58 0.35,0.77 0.15,0.19 0.33,0.33 0.53,0.4 0.21,0.08 0.44,0.12 0.68,0.12 0.27,0 0.51,-0.04 0.73,-0.11 0.22,-0.08 0.41,-0.21 0.56,-0.4 0.15,-0.2 0.27,-0.45 0.35,-0.78 0.08,-0.32 0.12,-0.73 0.12,-1.22 m 6.45,3.17 v -4.02 c 0,-0.31 -0.02,-0.56 -0.07,-0.77 -0.04,-0.21 -0.11,-0.37 -0.21,-0.5 -0.11,-0.13 -0.24,-0.22 -0.41,-0.27 -0.16,-0.05 -0.37,-0.08 -0.61,-0.08 -0.25,0 -0.48,0.05 -0.68,0.14 -0.2,0.08 -0.37,0.21 -0.52,0.38 -0.14,0.16 -0.25,0.37 -0.33,0.61 -0.07,0.24 -0.11,0.52 -0.11,0.84 v 3.67 h -1.06 v -4.98 -0.42 c 0,-0.15 -0.01,-0.29 -0.01,-0.42 0,-0.13 -0.01,-0.24 -0.01,-0.34 -0.01,-0.09 -0.01,-0.15 -0.01,-0.18 h 0.99 c 0.01,0.02 0.01,0.08 0.01,0.16 0.01,0.09 0.01,0.19 0.02,0.3 0,0.11 0.01,0.22 0.01,0.34 0.01,0.11 0.01,0.21 0.01,0.29 H 124 c 0.1,-0.19 0.21,-0.35 0.33,-0.5 0.12,-0.15 0.26,-0.27 0.42,-0.38 0.16,-0.1 0.35,-0.18 0.55,-0.24 0.21,-0.05 0.45,-0.08 0.72,-0.08 0.36,0 0.66,0.04 0.91,0.12 0.26,0.09 0.47,0.22 0.63,0.4 0.16,0.18 0.28,0.42 0.36,0.7 0.07,0.28 0.11,0.62 0.11,1.01 v 4.22 h -1.06 m 5.1,-0.04 c -0.17,0.04 -0.33,0.07 -0.5,0.1 -0.16,0.02 -0.35,0.04 -0.57,0.04 -0.85,0 -1.27,-0.48 -1.27,-1.44 v -4.23 H 129 v -0.77 h 0.77 l 0.31,-1.41 h 0.71 v 1.41 h 1.17 v 0.77 h -1.17 v 4 c 0,0.31 0.05,0.52 0.14,0.65 0.11,0.12 0.28,0.18 0.53,0.18 0.1,0 0.19,-0.01 0.29,-0.02 0.1,-0.02 0.2,-0.04 0.32,-0.06 v 0.78"
         style="fill:#000000"
         id="text3463"
         inkscape:connector-curvature="0" />
      <path
         d="m 278.44,188.03 c 0,0.41 -0.08,0.77 -0.25,1.07 -0.16,0.29 -0.38,0.53 -0.66,0.72 -0.28,0.18 -0.6,0.32 -0.97,0.4 -0.36,0.09 -0.75,0.13 -1.16,0.13 h -3.35 v -8.25 h 3 c 0.46,0 0.87,0.04 1.23,0.11 0.36,0.08 0.66,0.2 0.91,0.36 0.25,0.17 0.44,0.37 0.57,0.63 0.13,0.25 0.2,0.55 0.2,0.9 0,0.23 -0.03,0.45 -0.1,0.65 -0.06,0.2 -0.16,0.39 -0.29,0.56 -0.13,0.16 -0.3,0.3 -0.5,0.43 -0.19,0.11 -0.42,0.2 -0.68,0.26 0.33,0.04 0.62,0.11 0.88,0.23 0.26,0.11 0.47,0.26 0.64,0.43 0.17,0.18 0.31,0.38 0.39,0.62 0.09,0.23 0.14,0.48 0.14,0.75 m -1.61,-3.79 c 0,-0.45 -0.15,-0.77 -0.45,-0.96 -0.31,-0.19 -0.75,-0.29 -1.33,-0.29 h -1.88 v 2.62 h 1.88 c 0.33,0 0.61,-0.03 0.84,-0.1 0.22,-0.06 0.41,-0.16 0.55,-0.27 0.14,-0.12 0.24,-0.27 0.3,-0.44 0.06,-0.16 0.09,-0.35 0.09,-0.56 m 0.48,3.7 c 0,-0.26 -0.05,-0.49 -0.15,-0.67 -0.09,-0.18 -0.23,-0.33 -0.41,-0.45 -0.18,-0.12 -0.39,-0.2 -0.65,-0.26 -0.25,-0.05 -0.53,-0.08 -0.84,-0.08 h -2.09 v 2.98 h 2.18 c 0.28,0 0.54,-0.03 0.78,-0.07 0.24,-0.05 0.45,-0.13 0.62,-0.25 0.18,-0.12 0.31,-0.27 0.41,-0.47 0.1,-0.19 0.15,-0.44 0.15,-0.73 m 4.18,2.53 c -0.64,0 -1.12,-0.17 -1.44,-0.5 -0.32,-0.34 -0.48,-0.8 -0.48,-1.39 0,-0.41 0.08,-0.76 0.23,-1.02 0.17,-0.27 0.37,-0.48 0.63,-0.63 0.25,-0.16 0.55,-0.26 0.87,-0.32 0.33,-0.06 0.67,-0.09 1.01,-0.1 l 1.42,-0.02 v -0.35 c 0,-0.26 -0.03,-0.48 -0.08,-0.67 -0.06,-0.18 -0.14,-0.33 -0.25,-0.44 -0.12,-0.12 -0.26,-0.2 -0.43,-0.25 -0.17,-0.05 -0.37,-0.08 -0.6,-0.08 -0.2,0 -0.39,0.01 -0.55,0.05 -0.16,0.02 -0.31,0.08 -0.43,0.15 -0.12,0.08 -0.22,0.18 -0.29,0.31 -0.07,0.13 -0.12,0.3 -0.15,0.5 l -1.1,-0.1 c 0.04,-0.25 0.12,-0.48 0.22,-0.69 0.11,-0.21 0.27,-0.39 0.47,-0.54 0.2,-0.16 0.45,-0.27 0.75,-0.36 0.31,-0.08 0.68,-0.12 1.1,-0.12 0.8,0 1.4,0.18 1.8,0.55 0.41,0.36 0.61,0.89 0.61,1.58 v 2.73 c 0,0.31 0.04,0.55 0.12,0.71 0.08,0.15 0.24,0.23 0.47,0.23 0.06,0 0.12,0 0.17,-0.01 0.06,-0.01 0.12,-0.02 0.17,-0.03 v 0.66 c -0.13,0.03 -0.26,0.05 -0.39,0.07 -0.13,0.01 -0.27,0.02 -0.42,0.02 -0.2,0 -0.37,-0.02 -0.52,-0.07 -0.14,-0.06 -0.25,-0.14 -0.34,-0.24 -0.09,-0.11 -0.16,-0.25 -0.21,-0.4 -0.04,-0.16 -0.07,-0.35 -0.08,-0.56 h -0.04 c -0.11,0.2 -0.24,0.39 -0.37,0.55 -0.14,0.16 -0.29,0.31 -0.47,0.42 -0.18,0.12 -0.39,0.2 -0.62,0.27 -0.22,0.06 -0.49,0.09 -0.78,0.09 m 0.24,-0.79 c 0.33,0 0.63,-0.06 0.88,-0.18 0.25,-0.13 0.46,-0.29 0.62,-0.48 0.17,-0.19 0.3,-0.4 0.38,-0.62 0.08,-0.23 0.12,-0.45 0.12,-0.65 v -0.53 l -1.15,0.03 c -0.26,0 -0.51,0.02 -0.74,0.06 -0.23,0.03 -0.44,0.09 -0.61,0.19 -0.18,0.1 -0.32,0.23 -0.42,0.41 -0.1,0.18 -0.16,0.41 -0.16,0.69 0,0.34 0.1,0.61 0.28,0.8 0.19,0.19 0.45,0.28 0.8,0.28 m 5.62,-2.53 c 0,0.37 0.03,0.7 0.08,1.01 0.05,0.3 0.14,0.56 0.27,0.79 0.12,0.22 0.29,0.39 0.49,0.51 0.21,0.12 0.46,0.18 0.76,0.18 0.38,0 0.69,-0.1 0.94,-0.31 0.25,-0.2 0.41,-0.51 0.47,-0.93 l 1.06,0.07 c -0.03,0.26 -0.11,0.51 -0.22,0.75 -0.12,0.24 -0.28,0.46 -0.48,0.64 -0.2,0.18 -0.45,0.33 -0.74,0.45 -0.29,0.11 -0.62,0.16 -1,0.16 -0.5,0 -0.92,-0.08 -1.26,-0.25 -0.35,-0.17 -0.64,-0.4 -0.85,-0.69 -0.22,-0.3 -0.38,-0.65 -0.47,-1.05 -0.1,-0.4 -0.15,-0.83 -0.15,-1.3 0,-0.43 0.04,-0.8 0.11,-1.13 0.07,-0.33 0.16,-0.61 0.29,-0.85 0.13,-0.25 0.28,-0.45 0.45,-0.62 0.17,-0.17 0.36,-0.3 0.56,-0.4 0.2,-0.1 0.41,-0.17 0.64,-0.21 0.22,-0.05 0.44,-0.07 0.67,-0.07 0.35,0 0.67,0.04 0.95,0.14 0.28,0.1 0.51,0.23 0.71,0.41 0.21,0.16 0.37,0.36 0.5,0.59 0.12,0.23 0.21,0.48 0.26,0.75 l -1.09,0.08 c -0.05,-0.35 -0.19,-0.63 -0.41,-0.84 -0.22,-0.2 -0.54,-0.31 -0.95,-0.31 -0.3,0 -0.55,0.05 -0.76,0.15 -0.2,0.1 -0.36,0.25 -0.48,0.46 -0.13,0.19 -0.22,0.45 -0.27,0.75 -0.05,0.31 -0.08,0.66 -0.08,1.07 m 9.2,3.2 -2.15,-2.89 -0.77,0.64 v 2.25 h -1.06 v -8.69 h 1.06 v 5.43 l 2.78,-3.08 h 1.24 l -2.58,2.73 2.71,3.61 h -1.23"
         style="fill:#000000"
         id="text3467"
         inkscape:connector-curvature="0" />
    </g>
  </g>
  <g
     inkscape:groupmode="layer"
     id="layer2"
     inkscape:label="Berl n"
     style="display:inline"
     transform="translate(-1096.4025,365.47942)" />
  <g
     inkscape:groupmode="layer"
     id="layer45"
     inkscape:label="Antenne"
     style="display:inline"
     transform="translate(-1096.4025,365.47942)">
    <g
       id="g1750"
       transform="matrix(5.5293462,0,0,5.5293462,394.12903,-952.93824)">
      <text
         id="text1676"
         y="140.8114"
         x="143.00728"
         style="font-style:normal;font-weight:normal;font-size:10.58333302px;line-height:1.25;font-family:sans-serif;letter-spacing:0px;word-spacing:0px;display:inline;fill:#3465a4;fill-opacity:1;stroke:none;stroke-width:0.26458332;"
         xml:space="preserve"><tspan
           style="font-style:normal;font-variant:normal;font-weight:normal;font-stretch:normal;font-size:10.58333302px;font-family:'Yanone Kaffeesatz';-inkscape-font-specification:'Yanone Kaffeesatz';fill:#3465a4;fill-opacity:1;stroke-width:0.26458332;"
           y="140.8114"
           x="143.00728"
           id="tspan1674"
           sodipodi:role="line">Berl</tspan></text>
      <text
         id="text1680"
         y="140.91724"
         x="162.69029"
         style="font-style:normal;font-weight:normal;font-size:10.58333302px;line-height:1.25;font-family:sans-serif;letter-spacing:0px;word-spacing:0px;display:inline;fill:#3465a4;fill-opacity:1;stroke:none;stroke-width:0.26458332"
         xml:space="preserve"><tspan
           style="font-style:normal;font-variant:normal;font-weight:normal;font-stretch:normal;font-size:10.58333302px;font-family:'Yanone Kaffeesatz';-inkscape-font-specification:'Yanone Kaffeesatz';fill:#3465a4;fill-opacity:1;stroke-width:0.26458332"
           y="140.91724"
           x="162.69029"
           id="tspan1678"
           sodipodi:role="line">n</tspan></text>
      <g
         transform="translate(94.45625,16.139583)"
         id="g27740">
        <g
           id="g28309">
          <path
             style="color:#000000;font-style:normal;font-variant:normal;font-weight:normal;font-stretch:normal;font-size:40px;line-height:normal;font-family:'Yanone Kaffeesatz';-inkscape-font-specification:'Yanone Kaffeesatz';font-variant-ligatures:normal;font-variant-position:normal;font-variant-caps:normal;font-variant-numeric:normal;font-variant-alternates:normal;font-feature-settings:normal;text-indent:0;text-align:start;text-decoration:none;text-decoration-line:none;text-decoration-style:solid;text-decoration-color:#000000;letter-spacing:normal;word-spacing:normal;text-transform:none;writing-mode:lr-tb;direction:ltr;text-orientation:mixed;dominant-baseline:auto;baseline-shift:baseline;text-anchor:start;white-space:normal;shape-padding:0;clip-rule:nonzero;display:inline;overflow:visible;visibility:visible;opacity:0.98000004;isolation:auto;mix-blend-mode:normal;color-interpolation:sRGB;color-interpolation-filters:linearRGB;solid-color:#000000;solid-opacity:1;vector-effect:none;fill:#3465a4;fill-opacity:1;fill-rule:nonzero;stroke:none;stroke-width:6.24451828;stroke-linecap:round;stroke-linejoin:round;stroke-miterlimit:4;stroke-dasharray:none;stroke-dashoffset:0;stroke-opacity:1;color-rendering:auto;image-rendering:auto;shape-rendering:auto;text-rendering:auto;enable-background:accumulate"
             d="m 3820.6562,472.26172 c -40.3422,0 -73.1445,32.3975 -73.1445,72.32812 0,30.32091 18.9212,56.28015 45.6875,67.02735 l 1.8555,-5.95508 c -24.2644,-9.91834 -41.2988,-33.51066 -41.2988,-61.07227 0,-36.51604 29.8935,-66.08398 66.9003,-66.08398 37.0069,0 66.8985,29.56794 66.8985,66.08398 0,24.66524 -13.6587,46.14338 -33.918,57.50977 -2.3907,1.34129 -4.8745,2.53952 -7.4355,3.58594 l 1.8535,5.96875 c 2.9828,-1.19355 5.8704,-2.56971 8.6426,-4.125 22.1465,-12.42531 37.1035,-35.96788 37.1035,-62.93946 0,-39.93062 -32.8023,-72.32812 -73.1446,-72.32812 z m 7.5,137.99414 c -2.4618,0.2706 -4.962,0.41602 -7.5,0.41602 -2.5028,0 -4.9696,-0.14473 -7.4003,-0.40821 l -1.8633,6.05469 c 3.0363,0.3807 6.1241,0.59767 9.2636,0.59766 3.182,0 6.3161,-0.2044 9.3926,-0.59571 z"
             transform="matrix(0.04785074,0,0,0.04785074,-118.05951,92.995687)"
             id="path3544"
             inkscape:connector-curvature="0"
             sodipodi:nodetypes="ssccsssscccsscsccccc" />
          <path
             style="font-style:normal;font-variant:normal;font-weight:normal;font-stretch:normal;font-size:medium;font-family:'Yanone Kaffeesatz';-inkscape-font-specification:'Yanone Kaffeesatz';display:inline;fill:none;fill-opacity:1;fill-rule:evenodd;stroke:#a00000;stroke-width:6.34386444px;stroke-linecap:butt;stroke-linejoin:miter;stroke-opacity:1"
             d="m 3811.3887,563.87891 -30.2735,97.13867 h 78.9297 l -30.1523,-97.125 c -2.8017,1.31925 -5.9315,2.05859 -9.2364,2.05859 -3.3169,0 -6.4581,-0.74396 -9.2675,-2.07226 z m 9.2675,11.66406 19.3165,61.84961 h -38.4082 z"
             transform="matrix(0.04785074,0,0,0.04785074,-118.05951,92.995687)"
             id="path3548"
             inkscape:connector-curvature="0" />
          <path
             style="font-style:normal;font-variant:normal;font-weight:normal;font-stretch:normal;font-size:medium;font-family:'Yanone Kaffeesatz';-inkscape-font-specification:'Yanone Kaffeesatz';display:inline;fill:none;fill-opacity:1;stroke:#a00000;stroke-width:0.3038334;stroke-linecap:round;stroke-linejoin:round;stroke-miterlimit:4;stroke-dasharray:none;stroke-dashoffset:0;stroke-opacity:1"
             id="path3556"
             d="m 65.796938,119.04618 c 0,0.56924 -0.463484,1.03071 -1.035215,1.03071 -0.571734,0 -1.035215,-0.46147 -1.035215,-1.03071 0,-0.56925 0.463481,-1.03071 1.035215,-1.03071 0.571731,0 1.035215,0.46146 1.035215,1.03071 z"
             inkscape:connector-curvature="0" />
        </g>
        <path
           style="font-style:normal;font-variant:normal;font-weight:normal;font-stretch:normal;font-size:40px;font-family:'Yanone Kaffeesatz';-inkscape-font-specification:'Yanone Kaffeesatz';display:inline;fill:none;fill-opacity:1;stroke:#3465a4;stroke-width:0.29880485;stroke-linecap:round;stroke-linejoin:round;stroke-miterlimit:4;stroke-dashoffset:0;stroke-opacity:1"
           id="path3552"
           d="m 66.957088,119.05451 c 0,1.21246 -0.982899,2.19537 -2.195365,2.19537 -1.212466,0 -2.195365,-0.98291 -2.195365,-2.19537 0,-1.21246 0.982899,-2.19537 2.195365,-2.19537 1.212466,0 2.195365,0.98291 2.195365,2.19537 z"
           inkscape:connector-curvature="0" />
      </g>
    </g>
    <text
       xml:space="preserve"
       style="font-style:normal;font-weight:normal;font-size:10.58333302px;line-height:1.25;font-family:sans-serif;letter-spacing:0px;word-spacing:0px;fill:#000000;fill-opacity:1;stroke:none;stroke-width:0.26458332"
       x="144.63889"
       y="130.24635"
       id="text1734"><tspan
         sodipodi:role="line"
         id="tspan1732"
         x="144.63889"
         y="139.61012"
         style="stroke-width:0.26458332" /></text>
  </g>
  <g
     inkscape:groupmode="layer"
     id="layer43"
     inkscape:label="Osmocon"
     style="display:inline"
     transform="translate(-1096.4025,365.47942)">
    <g
       id="g1923"
       transform="matrix(7.3692389,0,0,7.3692389,91.435617,-1198.5624)">
      <g
         id="g1764">
        <g
           id="g27692"
           transform="matrix(0,0.45373465,-0.45373465,0,221.28037,12.167365)">
          <text
             transform="rotate(-90)"
             id="text3743-6"
             y="246.85168"
             x="-186.60825"
             style="font-style:normal;font-weight:normal;font-size:32.46934128px;line-height:125%;font-family:Sans;letter-spacing:0.0710267px;word-spacing:0px;display:inline;fill:#a00000;fill-opacity:1;stroke:none;stroke-width:0.50733346"
             xml:space="preserve"><tspan
               dx="0 0"
               style="font-style:normal;font-variant:normal;font-weight:normal;font-stretch:normal;font-size:32.46934128px;font-family:'Yanone Kaffeesatz';-inkscape-font-specification:'Yanone Kaffeesatz';letter-spacing:0.0710267px;fill:#a00000;fill-opacity:1;stroke-width:0.50733346"
               y="246.85168"
               x="-186.60825"
               id="tspan3745-0"
               sodipodi:role="line">Os</tspan></text>
          <text
             transform="rotate(-90)"
             id="text3760-7"
             y="246.85168"
             x="-141.1275"
             style="font-style:normal;font-weight:normal;font-size:20.29333878px;line-height:125%;font-family:Sans;letter-spacing:0px;word-spacing:0px;display:inline;fill:#a00000;fill-opacity:1;stroke:none;stroke-width:0.50733346"
             xml:space="preserve"><tspan
               style="font-style:normal;font-variant:normal;font-weight:normal;font-stretch:normal;font-size:32.46934128px;font-family:'Yanone Kaffeesatz';-inkscape-font-specification:'Yanone Kaffeesatz';fill:#a00000;fill-opacity:1;stroke-width:0.50733346"
               y="246.85168"
               x="-141.1275"
               id="tspan3762-0"
               sodipodi:role="line">o</tspan></text>
          <text
             transform="rotate(-90)"
             xml:space="preserve"
             style="font-style:normal;font-weight:bold;font-size:32.46934128px;line-height:125%;font-family:Sans;-inkscape-font-specification:'Yanone Kaffeesatz Bold';letter-spacing:0px;word-spacing:0px;display:inline;fill:#a00000;fill-opacity:1;stroke:none;stroke-width:0.50733346"
             x="-128.63484"
             y="247.17639"
             id="text4707"><tspan
               sodipodi:role="line"
               id="tspan4705"
               x="-128.63484"
               y="247.17639"
               style="font-style:normal;font-variant:normal;font-weight:bold;font-stretch:normal;font-size:32.46934128px;font-family:'Yanone Kaffeesatz';-inkscape-font-specification:'Yanone Kaffeesatz Bold';fill:#a00000;fill-opacity:1;stroke-width:0.50733346">Con</tspan></text>
          <path
             sodipodi:nodetypes="ccccscsccccsccccscscc"
             inkscape:connector-curvature="0"
             id="path3959-9-26-3"
             d="m 230.52287,155.06587 3.7842,2.19877 -1.73108,1.00576 13.63459,-0.29827 c 0,0 0.36572,-1.31725 -0.15359,-1.33175 l -12.63777,-0.35275 c -0.38963,-0.74679 -0.55191,-1.49337 -0.55191,-2.20769 0,-1.29878 0.45418,-1.81454 1.62307,-1.84702 l 11.68552,-0.14368 c 0,0 0.19675,-1.71445 -0.0872,-1.71819 l -12.1562,-0.16053 c -0.45455,-0.71433 -1.03348,-1.78095 -1.03348,-2.52775 0,-1.29878 0.65041,-1.56348 2.20869,-1.59037 l 11.30104,-0.19521 c -0.0961,-0.61079 0.30808,-1.47833 -0.0982,-1.48633 l -11.39719,-0.22394 c -2.92168,-0.0575 -4.35197,-0.33471 -4.35197,2.91221 0,1.33125 0.38982,2.88932 1.00673,3.99328 -0.64933,0.61691 -1.00673,1.52593 -1.00673,2.92212 0,0.38062 -0.0173,0.72464 -0.0387,1.05133 z"
             style="font-style:normal;font-variant:normal;font-weight:normal;font-stretch:normal;font-size:64px;font-family:'Yanone Kaffeesatz';-inkscape-font-specification:'Andale Mono';writing-mode:lr-tb;display:inline;fill:#a00000;fill-opacity:1;stroke:#a00000;stroke-width:0.44078627;stroke-linecap:round;stroke-miterlimit:4;stroke-dasharray:none;stroke-opacity:1" />
          <path
             inkscape:connector-curvature="0"
             style="font-style:normal;font-variant:normal;font-weight:normal;font-stretch:normal;font-size:40px;font-family:'Yanone Kaffeesatz';-inkscape-font-specification:'Yanone Kaffeesatz';display:inline;fill:none;fill-opacity:1;stroke:#3465a4;stroke-width:2.53666735;stroke-linecap:round;stroke-linejoin:round;stroke-miterlimit:4;stroke-dashoffset:0;stroke-opacity:1"
             id="path3981-0-4-1"
             d="m 234.30703,157.2649 -3.93365,2.28648 -3.93371,2.28649 v -4.57297 -4.57297 l 3.93371,2.28648 z" />
          <path
             inkscape:connector-curvature="0"
             style="font-style:normal;font-variant:normal;font-weight:normal;font-stretch:normal;font-size:40px;font-family:'Yanone Kaffeesatz';-inkscape-font-specification:'Yanone Kaffeesatz';display:inline;fill:#3465a4;fill-opacity:1;stroke:#3465a4;stroke-width:2.54799986;stroke-linecap:round;stroke-linejoin:round;stroke-miterlimit:4;stroke-dasharray:none;stroke-opacity:1"
             id="path3983-4-9-2"
             d="M 245.90028,145.16484 H 231.83521" />
          <path
             inkscape:connector-curvature="0"
             style="font-style:normal;font-variant:normal;font-weight:normal;font-stretch:normal;font-size:40px;font-family:'Yanone Kaffeesatz';-inkscape-font-specification:'Yanone Kaffeesatz';display:inline;fill:#3465a4;fill-opacity:1;stroke:#3465a4;stroke-width:2.53666735;stroke-linecap:round;stroke-linejoin:round;stroke-miterlimit:4;stroke-dasharray:none;stroke-opacity:1"
             id="path3985-4-0-9"
             d="M 245.89433,151.24032 H 235.83822" />
          <path
             inkscape:connector-curvature="0"
             style="font-style:normal;font-variant:normal;font-weight:normal;font-stretch:normal;font-size:40px;font-family:'Yanone Kaffeesatz';-inkscape-font-specification:'Yanone Kaffeesatz';display:inline;fill:#3465a4;fill-opacity:1;stroke:#3465a4;stroke-width:2.36881971;stroke-linecap:round;stroke-linejoin:round;stroke-miterlimit:4;stroke-dasharray:none;stroke-opacity:1"
             id="path3951-0-4-91-2"
             d="m 245.98246,157.26523 -5.96254,0.004" />
        </g>
      </g>
    </g>
  </g>
  <g
     inkscape:groupmode="layer"
     id="layer46"
     inkscape:label="2B"
     style="display:inline"
     transform="translate(-1096.4025,365.47942)">
    <text
       xml:space="preserve"
       style="font-style:normal;font-variant:normal;font-weight:normal;font-stretch:normal;font-size:10.58333302px;line-height:1.25;font-family:'Yanone Kaffeesatz';-inkscape-font-specification:'Yanone Kaffeesatz';letter-spacing:0px;word-spacing:0px;fill:#000000;fill-opacity:1;stroke:none;stroke-width:0.26458332"
       x="55.337601"
       y="119.80193"
       id="text27734"><tspan
         sodipodi:role="line"
         id="tspan27732"
         x="55.337601"
         y="129.44437"
         style="font-style:normal;font-variant:normal;font-weight:normal;font-stretch:normal;font-family:'Yanone Kaffeesatz';-inkscape-font-specification:'Yanone Kaffeesatz';stroke-width:0.26458332" /></text>
  </g>
  <g
     inkscape:groupmode="layer"
     id="layer47"
     inkscape:label="!"
     style="display:none"
     transform="translate(-1096.4025,365.47942)"
     sodipodi:insensitive="true">
    <g
       id="g1931"
       transform="matrix(5.9994038,0,0,5.9994038,99.292647,-1036.9811)">
      <text
         id="text27730"
         y="124.05181"
         x="27.916853"
         style="font-style:normal;font-variant:normal;font-weight:normal;font-stretch:normal;font-size:10.58333302px;line-height:1.25;font-family:'Yanone Kaffeesatz';-inkscape-font-specification:'Yanone Kaffeesatz';letter-spacing:0px;word-spacing:0px;display:inline;fill:#3465a4;fill-opacity:1;stroke:none;stroke-width:0.26458332"
         xml:space="preserve"><tspan
           style="font-style:normal;font-variant:normal;font-weight:normal;font-stretch:normal;font-family:'Yanone Kaffeesatz';-inkscape-font-specification:'Yanone Kaffeesatz';fill:#3465a4;fill-opacity:1;stroke-width:0.26458332"
           y="124.05181"
           x="27.916853"
           id="tspan27728"
           sodipodi:role="line">0x2B ||   0x2B</tspan></text>
      <text
         id="text28288"
         y="123.96717"
         x="54.724991"
         style="font-style:normal;font-weight:normal;font-size:10.58333302px;line-height:1.25;font-family:sans-serif;letter-spacing:0px;word-spacing:0px;fill:#a00000;fill-opacity:1;stroke:none;stroke-width:0.26458332"
         xml:space="preserve"><tspan
           style="font-style:normal;font-variant:normal;font-weight:normal;font-stretch:normal;font-family:'Yanone Kaffeesatz';-inkscape-font-specification:'Yanone Kaffeesatz';fill:#a00000;fill-opacity:1;stroke-width:0.26458332"
           y="123.96717"
           x="54.724991"
           id="tspan28286"
           sodipodi:role="line">!</tspan></text>
      <flowRoot
         xml:space="preserve"
         id="flowRoot1978"
         style="font-style:normal;font-weight:normal;font-size:40px;line-height:1.25;font-family:sans-serif;letter-spacing:0px;word-spacing:0px;fill:#000000;fill-opacity:1;stroke:none"><flowRegion
           id="flowRegion1980"><rect
             id="rect1982"
             width="356.38181"
             height="282.84271"
             x="-647.70984"
             y="-286.03369" /></flowRegion><flowPara
           id="flowPara1984" /></flowRoot>    </g>
  </g>
  <g
     inkscape:groupmode="layer"
     id="layer44"
     inkscape:label="Jahr"
     style="display:inline"
     transform="translate(-1096.4025,365.47942)">
    <text
       xml:space="preserve"
       style="font-style:normal;font-variant:normal;font-weight:normal;font-stretch:normal;font-size:77.9910965px;line-height:1.25;font-family:'Yanone Kaffeesatz';-inkscape-font-specification:'Yanone Kaffeesatz';letter-spacing:0px;word-spacing:0px;fill:#3465a4;fill-opacity:1;stroke:none;stroke-width:1.94977772"
       x="1127.0114"
       y="-238.74591"
       id="text27697"><tspan
         sodipodi:role="line"
         x="1127.0114"
         y="-238.74591"
         style="font-style:normal;font-variant:normal;font-weight:normal;font-stretch:normal;font-size:38.99555969px;font-family:'Yanone Kaffeesatz';-inkscape-font-specification:'Yanone Kaffeesatz';fill:#3465a4;fill-opacity:1;stroke-width:1.94977772"
         id="tspan1670">18-19 October 2018</tspan></text>
  </g>
</svg>
