<?xml version="1.0" encoding="UTF-8" standalone="no"?>
<svg
   width="2426.4744"
   height="492.09192"
   viewBox="0 0 187.087 37.941468"
   version="1.1"
   id="svg12"
   sodipodi:docname="GSM_logo_tm.svg"
   inkscape:version="1.2.2 (b0a8486541, 2022-12-01)"
   xmlns:inkscape="http://www.inkscape.org/namespaces/inkscape"
   xmlns:sodipodi="http://sodipodi.sourceforge.net/DTD/sodipodi-0.dtd"
   xmlns="http://www.w3.org/2000/svg"
   xmlns:svg="http://www.w3.org/2000/svg">
  <defs
     id="defs16" />
  <sodipodi:namedview
     id="namedview14"
     pagecolor="#ffffff"
     bordercolor="#999999"
     borderopacity="1"
     inkscape:showpageshadow="0"
     inkscape:pageopacity="0"
     inkscape:pagecheckerboard="0"
     inkscape:deskcolor="#d1d1d1"
     showgrid="false"
     inkscape:zoom="0.1888"
     inkscape:cx="1133.4746"
     inkscape:cy="-418.4322"
     inkscape:window-width="1908"
     inkscape:window-height="1057"
     inkscape:window-x="1"
     inkscape:window-y="1102"
     inkscape:window-maximized="0"
     inkscape:current-layer="svg12" />
  <g
     id="g306"
     transform="translate(-2.571,-77.626532)">
    <path
       fill="#cc2229"
       d="m 181.271,86.015 h 8.387 v -8.386 h -8.387 z"
       id="path4"
       style="clip-rule:evenodd;fill-rule:evenodd" />
    <path
       d="m 28.2,102.653 -0.033,-0.1 0.033,0.033 z"
       id="path6"
       style="clip-rule:evenodd;fill-rule:evenodd" />
    <path
       d="m 42.726,77.629 c 3.556,0 6.441,3.086 6.441,6.642 v 5.87 l -6.441,-0.033 c -0.034,-0.973 0,-5.837 0,-5.837 H 9.012 v 24.823 h 33.714 v -6.34 H 24.309 V 96.582 L 49.2,96.548 49.167,109.094 c 0,4.059 -2.114,6.474 -6.441,6.474 H 9.012 c -3.489,0 -6.408,-3.019 -6.408,-6.34 L 2.571,84.271 c 0,-3.958 2.113,-6.642 6.441,-6.642 z m 51.896,0 c 3.355,0 6.609,2.952 6.609,6.642 v 5.736 H 94.622 V 84.271 H 65.805 l 0.101,7.279 29.621,1.778 c 2.081,0.101 4.092,1.543 5.065,3.489 0.84,1.543 0.604,3.556 0.672,5.367 l -0.068,7.647 c -0.133,2.315 -2.615,5.736 -6.574,5.736 H 65.805 c -3.12,0 -6.609,-1.476 -6.609,-6.474 v -6.34 h 6.609 v 6.34 L 94.655,108.992 94.622,99.901 64.631,97.72 C 63.356,97.619 60.069,95.775 59.8,94.198 59.699,93.628 58.961,91.213 59.196,90.005 v -5.736 c 0,-3.12 2.918,-6.642 6.609,-6.642 h 28.817 z m 71.017,0 c 4.863,0 6.439,4.126 6.439,6.642 v 31.297 h -6.439 V 84.271 H 144.84 v 31.196 l -6.576,0.101 V 84.271 l -20.463,0.034 -0.066,31.197 -6.643,0.066 V 84.271 c 0.402,-3.791 2.482,-6.742 6.643,-6.642 z m -14.627,37.938 h 8.387 v -8.386 h -8.387 z M 123.605,98.393 h 8.387 v -8.386 h -8.387 z m 0,17.174 h 8.387 v -8.386 h -8.387 z"
       fill="#4b4d82"
       id="path8"
       style="clip-rule:evenodd;fill-rule:evenodd" />
  </g>
</svg>
