<?xml version="1.0" encoding="UTF-8" standalone="no"?>
<!-- Created with Inkscape (http://www.inkscape.org/) -->

<svg
   xmlns:dc="http://purl.org/dc/elements/1.1/"
   xmlns:cc="http://creativecommons.org/ns#"
   xmlns:rdf="http://www.w3.org/1999/02/22-rdf-syntax-ns#"
   xmlns:svg="http://www.w3.org/2000/svg"
   xmlns="http://www.w3.org/2000/svg"
   xmlns:xlink="http://www.w3.org/1999/xlink"
   xmlns:sodipodi="http://sodipodi.sourceforge.net/DTD/sodipodi-0.dtd"
   xmlns:inkscape="http://www.inkscape.org/namespaces/inkscape"
   width="690.9375"
   height="301.1875"
   id="svg2"
   version="1.1"
   inkscape:version="0.48.4 r9939"
   sodipodi:docname="osmocom-cup.svg">
  <defs
     id="defs4">
    <marker
       inkscape:stockid="Arrow2Lend"
       orient="auto"
       refY="0"
       refX="0"
       id="Arrow2Lend"
       style="overflow:visible">
      <path
         id="path4976"
         style="fill-rule:evenodd;stroke-width:0.625;stroke-linejoin:round"
         d="M 8.7185878,4.0337352 -2.2072895,0.01601326 8.7185884,-4.0017078 c -1.7454984,2.3720609 -1.7354408,5.6174519 -6e-7,8.035443 z"
         transform="matrix(-1.1,0,0,-1.1,-1.1,0)"
         inkscape:connector-curvature="0" />
    </marker>
    <marker
       inkscape:stockid="Arrow1Mend"
       orient="auto"
       refY="0"
       refX="0"
       id="Arrow1Mend"
       style="overflow:visible">
      <path
         id="path4964"
         d="M 0,0 5,-5 -12.5,0 5,5 0,0 z"
         style="fill-rule:evenodd;stroke:#000000;stroke-width:1pt"
         transform="matrix(-0.4,0,0,-0.4,-4,0)"
         inkscape:connector-curvature="0" />
    </marker>
    <linearGradient
       id="linearGradient7153-0-1-9-75">
      <stop
         offset="0"
         style="stop-color:#ffffff;stop-opacity:1"
         id="stop7155-8-7-3-9" />
      <stop
         offset="1"
         style="stop-color:#ffffff;stop-opacity:0"
         id="stop7157-5-7-7-7" />
    </linearGradient>
    <radialGradient
       gradientTransform="matrix(5.2943491,0,0,5.2881329,-7.02204,58.291497)"
       gradientUnits="userSpaceOnUse"
       xlink:href="#linearGradient7153-0-1-9-75"
       id="radialGradient4001-9-6-9"
       fy="1.1256332"
       fx="8.3046875"
       r="2.0507698"
       cy="1.1256332"
       cx="8.3046875" />
    <linearGradient
       id="linearGradient7131-6-1-5-7">
      <stop
         offset="0"
         style="stop-color:#ffffff;stop-opacity:1"
         id="stop7133-4-5-2-6" />
      <stop
         offset="1"
         style="stop-color:#d3d7cf;stop-opacity:1"
         id="stop7135-6-9-5-0" />
    </linearGradient>
    <radialGradient
       gradientTransform="matrix(0.7375073,0,0,0.7201806,2.4345312,0.6617371)"
       gradientUnits="userSpaceOnUse"
       xlink:href="#linearGradient7131-6-1-5-7"
       id="radialGradient3999-1-4-6"
       fy="1.7286602"
       fx="8.9057236"
       r="1.9952321"
       cy="1.7286602"
       cx="8.9057236" />
    <linearGradient
       id="linearGradient3471">
      <stop
         offset="0"
         style="stop-color:#3465a4;stop-opacity:1"
         id="stop3473" />
      <stop
         offset="1"
         style="stop-color:#3465a4;stop-opacity:0"
         id="stop3475" />
    </linearGradient>
    <radialGradient
       gradientTransform="matrix(15.1803,0,0,5.0647752,-116.56897,28.614297)"
       gradientUnits="userSpaceOnUse"
       xlink:href="#linearGradient3362-8-6-0-9"
       id="radialGradient3997-3-3-4"
       fy="9.8424416"
       fx="10.28125"
       r="4.5250292"
       cy="9.8424416"
       cx="10.28125" />
    <linearGradient
       id="linearGradient3464">
      <stop
         offset="0"
         style="stop-color:#729fcf;stop-opacity:1"
         id="stop3466" />
      <stop
         offset="1"
         style="stop-color:#729fcf;stop-opacity:0"
         id="stop3468" />
    </linearGradient>
    <radialGradient
       gradientTransform="matrix(2.2651111,0,0,2.2923498,16.215361,52.593597)"
       gradientUnits="userSpaceOnUse"
       xlink:href="#linearGradient3374-5-7-7-0"
       id="radialGradient3995-7-4-0"
       fy="7.8249326"
       fx="10.28125"
       r="4.5250292"
       cy="7.8249326"
       cx="10.28125" />
    <linearGradient
       id="linearGradient6979-9-2-2-8">
      <stop
         offset="0"
         style="stop-color:#888a85;stop-opacity:1"
         id="stop6981-9-9-0-8" />
      <stop
         offset="1"
         style="stop-color:#555753;stop-opacity:1"
         id="stop6983-0-3-6-6" />
    </linearGradient>
    <linearGradient
       gradientUnits="userSpaceOnUse"
       xlink:href="#linearGradient6979-9-2-2-8"
       id="linearGradient3993-1-9-7"
       y2="10.934953"
       x2="39.421204"
       y1="28.5"
       x1="39.06765" />
    <linearGradient
       id="linearGradient7101-4-9-4-1">
      <stop
         offset="0"
         style="stop-color:#babdb6;stop-opacity:1"
         id="stop7103-0-4-31-0" />
      <stop
         offset="1"
         style="stop-color:#ffffff;stop-opacity:1"
         id="stop7105-6-8-4-3" />
    </linearGradient>
    <linearGradient
       gradientUnits="userSpaceOnUse"
       xlink:href="#linearGradient7101-4-9-4-1"
       id="linearGradient3991-3-88-5"
       y2="21.041553"
       x2="21.036427"
       y1="44.528019"
       x1="24.837126" />
    <linearGradient
       id="linearGradient3362-8-6-0-9">
      <stop
         offset="0"
         style="stop-color:#3465a4;stop-opacity:1"
         id="stop3364-4-5-78-9" />
      <stop
         offset="1"
         style="stop-color:#3465a4;stop-opacity:0"
         id="stop3366-7-6-6-4" />
    </linearGradient>
    <linearGradient
       id="linearGradient3374-5-7-7-0">
      <stop
         offset="0"
         style="stop-color:#729fcf;stop-opacity:1"
         id="stop3376-8-6-4-2" />
      <stop
         offset="1"
         style="stop-color:#729fcf;stop-opacity:0"
         id="stop3378-6-7-4-9" />
    </linearGradient>
    <radialGradient
       inkscape:collect="always"
       xlink:href="#linearGradient3374-5-7-7-0"
       id="radialGradient3909"
       gradientUnits="userSpaceOnUse"
       gradientTransform="matrix(4.9499444,0,0,4.9510321,-11.38809,35.312197)"
       cx="10.28125"
       cy="8.0709476"
       fx="10.28125"
       fy="8.0709476"
       r="4.5250292" />
    <radialGradient
       inkscape:collect="always"
       xlink:href="#linearGradient3362-8-6-0-9"
       id="radialGradient3911"
       gradientUnits="userSpaceOnUse"
       gradientTransform="matrix(23.169932,0,0,7.6402677,-198.71238,8.843597)"
       cx="10.28125"
       cy="9.8424416"
       fx="10.28125"
       fy="9.8424416"
       r="4.5250292" />
    <linearGradient
       inkscape:collect="always"
       xlink:href="#linearGradient7101-4-9-4-1"
       id="linearGradient3913"
       gradientUnits="userSpaceOnUse"
       x1="24.837126"
       y1="44.528019"
       x2="21.036427"
       y2="21.041553" />
    <linearGradient
       inkscape:collect="always"
       xlink:href="#linearGradient6979-9-2-2-8"
       id="linearGradient3915"
       gradientUnits="userSpaceOnUse"
       x1="39.06765"
       y1="28.5"
       x2="39.421204"
       y2="10.934953" />
    <radialGradient
       inkscape:collect="always"
       xlink:href="#linearGradient3374-5-7-7-0"
       id="radialGradient3917"
       gradientUnits="userSpaceOnUse"
       gradientTransform="matrix(2.2651111,0,0,2.2923498,16.215361,52.593597)"
       cx="10.28125"
       cy="7.8249326"
       fx="10.28125"
       fy="7.8249326"
       r="4.5250292" />
    <radialGradient
       inkscape:collect="always"
       xlink:href="#linearGradient3362-8-6-0-9"
       id="radialGradient3919"
       gradientUnits="userSpaceOnUse"
       gradientTransform="matrix(15.1803,0,0,5.0647752,-116.56897,28.614297)"
       cx="10.28125"
       cy="9.8424416"
       fx="10.28125"
       fy="9.8424416"
       r="4.5250292" />
    <radialGradient
       inkscape:collect="always"
       xlink:href="#linearGradient7131-6-1-5-7"
       id="radialGradient3921"
       gradientUnits="userSpaceOnUse"
       gradientTransform="matrix(0.7375073,0,0,0.7201806,2.4345312,0.6617371)"
       cx="8.9057236"
       cy="1.7286602"
       fx="8.9057236"
       fy="1.7286602"
       r="1.9952321" />
    <radialGradient
       inkscape:collect="always"
       xlink:href="#linearGradient7153-0-1-9-75"
       id="radialGradient3923"
       gradientUnits="userSpaceOnUse"
       gradientTransform="matrix(5.2943491,0,0,5.2881329,-7.02204,58.291497)"
       cx="8.3046875"
       cy="1.1256332"
       fx="8.3046875"
       fy="1.1256332"
       r="2.0507698" />
    <radialGradient
       inkscape:collect="always"
       xlink:href="#linearGradient3374-5-7-7-0"
       id="radialGradient6255"
       gradientUnits="userSpaceOnUse"
       gradientTransform="matrix(4.9499444,0,0,4.9510321,-11.38809,35.312197)"
       cx="10.28125"
       cy="8.0709476"
       fx="10.28125"
       fy="8.0709476"
       r="4.5250292" />
    <radialGradient
       inkscape:collect="always"
       xlink:href="#linearGradient3362-8-6-0-9"
       id="radialGradient6257"
       gradientUnits="userSpaceOnUse"
       gradientTransform="matrix(23.169932,0,0,7.6402677,-198.71238,8.843597)"
       cx="10.28125"
       cy="9.8424416"
       fx="10.28125"
       fy="9.8424416"
       r="4.5250292" />
    <linearGradient
       inkscape:collect="always"
       xlink:href="#linearGradient7101-4-9-4-1"
       id="linearGradient6259"
       gradientUnits="userSpaceOnUse"
       x1="24.837126"
       y1="44.528019"
       x2="21.036427"
       y2="21.041553" />
    <linearGradient
       inkscape:collect="always"
       xlink:href="#linearGradient6979-9-2-2-8"
       id="linearGradient6261"
       gradientUnits="userSpaceOnUse"
       x1="39.06765"
       y1="28.5"
       x2="39.421204"
       y2="10.934953" />
    <radialGradient
       inkscape:collect="always"
       xlink:href="#linearGradient3374-5-7-7-0"
       id="radialGradient6263"
       gradientUnits="userSpaceOnUse"
       gradientTransform="matrix(2.2651111,0,0,2.2923498,16.215361,52.593597)"
       cx="10.28125"
       cy="7.8249326"
       fx="10.28125"
       fy="7.8249326"
       r="4.5250292" />
    <radialGradient
       inkscape:collect="always"
       xlink:href="#linearGradient3362-8-6-0-9"
       id="radialGradient6265"
       gradientUnits="userSpaceOnUse"
       gradientTransform="matrix(15.1803,0,0,5.0647752,-116.56897,28.614297)"
       cx="10.28125"
       cy="9.8424416"
       fx="10.28125"
       fy="9.8424416"
       r="4.5250292" />
    <radialGradient
       inkscape:collect="always"
       xlink:href="#linearGradient7131-6-1-5-7"
       id="radialGradient6267"
       gradientUnits="userSpaceOnUse"
       gradientTransform="matrix(0.7375073,0,0,0.7201806,2.4345312,0.6617371)"
       cx="8.9057236"
       cy="1.7286602"
       fx="8.9057236"
       fy="1.7286602"
       r="1.9952321" />
    <radialGradient
       inkscape:collect="always"
       xlink:href="#linearGradient7153-0-1-9-75"
       id="radialGradient6269"
       gradientUnits="userSpaceOnUse"
       gradientTransform="matrix(5.2943491,0,0,5.2881329,-7.02204,58.291497)"
       cx="8.3046875"
       cy="1.1256332"
       fx="8.3046875"
       fy="1.1256332"
       r="2.0507698" />
  </defs>
  <sodipodi:namedview
     id="base"
     pagecolor="#ffffff"
     bordercolor="#666666"
     borderopacity="1.0"
     inkscape:pageopacity="0.0"
     inkscape:pageshadow="2"
     inkscape:zoom="1"
     inkscape:cx="227.88076"
     inkscape:cy="61.083373"
     inkscape:document-units="px"
     inkscape:current-layer="layer1"
     showgrid="false"
     units="mm"
     inkscape:window-width="1438"
     inkscape:window-height="879"
     inkscape:window-x="0"
     inkscape:window-y="19"
     inkscape:window-maximized="0"
     fit-margin-top="0"
     fit-margin-left="0"
     fit-margin-right="0"
     fit-margin-bottom="0" />
  <metadata
     id="metadata7">
    <rdf:RDF>
      <cc:Work
         rdf:about="">
        <dc:format>image/svg+xml</dc:format>
        <dc:type
           rdf:resource="http://purl.org/dc/dcmitype/StillImage" />
        <dc:title />
      </cc:Work>
    </rdf:RDF>
  </metadata>
  <g
     inkscape:label="tasse"
     inkscape:groupmode="layer"
     id="layer1"
     transform="translate(-99.5625,-751.1875)"
     style="display:none">
    <rect
       style="fill:none;stroke:#000000;stroke-width:1"
       id="rect3004"
       width="689.94489"
       height="300.18109"
       x="100.06693"
       y="751.68109"
       rx="0"
       ry="0" />
    <text
       xml:space="preserve"
       style="font-size:20px;font-style:normal;font-weight:normal;line-height:125%;letter-spacing:0px;word-spacing:0px;fill:#000000;fill-opacity:1;stroke:none;font-family:Sans"
       x="52.095394"
       y="661.93823"
       id="text3993"
       sodipodi:linespacing="125%"><tspan
         sodipodi:role="line"
         id="tspan3995"
         x="52.095394"
         y="661.93823"
         style="text-align:center;text-anchor:middle">handle</tspan></text>
    <path
       style="fill:none;stroke:#000000;stroke-width:1px;stroke-linecap:butt;stroke-linejoin:miter;stroke-opacity:1;marker-end:url(#Arrow2Lend)"
       d="m 53.538085,668.76437 0,71.72083"
       id="path3997"
       inkscape:connector-curvature="0"
       sodipodi:nodetypes="cc" />
    <path
       style="fill:none;stroke:#000000;stroke-width:1px;stroke-linecap:butt;stroke-linejoin:miter;stroke-opacity:1;marker-end:url(#Arrow2Lend)"
       d="M 94.752309,-95.505813 837.21443,-7.1174654"
       id="path4001"
       inkscape:connector-curvature="0"
       transform="translate(0,751.18109)"
       sodipodi:nodetypes="cc" />
    <text
       xml:space="preserve"
       style="font-size:13px;font-style:normal;font-weight:normal;text-align:center;line-height:125%;letter-spacing:0px;word-spacing:0px;text-anchor:middle;fill:#000000;fill-opacity:1;stroke:none;font-family:Sans"
       x="136.35913"
       y="1094.3622"
       id="text5581"
       sodipodi:linespacing="125%"><tspan
         sodipodi:role="line"
         id="tspan5583"
         x="136.35913"
         y="1094.3622">printing</tspan><tspan
         sodipodi:role="line"
         x="136.35913"
         y="1110.6122"
         id="tspan5585">area</tspan></text>
    <path
       style="fill:none;stroke:#000000;stroke-width:1px;stroke-linecap:butt;stroke-linejoin:miter;stroke-opacity:1;marker-end:url(#Arrow2Lend)"
       d="m 137,327.18109 0,-26"
       id="path5587"
       inkscape:connector-curvature="0"
       transform="translate(0,751.18109)" />
    <path
       style="fill:none;stroke:#000000;stroke-width:1px;stroke-linecap:butt;stroke-linejoin:miter;stroke-opacity:1;marker-start:none;marker-end:url(#Arrow2Lend)"
       d="m 445.05698,1073.2764 0,-19.5"
       id="path5773"
       inkscape:connector-curvature="0" />
    <text
       sodipodi:linespacing="125%"
       id="text6143"
       y="1094.3622"
       x="445.70203"
       style="font-size:13px;font-style:normal;font-weight:normal;text-align:center;line-height:125%;letter-spacing:0px;word-spacing:0px;text-anchor:middle;fill:#000000;fill-opacity:1;stroke:none;font-family:Sans"
       xml:space="preserve"><tspan
         id="tspan6147"
         y="1094.3622"
         x="445.70203"
         sodipodi:role="line">anti-handle</tspan></text>
    <rect
       style="fill:none;stroke:#000000;stroke-width:1;stroke-linecap:round;stroke-linejoin:round;stroke-miterlimit:4;stroke-opacity:1;stroke-dasharray:none;display:inline"
       id="rect3991"
       width="198.13385"
       height="300.18109"
       x="345.97244"
       y="0.5"
       transform="translate(0,751.18109)" />
    <rect
       ry="0"
       rx="0"
       y="751.68109"
       x="0.5"
       height="300.18109"
       width="889.07874"
       id="rect3112"
       style="fill:none;stroke:#000000;stroke-width:1" />
  </g>
  <g
     inkscape:groupmode="layer"
     id="layer2"
     inkscape:label="logo"
     style="display:inline"
     transform="translate(-99.5625,-0.00641)">
    <g
       style="display:inline"
       id="g3732"
       transform="matrix(3.698426,0,0,3.698426,47.019335,-133.88131)">
      <path
         inkscape:connector-curvature="0"
         d="m 60.69548,67.493897 c 0,11.5675 -9.48796,20.9448 -21.19195,20.9448 -11.703989,0 -21.191949,-9.3773 -21.191949,-20.9448 0,-11.5674 9.48796,-20.9447 21.191949,-20.9447 11.70399,0 21.19195,9.3773 21.19195,20.9447 z"
         id="path3544"
         style="font-size:40px;font-style:normal;font-variant:normal;font-weight:normal;font-stretch:normal;opacity:0.8;fill:url(#radialGradient3909);fill-opacity:1;stroke:url(#radialGradient3911);stroke-width:1.69368279;stroke-linecap:round;stroke-linejoin:round;stroke-miterlimit:4;stroke-opacity:1;stroke-dashoffset:0;display:inline;font-family:Yanone Kaffeesatz;-inkscape-font-specification:Yanone Kaffeesatz" />
      <g
         transform="matrix(1.4615138,0,0,2.5218672,4.4272,31.547917)"
         id="g3546"
         style="font-size:40px;font-style:normal;font-variant:normal;font-weight:normal;font-stretch:normal;fill:#000000;fill-opacity:1;stroke:none;display:inline;font-family:Yanone Kaffeesatz;-inkscape-font-specification:Yanone Kaffeesatz">
        <path
           inkscape:connector-curvature="0"
           d="m 24,13 -8.1875,15.225744 c 11.445471,0 5.976697,0 16.34375,0 z m 0,4.96875 4,7.421875 -7.953125,0 z"
           id="path3548"
           style="fill:url(#linearGradient3913);fill-opacity:1;fill-rule:evenodd;stroke:url(#linearGradient3915);stroke-width:1.15885508px;stroke-linecap:butt;stroke-linejoin:miter;stroke-opacity:1" />
        <path
           inkscape:connector-curvature="0"
           d="M 26.355979,42.522608 20,21.277828 13.644021,42.522609"
           transform="matrix(1,0,0,0.57953638,4,2.7937247)"
           id="path3550"
           style="fill:none;stroke:#ffffff;stroke-width:1.52225983px;stroke-linecap:round;stroke-linejoin:miter;stroke-opacity:1" />
      </g>
      <path
         inkscape:connector-curvature="0"
         d="m 53.38791,67.493897 c 0,7.6681 -6.21625,13.8844 -13.88438,13.8844 -7.66813,0 -13.884379,-6.2163 -13.884379,-13.8844 0,-7.6681 6.216249,-13.8844 13.884379,-13.8844 7.66813,0 13.88438,6.2163 13.88438,13.8844 z"
         id="path3552"
         style="font-size:40px;font-style:normal;font-variant:normal;font-weight:normal;font-stretch:normal;fill:url(#radialGradient3917);fill-opacity:1;stroke:url(#radialGradient3919);stroke-width:1.69368279;stroke-linecap:round;stroke-linejoin:round;stroke-miterlimit:4;stroke-opacity:1;stroke-dashoffset:0;display:inline;font-family:Yanone Kaffeesatz;-inkscape-font-specification:Yanone Kaffeesatz" />
      <g
         transform="matrix(3.2735609,0,0,3.2593101,-24.33091,59.292917)"
         id="g3554"
         style="font-size:40px;font-style:normal;font-variant:normal;font-weight:normal;font-stretch:normal;fill:#000000;fill-opacity:1;stroke:none;display:inline;font-family:Yanone Kaffeesatz;-inkscape-font-specification:Yanone Kaffeesatz">
        <path
           inkscape:connector-curvature="0"
           d="M 11,2.25 C 11,3.2164983 10.195512,4 9.203125,4 8.2107383,4 7.40625,3.2164983 7.40625,2.25 7.40625,1.2835017 8.2107383,0.5 9.203125,0.5 10.195512,0.5 11,1.2835017 11,2.25 z"
           transform="matrix(1.1130433,0,0,1.1428572,9.2565233,-0.07142864)"
           id="path3556"
           style="fill:url(#radialGradient3921);fill-opacity:1;stroke:#555753;stroke-width:0.45973435;stroke-linecap:round;stroke-linejoin:round;stroke-miterlimit:4;stroke-opacity:1;stroke-dashoffset:0" />
        <path
           inkscape:connector-curvature="0"
           d="M 20,1.5 C 20,1.7761424 19.776142,2 19.5,2 19.223858,2 19,1.7761424 19,1.5 19,1.2238576 19.223858,1 19.5,1 19.776142,1 20,1.2238576 20,1.5 z"
           transform="matrix(1.8125,0,0,1.8125,-16.465404,-0.9288198)"
           id="path3558"
           style="fill:#ffffff;fill-opacity:1;stroke:none" />
      </g>
      <path
         inkscape:connector-curvature="0"
         d="m 44.61882,67.441097 c 0,2.8124 -2.2902,5.0924 -5.1153,5.0924 -2.8251,0 -5.1153,-2.28 -5.1153,-5.0924 0,-2.8125 2.2902,-5.0924 5.1153,-5.0924 2.8251,0 5.1153,2.2799 5.1153,5.0924 z"
         id="path3560"
         style="font-size:40px;font-style:normal;font-variant:normal;font-weight:normal;font-stretch:normal;fill:none;stroke:url(#radialGradient3923);stroke-width:1.69368255;stroke-linecap:round;stroke-linejoin:round;stroke-miterlimit:4;stroke-opacity:1;stroke-dashoffset:0;display:inline;font-family:Yanone Kaffeesatz;-inkscape-font-specification:Yanone Kaffeesatz" />
    </g>
    <g
       id="g3894"
       transform="matrix(0,-1.1646791,1.1646791,0,404.57144,500.77245)">
      <g
         id="text3743-7"
         style="font-size:64px;font-style:normal;font-weight:normal;line-height:125%;letter-spacing:0.14px;word-spacing:0px;fill:#a00000;fill-opacity:1;stroke:none;display:inline;font-family:Sans"
         transform="translate(152.68332,-163.49171)">
        <path
           inkscape:connector-curvature="0"
           id="path3925"
           style="font-variant:normal;font-stretch:normal;fill:#a00000;font-family:Yanone Kaffeesatz;-inkscape-font-specification:Yanone Kaffeesatz"
           d="m 62.969342,85.56459 c 0,14.399986 3.456007,16.64 10.048,16.64 6.847993,0 10.496,-4.928011 10.496,-16.832 0,-12.991987 -3.200007,-16.448 -9.92,-16.448 -6.719993,0 -10.624,4.928012 -10.624,16.64 m 5.632,0.128 c 0,-9.98399 1.984003,-12.224 4.8,-12.224 3.007997,0 4.48,1.792011 4.48,11.968 0,9.98399 -1.984003,12.352 -4.736,12.352 -2.943997,0 -4.544,-1.53601 -4.544,-12.096" />
        <path
           inkscape:connector-curvature="0"
           id="path3927"
           style="font-variant:normal;font-stretch:normal;fill:#a00000;font-family:Yanone Kaffeesatz;-inkscape-font-specification:Yanone Kaffeesatz"
           d="m 97.489341,68.92459 c -7.167992,0 -10.432,3.072005 -10.432,7.552 0,2.111998 0.768003,4.416003 3.648,6.784 l 6.208,5.312 c 1.919998,1.727999 2.56,3.264002 2.56,4.992 0,2.559998 -1.920003,3.968 -5.184,3.968 -2.495997,0 -4.544001,-0.512001 -6.4,-1.6 -0.703999,1.151999 -0.896,2.240001 -0.896,3.008 0,2.24 3.264005,3.264 7.808,3.264 6.527989,0 10.559999,-3.200005 10.559999,-8.896 0,-3.199996 -1.024,-5.312002 -3.776,-8 l -5.951999,-4.8 c -2.175997,-1.791998 -2.56,-2.816001 -2.56,-3.968 0,-1.983998 2.048003,-3.072 5.056,-3.072 2.431999,0 4.351999,0.512002 6.271999,1.664 0.704,-0.767999 1.152,-1.792 1.152,-2.624 0,-1.279998 -1.47201,-3.584 -8.063999,-3.584" />
      </g>
      <g
         id="text3760-2"
         style="font-size:40px;font-style:normal;font-weight:normal;line-height:125%;letter-spacing:0px;word-spacing:0px;fill:#a00000;fill-opacity:1;stroke:none;display:inline;font-family:Sans"
         transform="translate(152.68332,-163.49171)">
        <path
           inkscape:connector-curvature="0"
           id="path3930"
           style="font-size:64px;font-variant:normal;font-stretch:normal;fill:#a00000;font-family:Yanone Kaffeesatz;-inkscape-font-specification:Yanone Kaffeesatz"
           d="m 148.61597,85.56459 c 0,14.399986 3.45601,16.64 10.048,16.64 6.84799,0 10.496,-4.928011 10.496,-16.832 0,-12.991987 -3.20001,-16.448 -9.92,-16.448 -6.71999,0 -10.624,4.928012 -10.624,16.64 m 5.632,0.128 c 0,-9.98399 1.984,-12.224 4.8,-12.224 3.008,0 4.48,1.792011 4.48,11.968 0,9.98399 -1.984,12.352 -4.736,12.352 -2.944,0 -4.544,-1.53601 -4.544,-12.096" />
        <path
           inkscape:connector-curvature="0"
           id="path3932"
           style="font-size:64px;font-variant:normal;font-stretch:normal;fill:#a00000;font-family:Yanone Kaffeesatz;-inkscape-font-specification:Yanone Kaffeesatz"
           d="m 189.39597,71.80459 c 0,-1.663998 -2.368,-2.88 -5.312,-2.88 -5.31199,0 -11.52,1.984016 -11.52,17.344 0,13.503987 3.45601,15.936 9.536,15.936 4.224,0 7.168,-1.536 7.168,-3.264 0,-0.831999 -0.192,-1.664001 -0.512,-2.816 -1.088,0.704 -3.008,1.472 -5.056,1.472 -3.90399,0 -5.696,-2.304009 -5.696,-11.328 0,-11.391988 3.328,-12.736 6.336,-12.736 1.728,0 3.456,0.576001 4.48,1.152 0.448,-1.087998 0.576,-2.176 0.576,-2.88" />
        <path
           inkscape:connector-curvature="0"
           id="path3934"
           style="font-size:64px;font-variant:normal;font-stretch:normal;fill:#a00000;font-family:Yanone Kaffeesatz;-inkscape-font-specification:Yanone Kaffeesatz"
           d="m 191.36597,85.56459 c 0,14.399986 3.45601,16.64 10.048,16.64 6.84799,0 10.496,-4.928011 10.496,-16.832 0,-12.991987 -3.20001,-16.448 -9.92,-16.448 -6.71999,0 -10.624,4.928012 -10.624,16.64 m 5.632,0.128 c 0,-9.98399 1.984,-12.224 4.8,-12.224 3.008,0 4.48,1.792011 4.48,11.968 0,9.98399 -1.984,12.352 -4.736,12.352 -2.944,0 -4.544,-1.53601 -4.544,-12.096" />
        <path
           inkscape:connector-curvature="0"
           id="path3936"
           style="font-size:64px;font-variant:normal;font-stretch:normal;fill:#a00000;font-family:Yanone Kaffeesatz;-inkscape-font-specification:Yanone Kaffeesatz"
           d="m 228.94597,101.56459 c 5.248,0 5.184,0 5.184,-1.024 l 0,-25.792 c 1.408,-0.895999 2.816,-1.216 4.288,-1.216 2.56,0 3.136,1.280004 3.136,4.352 l 0,23.68 c 4.992,0 5.184,0 5.184,-1.024 l 0,-22.592 c 0,-5.759994 -0.76801,-9.024 -7.168,-9.024 -2.624,0 -5.696,0.768002 -7.872,1.984 -1.216,-1.279998 -3.008,-1.984 -5.76,-1.984 -3.52,0 -6.848,0.832002 -9.664,2.112 l 0,30.528 c 4.992,0 5.184,0 5.184,-1.024 l 0,-25.984 c 1.472,-0.767999 2.944,-1.088 4.352,-1.088 2.56,0 3.072,0.896003 3.136,3.2 l 0,24.896" />
      </g>
      <path
         inkscape:connector-curvature="0"
         style="font-size:64px;font-style:normal;font-variant:normal;font-weight:normal;font-stretch:normal;writing-mode:lr-tb;fill:#a00000;fill-opacity:1;stroke:#a00000;stroke-width:1.15885508;stroke-opacity:1;display:inline;font-family:Yanone Kaffeesatz;-inkscape-font-specification:Andale Mono"
         id="path3959-9-26-3"
         d="m 278.15768,-63.25918 c 1.7756,-0.5051 3.37825,0.3883 3.38562,-0.1714 l 0.31567,-23.9611 c 1.408,-0.896 3.51048,-2.0368 4.98248,-2.0368 2.56,0 3.08297,1.2805 3.13598,4.352 l 0.38444,22.2766 c 1.20393,-0.1894 2.91326,0.6074 2.92901,-0.1932 l 0.44194,-22.4658 c 0.11329,-5.7589 0.66057,-8.5776 -5.73941,-8.5776 -2.624,0 -5.696,0.768 -7.872,1.984 -1.216,-1.2799 -3.008,-1.984 -5.76,-1.984 -3.51999,0 -5.64844,-0.7463 -8.46444,0.5337 l 0.66501,30.311 c 1.89839,-1.3259 2.59641,0.7217 2.62495,-0.3019 l 0.69448,-24.9108 c 1.472,-0.768 2.944,-1.088 4.352,-1.088 2.56,0 3.57708,0.896 3.64108,3.2 z" />
      <path
         inkscape:connector-curvature="0"
         style="font-size:40px;font-style:normal;font-variant:normal;font-weight:normal;font-stretch:normal;fill:#ffffff;fill-opacity:1;stroke:#e19c9c;stroke-width:5.79427576;stroke-linecap:round;stroke-linejoin:round;stroke-miterlimit:4;stroke-opacity:1;stroke-dashoffset:0;display:inline;font-family:Yanone Kaffeesatz;-inkscape-font-specification:Yanone Kaffeesatz"
         id="path3981-0-4-1"
         d="m 267.95505,-86.65379 -4.50687,-7.7536 -4.50687,-7.7537 9.01374,0 9.01373,0 -4.50686,7.7537 -4.50687,7.7536 z" />
      <path
         inkscape:connector-curvature="0"
         style="font-size:40px;font-style:normal;font-variant:normal;font-weight:normal;font-stretch:normal;fill:none;stroke:#e19c9c;stroke-width:5.8198266;stroke-linecap:round;stroke-linejoin:round;stroke-miterlimit:4;stroke-opacity:1;stroke-dasharray:none;display:inline;font-family:Yanone Kaffeesatz;-inkscape-font-specification:Yanone Kaffeesatz"
         id="path3983-4-9-2"
         d="m 291.80536,-63.80249 0,-27.7235" />
      <path
         inkscape:connector-curvature="0"
         style="font-size:40px;font-style:normal;font-variant:normal;font-weight:normal;font-stretch:normal;fill:none;stroke:#e19c9c;stroke-width:5.79427576;stroke-linecap:round;stroke-linejoin:round;stroke-miterlimit:4;stroke-opacity:1;stroke-dasharray:none;display:inline;font-family:Yanone Kaffeesatz;-inkscape-font-specification:Yanone Kaffeesatz"
         id="path3985-4-0-9"
         d="m 279.83004,-63.81419 0,-19.8215" />
      <path
         inkscape:connector-curvature="0"
         style="font-size:40px;font-style:normal;font-variant:normal;font-weight:normal;font-stretch:normal;fill:none;stroke:#e19c9c;stroke-width:5.41087675;stroke-linecap:round;stroke-linejoin:round;stroke-miterlimit:4;stroke-opacity:1;stroke-dasharray:none;display:inline;font-family:Yanone Kaffeesatz;-inkscape-font-specification:Yanone Kaffeesatz"
         id="path3951-0-4-91-2"
         d="m 267.95441,-63.64049 -0.008,-11.7527" />
    </g>
    <text
       xml:space="preserve"
       style="font-size:20.31594658px;font-style:normal;font-variant:normal;font-weight:normal;font-stretch:normal;line-height:125%;letter-spacing:0px;word-spacing:0px;fill:#a00000;fill-opacity:1;stroke:none;font-family:Yanone Kaffeesatz;-inkscape-font-specification:Yanone Kaffeesatz"
       x="119.24603"
       y="288.22876"
       id="text6152"
       sodipodi:linespacing="125%"><tspan
         sodipodi:role="line"
         id="tspan6154"
         x="119.24603"
         y="288.22876">Open Source MObile COMmunication</tspan></text>
    <g
       transform="matrix(3.698426,0,0,3.698426,493.91082,-133.88131)"
       id="g6203"
       style="display:inline">
      <path
         style="font-size:40px;font-style:normal;font-variant:normal;font-weight:normal;font-stretch:normal;opacity:0.8;fill:url(#radialGradient6255);fill-opacity:1;stroke:url(#radialGradient6257);stroke-width:1.69368279;stroke-linecap:round;stroke-linejoin:round;stroke-miterlimit:4;stroke-opacity:1;stroke-dashoffset:0;display:inline;font-family:Yanone Kaffeesatz;-inkscape-font-specification:Yanone Kaffeesatz"
         id="path6205"
         d="m 60.69548,67.493897 c 0,11.5675 -9.48796,20.9448 -21.19195,20.9448 -11.703989,0 -21.191949,-9.3773 -21.191949,-20.9448 0,-11.5674 9.48796,-20.9447 21.191949,-20.9447 11.70399,0 21.19195,9.3773 21.19195,20.9447 z"
         inkscape:connector-curvature="0" />
      <g
         style="font-size:40px;font-style:normal;font-variant:normal;font-weight:normal;font-stretch:normal;fill:#000000;fill-opacity:1;stroke:none;display:inline;font-family:Yanone Kaffeesatz;-inkscape-font-specification:Yanone Kaffeesatz"
         id="g6207"
         transform="matrix(1.4615138,0,0,2.5218672,4.4272,31.547917)">
        <path
           style="fill:url(#linearGradient6259);fill-opacity:1;fill-rule:evenodd;stroke:url(#linearGradient6261);stroke-width:1.15885508px;stroke-linecap:butt;stroke-linejoin:miter;stroke-opacity:1"
           id="path6209"
           d="m 24,13 -8.1875,15.225744 c 11.445471,0 5.976697,0 16.34375,0 z m 0,4.96875 4,7.421875 -7.953125,0 z"
           inkscape:connector-curvature="0" />
        <path
           style="fill:none;stroke:#ffffff;stroke-width:1.52225983px;stroke-linecap:round;stroke-linejoin:miter;stroke-opacity:1"
           id="path6211"
           transform="matrix(1,0,0,0.57953638,4,2.7937247)"
           d="M 26.355979,42.522608 20,21.277828 13.644021,42.522609"
           inkscape:connector-curvature="0" />
      </g>
      <path
         style="font-size:40px;font-style:normal;font-variant:normal;font-weight:normal;font-stretch:normal;fill:url(#radialGradient6263);fill-opacity:1;stroke:url(#radialGradient6265);stroke-width:1.69368279;stroke-linecap:round;stroke-linejoin:round;stroke-miterlimit:4;stroke-opacity:1;stroke-dashoffset:0;display:inline;font-family:Yanone Kaffeesatz;-inkscape-font-specification:Yanone Kaffeesatz"
         id="path6213"
         d="m 53.38791,67.493897 c 0,7.6681 -6.21625,13.8844 -13.88438,13.8844 -7.66813,0 -13.884379,-6.2163 -13.884379,-13.8844 0,-7.6681 6.216249,-13.8844 13.884379,-13.8844 7.66813,0 13.88438,6.2163 13.88438,13.8844 z"
         inkscape:connector-curvature="0" />
      <g
         style="font-size:40px;font-style:normal;font-variant:normal;font-weight:normal;font-stretch:normal;fill:#000000;fill-opacity:1;stroke:none;display:inline;font-family:Yanone Kaffeesatz;-inkscape-font-specification:Yanone Kaffeesatz"
         id="g6215"
         transform="matrix(3.2735609,0,0,3.2593101,-24.33091,59.292917)">
        <path
           style="fill:url(#radialGradient6267);fill-opacity:1;stroke:#555753;stroke-width:0.45973435;stroke-linecap:round;stroke-linejoin:round;stroke-miterlimit:4;stroke-opacity:1;stroke-dashoffset:0"
           id="path6217"
           transform="matrix(1.1130433,0,0,1.1428572,9.2565233,-0.07142864)"
           d="M 11,2.25 C 11,3.2164983 10.195512,4 9.203125,4 8.2107383,4 7.40625,3.2164983 7.40625,2.25 7.40625,1.2835017 8.2107383,0.5 9.203125,0.5 10.195512,0.5 11,1.2835017 11,2.25 z"
           inkscape:connector-curvature="0" />
        <path
           style="fill:#ffffff;fill-opacity:1;stroke:none"
           id="path6219"
           transform="matrix(1.8125,0,0,1.8125,-16.465404,-0.9288198)"
           d="M 20,1.5 C 20,1.7761424 19.776142,2 19.5,2 19.223858,2 19,1.7761424 19,1.5 19,1.2238576 19.223858,1 19.5,1 19.776142,1 20,1.2238576 20,1.5 z"
           inkscape:connector-curvature="0" />
      </g>
      <path
         style="font-size:40px;font-style:normal;font-variant:normal;font-weight:normal;font-stretch:normal;fill:none;stroke:url(#radialGradient6269);stroke-width:1.69368255;stroke-linecap:round;stroke-linejoin:round;stroke-miterlimit:4;stroke-opacity:1;stroke-dashoffset:0;display:inline;font-family:Yanone Kaffeesatz;-inkscape-font-specification:Yanone Kaffeesatz"
         id="path6221"
         d="m 44.61882,67.441097 c 0,2.8124 -2.2902,5.0924 -5.1153,5.0924 -2.8251,0 -5.1153,-2.28 -5.1153,-5.0924 0,-2.8125 2.2902,-5.0924 5.1153,-5.0924 2.8251,0 5.1153,2.2799 5.1153,5.0924 z"
         inkscape:connector-curvature="0" />
    </g>
    <g
       transform="matrix(0,-1.1646791,1.1646791,0,851.46293,500.77245)"
       id="g6223">
      <g
         transform="translate(152.68332,-163.49171)"
         style="font-size:64px;font-style:normal;font-weight:normal;line-height:125%;letter-spacing:0.14px;word-spacing:0px;fill:#a00000;fill-opacity:1;stroke:none;display:inline;font-family:Sans"
         id="g6225">
        <path
           d="m 62.969342,85.56459 c 0,14.399986 3.456007,16.64 10.048,16.64 6.847993,0 10.496,-4.928011 10.496,-16.832 0,-12.991987 -3.200007,-16.448 -9.92,-16.448 -6.719993,0 -10.624,4.928012 -10.624,16.64 m 5.632,0.128 c 0,-9.98399 1.984003,-12.224 4.8,-12.224 3.007997,0 4.48,1.792011 4.48,11.968 0,9.98399 -1.984003,12.352 -4.736,12.352 -2.943997,0 -4.544,-1.53601 -4.544,-12.096"
           style="font-variant:normal;font-stretch:normal;fill:#a00000;font-family:Yanone Kaffeesatz;-inkscape-font-specification:Yanone Kaffeesatz"
           id="path6227"
           inkscape:connector-curvature="0" />
        <path
           d="m 97.489341,68.92459 c -7.167992,0 -10.432,3.072005 -10.432,7.552 0,2.111998 0.768003,4.416003 3.648,6.784 l 6.208,5.312 c 1.919998,1.727999 2.56,3.264002 2.56,4.992 0,2.559998 -1.920003,3.968 -5.184,3.968 -2.495997,0 -4.544001,-0.512001 -6.4,-1.6 -0.703999,1.151999 -0.896,2.240001 -0.896,3.008 0,2.24 3.264005,3.264 7.808,3.264 6.527989,0 10.559999,-3.200005 10.559999,-8.896 0,-3.199996 -1.024,-5.312002 -3.776,-8 l -5.951999,-4.8 c -2.175997,-1.791998 -2.56,-2.816001 -2.56,-3.968 0,-1.983998 2.048003,-3.072 5.056,-3.072 2.431999,0 4.351999,0.512002 6.271999,1.664 0.704,-0.767999 1.152,-1.792 1.152,-2.624 0,-1.279998 -1.47201,-3.584 -8.063999,-3.584"
           style="font-variant:normal;font-stretch:normal;fill:#a00000;font-family:Yanone Kaffeesatz;-inkscape-font-specification:Yanone Kaffeesatz"
           id="path6229"
           inkscape:connector-curvature="0" />
      </g>
      <g
         transform="translate(152.68332,-163.49171)"
         style="font-size:40px;font-style:normal;font-weight:normal;line-height:125%;letter-spacing:0px;word-spacing:0px;fill:#a00000;fill-opacity:1;stroke:none;display:inline;font-family:Sans"
         id="g6231">
        <path
           d="m 148.61597,85.56459 c 0,14.399986 3.45601,16.64 10.048,16.64 6.84799,0 10.496,-4.928011 10.496,-16.832 0,-12.991987 -3.20001,-16.448 -9.92,-16.448 -6.71999,0 -10.624,4.928012 -10.624,16.64 m 5.632,0.128 c 0,-9.98399 1.984,-12.224 4.8,-12.224 3.008,0 4.48,1.792011 4.48,11.968 0,9.98399 -1.984,12.352 -4.736,12.352 -2.944,0 -4.544,-1.53601 -4.544,-12.096"
           style="font-size:64px;font-variant:normal;font-stretch:normal;fill:#a00000;font-family:Yanone Kaffeesatz;-inkscape-font-specification:Yanone Kaffeesatz"
           id="path6233"
           inkscape:connector-curvature="0" />
        <path
           d="m 189.39597,71.80459 c 0,-1.663998 -2.368,-2.88 -5.312,-2.88 -5.31199,0 -11.52,1.984016 -11.52,17.344 0,13.503987 3.45601,15.936 9.536,15.936 4.224,0 7.168,-1.536 7.168,-3.264 0,-0.831999 -0.192,-1.664001 -0.512,-2.816 -1.088,0.704 -3.008,1.472 -5.056,1.472 -3.90399,0 -5.696,-2.304009 -5.696,-11.328 0,-11.391988 3.328,-12.736 6.336,-12.736 1.728,0 3.456,0.576001 4.48,1.152 0.448,-1.087998 0.576,-2.176 0.576,-2.88"
           style="font-size:64px;font-variant:normal;font-stretch:normal;fill:#a00000;font-family:Yanone Kaffeesatz;-inkscape-font-specification:Yanone Kaffeesatz"
           id="path6235"
           inkscape:connector-curvature="0" />
        <path
           d="m 191.36597,85.56459 c 0,14.399986 3.45601,16.64 10.048,16.64 6.84799,0 10.496,-4.928011 10.496,-16.832 0,-12.991987 -3.20001,-16.448 -9.92,-16.448 -6.71999,0 -10.624,4.928012 -10.624,16.64 m 5.632,0.128 c 0,-9.98399 1.984,-12.224 4.8,-12.224 3.008,0 4.48,1.792011 4.48,11.968 0,9.98399 -1.984,12.352 -4.736,12.352 -2.944,0 -4.544,-1.53601 -4.544,-12.096"
           style="font-size:64px;font-variant:normal;font-stretch:normal;fill:#a00000;font-family:Yanone Kaffeesatz;-inkscape-font-specification:Yanone Kaffeesatz"
           id="path6237"
           inkscape:connector-curvature="0" />
        <path
           d="m 228.94597,101.56459 c 5.248,0 5.184,0 5.184,-1.024 l 0,-25.792 c 1.408,-0.895999 2.816,-1.216 4.288,-1.216 2.56,0 3.136,1.280004 3.136,4.352 l 0,23.68 c 4.992,0 5.184,0 5.184,-1.024 l 0,-22.592 c 0,-5.759994 -0.76801,-9.024 -7.168,-9.024 -2.624,0 -5.696,0.768002 -7.872,1.984 -1.216,-1.279998 -3.008,-1.984 -5.76,-1.984 -3.52,0 -6.848,0.832002 -9.664,2.112 l 0,30.528 c 4.992,0 5.184,0 5.184,-1.024 l 0,-25.984 c 1.472,-0.767999 2.944,-1.088 4.352,-1.088 2.56,0 3.072,0.896003 3.136,3.2 l 0,24.896"
           style="font-size:64px;font-variant:normal;font-stretch:normal;fill:#a00000;font-family:Yanone Kaffeesatz;-inkscape-font-specification:Yanone Kaffeesatz"
           id="path6239"
           inkscape:connector-curvature="0" />
      </g>
      <path
         d="m 278.15768,-63.25918 c 1.7756,-0.5051 3.37825,0.3883 3.38562,-0.1714 l 0.31567,-23.9611 c 1.408,-0.896 3.51048,-2.0368 4.98248,-2.0368 2.56,0 3.08297,1.2805 3.13598,4.352 l 0.38444,22.2766 c 1.20393,-0.1894 2.91326,0.6074 2.92901,-0.1932 l 0.44194,-22.4658 c 0.11329,-5.7589 0.66057,-8.5776 -5.73941,-8.5776 -2.624,0 -5.696,0.768 -7.872,1.984 -1.216,-1.2799 -3.008,-1.984 -5.76,-1.984 -3.51999,0 -5.64844,-0.7463 -8.46444,0.5337 l 0.66501,30.311 c 1.89839,-1.3259 2.59641,0.7217 2.62495,-0.3019 l 0.69448,-24.9108 c 1.472,-0.768 2.944,-1.088 4.352,-1.088 2.56,0 3.57708,0.896 3.64108,3.2 z"
         id="path6241"
         style="font-size:64px;font-style:normal;font-variant:normal;font-weight:normal;font-stretch:normal;writing-mode:lr-tb;fill:#a00000;fill-opacity:1;stroke:#a00000;stroke-width:1.15885508;stroke-opacity:1;display:inline;font-family:Yanone Kaffeesatz;-inkscape-font-specification:Andale Mono"
         inkscape:connector-curvature="0" />
      <path
         d="m 267.95505,-86.65379 -4.50687,-7.7536 -4.50687,-7.7537 9.01374,0 9.01373,0 -4.50686,7.7537 -4.50687,7.7536 z"
         id="path6243"
         style="font-size:40px;font-style:normal;font-variant:normal;font-weight:normal;font-stretch:normal;fill:#ffffff;fill-opacity:1;stroke:#e19c9c;stroke-width:5.79427576;stroke-linecap:round;stroke-linejoin:round;stroke-miterlimit:4;stroke-opacity:1;stroke-dashoffset:0;display:inline;font-family:Yanone Kaffeesatz;-inkscape-font-specification:Yanone Kaffeesatz"
         inkscape:connector-curvature="0" />
      <path
         d="m 291.80536,-63.80249 0,-27.7235"
         id="path6245"
         style="font-size:40px;font-style:normal;font-variant:normal;font-weight:normal;font-stretch:normal;fill:none;stroke:#e19c9c;stroke-width:5.8198266;stroke-linecap:round;stroke-linejoin:round;stroke-miterlimit:4;stroke-opacity:1;stroke-dasharray:none;display:inline;font-family:Yanone Kaffeesatz;-inkscape-font-specification:Yanone Kaffeesatz"
         inkscape:connector-curvature="0" />
      <path
         d="m 279.83004,-63.81419 0,-19.8215"
         id="path6247"
         style="font-size:40px;font-style:normal;font-variant:normal;font-weight:normal;font-stretch:normal;fill:none;stroke:#e19c9c;stroke-width:5.79427576;stroke-linecap:round;stroke-linejoin:round;stroke-miterlimit:4;stroke-opacity:1;stroke-dasharray:none;display:inline;font-family:Yanone Kaffeesatz;-inkscape-font-specification:Yanone Kaffeesatz"
         inkscape:connector-curvature="0" />
      <path
         d="m 267.95441,-63.64049 -0.008,-11.7527"
         id="path6249"
         style="font-size:40px;font-style:normal;font-variant:normal;font-weight:normal;font-stretch:normal;fill:none;stroke:#e19c9c;stroke-width:5.41087675;stroke-linecap:round;stroke-linejoin:round;stroke-miterlimit:4;stroke-opacity:1;stroke-dasharray:none;display:inline;font-family:Yanone Kaffeesatz;-inkscape-font-specification:Yanone Kaffeesatz"
         inkscape:connector-curvature="0" />
    </g>
    <text
       sodipodi:linespacing="125%"
       id="text6251"
       y="288.22876"
       x="566.13751"
       style="font-size:20.31594658px;font-style:normal;font-variant:normal;font-weight:normal;font-stretch:normal;line-height:125%;letter-spacing:0px;word-spacing:0px;fill:#a00000;fill-opacity:1;stroke:none;font-family:Yanone Kaffeesatz;-inkscape-font-specification:Yanone Kaffeesatz"
       xml:space="preserve"><tspan
         y="288.22876"
         x="566.13751"
         id="tspan6253"
         sodipodi:role="line">Open Source MObile COMmunication</tspan></text>
  </g>
  <g
     inkscape:groupmode="layer"
     id="layer3"
     inkscape:label="measure"
     style="display:none"
     transform="translate(-99.5625,-0.00641)">
    <text
       xml:space="preserve"
       style="font-size:16px;font-style:normal;font-variant:normal;font-weight:normal;font-stretch:normal;line-height:125%;letter-spacing:0px;word-spacing:0px;fill:#000000;fill-opacity:1;stroke:none;display:inline;font-family:Yanone Kaffeesatz;-inkscape-font-specification:Yanone Kaffeesatz"
       x="481.81506"
       y="197.7187"
       id="text6175"
       sodipodi:linespacing="125%"><tspan
         sodipodi:role="line"
         id="tspan6177"
         x="481.81506"
         y="197.7187">baseband</tspan></text>
    <text
       xml:space="preserve"
       style="font-size:16px;font-style:normal;font-variant:normal;font-weight:normal;font-stretch:normal;line-height:125%;letter-spacing:0px;word-spacing:0px;fill:#000000;fill-opacity:1;stroke:none;display:inline;font-family:Yanone Kaffeesatz;-inkscape-font-specification:Yanone Kaffeesatz"
       x="482.08707"
       y="34.579544"
       id="text6179"
       sodipodi:linespacing="125%"><tspan
         sodipodi:role="line"
         id="tspan6181"
         x="482.08707"
         y="34.579544">base</tspan><tspan
         sodipodi:role="line"
         x="482.08707"
         y="54.579544"
         id="tspan6191">station</tspan></text>
    <text
       xml:space="preserve"
       style="font-size:16px;font-style:normal;font-variant:normal;font-weight:normal;font-stretch:normal;line-height:125%;letter-spacing:0px;word-spacing:0px;fill:#000000;fill-opacity:1;stroke:none;display:inline;font-family:Yanone Kaffeesatz;-inkscape-font-specification:Yanone Kaffeesatz"
       x="482.16708"
       y="120.94913"
       id="text6183"
       sodipodi:linespacing="125%"><tspan
         sodipodi:role="line"
         id="tspan6185"
         x="482.16708"
         y="120.94913">SIM</tspan></text>
    <text
       xml:space="preserve"
       style="font-size:16px;font-style:normal;font-variant:normal;font-weight:normal;font-stretch:normal;line-height:125%;letter-spacing:0px;word-spacing:0px;fill:#000000;fill-opacity:1;stroke:none;display:inline;font-family:Yanone Kaffeesatz;-inkscape-font-specification:Yanone Kaffeesatz"
       x="482.07108"
       y="262.48828"
       id="text6187"
       sodipodi:linespacing="125%"><tspan
         sodipodi:role="line"
         id="tspan6189"
         x="482.07108"
         y="262.48828">core</tspan><tspan
         sodipodi:role="line"
         x="482.07108"
         y="282.48828"
         id="tspan6193">network</tspan></text>
    <path
       style="fill:none;stroke:#000000;stroke-width:1px;stroke-linecap:round;stroke-linejoin:round;stroke-opacity:1;display:inline"
       d="m 433.72566,38.779544 22.62742,0 -20.50609,0"
       id="path6195"
       inkscape:connector-curvature="0" />
    <path
       inkscape:connector-curvature="0"
       id="path6197"
       d="m 433.72566,115.34913 22.62742,0 -20.50609,0"
       style="fill:none;stroke:#000000;stroke-width:1px;stroke-linecap:round;stroke-linejoin:round;stroke-opacity:1;display:inline" />
    <path
       style="fill:none;stroke:#000000;stroke-width:1px;stroke-linecap:round;stroke-linejoin:round;stroke-opacity:1;display:inline"
       d="m 433.72566,268.48828 22.62742,0 -20.50609,0"
       id="path6199"
       inkscape:connector-curvature="0" />
    <path
       inkscape:connector-curvature="0"
       id="path6201"
       d="m 433.72566,191.9187 22.62742,0 -20.50609,0"
       style="fill:none;stroke:#000000;stroke-width:1px;stroke-linecap:round;stroke-linejoin:round;stroke-opacity:1;display:inline" />
  </g>
</svg>
