<?xml version="1.0" encoding="UTF-8" standalone="no"?>
<!-- Created with Inkscape (http://www.inkscape.org/) -->

<svg
   xmlns:dc="http://purl.org/dc/elements/1.1/"
   xmlns:cc="http://creativecommons.org/ns#"
   xmlns:rdf="http://www.w3.org/1999/02/22-rdf-syntax-ns#"
   xmlns:svg="http://www.w3.org/2000/svg"
   xmlns="http://www.w3.org/2000/svg"
   xmlns:xlink="http://www.w3.org/1999/xlink"
   xmlns:sodipodi="http://sodipodi.sourceforge.net/DTD/sodipodi-0.dtd"
   xmlns:inkscape="http://www.inkscape.org/namespaces/inkscape"
   width="6.8000002cm"
   height="1.8037173cm"
   id="svg3510"
   version="1.1"
   inkscape:version="0.92.1 r15371"
   sodipodi:docname="osmocom.svg"
   inkscape:export-filename="/tmp/osmocom.png"
   inkscape:export-xdpi="1199.7889"
   inkscape:export-ydpi="1199.7889">
  <defs
     id="defs3512">
    <linearGradient
       id="linearGradient3374-5-7-7-0">
      <stop
         id="stop3376-8-6-4-2"
         style="stop-color:#729fcf;stop-opacity:1"
         offset="0" />
      <stop
         id="stop3378-6-7-4-9"
         style="stop-color:#729fcf;stop-opacity:0"
         offset="1" />
    </linearGradient>
    <linearGradient
       id="linearGradient3362-8-6-0-9">
      <stop
         id="stop3364-4-5-78-9"
         style="stop-color:#3465a4;stop-opacity:1"
         offset="0" />
      <stop
         id="stop3366-7-6-6-4"
         style="stop-color:#3465a4;stop-opacity:0"
         offset="1" />
    </linearGradient>
    <linearGradient
       x1="24.837126"
       y1="44.528019"
       x2="21.036427"
       y2="21.041553"
       id="linearGradient3991-3-88-5"
       xlink:href="#linearGradient7101-4-9-4-1"
       gradientUnits="userSpaceOnUse"
       gradientTransform="scale(1.0666667)" />
    <linearGradient
       id="linearGradient7101-4-9-4-1">
      <stop
         id="stop7103-0-4-31-0"
         style="stop-color:#babdb6;stop-opacity:1"
         offset="0" />
      <stop
         id="stop7105-6-8-4-3"
         style="stop-color:#ffffff;stop-opacity:1"
         offset="1" />
    </linearGradient>
    <linearGradient
       x1="39.06765"
       y1="28.5"
       x2="39.421204"
       y2="10.934953"
       id="linearGradient3993-1-9-7"
       xlink:href="#linearGradient6979-9-2-2-8"
       gradientUnits="userSpaceOnUse"
       gradientTransform="scale(1.0666667)" />
    <linearGradient
       id="linearGradient6979-9-2-2-8">
      <stop
         id="stop6981-9-9-0-8"
         style="stop-color:#888a85;stop-opacity:1"
         offset="0" />
      <stop
         id="stop6983-0-3-6-6"
         style="stop-color:#555753;stop-opacity:1"
         offset="1" />
    </linearGradient>
    <radialGradient
       cx="10.28125"
       cy="7.8249326"
       r="4.5250292"
       fx="10.28125"
       fy="7.8249326"
       id="radialGradient3995-7-4-0"
       xlink:href="#linearGradient3374-5-7-7-0"
       gradientUnits="userSpaceOnUse"
       gradientTransform="matrix(2.4161185,0,0,2.4451731,17.296385,56.099837)" />
    <linearGradient
       id="linearGradient3464">
      <stop
         id="stop3466"
         style="stop-color:#729fcf;stop-opacity:1"
         offset="0" />
      <stop
         id="stop3468"
         style="stop-color:#729fcf;stop-opacity:0"
         offset="1" />
    </linearGradient>
    <radialGradient
       cx="10.28125"
       cy="9.8424416"
       r="4.5250292"
       fx="10.28125"
       fy="9.8424416"
       id="radialGradient3997-3-3-4"
       xlink:href="#linearGradient3362-8-6-0-9"
       gradientUnits="userSpaceOnUse"
       gradientTransform="matrix(16.19232,0,0,5.4024269,-124.34023,30.521917)" />
    <linearGradient
       id="linearGradient3471">
      <stop
         id="stop3473"
         style="stop-color:#3465a4;stop-opacity:1"
         offset="0" />
      <stop
         id="stop3475"
         style="stop-color:#3465a4;stop-opacity:0"
         offset="1" />
    </linearGradient>
    <radialGradient
       cx="8.9057236"
       cy="1.7286602"
       r="1.9952321"
       fx="8.9057236"
       fy="1.7286602"
       id="radialGradient3999-1-4-6"
       xlink:href="#linearGradient7131-6-1-5-7"
       gradientUnits="userSpaceOnUse"
       gradientTransform="matrix(0.87560273,0,0,0.87793449,12.764013,0.73049853)" />
    <linearGradient
       id="linearGradient7131-6-1-5-7">
      <stop
         id="stop7133-4-5-2-6"
         style="stop-color:#ffffff;stop-opacity:1"
         offset="0" />
      <stop
         id="stop7135-6-9-5-0"
         style="stop-color:#d3d7cf;stop-opacity:1"
         offset="1" />
    </linearGradient>
    <radialGradient
       cx="8.3046875"
       cy="1.1256332"
       r="2.0507698"
       fx="8.3046875"
       fy="1.1256332"
       id="radialGradient4001-9-6-9"
       xlink:href="#linearGradient7153-0-1-9-75"
       gradientUnits="userSpaceOnUse"
       gradientTransform="matrix(5.2943491,0,0,5.2881329,-7.02204,58.291497)" />
    <linearGradient
       id="linearGradient7153-0-1-9-75">
      <stop
         id="stop7155-8-7-3-9"
         style="stop-color:#ffffff;stop-opacity:1"
         offset="0" />
      <stop
         id="stop7157-5-7-7-7"
         style="stop-color:#ffffff;stop-opacity:0"
         offset="1" />
    </linearGradient>
    <radialGradient
       r="4.5250292"
       fy="8.0709476"
       fx="10.28125"
       cy="8.0709476"
       cx="10.28125"
       gradientTransform="matrix(4.9499444,0,0,4.9510321,-11.38809,35.312197)"
       gradientUnits="userSpaceOnUse"
       id="radialGradient3637"
       xlink:href="#linearGradient3374-5-7-7-0"
       inkscape:collect="always" />
    <radialGradient
       r="4.5250292"
       fy="9.8424416"
       fx="10.28125"
       cy="9.8424416"
       cx="10.28125"
       gradientTransform="matrix(23.169932,0,0,7.6402677,-198.71238,8.843597)"
       gradientUnits="userSpaceOnUse"
       id="radialGradient3639"
       xlink:href="#linearGradient3362-8-6-0-9"
       inkscape:collect="always" />
    <linearGradient
       x1="24.837126"
       y1="44.528019"
       x2="21.036427"
       y2="21.041553"
       id="linearGradient3991-3-88-5-3"
       xlink:href="#linearGradient7101-4-9-4-1"
       gradientUnits="userSpaceOnUse" />
    <linearGradient
       x1="39.06765"
       y1="28.5"
       x2="39.421204"
       y2="10.934953"
       id="linearGradient3993-1-9-7-2"
       xlink:href="#linearGradient6979-9-2-2-8"
       gradientUnits="userSpaceOnUse" />
    <radialGradient
       cx="10.28125"
       cy="7.8249326"
       r="4.5250292"
       fx="10.28125"
       fy="7.8249326"
       id="radialGradient3995-7-4-0-2"
       xlink:href="#linearGradient3374-5-7-7-0"
       gradientUnits="userSpaceOnUse"
       gradientTransform="matrix(2.2651111,0,0,2.2923498,16.215361,52.593597)" />
    <radialGradient
       cx="10.28125"
       cy="9.8424416"
       r="4.5250292"
       fx="10.28125"
       fy="9.8424416"
       id="radialGradient3997-3-3-4-7"
       xlink:href="#linearGradient3362-8-6-0-9"
       gradientUnits="userSpaceOnUse"
       gradientTransform="matrix(15.1803,0,0,5.0647752,-116.56897,28.614297)" />
    <radialGradient
       cx="8.9057236"
       cy="1.7286602"
       r="1.9952321"
       fx="8.9057236"
       fy="1.7286602"
       id="radialGradient3999-1-4-6-0"
       xlink:href="#linearGradient7131-6-1-5-7"
       gradientUnits="userSpaceOnUse"
       gradientTransform="matrix(0.7375073,0,0,0.7201806,2.4345312,0.6617371)" />
    <radialGradient
       cx="8.3046875"
       cy="1.1256332"
       r="2.0507698"
       fx="8.3046875"
       fy="1.1256332"
       id="radialGradient4001-9-6-9-6"
       xlink:href="#linearGradient7153-0-1-9-75"
       gradientUnits="userSpaceOnUse"
       gradientTransform="matrix(5.2943491,0,0,5.2881329,-7.02204,58.291497)" />
  </defs>
  <sodipodi:namedview
     id="base"
     pagecolor="#ffffff"
     bordercolor="#666666"
     borderopacity="1.0"
     inkscape:pageopacity="1"
     inkscape:pageshadow="2"
     inkscape:zoom="5.5260119"
     inkscape:cx="132.28346"
     inkscape:cy="34.085995"
     inkscape:document-units="px"
     inkscape:current-layer="layer1"
     showgrid="false"
     fit-margin-top="5"
     fit-margin-left="5"
     fit-margin-right="5"
     fit-margin-bottom="5"
     inkscape:window-width="1918"
     inkscape:window-height="1051"
     inkscape:window-x="1920"
     inkscape:window-y="0"
     inkscape:window-maximized="0"
     units="cm" />
  <metadata
     id="metadata3515">
    <rdf:RDF>
      <cc:Work
         rdf:about="">
        <dc:format>image/svg+xml</dc:format>
        <dc:type
           rdf:resource="http://purl.org/dc/dcmitype/StillImage" />
        <dc:title></dc:title>
      </cc:Work>
    </rdf:RDF>
  </metadata>
  <g
     inkscape:label="picture"
     inkscape:groupmode="layer"
     id="layer1"
     transform="translate(-603.14163,-338.64808)">
    <g
       style="display:inline"
       id="g3732"
       transform="translate(596.56081,297.82964)">
      <path
         inkscape:connector-curvature="0"
         d="m 60.69548,67.493897 c 0,11.5675 -9.48796,20.9448 -21.19195,20.9448 -11.703989,0 -21.191949,-9.3773 -21.191949,-20.9448 0,-11.5674 9.48796,-20.9447 21.191949,-20.9447 11.70399,0 21.19195,9.3773 21.19195,20.9447 z"
         id="path3544"
         style="font-style:normal;font-variant:normal;font-weight:normal;font-stretch:normal;font-size:40px;font-family:'Yanone Kaffeesatz';-inkscape-font-specification:'Yanone Kaffeesatz';display:inline;opacity:0.8;fill:url(#radialGradient3637);fill-opacity:1;stroke:url(#radialGradient3639);stroke-width:1.46151388;stroke-linecap:round;stroke-linejoin:round;stroke-miterlimit:4;stroke-dashoffset:0;stroke-opacity:1" />
      <g
         transform="matrix(1.4615138,0,0,2.5218672,4.4272,31.547917)"
         id="g3546"
         style="font-style:normal;font-variant:normal;font-weight:normal;font-stretch:normal;font-size:40px;font-family:'Yanone Kaffeesatz';-inkscape-font-specification:'Yanone Kaffeesatz';display:inline;fill:#000000;fill-opacity:1;stroke:none">
        <path
           inkscape:connector-curvature="0"
           d="m 24,13 -8.1875,15.225744 c 11.445471,0 5.976697,0 16.34375,0 z m 0,4.96875 4,7.421875 h -7.953125 z"
           id="path3548"
           style="fill:url(#linearGradient3991-3-88-5-3);fill-opacity:1;fill-rule:evenodd;stroke:url(#linearGradient3993-1-9-7-2);stroke-width:1px;stroke-linecap:butt;stroke-linejoin:miter;stroke-opacity:1" />
        <path
           inkscape:connector-curvature="0"
           d="M 26.355979,42.522608 20,21.277828 13.644021,42.522609"
           transform="matrix(1,0,0,0.57953638,4,2.7937247)"
           id="path3550"
           style="fill:none;stroke:#ffffff;stroke-width:1.31358945px;stroke-linecap:round;stroke-linejoin:miter;stroke-opacity:1" />
      </g>
      <path
         inkscape:connector-curvature="0"
         d="m 53.38791,67.493897 c 0,7.6681 -6.21625,13.8844 -13.88438,13.8844 -7.66813,0 -13.884379,-6.2163 -13.884379,-13.8844 0,-7.6681 6.216249,-13.8844 13.884379,-13.8844 7.66813,0 13.88438,6.2163 13.88438,13.8844 z"
         id="path3552"
         style="font-style:normal;font-variant:normal;font-weight:normal;font-stretch:normal;font-size:40px;font-family:'Yanone Kaffeesatz';-inkscape-font-specification:'Yanone Kaffeesatz';display:inline;fill:url(#radialGradient3995-7-4-0-2);fill-opacity:1;stroke:url(#radialGradient3997-3-3-4-7);stroke-width:1.46151388;stroke-linecap:round;stroke-linejoin:round;stroke-miterlimit:4;stroke-dashoffset:0;stroke-opacity:1" />
      <g
         transform="matrix(3.2735609,0,0,3.2593101,-24.33091,59.292917)"
         id="g3554"
         style="font-style:normal;font-variant:normal;font-weight:normal;font-stretch:normal;font-size:40px;font-family:'Yanone Kaffeesatz';-inkscape-font-specification:'Yanone Kaffeesatz';display:inline;fill:#000000;fill-opacity:1;stroke:none">
        <path
           inkscape:connector-curvature="0"
           d="M 11,2.25 C 11,3.2164983 10.195512,4 9.203125,4 8.2107383,4 7.40625,3.2164983 7.40625,2.25 7.40625,1.2835017 8.2107383,0.5 9.203125,0.5 10.195512,0.5 11,1.2835017 11,2.25 Z"
           transform="matrix(1.1130433,0,0,1.1428572,9.2565233,-0.07142864)"
           id="path3556"
           style="fill:url(#radialGradient3999-1-4-6-0);fill-opacity:1;stroke:#555753;stroke-width:0.39671427;stroke-linecap:round;stroke-linejoin:round;stroke-miterlimit:4;stroke-dashoffset:0;stroke-opacity:1" />
        <path
           inkscape:connector-curvature="0"
           d="M 20,1.5 C 20,1.7761424 19.776142,2 19.5,2 19.223858,2 19,1.7761424 19,1.5 19,1.2238576 19.223858,1 19.5,1 19.776142,1 20,1.2238576 20,1.5 Z"
           transform="matrix(1.8125,0,0,1.8125,-16.465404,-0.9288198)"
           id="path3558"
           style="fill:#ffffff;fill-opacity:1;stroke:none" />
      </g>
      <path
         inkscape:connector-curvature="0"
         d="m 44.61882,67.441097 c 0,2.8124 -2.2902,5.0924 -5.1153,5.0924 -2.8251,0 -5.1153,-2.28 -5.1153,-5.0924 0,-2.8125 2.2902,-5.0924 5.1153,-5.0924 2.8251,0 5.1153,2.2799 5.1153,5.0924 z"
         id="path3560"
         style="font-style:normal;font-variant:normal;font-weight:normal;font-stretch:normal;font-size:40px;font-family:'Yanone Kaffeesatz';-inkscape-font-specification:'Yanone Kaffeesatz';display:inline;fill:none;stroke:url(#radialGradient4001-9-6-9-6);stroke-width:1.46151364;stroke-linecap:round;stroke-linejoin:round;stroke-miterlimit:4;stroke-dashoffset:0;stroke-opacity:1" />
    </g>
  </g>
  <g
     inkscape:groupmode="layer"
     id="layer2"
     inkscape:label="m"
     transform="translate(-229.95452,-38.61832)">
    <path
       inkscape:connector-curvature="0"
       style="font-style:normal;font-variant:normal;font-weight:normal;font-stretch:normal;font-size:64px;font-family:'Yanone Kaffeesatz';-inkscape-font-specification:'Andale Mono';writing-mode:lr-tb;display:inline;fill:#a00000;fill-opacity:1;stroke:#a00000;stroke-opacity:1"
       d="m 346.97991,67.17887 -4.33398,7.45898 -1.98243,-3.41211 0.5879,26.875 c 1.89839,-1.3259 2.59645,0.72087 2.625,-0.30273 l 0.69531,-24.91016 c 1.472,-0.768 2.94356,-1.08789 4.35156,-1.08789 2.56,0 3.57662,0.89522 3.64063,3.19922 l 0.2832,23.0332 c 1.7756,-0.5051 3.37935,0.38783 3.38672,-0.17187 l 0.3164,-23.96094 c 1.408,-0.896 3.51042,-2.03711 4.98242,-2.03711 2.56001,0 3.08176,1.28202 3.13477,4.35352 l 0.38477,22.27539 c 1.20393,-0.1894 2.91393,0.60724 2.92968,-0.19336 l 0.44141,-22.46485 c 0.11329,-5.7589 0.65975,-8.57812 -5.74023,-8.57812 -2.624,0 -5.6951,0.76837 -7.8711,1.98437 -1.216,-1.2799 -3.00776,-1.98437 -5.75976,-1.98437 -0.75024,0 -1.42833,-0.0352 -2.07227,-0.0762 z"
       id="path3959-9-26-3" />
    <path
       d="m 342.64542,74.6378 -4.50686,-7.7536 -4.50687,-7.7537 h 9.01373 9.01373 l -4.50686,7.7537 z"
       id="path3981-0-4-1"
       style="font-style:normal;font-variant:normal;font-weight:normal;font-stretch:normal;font-size:40px;font-family:'Yanone Kaffeesatz';-inkscape-font-specification:'Yanone Kaffeesatz';display:inline;fill:none;fill-opacity:1;stroke:#e19c9c;stroke-width:5;stroke-linecap:round;stroke-linejoin:round;stroke-miterlimit:4;stroke-dashoffset:0;stroke-opacity:1"
       inkscape:connector-curvature="0" />
    <path
       d="M 366.49573,97.4891 V 69.7656"
       id="path3983-4-9-2"
       style="font-style:normal;font-variant:normal;font-weight:normal;font-stretch:normal;font-size:40px;font-family:'Yanone Kaffeesatz';-inkscape-font-specification:'Yanone Kaffeesatz';display:inline;fill:none;stroke:#e19c9c;stroke-width:5.02204847;stroke-linecap:round;stroke-linejoin:round;stroke-miterlimit:4;stroke-dasharray:none;stroke-opacity:1"
       inkscape:connector-curvature="0" />
    <path
       d="M 354.52041,97.4774 V 77.6559"
       id="path3985-4-0-9"
       style="font-style:normal;font-variant:normal;font-weight:normal;font-stretch:normal;font-size:40px;font-family:'Yanone Kaffeesatz';-inkscape-font-specification:'Yanone Kaffeesatz';display:inline;fill:none;stroke:#e19c9c;stroke-width:5;stroke-linecap:round;stroke-linejoin:round;stroke-miterlimit:4;stroke-dasharray:none;stroke-opacity:1"
       inkscape:connector-curvature="0" />
    <path
       d="m 342.64478,97.6511 -0.008,-11.7527"
       id="path3951-0-4-91-2"
       style="font-style:normal;font-variant:normal;font-weight:normal;font-stretch:normal;font-size:40px;font-family:'Yanone Kaffeesatz';-inkscape-font-specification:'Yanone Kaffeesatz';display:inline;fill:none;stroke:#e19c9c;stroke-width:4.66915703;stroke-linecap:round;stroke-linejoin:round;stroke-miterlimit:4;stroke-dasharray:none;stroke-opacity:1"
       inkscape:connector-curvature="0" />
  </g>
  <g
     inkscape:groupmode="layer"
     id="layer3"
     inkscape:label="text"
     transform="translate(-229.95452,-38.61832)">
    <g
       inkscape:groupmode="layer"
       id="layer4"
       inkscape:label="font"
       style="display:none">
      <text
         transform="translate(-373.18711,-300.02976)"
         xml:space="preserve"
         style="font-style:normal;font-weight:normal;font-size:64px;line-height:125%;font-family:Sans;letter-spacing:0.14px;word-spacing:0px;display:inline;fill:#a00000;fill-opacity:1;stroke:none"
         x="655.99414"
         y="399.39423"
         id="text3743"><tspan
           sodipodi:role="line"
           id="tspan3745"
           x="655.99414"
           y="399.39423"
           style="font-style:normal;font-variant:normal;font-weight:normal;font-stretch:normal;font-size:64px;font-family:'Yanone Kaffeesatz';-inkscape-font-specification:'Yanone Kaffeesatz';letter-spacing:0.14px;fill:#a00000;fill-opacity:1"
           dx="0 0">os</tspan></text>
      <text
         transform="translate(-373.18711,-300.02976)"
         xml:space="preserve"
         style="font-style:normal;font-weight:normal;font-size:40px;line-height:125%;font-family:Sans;letter-spacing:0px;word-spacing:0px;display:inline;fill:#a00000;fill-opacity:1;stroke:none"
         x="741.64075"
         y="399.39423"
         id="text3760"><tspan
           sodipodi:role="line"
           id="tspan3762"
           x="741.64075"
           y="399.39423"
           style="font-style:normal;font-variant:normal;font-weight:normal;font-stretch:normal;font-size:64px;font-family:'Yanone Kaffeesatz';-inkscape-font-specification:'Yanone Kaffeesatz';fill:#a00000;fill-opacity:1">ocom</tspan></text>
    </g>
    <g
       inkscape:groupmode="layer"
       id="layer5"
       inkscape:label="path"
       style="display:inline">
      <g
         aria-label="os"
         transform="translate(-367.18711,-300.02976)"
         style="font-style:normal;font-weight:normal;font-size:64px;line-height:125%;font-family:Sans;letter-spacing:0.14px;word-spacing:0px;display:inline;fill:#a00000;fill-opacity:1;stroke:none"
         id="text4639">
        <path
           d="m 657.53014,383.39423 c 0,14.4 3.456,16.64 10.048,16.64 6.848,0 10.496,-4.928 10.496,-16.832 0,-12.992 -3.2,-16.448 -9.92,-16.448 -6.72,0 -10.624,4.928 -10.624,16.64 z m 5.632,0.128 c 0,-9.984 1.984,-12.224 4.8,-12.224 3.008,0 4.48,1.792 4.48,11.968 0,9.984 -1.984,12.352 -4.736,12.352 -2.944,0 -4.544,-1.536 -4.544,-12.096 z"
           style="font-style:normal;font-variant:normal;font-weight:normal;font-stretch:normal;font-size:64px;font-family:'Yanone Kaffeesatz';-inkscape-font-specification:'Yanone Kaffeesatz';letter-spacing:0.14px;fill:#a00000;fill-opacity:1"
           id="path4649"
           inkscape:connector-curvature="0" />
        <path
           d="m 692.05014,366.75423 c -7.168,0 -10.432,3.072 -10.432,7.552 0,2.112 0.768,4.416 3.648,6.784 l 6.208,5.312 c 1.92,1.728 2.56,3.264 2.56,4.992 0,2.56 -1.92,3.968 -5.184,3.968 -2.496,0 -4.544,-0.512 -6.4,-1.6 -0.704,1.152 -0.896,2.24 -0.896,3.008 0,2.24 3.264,3.264 7.808,3.264 6.528,0 10.56,-3.2 10.56,-8.896 0,-3.2 -1.024,-5.312 -3.776,-8 l -5.952,-4.8 c -2.176,-1.792 -2.56,-2.816 -2.56,-3.968 0,-1.984 2.048,-3.072 5.056,-3.072 2.432,0 4.352,0.512 6.272,1.664 0.704,-0.768 1.152,-1.792 1.152,-2.624 0,-1.28 -1.472,-3.584 -8.064,-3.584 z"
           style="font-style:normal;font-variant:normal;font-weight:normal;font-stretch:normal;font-size:64px;font-family:'Yanone Kaffeesatz';-inkscape-font-specification:'Yanone Kaffeesatz';letter-spacing:0.14px;fill:#a00000;fill-opacity:1"
           id="path4651"
           inkscape:connector-curvature="0" />
      </g>
      <g
         aria-label="ocom"
         transform="translate(-367.18711,-300.02976)"
         style="font-style:normal;font-weight:normal;font-size:40px;line-height:125%;font-family:Sans;letter-spacing:0px;word-spacing:0px;display:inline;fill:#a00000;fill-opacity:1;stroke:none"
         id="text4643">
        <path
           d="m 743.17675,383.39423 c 0,14.4 3.456,16.64 10.048,16.64 6.848,0 10.496,-4.928 10.496,-16.832 0,-12.992 -3.2,-16.448 -9.92,-16.448 -6.72,0 -10.624,4.928 -10.624,16.64 z m 5.632,0.128 c 0,-9.984 1.984,-12.224 4.8,-12.224 3.008,0 4.48,1.792 4.48,11.968 0,9.984 -1.984,12.352 -4.736,12.352 -2.944,0 -4.544,-1.536 -4.544,-12.096 z"
           style="font-style:normal;font-variant:normal;font-weight:normal;font-stretch:normal;font-size:64px;font-family:'Yanone Kaffeesatz';-inkscape-font-specification:'Yanone Kaffeesatz';fill:#a00000;fill-opacity:1"
           id="path4654"
           inkscape:connector-curvature="0" />
        <path
           d="m 783.95675,369.63423 c 0,-1.664 -2.368,-2.88 -5.312,-2.88 -5.312,0 -11.52,1.984 -11.52,17.344 0,13.504 3.456,15.936 9.536,15.936 4.224,0 7.168,-1.536 7.168,-3.264 0,-0.832 -0.192,-1.664 -0.512,-2.816 -1.088,0.704 -3.008,1.472 -5.056,1.472 -3.904,0 -5.696,-2.304 -5.696,-11.328 0,-11.392 3.328,-12.736 6.336,-12.736 1.728,0 3.456,0.576 4.48,1.152 0.448,-1.088 0.576,-2.176 0.576,-2.88 z"
           style="font-style:normal;font-variant:normal;font-weight:normal;font-stretch:normal;font-size:64px;font-family:'Yanone Kaffeesatz';-inkscape-font-specification:'Yanone Kaffeesatz';fill:#a00000;fill-opacity:1"
           id="path4656"
           inkscape:connector-curvature="0" />
        <path
           d="m 785.92675,383.39423 c 0,14.4 3.456,16.64 10.048,16.64 6.848,0 10.496,-4.928 10.496,-16.832 0,-12.992 -3.2,-16.448 -9.92,-16.448 -6.72,0 -10.624,4.928 -10.624,16.64 z m 5.632,0.128 c 0,-9.984 1.984,-12.224 4.8,-12.224 3.008,0 4.48,1.792 4.48,11.968 0,9.984 -1.984,12.352 -4.736,12.352 -2.944,0 -4.544,-1.536 -4.544,-12.096 z"
           style="font-style:normal;font-variant:normal;font-weight:normal;font-stretch:normal;font-size:64px;font-family:'Yanone Kaffeesatz';-inkscape-font-specification:'Yanone Kaffeesatz';fill:#a00000;fill-opacity:1"
           id="path4658"
           inkscape:connector-curvature="0" />
        <path
           d="m 823.50675,399.39423 c 5.248,0 5.184,0 5.184,-1.024 v -25.792 c 1.408,-0.896 2.816,-1.216 4.288,-1.216 2.56,0 3.136,1.28 3.136,4.352 v 23.68 c 4.992,0 5.184,0 5.184,-1.024 v -22.592 c 0,-5.76 -0.768,-9.024 -7.168,-9.024 -2.624,0 -5.696,0.768 -7.872,1.984 -1.216,-1.28 -3.008,-1.984 -5.76,-1.984 -3.52,0 -6.848,0.832 -9.664,2.112 v 30.528 c 4.992,0 5.184,0 5.184,-1.024 v -25.984 c 1.472,-0.768 2.944,-1.088 4.352,-1.088 2.56,0 3.072,0.896 3.136,3.2 z"
           style="font-style:normal;font-variant:normal;font-weight:normal;font-stretch:normal;font-size:64px;font-family:'Yanone Kaffeesatz';-inkscape-font-specification:'Yanone Kaffeesatz';fill:#a00000;fill-opacity:1"
           id="path4660"
           inkscape:connector-curvature="0" />
      </g>
    </g>
  </g>
</svg>
